<?xml version="1.0" encoding="UTF-8" standalone="no"?>
<svg
   width="119.67387"
   zoomAndPan="magnify"
   viewBox="0 0 89.7554 51.616974"
   height="68.822632"
   preserveAspectRatio="xMidYMid"
   version="1.0"
   id="svg35849"
   xmlns="http://www.w3.org/2000/svg"
   xmlns:svg="http://www.w3.org/2000/svg">
  <metadata
     id="metadata1">
    <ContainsAiGeneratedContent>Yes</ContainsAiGeneratedContent>
  </metadata>
  <defs
     id="defs387">
    <clipPath
       id="da9afd3470">
      <path
         d="m 177,844 h 90.61328 v 52 H 177 Z m 0,0"
         clip-rule="nonzero"
         id="path193" />
    </clipPath>
  </defs>
  <g
     clip-path="url(#da9afd3470)"
     id="g9356"
     transform="translate(-177.30333,-844.33887)">
    <path
       fill="#002199"
       d="m 212.41406,848.35156 v -0.0156 h -0.004 c 0,0 0,0.004 0.004,0.0156 z m 7.54297,34.78516 c 0.20313,0.0273 0.43359,0.0508 0.6875,0.0469 -0.082,-0.28515 -0.30469,-0.61328 -0.61719,-0.88672 -0.33984,-0.3125 -0.74609,-0.55468 -1.11328,-0.66406 -0.37109,-0.11328 -0.62109,-0.0703 -0.76172,0.0937 -0.0391,0.0391 -0.0625,0.0899 -0.0859,0.13281 0.39062,0.3086 0.76562,0.60547 1.13671,0.85157 0.25391,0.17968 0.52344,0.32812 0.75391,0.42578 z m 1.57031,-23.98438 c 0.0195,-0.28515 -0.11328,-0.75781 -0.30859,-1.21093 -0.17578,-0.47657 -0.44922,-0.90625 -0.66016,-1.57422 -0.0781,-0.27344 -0.16015,-0.53907 -0.24218,-0.82032 -0.0586,-0.32031 -0.11329,-0.63671 -0.17188,-0.95703 -0.0781,-0.61718 -0.12891,-1.20312 -0.22266,-1.7539 l -0.0273,-0.21875 v -0.0234 l -0.0312,-0.10547 -0.0703,-0.22266 c -0.0234,-0.0781 -0.0469,-0.0742 -0.0664,-0.11718 -0.0195,-0.0312 -0.0352,-0.0664 -0.0547,-0.0977 l -0.0977,-0.12891 c -0.0586,-0.0937 -0.15235,-0.16406 -0.23438,-0.24218 -0.36718,-0.32422 -0.85547,-0.57032 -1.42187,-0.85938 -0.53906,-0.28906 -1.07422,-0.60937 -1.56641,-0.88672 -0.99219,-0.5625 -1.96875,-1.08203 -2.88281,-1.30468 -0.89063,-0.21485 -1.03125,-0.11719 -1.84766,0.1875 -0.1914,0.0703 -0.39453,0.20703 -0.58593,0.29687 -0.76172,0.44531 -1.42579,1 -2.01172,1.53516 -1.17969,1.0625 -2.08594,2.03515 -2.77344,2.64062 -0.67969,0.625 -1.12109,0.90625 -1.1875,0.83203 -0.0703,-0.0781 0.22266,-0.48437 0.76562,-1.21093 0.55469,-0.72266 1.33204,-1.78516 2.46875,-3.00391 0.57422,-0.60547 1.2461,-1.24609 2.10938,-1.82031 0.23047,-0.12891 0.42969,-0.27344 0.70312,-0.39453 0.13282,-0.0625 0.26172,-0.12891 0.39844,-0.1836 0.12891,-0.0508 0.2461,-0.0859 0.36719,-0.1289 l 0.18359,-0.0586 0.0469,-0.0156 0.043,-0.008 0.0625,-0.0156 0.125,-0.0195 c 0.16797,-0.0391 0.32812,-0.043 0.49218,-0.0469 0.32422,-0.008 0.63282,0.0352 0.92969,0.0937 1.19531,0.26172 2.2461,0.80469 3.29297,1.36719 0.5,0.27734 0.96875,0.54688 1.46484,0.80859 0.004,-0.1289 0.004,-0.26562 -0.004,-0.39453 -0.52344,-1.00781 -1.97656,-1.55078 -2.94531,-1.98828 -0.98438,-0.4375 -2,-0.82422 -2.96485,-1.30078 -2.32422,-0.16016 -4.24609,2.20313 -5.83203,3.61719 -1.55859,1.38672 -3.32422,2.21094 -5.05469,3.33203 -2.49609,1.61719 -2.77734,4.01953 -4.23437,6.36328 -1.21875,1.94531 -2.53125,3.98438 -4.10547,5.66797 -1.89063,2.01953 -4.13672,3.83594 -5.60938,6.21094 -1.46484,2.35937 -2.55859,4.88281 -3.64453,7.4414 -1.14062,2.69532 -2.1914,5.34375 -3.05078,8.14844 -0.57422,1.85938 -0.95703,3.85547 -2.1875,5.40234 -0.004,0.0117 -0.0156,0.0117 -0.0234,0.0234 -0.10546,0.32031 -0.0742,0.56641 0.28125,0.67188 0.94922,0.27343 1.92188,0.42968 2.89844,0.61328 2.82422,0.54687 5.53516,1.33203 8.41406,1.18359 0.16016,-2.375 0.9961,-4.42578 1.89063,-6.66406 0.72266,-1.78906 1.28516,-3.74219 2.16797,-5.49219 -0.0898,0.0234 -0.1836,0.043 -0.26563,0.0742 -0.15625,0.0312 -0.28125,0.125 -0.42187,0.17969 l -0.20703,0.0937 -0.0469,0.0234 c -0.0117,0.008 -0.10937,0.0781 -0.10937,0.0781 -0.29297,0.21875 -0.46875,0.38281 -0.6836,0.60547 -0.41406,0.4375 -0.75781,0.90625 -1.05859,1.375 -0.58984,0.93359 -1.01953,1.8125 -1.37891,2.52734 -0.70312,1.44922 -1.15625,2.23828 -1.26562,2.1875 -0.0937,-0.0508 0.15625,-0.89843 0.68359,-2.42968 0.27344,-0.76172 0.6211,-1.70313 1.17969,-2.7461 0.28125,-0.52344 0.62109,-1.07031 1.07031,-1.60547 0.21875,-0.26172 0.52344,-0.5625 0.76953,-0.76172 l 0.0977,-0.0898 0.0234,-0.0156 c 0,-0.008 0.0703,-0.0547 0.0703,-0.0547 l 0.0117,-0.004 0.0625,-0.0351 0.26172,-0.14454 c 0.17578,-0.0859 0.34765,-0.20703 0.54297,-0.26562 0.76171,-0.30469 1.57812,-0.39453 2.39062,-0.46094 0.39453,-0.0195 0.80078,-0.0391 1.21094,-0.0664 0.20703,0 0.39062,-0.0234 0.57422,-0.0352 0.1875,-0.0156 0.375,-0.0312 0.59375,-0.0742 l 0.3125,-0.0508 0.1289,-0.0195 c 0.004,-0.004 0.0234,-0.0117 0.0234,-0.0117 l 0.0391,-0.008 0.0742,-0.0195 c 0.20703,-0.0547 0.41406,-0.10547 0.6211,-0.16407 0.41406,-0.10547 0.83203,-0.21875 1.26562,-0.34765 0.85938,-0.2461 1.74609,-0.53125 2.69922,-0.76953 0.24219,-0.0586 0.48047,-0.11719 0.72266,-0.17579 0.24218,-0.0547 0.5,-0.0859 0.75781,-0.13281 0.2539,-0.0391 0.50781,-0.0898 0.76562,-0.11328 0.26563,-0.0195 0.52735,-0.0273 0.79688,-0.043 0.53125,-0.0508 1.08984,0.0156 1.64453,0.0664 0.58984,0.0273 1.05469,0.17187 1.57031,0.27344 l 0.37891,0.082 0.19531,0.043 0.22266,0.0547 c 0.24218,0.0586 0.48047,0.125 0.73437,0.1836 0.51172,0.10547 1.03125,0.20703 1.55078,0.32031 1.0586,0.22656 2.17969,0.48047 3.30078,0.98828 l 0.3711,0.17578 0.27344,0.13672 0.0508,0.0352 0.11718,0.0703 c 0.13672,0.0937 0.26954,0.17969 0.39063,0.26953 0.0117,-0.0312 0.0234,-0.0586 0.043,-0.0937 0.0977,-0.21484 0.33203,-0.41797 0.60937,-0.5 0.26563,-0.0898 0.55469,-0.0742 0.81641,-0.0234 0.53516,0.11719 1.04297,0.39453 1.48437,0.78907 0.20704,0.1914 0.38282,0.41406 0.52735,0.64843 0,-0.0859 0,-0.17968 -0.0156,-0.27734 -0.0391,-0.36328 -0.19531,-0.77344 -0.39062,-1.16406 -0.40625,-0.79688 -0.97266,-1.53907 -1.57813,-2.21094 -0.60547,-0.67188 -1.26172,-1.29297 -1.92578,-1.79688 -0.082,-0.0664 -0.16406,-0.12109 -0.24609,-0.17968 -0.0898,-0.0586 -0.125,-0.0859 -0.23047,-0.14453 -0.15625,-0.0937 -0.37891,-0.1836 -0.55859,-0.27735 -0.39063,-0.17969 -0.76954,-0.35937 -1.14063,-0.53906 -1.51953,-0.65625 -3.0625,-1.26563 -4.32422,-1.92188 -0.69922,-0.32812 -1.33203,-0.78125 -1.82422,-1.28125 -0.49218,-0.50781 -0.86328,-1.05078 -1.15625,-1.57812 -0.45312,-0.8125 -0.73047,-1.57813 -0.94531,-2.24609 -0.004,0.42968 0.008,0.80078 0.0312,1.08593 0.0273,0.49219 0.0508,0.77735 -0.0508,0.82032 -0.0859,0.0391 -0.29688,-0.19532 -0.50781,-0.69141 -0.21875,-0.48828 -0.38672,-1.25391 -0.47266,-2.17969 -0.0469,-0.46875 -0.0703,-0.98047 -0.0781,-1.51562 -0.004,-0.13282 -0.004,-0.26953 -0.0117,-0.40625 0,-0.14063 0,-0.28125 0,-0.4336 0.008,-0.30078 0.008,-0.61328 0.0547,-0.93359 0.0195,-0.18359 0.0469,-0.37109 0.0781,-0.55859 -0.51172,0.98437 -0.83594,1.6914 -0.98828,1.65625 -0.22656,-0.043 -0.0156,-1.64454 0.97656,-3.31641 0.34375,-0.58203 0.73828,-1.09375 1.125,-1.47656 0.0469,-0.0781 0.0898,-0.16016 0.13281,-0.23828 0.1836,-0.32422 0.40625,-0.63282 0.60157,-0.9336 0.10156,-0.13672 0.20312,-0.27344 0.30468,-0.39844 l 0.15625,-0.19921 0.0742,-0.0977 0.0547,-0.0664 0.0469,-0.0508 c 0.2461,-0.25 0.48829,-0.5 0.72657,-0.74219 0.23437,-0.24609 0.48828,-0.41796 0.72656,-0.625 0.49219,-0.40625 0.88672,-0.70703 1.30078,-1.02734 0.39063,-0.35937 0.78125,-0.6875 1.09766,-0.99219 0.1914,-0.17578 0.39453,-0.34765 0.70312,-0.46484 0.0352,-0.0117 0.0742,-0.0156 0.11328,-0.0273 -0.17968,-0.3125 -0.28906,-0.64454 -0.30078,-0.94922 -0.0195,-0.4375 0.10938,-0.75391 0.26563,-0.95313 0.14453,-0.16406 0.27343,-0.20312 0.36718,-0.17187 0.0977,0.0312 0.13282,0.17578 0.17188,0.35547 0.043,0.14453 0.0977,0.35937 0.20703,0.55859 0.20703,0.39062 0.72266,0.87109 1.46094,1.16016 0.74219,0.29296 1.40234,0.27343 1.8164,0.0937 0.44141,-0.17969 0.72266,-0.51954 0.92188,-0.4375 0.0898,0.0312 0.14844,0.15625 0.14062,0.38281 -0.0273,0.21875 -0.125,0.54297 -0.41406,0.86328 -0.125,0.14062 -0.30078,0.27344 -0.49609,0.38672 0.004,0.0469 0.004,0.0937 0.0117,0.14844 0.34765,0.5039 0.75781,1.0664 1.25,1.59375 0.60156,0.65625 1.23828,1.10937 1.80859,1.39453 0.33203,0.10547 0.6875,0.18359 0.96484,0.16406 0.0781,-0.008 0.14063,-0.0195 0.19532,-0.0352 0.0195,-0.0117 0.043,-0.0195 0.0586,-0.0312 0.004,-0.008 0.0117,-0.0117 0.0195,-0.0156 0.0391,-0.0391 0.0859,-0.0898 0.11328,-0.11719 -0.0156,-0.008 -0.0273,-0.004 -0.0273,0.004 0.004,-0.0352 0.0273,-0.0781 0.0273,-0.15235 z m 4.81641,22.70703 c -0.0234,-0.043 -0.0547,-0.0937 -0.0859,-0.13281 -0.14062,-0.16406 -0.39062,-0.20703 -0.76953,-0.0937 -0.35937,0.10938 -0.76562,0.35156 -1.11328,0.66406 -0.30469,0.27344 -0.52734,0.60157 -0.60938,0.88672 0.25391,0.004 0.48438,-0.0195 0.6836,-0.0469 0.23828,-0.0977 0.5039,-0.2461 0.75781,-0.42578 0.37109,-0.2461 0.74219,-0.54297 1.13672,-0.85157 z m 11.22266,-14.76171 c -0.0156,-0.26172 -0.0352,-0.53516 -0.0586,-0.82422 -0.0117,-0.13282 -0.0234,-0.26563 -0.0312,-0.40625 -0.0117,-0.13672 -0.0234,-0.26953 -0.0391,-0.41016 -0.0195,-0.26172 -0.0391,-0.53516 -0.10156,-0.80859 -0.1836,-1.09766 -0.59375,-2.25782 -1.25391,-3.375 -0.15625,-0.28516 -0.33594,-0.53516 -0.5,-0.79688 -0.0977,-0.14062 -0.19531,-0.26562 -0.29297,-0.40625 l -0.14844,-0.19531 -0.0742,-0.10156 c -0.004,-0.004 -0.0156,-0.0195 -0.0156,-0.0274 l -0.043,-0.0391 c -0.19922,-0.22266 -0.39844,-0.44531 -0.59375,-0.65625 -0.1914,-0.21875 -0.4375,-0.41016 -0.64062,-0.61328 -0.44922,-0.41797 -0.87891,-0.81641 -1.28125,-1.19531 -0.35547,-0.39844 -0.6875,-0.75391 -0.98047,-1.1211 -0.11719,-0.15234 -0.24219,-0.28125 -0.31641,-0.32422 -0.0664,-0.043 -0.0664,-0.0664 -0.19531,-0.0312 -0.24609,0.0781 -0.5625,0.28125 -0.82422,0.3711 -0.0742,0.0234 -0.14062,0.0469 -0.20703,0.0625 -0.0547,0.0234 -0.10547,0.0508 -0.16406,0.0742 -0.39844,0.15625 -0.81641,0.23828 -1.22266,0.23828 -0.26172,0.73828 -0.71875,1.61719 -1.46875,2.42969 -0.46094,0.49218 -0.99219,0.89843 -1.53516,1.17187 -0.39453,0.19531 -0.79296,0.3125 -1.15234,0.37109 -0.34766,0.1211 -0.73437,0.22266 -1.19922,0.23047 -0.30469,-0.0117 -0.65234,-0.0508 -1.02344,-0.33203 -0.37109,0.28125 -0.71484,0.32031 -1.01562,0.33203 -0.46875,-0.008 -0.85547,-0.10937 -1.20313,-0.23047 -0.36328,-0.0586 -0.75781,-0.17578 -1.15234,-0.37109 -0.54297,-0.27344 -1.07812,-0.67969 -1.53516,-1.17187 -0.75,-0.8125 -1.20703,-1.69141 -1.47656,-2.42969 -0.40234,0 -0.8164,-0.082 -1.21875,-0.23828 -0.0508,-0.0234 -0.10547,-0.0508 -0.16015,-0.0742 -0.0664,-0.0234 -0.13672,-0.0391 -0.21094,-0.0625 -0.25391,-0.0898 -0.57422,-0.29297 -0.82031,-0.3711 -0.12891,-0.0352 -0.12891,-0.0117 -0.19532,0.0312 -0.0742,0.043 -0.19922,0.17188 -0.3164,0.32422 -0.29688,0.36719 -0.625,0.72266 -0.98828,1.1211 -0.39844,0.3789 -0.82032,0.77734 -1.27344,1.19531 -0.20313,0.20312 -0.45313,0.39453 -0.64063,0.61328 -0.19531,0.21094 -0.39062,0.43359 -0.59375,0.65625 l -0.0352,0.0312 c 0,0 -0.0156,0.0312 -0.0234,0.0352 l -0.0742,0.10156 -0.14844,0.19531 c -0.0977,0.14063 -0.19531,0.26563 -0.29687,0.40625 -0.16016,0.26172 -0.34375,0.51172 -0.50391,0.79688 -0.64844,1.11718 -1.0625,2.27734 -1.2539,3.375 -0.0547,0.27343 -0.0742,0.54687 -0.0977,0.80859 -0.0117,0.14063 -0.0234,0.27344 -0.0352,0.41016 -0.008,0.14062 -0.0234,0.27343 -0.0312,0.40625 -0.0234,0.28906 -0.043,0.5625 -0.0586,0.82422 0.10547,0.25781 0.22266,0.54296 0.35547,0.85937 0.3125,0.72656 0.6914,1.63281 1.29297,2.53906 0.29687,0.45703 0.66015,0.90235 1.09765,1.30469 0.44532,0.39844 0.96485,0.73047 1.57813,0.98828 1.33594,0.59766 2.76172,1.08985 4.37109,1.71875 0.39844,0.16406 0.80078,0.34766 1.21094,0.52735 0.21484,0.0976 0.40234,0.16406 0.63672,0.28906 0.0937,0.0469 0.24609,0.13672 0.34375,0.19922 0.10547,0.0703 0.20703,0.14062 0.30859,0.21093 0.78516,0.56641 1.5,1.21485 2.1875,1.94141 0.67969,0.73047 1.32813,1.53125 1.85156,2.50781 0.043,0.082 0.0859,0.17188 0.125,0.25782 0.043,-0.0859 0.082,-0.17579 0.125,-0.25782 0.51954,-0.97656 1.17579,-1.77734 1.85547,-2.50781 0.6875,-0.72656 1.39844,-1.375 2.1875,-1.94141 0.10157,-0.0703 0.20313,-0.14062 0.3086,-0.21093 0.0977,-0.0625 0.25,-0.15235 0.34375,-0.19922 0.23047,-0.125 0.41797,-0.19141 0.6289,-0.28906 0.41797,-0.17969 0.82032,-0.36329 1.21875,-0.52735 1.61328,-0.6289 3.03516,-1.12109 4.36328,-1.71875 0.6211,-0.25781 1.13672,-0.58984 1.58594,-0.98828 0.4375,-0.40234 0.79688,-0.84766 1.09766,-1.30469 0.60156,-0.90625 0.97656,-1.8125 1.29297,-2.53906 0.13281,-0.31641 0.24609,-0.60156 0.35547,-0.85937 z m 25.23437,26.12109 c 0.25,-0.043 2.96484,-0.67188 2.97656,-0.64453 -0.12109,-0.28125 -0.26172,-0.55078 -0.41406,-0.82031 -1.09375,-1.50782 -1.49609,-3.40235 -2.02344,-5.17188 -0.83984,-2.80859 -1.91406,-5.45312 -3.05468,-8.14844 -1.06641,-2.52343 -2.08594,-5.17187 -3.64063,-7.4414 -1.60547,-2.35157 -3.77344,-4.08203 -5.60937,-6.21094 -1.48047,-1.71875 -3.04297,-3.65625 -4.10157,-5.66797 -1.22656,-2.3125 -1.82031,-4.94141 -4.23828,-6.36328 -1.76953,-1.03906 -3.52734,-1.9375 -5.05469,-3.33203 -1.55859,-1.42578 -3.53125,-3.77735 -5.83203,-3.61719 -1.0664,0.52734 -2.18359,0.92578 -3.2539,1.4375 -0.90235,0.42188 -2.17578,0.91016 -2.66016,1.85156 -0.004,0.12891 -0.004,0.26563 0,0.39453 0.49609,-0.26171 0.96484,-0.53125 1.46484,-0.80859 1.04688,-0.5625 2.09766,-1.10547 3.28516,-1.36719 0.30469,-0.0586 0.61328,-0.10156 0.9375,-0.0937 0.16406,0.004 0.32422,0.008 0.49219,0.0469 l 0.12109,0.0195 0.0625,0.0156 0.0352,0.004 0.0586,0.0195 0.1836,0.0586 c 0.12109,0.043 0.23828,0.0781 0.36328,0.1289 0.13281,0.0547 0.26953,0.1211 0.40234,0.1836 0.27344,0.12109 0.47266,0.26562 0.70703,0.39453 0.85938,0.57422 1.53125,1.21484 2.10547,1.82031 1.13672,1.21875 1.91406,2.28125 2.46875,3.00391 0.53516,0.72656 0.83984,1.13281 0.76563,1.21093 -0.0664,0.0742 -0.50782,-0.20703 -1.19141,-0.82422 -0.68359,-0.61328 -1.58984,-1.58203 -2.76563,-2.64843 -0.59375,-0.52735 -1.25781,-1.08203 -2.01953,-1.52735 -0.1875,-0.0976 -0.39453,-0.22265 -0.58203,-0.28906 -0.64453,-0.26953 -1.14453,-0.375 -1.84765,-0.20703 -0.91797,0.22656 -1.89063,0.73828 -2.88282,1.30859 -0.49218,0.27344 -1.02734,0.59766 -1.5664,0.88672 -0.56641,0.28125 -1.0625,0.53516 -1.42188,0.85938 -0.082,0.0781 -0.17578,0.14843 -0.23437,0.24218 l -0.10157,0.12891 c -0.0156,0.0312 -0.0312,0.0664 -0.0469,0.0977 -0.0234,0.043 -0.0508,0.0391 -0.0703,0.11718 l -0.0703,0.22266 -0.0312,0.10547 -0.004,0.0234 -0.0273,0.21875 c -0.0859,0.55078 -0.14062,1.13672 -0.21875,1.7539 -0.0586,0.32032 -0.11328,0.63672 -0.17187,0.95703 -0.0781,0.28125 -0.16016,0.54688 -0.24219,0.82032 -0.21094,0.66797 -0.48437,1.09765 -0.66406,1.57422 -0.19141,0.45312 -0.32813,0.92578 -0.30469,1.21093 0,0.0664 0.0195,0.11719 0.0234,0.14844 0,-0.004 -0.008,-0.008 -0.0234,0 0.0234,0.0273 0.0781,0.0781 0.11328,0.11719 0.008,0.004 0.0117,0.008 0.0156,0.0156 0.0156,0.0117 0.043,0.0195 0.0625,0.0312 0.0469,0.0156 0.11719,0.0274 0.19531,0.0352 0.28125,0.0195 0.62891,-0.0586 0.96484,-0.17188 0.57032,-0.27734 1.20704,-0.73046 1.80469,-1.38671 0.49219,-0.52735 0.90235,-1.08985 1.25391,-1.59375 0.008,-0.0547 0.004,-0.10157 0.008,-0.14844 -0.19141,-0.11328 -0.36719,-0.2461 -0.49219,-0.38672 -0.28906,-0.32031 -0.38672,-0.64453 -0.41406,-0.86328 -0.008,-0.22656 0.043,-0.35156 0.14063,-0.38281 0.1914,-0.082 0.48046,0.25781 0.91796,0.4375 0.41797,0.17968 1.07813,0.19921 1.8125,-0.0937 0.7461,-0.28907 1.26172,-0.76954 1.46875,-1.16016 0.10547,-0.19922 0.16407,-0.41406 0.20704,-0.55859 0.0391,-0.17969 0.0742,-0.32422 0.17187,-0.35547 0.0937,-0.0312 0.22266,0.008 0.36719,0.17187 0.15625,0.19922 0.28515,0.51563 0.26562,0.95313 -0.0117,0.30468 -0.12109,0.63672 -0.30078,0.94922 0.0352,0.0117 0.082,0.0156 0.11328,0.0273 0.3086,0.11719 0.50391,0.28906 0.69922,0.46484 0.32422,0.30469 0.71094,0.63282 1.10156,0.99219 0.41407,0.32031 0.8086,0.62109 1.30079,1.02734 0.23828,0.20704 0.48828,0.37891 0.72656,0.625 0.23828,0.24219 0.48047,0.49219 0.72656,0.74219 l 0.0508,0.0508 0.0508,0.0664 0.0742,0.0977 0.15235,0.19921 c 0.10156,0.125 0.20703,0.26172 0.30859,0.39844 0.19531,0.30078 0.41797,0.60938 0.60156,0.9336 0.043,0.0781 0.0859,0.16015 0.13281,0.23828 0.38672,0.38281 0.77735,0.89453 1.125,1.47656 0.98829,1.67187 1.20704,3.27344 0.97657,3.31641 -0.15235,0.0351 -0.47657,-0.67188 -0.98828,-1.65625 0.0312,0.1875 0.0586,0.375 0.082,0.55859 0.0469,0.32031 0.0469,0.63281 0.0469,0.93359 0,0.15235 0.004,0.29297 0.004,0.4336 -0.004,0.13672 -0.004,0.27343 -0.0117,0.40625 -0.008,0.53515 -0.0312,1.04687 -0.0742,1.51562 -0.0898,0.92578 -0.25391,1.69141 -0.47656,2.17969 -0.21485,0.49609 -0.42578,0.73047 -0.50781,0.69141 -0.10157,-0.043 -0.0781,-0.32813 -0.0469,-0.82032 0.0234,-0.28515 0.0273,-0.65625 0.0234,-1.08593 -0.21094,0.66796 -0.48828,1.43359 -0.94141,2.24609 -0.29297,0.52734 -0.66406,1.07031 -1.15625,1.57812 -0.48828,0.5 -1.125,0.95313 -1.82031,1.28125 -1.26563,0.65625 -2.80859,1.26563 -4.32422,1.92188 -0.375,0.17969 -0.75391,0.35937 -1.14453,0.53906 -0.17969,0.0937 -0.40234,0.1836 -0.55859,0.27735 -0.10547,0.0586 -0.14063,0.0859 -0.23047,0.14453 -0.082,0.0586 -0.16407,0.11328 -0.2461,0.17968 -0.66406,0.50391 -1.32031,1.125 -1.92578,1.79688 -0.60156,0.67187 -1.17578,1.41406 -1.57812,2.21094 -0.20313,0.39062 -0.35157,0.80078 -0.39063,1.16406 -0.0117,0.0977 -0.0195,0.19141 -0.0117,0.27734 0.14453,-0.23437 0.31641,-0.45703 0.52344,-0.64843 0.44141,-0.39454 0.94531,-0.67188 1.48047,-0.78907 0.26953,-0.0508 0.55469,-0.0664 0.82422,0.0234 0.27344,0.082 0.50781,0.28516 0.60547,0.5 0.0195,0.0352 0.0312,0.0625 0.043,0.0937 0.12109,-0.0898 0.2539,-0.17578 0.39453,-0.26953 l 0.16406,-0.10547 0.0937,-0.0469 0.18359,-0.0899 0.3711,-0.17578 c 1.11718,-0.50781 2.24218,-0.76172 3.29687,-0.98828 0.51953,-0.11328 1.03516,-0.21484 1.54688,-0.32031 0.2539,-0.0586 0.49218,-0.125 0.73828,-0.1836 l 0.22265,-0.0547 0.19532,-0.043 0.3789,-0.082 c 0.51172,-0.10157 0.98047,-0.2461 1.57032,-0.27344 0.55859,-0.0508 1.11328,-0.11719 1.64062,-0.0664 0.27344,0.0156 0.53516,0.0234 0.79688,0.043 0.25781,0.0234 0.51562,0.0742 0.76953,0.11328 0.25781,0.0469 0.51172,0.0781 0.75781,0.13281 0.24219,0.0586 0.48047,0.11719 0.72266,0.17579 0.95312,0.23828 1.83984,0.52343 2.69921,0.76953 0.42969,0.1289 0.85157,0.24218 1.26563,0.34765 0.20703,0.0586 0.41406,0.10938 0.61719,0.16407 l 0.0781,0.0195 0.0391,0.008 0.0195,0.008 c 0,0.004 0.13671,0.0234 0.13671,0.0234 l 0.3125,0.0508 c 0.21485,0.043 0.40625,0.0586 0.58594,0.0742 0.19141,0.0117 0.3711,0.0352 0.57813,0.0352 0.41015,0.0273 0.8125,0.0469 1.20703,0.0664 0.8164,0.0664 1.63281,0.15625 2.39453,0.46094 0.19531,0.0586 0.35937,0.17969 0.53906,0.26562 l 0.26563,0.14454 0.0625,0.0351 0.004,0.004 c 0,0 0.0781,0.0547 0.0664,0.0469 0.0117,0.008 0.0352,0.0234 0.0352,0.0234 l 0.0977,0.0898 c 0.2461,0.19922 0.55078,0.5 0.76563,0.76172 0.45312,0.53516 0.79297,1.08203 1.07422,1.60547 0.55468,1.04297 0.90625,1.98438 1.17968,2.7461 0.52735,1.53125 0.77735,2.3789 0.6836,2.42968 -0.10938,0.0508 -0.56641,-0.73828 -1.26172,-2.1875 -0.36328,-0.71484 -0.79297,-1.59375 -1.38672,-2.52734 -0.29297,-0.46875 -0.64063,-0.9375 -1.05469,-1.375 -0.21484,-0.22266 -0.39062,-0.38672 -0.68359,-0.60547 l -0.0977,-0.0703 c -0.0117,-0.008 -0.0625,-0.0312 -0.0625,-0.0312 l -0.20312,-0.0937 c -0.14453,-0.0547 -0.26563,-0.14844 -0.42188,-0.17969 -0.082,-0.0312 -0.17578,-0.0508 -0.26172,-0.0742 0.8711,1.75 1.44141,3.70313 2.16016,5.49219 0.89453,2.23828 1.73047,4.28906 1.88672,6.66406 3.03515,0.16016 5.875,-0.73047 8.85156,-1.25781 z m 3.91016,-1.80078 c 0.57031,1.2539 0.66797,2.26953 -1.51563,2.78906 -3.83594,0.91016 -7.98047,2.08203 -11.92969,1.66016 -0.39453,-0.0352 -0.72265,-0.29297 -0.72265,-0.71875 -0.0273,-2.53907 -0.94922,-4.64453 -1.875,-6.94532 -0.79297,-1.98046 -1.42969,-4.28125 -2.53125,-6.09375 -0.008,0 -0.0195,0 -0.0273,-0.004 -0.39062,-0.008 -0.79296,-0.0117 -1.19531,-0.0117 -0.39844,-0.008 -0.92187,-0.0234 -1.32812,-0.082 l -0.3125,-0.043 -0.16016,-0.0195 -0.20312,-0.0508 c -0.21485,-0.0469 -0.42969,-0.0937 -0.64454,-0.14844 -0.4375,-0.0937 -0.8789,-0.19531 -1.3125,-0.31641 -0.89062,-0.22656 -1.77343,-0.49218 -2.67578,-0.6914 -0.22265,-0.0508 -0.44922,-0.0977 -0.67578,-0.15235 -0.22656,-0.0469 -0.45312,-0.0664 -0.68359,-0.10156 -0.22656,-0.0312 -0.45313,-0.0742 -0.6836,-0.0977 -0.22656,-0.004 -0.46093,-0.008 -0.6914,-0.0195 -0.47266,-0.0351 -0.91406,0.0312 -1.36719,0.0703 -0.43359,0.008 -0.96484,0.16796 -1.46094,0.27734 l -0.38281,0.082 -0.19141,0.043 -0.15625,0.0391 c -0.25781,0.0664 -0.52734,0.14844 -0.78906,0.20703 -0.51953,0.10938 -1.03906,0.22266 -1.57031,0.33985 -1.03125,0.22265 -2.03906,0.46875 -2.92969,0.86718 l -0.37109,0.17969 -0.16406,0.0742 c -0.008,0.008 -0.0195,0.0156 -0.0195,0.0156 l -0.0352,0.0195 -0.0586,0.0391 c -0.18359,0.11719 -0.38671,0.26953 -0.60156,0.43359 -0.41797,0.32813 -0.85937,0.67188 -1.33984,0.9961 -0.49219,0.32031 -1.01172,0.65234 -1.76563,0.78125 -0.17968,0.0391 -0.40234,0.0312 -0.60937,0.0156 -0.10938,-0.008 -0.26172,-0.0547 -0.38672,-0.0898 -0.0664,-0.0273 -0.12891,-0.0508 -0.19141,-0.0742 -0.043,-0.0195 -0.0625,-0.0352 -0.0898,-0.0508 l -0.17188,-0.0977 c -0.0664,-0.043 -0.0937,-0.0586 -0.10546,-0.0664 0.008,0 0.0195,0.008 0,0 h -0.004 l -0.008,-0.0156 -0.0234,-0.0195 -0.0586,-0.0469 -0.0937,-0.082 c -0.13672,-0.11328 -0.25,-0.26562 -0.36719,-0.40234 -0.008,-0.0117 -0.0195,-0.0273 -0.0273,-0.043 -0.008,0.0156 -0.0156,0.0312 -0.0234,0.043 -0.11719,0.13672 -0.23047,0.28906 -0.36719,0.40234 l -0.10156,0.082 -0.0508,0.0469 -0.0234,0.0195 -0.0117,0.0156 c 0,0 -0.0195,0.008 -0.10547,0.0664 l -0.17187,0.0977 c -0.0312,0.0156 -0.0469,0.0312 -0.0898,0.0508 -0.0625,0.0234 -0.125,0.0469 -0.1914,0.0742 -0.125,0.0352 -0.27344,0.082 -0.38672,0.0898 -0.20703,0.0156 -0.42969,0.0234 -0.60547,-0.0156 -0.75781,-0.12891 -1.28516,-0.46094 -1.76953,-0.78125 -0.48828,-0.32422 -0.92188,-0.66797 -1.34766,-0.9961 -0.20703,-0.16406 -0.41016,-0.3164 -0.59375,-0.43359 l -0.0664,-0.0391 -0.0273,-0.0195 -0.0117,-0.008 c -0.008,-0.008 -0.17187,-0.082 -0.17187,-0.082 l -0.3711,-0.17969 c -0.89062,-0.39843 -1.89843,-0.64453 -2.93359,-0.86718 -0.52734,-0.11719 -1.04688,-0.23047 -1.56641,-0.33985 -0.26172,-0.0586 -0.53125,-0.14062 -0.79687,-0.20703 l -0.15235,-0.0391 -0.1875,-0.043 -0.38281,-0.082 c -0.5,-0.10938 -1.02734,-0.26953 -1.45703,-0.27734 -0.45703,-0.0391 -0.89844,-0.10547 -1.37109,-0.0703 -0.23047,0.0117 -0.46094,0.0156 -0.69141,0.0195 -0.23047,0.0234 -0.45703,0.0664 -0.6875,0.0977 -0.22656,0.0352 -0.45312,0.0547 -0.67969,0.10156 -0.22656,0.0547 -0.45312,0.10157 -0.67578,0.15235 -0.90234,0.19922 -1.79297,0.46484 -2.67578,0.6914 -0.42969,0.1211 -0.875,0.22266 -1.3125,0.31641 -0.21875,0.0547 -0.42969,0.10156 -0.64844,0.14844 l -0.19922,0.0508 -0.16015,0.0195 -0.32031,0.043 c -0.39844,0.0586 -0.92188,0.0742 -1.32032,0.082 -0.41015,0 -0.80859,0.004 -1.19922,0.0117 -0.0117,0.004 -0.0156,0.004 -0.0234,0.004 -1.10157,1.8125 -1.73828,4.11329 -2.53125,6.09375 -0.92578,2.30079 -1.84766,4.40625 -1.875,6.94532 -0.004,0.42578 -0.32813,0.68359 -0.72266,0.71875 -2.74609,0.28906 -5.35547,-0.26563 -8.02734,-0.85938 -1.42578,-0.3164 -2.99219,-0.4375 -4.36328,-0.9375 -1.82813,-0.66406 -1.61719,-1.64453 -1.04297,-2.79297 0.0273,-0.10547 0.0742,-0.21484 0.15234,-0.3125 0.0117,-0.0234 0.0234,-0.0391 0.0391,-0.0586 0.23438,-0.4375 0.48828,-0.89063 0.69141,-1.36719 0.0625,-0.15234 0.16016,-0.2539 0.26562,-0.3125 0.91797,-2.14453 1.23829,-4.82031 2.01954,-6.84375 1.00781,-2.60547 2.14843,-5.20312 3.32031,-7.74609 1.15625,-2.50391 2.45312,-4.92578 4.34375,-6.96094 1.89844,-2.04687 3.98047,-3.87891 5.57812,-6.17969 1.5625,-2.2539 2.5586,-4.57812 3.90235,-6.92968 1.17187,-2.05079 2.85156,-2.9961 4.86718,-4.14063 3.00391,-1.70312 5.99219,-6.46875 9.82032,-6.0625 0.10547,0.008 0.19531,0.0352 0.27343,0.0781 0.0898,0.004 0.17969,0.0273 0.27344,0.0781 2.00781,1.00781 5.44922,1.66797 6.52344,3.875 0.0234,0.0508 0.0469,0.0977 0.0547,0.14453 0.0508,0.10156 0.0937,0.21875 0.10937,0.33594 0.0547,0.46094 0,0.91797 -0.0664,1.37109 0.14453,0.0977 0.28906,0.21094 0.42968,0.33594 0.14063,0.13281 0.28516,0.25781 0.40235,0.42578 l 0.18359,0.23438 c 0.0586,0.10156 0.11328,0.20312 0.16406,0.30859 0.0469,0.0937 0.11719,0.22266 0.13282,0.29297 l 0.0664,0.21875 0.0312,0.11328 0.0117,0.0352 0.0234,0.10156 0.0391,0.29297 c 0.0937,0.63672 0.14063,1.23437 0.20313,1.78906 0.0352,0.25391 0.0703,0.50781 0.10546,0.75781 0.0781,0.27344 0.15625,0.54688 0.22657,0.81641 0.0625,0.23828 0.17968,0.51953 0.30468,0.80859 0.125,-0.28906 0.2461,-0.57031 0.30469,-0.80859 0.0742,-0.26953 0.15235,-0.54297 0.23047,-0.81641 0.0352,-0.25 0.0664,-0.5039 0.10547,-0.75781 0.0586,-0.55469 0.10547,-1.15234 0.20312,-1.78906 l 0.0273,-0.23438 0.0117,-0.0586 0.0234,-0.10156 0.0117,-0.0352 0.0312,-0.11328 0.0625,-0.21875 c 0.0195,-0.0703 0.0859,-0.19922 0.13672,-0.29297 0.0469,-0.10547 0.10547,-0.20703 0.15625,-0.30859 l 0.19141,-0.23438 c 0.11328,-0.16797 0.25781,-0.29297 0.40234,-0.42578 0.14063,-0.125 0.28516,-0.23828 0.42969,-0.33594 -0.0664,-0.45312 -0.12109,-0.91015 -0.0664,-1.37109 0.0195,-0.11719 0.0508,-0.23438 0.10547,-0.33594 0.0117,-0.0469 0.0352,-0.0937 0.0508,-0.14453 1.08203,-2.20703 4.51563,-2.86719 6.52735,-3.875 0.0977,-0.0508 0.1875,-0.0742 0.28125,-0.0781 0.0742,-0.043 0.16406,-0.0703 0.26172,-0.0781 1.74609,-0.18359 3.26562,0.80078 4.55078,1.87891 1.96093,1.64062 3.66406,3.28515 5.91797,4.53906 2.01953,1.12109 3.55859,2.25781 4.53906,4.41406 1.02344,2.26172 2.13281,4.27344 3.58594,6.30078 1.79296,2.5 4.15234,4.40625 6.09765,6.76563 1.77344,2.16015 3.0625,4.58594 4.17188,7.13672 1.10156,2.54687 2.38672,5.09765 3.23828,7.73828 0.58203,1.78906 0.94922,4.17187 1.76562,6.09765 0.10547,0.0625 0.19532,0.15625 0.25782,0.30469 0.17968,0.42188 0.38671,0.83203 0.58203,1.21875 0.0508,0.0703 0.0976,0.13672 0.14843,0.20703 0.11329,0.14063 0.16016,0.29688 0.16407,0.45313"
       fill-opacity="1"
       fill-rule="nonzero"
       id="path9356" />
  </g>
</svg>
