<?xml version="1.0" encoding="UTF-8" standalone="no"?>
<svg
   width="85.703125"
   zoomAndPan="magnify"
   viewBox="0 0 64.277344 65.027344"
   height="86.703125"
   preserveAspectRatio="xMidYMid"
   version="1.0"
   id="svg35849"
   xmlns="http://www.w3.org/2000/svg"
   xmlns:svg="http://www.w3.org/2000/svg">
  <metadata
     id="metadata1">
    <ContainsAiGeneratedContent>Yes</ContainsAiGeneratedContent>
  </metadata>
  <defs
     id="defs387">
    <clipPath
       id="6a3ef01092">
      <path
         d="m 772.66797,837.47656 h 62.85547 v 65.02735 h -62.85547 z m 0,0"
         clip-rule="nonzero"
         id="path189" />
    </clipPath>
    <clipPath
       id="6d6eba8979">
      <path
         d="M 771.23437,840 H 775 v 21 h -3.76563 z m 0,0"
         clip-rule="nonzero"
         id="path190" />
    </clipPath>
    <clipPath
       id="45b7714dcb">
      <path
         d="M 771.23437,856 H 792 v 5 h -20.76563 z m 0,0"
         clip-rule="nonzero"
         id="path191" />
    </clipPath>
  </defs>
  <g
     clip-path="url(#6a3ef01092)"
     id="g9349"
     transform="translate(-771.24609,-837.4765)">
    <path
       fill="#002199"
       d="m 803.01172,902.50391 c -9.46485,0 -18.44141,-4.10938 -24.62891,-11.28125 -0.67578,-0.78516 -0.58984,-1.96875 0.19531,-2.64454 0.78125,-0.67578 1.96875,-0.58984 2.64454,0.19532 5.47265,6.34375 13.41406,9.98437 21.78906,9.98437 15.85937,0 28.76562,-12.90625 28.76562,-28.76953 0,-15.85937 -12.90625,-28.76562 -28.76562,-28.76562 -11.76172,0 -22.22266,7.03515 -26.65625,17.92578 -0.39063,0.96093 -1.48438,1.42187 -2.44141,1.03125 -0.96094,-0.39063 -1.42187,-1.48438 -1.03125,-2.44532 5.01172,-12.30468 16.83594,-20.26171 30.12891,-20.26171 17.92578,0 32.51562,14.58984 32.51562,32.51562 0,17.92969 -14.58984,32.51563 -32.51562,32.51563"
       fill-opacity="1"
       fill-rule="nonzero"
       id="path9348" />
  </g>
  <g
     clip-path="url(#6d6eba8979)"
     id="g9350"
     transform="translate(-771.24609,-837.4765)">
    <path
       fill="#002199"
       d="m 773.12109,860.31641 c -1.03515,0 -1.875,-0.83985 -1.875,-1.875 v -16.00782 c 0,-1.03515 0.83985,-1.875 1.875,-1.875 1.03516,0 1.875,0.83985 1.875,1.875 v 16.00782 c 0,1.03515 -0.83984,1.875 -1.875,1.875"
       fill-opacity="1"
       fill-rule="nonzero"
       id="path9349" />
  </g>
  <g
     clip-path="url(#45b7714dcb)"
     id="g9351"
     transform="translate(-771.24609,-837.4765)">
    <path
       fill="#002199"
       d="m 789.12891,860.31641 h -16.00782 c -1.03515,0 -1.875,-0.83985 -1.875,-1.875 0,-1.03516 0.83985,-1.8711 1.875,-1.8711 h 16.00782 c 1.03515,0 1.875,0.83594 1.875,1.8711 0,1.03515 -0.83985,1.875 -1.875,1.875"
       fill-opacity="1"
       fill-rule="nonzero"
       id="path9350" />
  </g>
  <path
     fill="#002199"
     d="m 32.890629,35.527412 c -1.03516,0 -1.875,-0.83594 -1.875,-1.8711 v -20.69531 c 0,-1.03516 0.83984,-1.875 1.875,-1.875 1.03515,0 1.875,0.83984 1.875,1.875 v 20.69531 c 0,1.03516 -0.83985,1.8711 -1.875,1.8711"
     fill-opacity="1"
     fill-rule="nonzero"
     id="path9351" />
  <path
     fill="#002199"
     d="m 22.257819,46.543032 c -0.46875,0 -0.9375,-0.17578 -1.30079,-0.52734 -0.74609,-0.71875 -0.76562,-1.90625 -0.0469,-2.65235 l 10.63281,-11.00781 c 0.71875,-0.74609 1.90625,-0.76562 2.64844,-0.0469 0.74609,0.71875 0.76562,1.90234 0.0469,2.64843 l -10.63281,11.01172 c -0.36719,0.37891 -0.85547,0.57422 -1.34765,0.57422"
     fill-opacity="1"
     fill-rule="nonzero"
     id="path9352" />
</svg>
