<svg xmlns="http://www.w3.org/2000/svg" width="70.9" height="71" preserveAspectRatio="xMidYMid" version="1.0" viewBox="0 0 53.2 53.2"><defs><clipPath id="a"><path d="M725.3 2439.7h53.2v53.3h-53.2zm0 0"/></clipPath></defs><g clip-path="url(#a)" transform="translate(-725.3 -2439.7)"><path fill="#002199" fill-rule="evenodd" d="m777 2455.3-.2 4c-.3 5.3-.7 11.9-2.7 15.5-1.2 2.1-2.6 3.3-4.2 4.7-1 .8-2 1.6-3 2.7-2.9 3.2-3.4 4.8-3.4 8.3 0 .5-.4 1-1 1h-9.7v-6.8c0-2.1.9-4 2.5-5.3l8-6.5a1.4 1.4 0 0 1 1.7 2.1l-7 5.7a.8.8 0 1 0 1 1.2l7-5.6a3 3 0 0 0 .9-3.6l2.8-2.7c1.2-1.2 2-2.6 2.4-4.3l2.7-10.7a1 1 0 0 1 1-.8h.2a1 1 0 0 1 1 1.1zm-25.8 36.1h-9.8a.9.9 0 0 1-.9-.9c0-3.5-.6-5-3.5-8.3-1-1-2-2-3-2.7-1.6-1.4-3-2.6-4.1-4.7-2-3.6-2.4-10.2-2.7-15.6 0-1.4-.2-2.7-.3-3.9a1 1 0 0 1 1.1-1.1h.1c.5 0 1 .3 1 .8l2.8 10.7c.4 1.7 1.2 3 2.4 4.3l2.8 2.7a3 3 0 0 0 .8 3.6l7 5.6a.8.8 0 0 0 1.1 0c.3-.4.3-1 0-1.2l-7-5.7a1.4 1.4 0 0 1 1.6-2.1l8 6.5a6.6 6.6 0 0 1 2.6 5.3zm-12.8-44.4c-3.5 3.4-5.8 8-6.2 13.3l1.2 5c.3 1.4 1 2.4 1.9 3.4a6.1 6.1 0 0 1 3.2-3.6 3.8 3.8 0 0 1 .9-6.1 26 26 0 0 1 3.4-9.9c-1.6-.5-3-1.2-4.4-2zm8.3 24.4v4.3l3 2.4c1 .8 1.8 1.8 2.3 3 .5-1.2 1.3-2.2 2.3-3l3-2.4v-4.3a5.3 5.3 0 0 0-10.6 0zm4.5-20.7c-2.4 0-4.7-.4-6.9-1a24.4 24.4 0 0 0-3.2 8.9 3.8 3.8 0 0 1 2.6 6.5c1 .5 2 1.3 2.6 2.4a7 7 0 0 1 3-2.4 4.2 4.2 0 0 1 1.9-7.4zm-7.6-3c-1.4-.5-2.7-1-4-1.8 2.8-2.3 6-3.8 9.7-4.3a27.9 27.9 0 0 0-5.7 6.1zm7.6-5.6a26.3 26.3 0 0 0-6 6.1c2 .5 4 .8 6 .9zm3.5-.5c3.6.5 6.9 2 9.6 4.3-1.2.7-2.6 1.3-4 1.8a28 28 0 0 0-5.6-6.1zm-2 7.5c2.1-.1 4.1-.4 6-.9a26 26 0 0 0-6-6zm-3.4 12.7a2.6 2.6 0 1 0 5.3 0 2.6 2.6 0 0 0-5.3 0zm9.8.6c0-2.1 1.7-3.8 3.8-3.8-.5-3.2-1.6-6.2-3.3-9-2.1.7-4.5 1-6.8 1v7a4.3 4.3 0 0 1 2 7.5 7 7 0 0 1 2.9 2.4c.6-1 1.5-1.9 2.6-2.4a3.8 3.8 0 0 1-1.2-2.7zm3.8 2.1a2.2 2.2 0 1 0 0-4.3 2.2 2.2 0 0 0 0 4.3zm-24-2.1a2.2 2.2 0 1 0 4.3 0 2.2 2.2 0 0 0-4.3 0zm-.8 9a3 3 0 0 1 3.5.2l3.4 2.8v-3c0-.7.2-1.4.4-2a4.5 4.5 0 0 0-8.8.6zm27.7 0 1.5-1.4a4.5 4.5 0 0 0-8.7-.7l.3 2.1v3l3.4-2.8a3 3 0 0 1 3.5-.1zm6-11c-.4-5.3-2.8-10-6.2-13.4-1.4.9-2.8 1.6-4.4 2.1 1.8 3 3 6.4 3.4 9.9a3.8 3.8 0 0 1 .9 6.1c1.5.7 2.6 2 3.2 3.6 1-1 1.5-2 1.8-3.4zm6.1-7c-.5-.5-1.2-.9-2-.9-1.3 0-2.4.9-2.7 2l-.4 2c-1-4.1-3.2-7.9-6.2-10.8a21 21 0 0 0-29.2 0c-3 3-5.2 6.7-6.2 10.7l-.5-1.8c-.3-1.2-1.3-2-2.6-2-.8 0-1.6.3-2 .8-.6.6-.8 1.3-.8 2l.3 4c.3 5.4.6 12.2 2.9 16.2 1.3 2.4 2.9 3.7 4.5 5.1 1 .8 1.9 1.6 2.8 2.6 2.8 3 3 4.3 3 7.3.1 1.3 1.2 2.4 2.6 2.4h21.2c1.3 0 2.5-1 2.5-2.4 0-3 .3-4.3 3-7.3l2.8-2.6c1.7-1.4 3.3-2.7 4.6-5 2.2-4 2.6-10.9 2.9-16.4l.2-3.9c0-.7-.2-1.4-.7-2zm0 0"/></g></svg>