<svg xmlns="http://www.w3.org/2000/svg" width="90.6" height="57.7" preserveAspectRatio="xMidYMid" version="1.0" viewBox="0 0 67.9 43.2"><defs><clipPath id="a"><path d="M478 2444.7h68v43.5h-68zm0 0"/></clipPath></defs><g clip-path="url(#a)" transform="translate(-478 -2444.8)"><path fill="#002199" d="m543.7 2451.8-.1 34c-10.4-4-20.3-4-30.7-.2l.1-33.9v-2.2c10.5-4 20.3-3.9 30.7 0v2.3zm-32.6 0v25.3l-.1 8v.5c-10.4-4-20.2-4-30.7 0V2463.3l.1-11.8v-2.2c10.5-4 20.3-4 30.7 0v2.3zm33.7 0v-3.6l-.7-.2a44 44 0 0 0-31.5-.1l-.5.2-.6-.3a44 44 0 0 0-31.5-.1l-.7.3v3.6h-1.1l-.2 36.2 67.8.2.2-36.2h-1.2"/></g><path fill="#002199" d="M5.2 10.8v1.8a33.8 33.8 0 0 1 25 .1V11a33.9 33.9 0 0 0-25-.1M37.8 11v1.8a33.8 33.8 0 0 1 25 0V11a33.9 33.9 0 0 0-25 0M5.2 16v1.8a33.8 33.8 0 0 1 25 0V16a33.9 33.9 0 0 0-25 0M37.8 16V18a33.8 33.8 0 0 1 25 0v-1.8a33.9 33.9 0 0 0-25 0M5.2 21v2a33.8 33.8 0 0 1 25 0v-1.8a33.9 33.9 0 0 0-25-.1M37.8 21.2V23a33.8 33.8 0 0 1 25 .1v-1.8a33.9 33.9 0 0 0-25-.1M5.2 26.2v1.9a33.8 33.8 0 0 1 25 0v-1.8a33.9 33.9 0 0 0-25 0M37.8 26.3v1.9a33.8 33.8 0 0 1 25 0v-1.8a33.9 33.9 0 0 0-25 0M5.2 31.4v1.8a33.8 33.8 0 0 1 25 0v-1.8a33.9 33.9 0 0 0-25 0M37.8 31.5v1.8a33.8 33.8 0 0 1 25 0v-1.8a33.9 33.9 0 0 0-25 0"/></svg>