<svg xmlns="http://www.w3.org/2000/svg" width="70.6" height="71" preserveAspectRatio="xMidYMid" version="1.0" viewBox="0 0 53 53.2"><defs><clipPath id="a"><path d="M266 2461h32.7v31.8H266Zm0 0"/></clipPath><clipPath id="b"><path d="M245.5 2439.6H288v42.4h-42.5zm0 0"/></clipPath></defs><g clip-path="url(#a)" transform="translate(-245.5 -2439.6)"><path fill="#002199" d="m298.5 2472.2-31.8-10.9 11 31.8 6.7-9.6 7.8 7.8 4.5-4.4-7.8-7.9 9.6-6.8"/></g><path fill="#002199" d="M21.2 31.5a10.4 10.4 0 1 1 10.3-10.3 1.4 1.4 0 0 0 2.8 0 13.2 13.2 0 1 0-13.1 13.1 1.4 1.4 0 0 0 0-2.8"/><g clip-path="url(#b)" transform="translate(-245.5 -2439.6)"><path fill="#002199" d="M266.7 2479.2a18.4 18.4 0 1 1 18.4-18.4 1.4 1.4 0 0 0 2.8 0 21.2 21.2 0 1 0-21.2 21.2 1.4 1.4 0 0 0 0-2.8"/></g></svg>