<?xml version="1.0" standalone="no"?>
<!DOCTYPE svg PUBLIC "-//W3C//DTD SVG 1.1//EN" "http://www.w3.org/Graphics/SVG/1.1/DTD/svg11.dtd">
<svg xmlns="http://www.w3.org/2000/svg" xmlns:xlink="http://www.w3.org/1999/xlink" xmlns:serif="http://www.serif.com/" width="1003" height="133" viewBox="0 0 1003 133" version="1.1" xml:space="preserve" style="fill-rule:evenodd;clip-rule:evenodd;stroke-linejoin:round;stroke-miterlimit:2;">
    <g transform="matrix(1,0,0,1,-123.82,-124.098)">
        <g>
            <path d="M294.21,230.34L294.21,138.52L327.02,138.52C344.49,138.52 355.15,147.17 355.15,162.11C355.15,170.62 349.09,177.47 342.93,180.08C352.4,183.25 359.22,190.72 359.22,203.58C359.22,220.08 348.05,230.34 329.15,230.34L294.21,230.34ZM305.39,176.52L326.79,176.52C337.82,176.52 343.98,171.79 343.98,162.38C343.98,152.97 337.82,148.34 326.79,148.34L305.39,148.34L305.39,176.52ZM305.39,220.21L327.31,220.21C340.85,220.21 347.81,214.3 347.81,203.43C347.81,192.56 340.85,186.5 327.31,186.5L305.39,186.5L305.39,220.21Z" style="fill:rgb(30,30,30);fill-rule:nonzero;"/>
            <rect x="366.86" y="137.05" width="10.51" height="93.23" style="fill:rgb(30,30,30);fill-rule:nonzero;"/>
            <path d="M442.52,164.23L442.52,230.33L432.01,230.33L432.01,217.61C428.6,226.78 420.46,231.37 410.23,231.37C395.27,231.37 385.56,220.73 385.56,204.61L385.56,164.24L396.07,164.24L396.07,202.91C396.07,214.21 402.65,221.77 412.64,221.77C424.05,221.77 432.05,212.74 432.05,199.88L432.05,164.23L442.56,164.23L442.52,164.23Z" style="fill:rgb(30,30,30);fill-rule:nonzero;"/>
            <path d="M514.59,209.05C512.36,222.57 500.67,231.32 484.24,231.32C464.68,231.32 451.52,215.72 451.52,196.86C451.52,178 463.59,163.15 483.06,163.15C502.53,163.15 513.93,176.53 513.93,194.12C513.93,195.59 513.79,197.81 513.65,198.71L461.89,198.71C462.7,212.33 471.74,222.06 484.19,222.06C494.94,222.06 501.8,217.33 503.89,209.06L514.59,209.06L514.59,209.05ZM462.45,190.28L503.17,190.28C502.37,179.12 494.88,172.03 483.09,172.03C471.92,172.03 464.44,178.61 462.45,190.28Z" style="fill:rgb(30,30,30);fill-rule:nonzero;"/>
            <path d="M524.72,230.34L524.72,138.52L551.76,138.52C577.52,138.52 597.59,155.16 597.59,184.43C597.59,213.69 577.51,230.34 551.76,230.34L524.72,230.34ZM535.89,220.16L551.52,220.16C569.37,220.16 585.94,209.66 585.94,184.37C585.94,159.08 569.37,148.58 551.52,148.58L535.89,148.58L535.89,220.16Z" style="fill:rgb(30,30,30);fill-rule:nonzero;"/>
            <path d="M603.51,197.23C603.51,177.28 617.57,163.14 637.13,163.14C656.69,163.14 670.89,177.28 670.89,197.23C670.89,217.18 656.83,231.32 637.13,231.32C617.43,231.32 603.51,217.04 603.51,197.23ZM660.09,197.23C660.09,182.81 650.76,172.6 637.13,172.6C623.49,172.6 614.26,182.81 614.26,197.23C614.26,211.65 623.59,221.86 637.13,221.86C650.67,221.86 660.09,211.65 660.09,197.23Z" style="fill:rgb(30,30,30);fill-rule:nonzero;"/>
            <path d="M686.37,143.1L696.88,143.1L696.88,164.23L717.24,164.23L717.24,173.54L696.88,173.54L696.88,209.09C696.88,216.42 701.1,220.77 707.53,220.77L717.24,220.77L717.24,230.32L707.11,230.32C694.52,230.32 686.37,222.47 686.37,209.61L686.37,173.54L672.59,173.54L672.59,164.23L686.37,164.23L686.37,143.1Z" style="fill:rgb(30,30,30);fill-rule:nonzero;"/>
            <rect x="752.04" y="138.52" width="11.18" height="91.81" style="fill:rgb(30,30,30);fill-rule:nonzero;"/>
            <path d="M774.49,230.29L774.49,164.19L785,164.19L785,176.91C787.51,168.92 794.85,163.15 804.98,163.15C815.87,163.15 824.44,168.11 826.76,177.19C829.27,169.34 838.08,163.15 848.16,163.15C862.46,163.15 871.13,172.7 871.13,188.73L871.13,230.29L860.62,230.29L860.62,191.48C860.62,180.18 854.99,172.47 845.66,172.47C834.63,172.47 828.05,180.22 828.05,191.48L828.05,230.29L817.54,230.29L817.54,191.48C817.54,180.18 811.91,172.47 802.72,172.47C791.55,172.47 785.01,180.22 785.01,191.48L785.01,230.29L774.49,230.29Z" style="fill:rgb(30,30,30);fill-rule:nonzero;"/>
            <path d="M884.53,257.03L884.53,164.23L895.04,164.23L895.04,175.1C899.11,167.87 907.63,163.19 917.1,163.19C937.6,163.19 948.87,177.99 948.87,197.28C948.87,216.57 937.32,231.37 916.81,231.37C907.48,231.37 898.96,226.78 895.03,219.69L895.03,257.09L884.52,257.09L884.52,257.03L884.53,257.03ZM937.98,197.23C937.98,182.29 929.32,172.6 916.06,172.6C902.8,172.6 894.14,182.29 894.14,197.23C894.14,212.17 902.8,221.86 916.06,221.86C929.32,221.86 937.98,212.17 937.98,197.23Z" style="fill:rgb(30,30,30);fill-rule:nonzero;"/>
            <path d="M1010.86,187.68L1010.86,230.28L1000.35,230.28L1000.35,218.89C996.8,226.5 987.99,231.37 977.77,231.37C963.85,231.37 954.8,223.52 954.8,211.42C954.8,199.32 965.17,190.85 981.17,190.85L996.13,190.85C999.02,190.85 1000.34,189.38 1000.34,187.3C1000.34,178.27 993.9,172.08 982.63,172.08C972.92,172.08 965.3,178.13 964.78,185.32L954.79,185.32C955.97,172.6 968.05,163.15 982.87,163.15C1000.06,163.15 1010.86,172.98 1010.86,187.68ZM1000.35,200.54L1000.35,198.84L981.84,198.84C971.99,198.84 965.55,203.57 965.55,211.27C965.55,218.08 970.95,222.43 979.33,222.43C992.58,222.43 1000.35,214.16 1000.35,200.54Z" style="fill:rgb(30,30,30);fill-rule:nonzero;"/>
            <path d="M1018.1,197.23C1018.1,179.55 1029.42,163.14 1050.25,163.14C1065.07,163.14 1078.37,171.79 1080.32,186.49L1069.95,186.49C1068.62,178.5 1060.39,172.59 1050.39,172.59C1035.95,172.59 1028.99,183.75 1028.99,197.22C1028.99,210.69 1036.09,221.85 1050.39,221.85C1060.38,221.85 1067.58,216.89 1069.95,208.85L1080.18,208.85C1077.96,222.37 1067.06,231.26 1050.26,231.26C1029.38,231.26 1018.11,214.85 1018.11,197.17L1018.11,197.23L1018.1,197.23Z" style="fill:rgb(30,30,30);fill-rule:nonzero;"/>
            <path d="M1095.19,143.1L1105.7,143.1L1105.7,164.23L1126.06,164.23L1126.06,173.54L1105.7,173.54L1105.7,209.09C1105.7,216.42 1109.91,220.77 1116.35,220.77L1126.06,220.77L1126.06,230.32L1115.93,230.32C1103.34,230.32 1095.19,222.47 1095.19,209.61L1095.19,173.54L1081.41,173.54L1081.41,164.23L1095.19,164.23L1095.19,143.1Z" style="fill:rgb(30,30,30);fill-rule:nonzero;"/>
        </g>
    </g>
</svg>