<svg width="50" height="50" viewBox="0 0 50 50" fill="none" xmlns="http://www.w3.org/2000/svg">
<path d="M36.1399 15.8348L36.1402 15.8352C36.731 16.4155 37.1987 17.1035 37.5174 17.8596C37.8362 18.6155 38 19.4252 38 20.2425C38 21.0598 37.8362 21.8694 37.5174 22.6254C37.1987 23.3815 36.731 24.0695 36.1402 24.6498L36.14 24.65L25.7006 34.9091C25.3115 35.2915 24.6878 35.2915 24.2987 34.9091L13.8593 24.65C12.6667 23.478 12 21.8922 12 20.2425C12 18.5927 12.6667 17.007 13.8593 15.835C15.0524 14.6625 16.6743 14.0007 18.3691 14.0007C20.0638 14.0007 21.6857 14.6625 22.8788 15.835L24.2987 17.2304C24.6878 17.6127 25.3115 17.6127 25.7006 17.2304L27.1204 15.835L27.1206 15.8348C27.7111 15.2542 28.4132 14.7928 29.1872 14.4776C29.9612 14.1624 30.7914 14 31.6302 14C32.469 14 33.2992 14.1624 34.0733 14.4776C34.8472 14.7928 35.5493 15.2542 36.1399 15.8348Z" fill="#0037FF" stroke="#0037FF" stroke-width="2" stroke-linejoin="round"/>
</svg>
