<svg width="50" height="50" viewBox="0 0 50 50" fill="none" xmlns="http://www.w3.org/2000/svg">
<path d="M25.3364 8.48743C25.1058 8.10113 24.6456 7.91638 24.2119 8.03599C23.7782 8.15559 23.4778 8.5501 23.4778 9V22.0698H14C13.646 22.0698 13.3183 22.257 13.1385 22.562C12.9587 22.867 12.9536 23.2443 13.1251 23.554L23.6029 42.4843C23.8237 42.8832 24.2864 43.0823 24.7279 42.9682C25.1693 42.8542 25.4778 42.456 25.4778 42V30.9767H37C37.3599 30.9767 37.692 30.7834 37.8696 30.4704C38.0473 30.1575 38.0431 29.7732 37.8586 29.4642L25.3364 8.48743Z" fill="#00114D" stroke="#00114D" stroke-width="2" stroke-linejoin="round"/>
</svg>
