<svg width="72" height="79" viewBox="0 0 72 79" fill="none" xmlns="http://www.w3.org/2000/svg">
<g id="Group 23">
<circle id="Ellipse 8" cx="36" cy="9.45321" r="8.45321" stroke="#FFFCF7" stroke-width="2" stroke-linejoin="round"/>
<circle id="Ellipse 9" cx="36" cy="69.0788" r="8.45321" stroke="#FFFCF7" stroke-width="2" stroke-linejoin="round"/>
<circle id="Ellipse 10" cx="61.8187" cy="24.3596" r="8.45321" transform="rotate(60 61.8187 24.3596)" stroke="#FFFCF7" stroke-width="2" stroke-linejoin="round"/>
<circle id="Ellipse 11" cx="10.1812" cy="54.1724" r="8.45321" transform="rotate(60 10.1812 54.1724)" stroke="#FFFCF7" stroke-width="2" stroke-linejoin="round"/>
<circle id="Ellipse 12" cx="61.8187" cy="54.1724" r="8.45321" transform="rotate(120 61.8187 54.1724)" stroke="#FFFCF7" stroke-width="2" stroke-linejoin="round"/>
<circle id="Ellipse 13" cx="10.1813" cy="24.3595" r="8.45321" transform="rotate(120 10.1813 24.3595)" stroke="#FFFCF7" stroke-width="2" stroke-linejoin="round"/>
<path id="Star 2" d="M35.8716 29.7759C35.799 29.5797 35.6119 29.4495 35.4027 29.4495C35.1935 29.4495 35.0064 29.5797 34.9338 29.7759L32.4972 36.3605L25.9127 38.797C25.7164 38.8697 25.5862 39.0567 25.5862 39.266C25.5862 39.4752 25.7164 39.6623 25.9127 39.7349L32.4972 42.1714L34.9338 48.756C35.0064 48.9522 35.1935 49.0825 35.4027 49.0825C35.6119 49.0825 35.799 48.9522 35.8716 48.756L38.3081 42.1714L44.8927 39.7349C45.0889 39.6623 45.2192 39.4752 45.2192 39.266C45.2192 39.0567 45.0889 38.8697 44.8927 38.797L38.3081 36.3605L35.8716 29.7759Z" fill="#6687FF" stroke="#6687FF" stroke-linejoin="round"/>
</g>
</svg>
