<svg width="96" height="47" viewBox="0 0 96 47" fill="none" xmlns="http://www.w3.org/2000/svg">
<g id="Group 22">
<circle id="Ellipse 8" cx="18.2766" cy="9.7506" r="7.80431" stroke="#CCD7FF" stroke-width="2" stroke-linejoin="round"/>
<path id="Polygon 2" d="M4.27322 42.6468H23.9555C24.7462 42.6468 25.4626 42.181 25.7835 41.4583L27.2861 38.0736L31.1389 31.9092C31.6364 31.1132 31.5188 30.0682 30.7975 29.4677C20.2312 20.6716 3.12999 25.2864 0.076642 39.0008C-0.41568 41.2121 1.54236 43.1506 3.70128 42.7168C3.88987 42.6789 4.08086 42.6468 4.27322 42.6468Z" fill="#CCD7FF"/>
<circle id="Ellipse 9" cx="6.80431" cy="6.80431" r="7.80431" transform="matrix(-1 0 0 1 82.6178 2.9458)" fill="#CCD7FF" stroke="#CCD7FF" stroke-width="2" stroke-linejoin="round"/>
<path id="Polygon 3" d="M62.0994 30.5464C72.5178 20.3289 90.8422 24.7571 94.0134 39.0008C94.5058 41.2121 92.5477 43.1506 90.3888 42.7168C90.2002 42.6789 90.0092 42.6468 89.8169 42.6468H66.8343" stroke="#CCD7FF" stroke-width="2" stroke-linejoin="round"/>
<circle id="Ellipse 7" cx="46.5" cy="11.5" r="7.5" fill="#6687FF" stroke="#6687FF" stroke-width="2" stroke-linejoin="round"/>
<path id="Polygon 1" d="M25.7409 39.1574L27.5161 40.0787L25.7409 39.1574C24.359 41.8201 26.2914 45 29.2913 45H63.7087C66.7086 45 68.641 41.8201 67.2591 39.1574L66.0269 36.7832C57.8159 20.9621 35.1841 20.9621 26.9731 36.7832L25.7409 39.1574Z" fill="#6687FF" stroke="#00114D" stroke-width="4" stroke-linejoin="round"/>
</g>
</svg>
