<svg xmlns="http://www.w3.org/2000/svg" width="52" height="26" viewBox="0 0 52 26" fill="none">
  <circle cx="25.8955" cy="6" r="5" stroke="#00114D" stroke-width="2" stroke-linejoin="round"/>
  <path d="M35.41 21.067C31.2631 13.6025 20.5279 13.6025 16.381 21.067C15.4007 22.8315 16.6767 25 18.6952 25H33.0958C35.1144 25 36.3903 22.8315 35.41 21.067Z" stroke="#00114D" stroke-width="2" stroke-linejoin="round"/>
  <circle cx="10.7125" cy="7.1814" r="4.61585" stroke="#00114D" stroke-width="2" stroke-linejoin="round"/>
  <path d="M3.40672 25.1627H14.3915C15.9468 25.1627 16.8374 23.4767 16.1005 22.2151L17.5723 19.8603C18.1827 18.8837 18.078 17.5203 17.0611 16.7923C11.174 12.5774 2.20841 15.1797 0.552678 22.6166C0.224543 24.0904 1.46543 25.3852 2.89098 25.2179C2.96807 25.2088 3.03317 25.1999 3.09118 25.1919C3.21253 25.1752 3.30281 25.1627 3.40672 25.1627Z" fill="#00114D" stroke="#00114D" stroke-linejoin="round"/>
  <circle cx="3.61585" cy="3.61585" r="4.61585" transform="matrix(-1 0 0 1 44.9033 3.56555)" fill="#00114D" stroke="#00114D" stroke-width="2" stroke-linejoin="round"/>
  <path d="M34 18.2325C39.5364 12.8029 49.2741 15.156 50.9593 22.7252C51.2107 23.8543 50.2599 24.8496 49.1673 24.7213C48.9763 24.6989 48.7856 24.6627 48.5933 24.6627H34.3905" stroke="#00114D" stroke-width="2" stroke-linejoin="round"/>
</svg>