<svg xmlns="http://www.w3.org/2000/svg" width="10" height="10" viewBox="0 0 10 10" fill="none">
  <path d="M5.44222 1.26668C5.35568 1.10265 5.18546 1 5 1C4.81454 1 4.64432 1.10265 4.55778 1.26668L3.44991 3.36648L1.11053 3.77125C0.927785 3.80287 0.777555 3.93304 0.720246 4.10942C0.662936 4.2858 0.707962 4.47942 0.837219 4.61241L2.4919 6.31493L2.15395 8.6649C2.12755 8.84846 2.20493 9.03157 2.35497 9.14058C2.50501 9.24959 2.70306 9.26659 2.86948 9.18476L5 8.13717L7.13052 9.18476C7.29694 9.26659 7.49499 9.24959 7.64503 9.14058C7.79507 9.03157 7.87245 8.84846 7.84605 8.6649L7.5081 6.31493L9.16278 4.61241C9.29204 4.47942 9.33706 4.2858 9.27975 4.10942C9.22244 3.93304 9.07222 3.80287 8.88947 3.77125L6.55009 3.36648L5.44222 1.26668Z" fill="#F90" stroke="#F90" stroke-linecap="round" stroke-linejoin="round"/>
</svg>