<svg width="42" height="57" viewBox="0 0 42 57" fill="none" xmlns="http://www.w3.org/2000/svg">
<g id="Group 50">
<circle id="Ellipse 7" cx="21" cy="20" r="8" fill="#6687FF" stroke="#6687FF" stroke-width="2" stroke-linejoin="round"/>
<path id="Ellipse 9" d="M41 55C41 44.1787 32.0457 36 21 36C9.95431 36 1 44.1787 1 55" stroke="#6687FF" stroke-width="2" stroke-linejoin="round"/>
<path id="Ellipse 8" d="M21 55L20.1878 55.5834C20.3757 55.8449 20.678 56 21 56C21.322 56 21.6243 55.8449 21.8122 55.5834L21 55ZM21 55C21.8122 55.5834 21.8123 55.5832 21.8125 55.583L21.8132 55.582L21.8159 55.5782L21.8261 55.564L21.8656 55.5088C21.9002 55.4602 21.9514 55.3884 22.0179 55.2945C22.151 55.1067 22.3457 54.8308 22.5932 54.4765C23.0882 53.7679 23.7945 52.7455 24.6418 51.488C26.3358 48.9738 28.596 45.5153 30.8577 41.742C33.1174 37.9721 35.3893 33.8705 37.0993 30.0733C38.7914 26.3158 40 22.716 40 20C40 9.50659 31.4934 1 21 1C10.5066 1 2 9.50659 2 20C2 22.716 3.20859 26.3158 4.90069 30.0733C6.61072 33.8705 8.88255 37.9721 11.1423 41.742C13.404 45.5153 15.6642 48.9738 17.3582 51.488C18.2055 52.7455 18.9118 53.7679 19.4068 54.4765C19.6543 54.8308 19.849 55.1067 19.9821 55.2945C20.0486 55.3884 20.0998 55.4602 20.1344 55.5088L20.1739 55.564L20.1841 55.5782L20.1868 55.582L20.1875 55.583C20.1877 55.5832 20.1878 55.5834 21 55Z" stroke="#FFFCF7" stroke-width="2" stroke-linejoin="round"/>
</g>
</svg>
