<svg width="97" height="27" viewBox="0 0 97 27" fill="none" xmlns="http://www.w3.org/2000/svg">
<path d="M3.03447 24.0946L4.68929 26.3894H4.02282L2.3945 24.1262H0.581901V26.3894H0V20.2725H2.56996C3.85115 20.2725 4.82561 21.0715 4.82561 22.2025C4.8193 23.1934 4.08719 23.9217 3.03321 24.0946H3.03447ZM0.57559 23.5834H2.45888C3.50529 23.5834 4.2374 23.047 4.2374 22.2025C4.2374 21.3581 3.5116 20.8153 2.45888 20.8153H0.57559V23.5834Z" fill="#0D0D0D"/>
<path d="M13.5655 23.0015H17.0178V23.5519H13.5655V25.8467H17.3598V26.3894H12.9659V20.2725H17.3598V20.8153H13.5655V23.0015Z" fill="#0D0D0D"/>
<path d="M25.3562 25.4907L25.7261 25.0439C26.2802 25.5803 26.9921 25.9325 27.8631 25.9325C28.8653 25.9325 29.446 25.396 29.446 24.775C29.446 24.1098 28.8653 23.8031 27.6725 23.5342C26.3408 23.2338 25.6087 22.8311 25.6087 21.8718C25.6087 20.9125 26.4923 20.1261 27.6927 20.1261C28.5763 20.1261 29.3021 20.472 29.8953 20.9958L29.5255 21.4426C29.0042 20.944 28.339 20.6499 27.6586 20.6499C26.8078 20.6499 26.2007 21.1738 26.2007 21.8264C26.2007 22.4398 26.8003 22.7087 27.9615 22.9839C29.2541 23.278 30.0392 23.7261 30.0392 24.7232C30.0392 25.7204 29.2415 26.4626 27.8429 26.4626C26.8407 26.4563 25.9899 26.0915 25.3562 25.4907Z" fill="#0D0D0D"/>
<path d="M38.9217 23.0015H42.374V23.5519H38.9217V25.8467H42.7161V26.3894H38.3222V20.2725H42.7161V20.8153H38.9217V23.0015Z" fill="#0D0D0D"/>
<path d="M55.4876 24.9441H51.9154L51.2717 26.3882H50.6405L53.386 20.2713H54.0171L56.7625 26.3882H56.1314L55.4876 24.9441ZM55.2339 24.3887L53.7053 20.9693L52.1767 24.3887H55.2352H55.2339Z" fill="#0D0D0D"/>
<path d="M67.9436 24.0946L69.5984 26.3894H68.9244L67.2961 24.1262H65.4847V26.3894H64.9028V20.2725H67.4728C68.754 20.2725 69.7284 21.0715 69.7284 22.2025C69.7284 23.1934 68.99 23.9217 67.9436 24.0946ZM65.4847 23.5834H67.368C68.4144 23.5834 69.1465 23.047 69.1465 22.2025C69.1465 21.3581 68.4207 20.8153 67.368 20.8153H65.4847V23.5834Z" fill="#0D0D0D"/>
<path d="M77.6529 23.3247C77.6529 21.584 79.136 20.1274 80.8691 20.1274C81.735 20.1274 82.5429 20.4896 83.1273 21.0728L82.7272 21.4679C82.2551 20.9819 81.5848 20.6651 80.8691 20.6651C79.4453 20.6651 78.2436 21.8819 78.2436 23.3259C78.2436 24.7699 79.439 25.9931 80.8691 25.9931C81.5848 25.9931 82.2475 25.6762 82.7272 25.184L83.1273 25.5917C82.5429 26.1673 81.7363 26.5371 80.8691 26.5371C79.1297 26.5371 77.6529 25.0678 77.6529 23.3259V23.3247Z" fill="#0D0D0D"/>
<path d="M96.1652 20.2725V26.3894H95.5833V23.5519H91.775V26.3894H91.1931V20.2725H91.775V22.9952H95.5833V20.2725H96.1652Z" fill="#0D0D0D"/>
<path d="M55.6669 1.55197H53.9249V15.8824H63.4954L65.2373 14.1342H55.6669V1.55197Z" fill="#0D0D0D"/>
<path d="M70.6335 14.1342V1.55197H68.8915V15.8824H78.64L80.2026 14.1342H70.6322H70.6335Z" fill="#0D0D0D"/>
<path d="M42.6959 0.808495C38.5241 0.808495 35.1236 4.21659 35.1236 8.41234C35.1236 12.6081 38.5178 16.0162 42.6959 16.0162C46.874 16.0162 50.2694 12.6081 50.2694 8.41234C50.2694 4.21659 46.8752 0.808495 42.6959 0.808495ZM42.6959 14.268C39.4809 14.268 36.8643 11.6412 36.8643 8.41234C36.8643 5.18348 39.4797 2.55672 42.6959 2.55672C45.9121 2.55672 48.5275 5.18348 48.5275 8.41234C48.5275 11.6412 45.9121 14.268 42.6959 14.268Z" fill="#0D0D0D"/>
<path d="M20.306 15.6842H21.9898V10.0003H28.7921C31.1096 10.0003 32.998 8.10561 32.998 5.77927C32.998 3.45293 31.1109 1.55828 28.7921 1.55828H20.306V15.6855V15.6842ZM28.7921 8.2798H21.9822V3.28505H28.7921C30.1667 3.28505 31.2762 4.40719 31.2762 5.77801C31.2838 7.16523 30.1667 8.27854 28.7921 8.27854V8.2798Z" fill="#0D0D0D"/>
<path d="M8.29683 0.828691L0 15.6552H1.89339L4.98971 10.1202H11.6178L14.7217 15.6552H16.1721L16.5053 15.4658L8.29683 0.828691ZM5.83795 8.59158L8.29683 4.20018L10.7557 8.59158H5.83795Z" fill="#0D0D0D"/>
<path d="M88.5714 13.9587C86.7146 13.9587 85.0548 13.0776 83.9882 11.7157L82.4356 12.5525C83.814 14.4611 86.0469 15.7057 88.5714 15.7057C91.0959 15.7057 93.3503 14.4459 94.7287 12.5159L93.1774 11.6854C92.1108 13.0688 90.4433 13.9574 88.5727 13.9574L88.5714 13.9587Z" fill="#0D0D0D"/>
<path d="M94.403 8.11066C94.403 9.02075 94.1922 9.88035 93.8224 10.6516L95.3598 11.4746C95.8597 10.4622 96.1437 9.31864 96.1437 8.11697C96.1437 4.13328 93.0764 0.856461 89.1887 0.543421V2.29796C92.1108 2.59712 94.403 5.08755 94.403 8.1094V8.11066Z" fill="#0D0D0D"/>
<path d="M82.7486 8.11066C82.7486 5.08881 85.0409 2.59838 87.963 2.29165V0.537109C84.0752 0.850149 81.008 4.12697 81.008 8.11066C81.008 9.33379 81.2983 10.485 81.8057 11.5036L83.3356 10.6806C82.9657 9.9018 82.7486 9.02706 82.7486 8.1094V8.11066Z" fill="#0D0D0D"/>
</svg>
