<?xml version="1.0" encoding="UTF-8"?>
<svg xmlns="http://www.w3.org/2000/svg" viewBox="0 0 725.43 179.04">
  <defs>
    <style>
      .cls-1 {
        fill: none;
      }

      .cls-2 {
        fill: #231f20;
      }
    </style>
  </defs>
  <g id="Layer_1" data-name="Layer 1">
    <path class="cls-1" d="M178.81,89.63c-50.66,8.94-80.46,38.74-89.4,89.4C80.46,128.37,50.66,98.57,0,89.63,50.66,80.69,80.46,50.89,89.4.23c8.94,50.66,38.74,80.46,89.4,89.4Z"/>
    <g>
      <path class="cls-2" d="M128.95,71.95c2.38-12.11,7.19-24.21,14.45-36.32-12.11,7.26-24.21,12.07-36.32,14.45,5.98,8.6,13.27,15.89,21.87,21.87Z"/>
      <path class="cls-2" d="M71.72,50.08c-12.11-2.38-24.21-7.19-36.32-14.45,7.26,12.11,12.07,24.21,14.45,36.32,8.6-5.98,15.89-13.27,21.87-21.87Z"/>
      <path class="cls-2" d="M107.09,129.18c12.11,2.38,24.21,7.19,36.32,14.45-7.26-12.11-12.07-24.21-14.45-36.32-8.6,5.98-15.89,13.27-21.87,21.87Z"/>
      <path class="cls-2" d="M49.86,107.32c-2.38,12.11-7.19,24.21-14.45,36.32,12.11-7.26,24.21-12.07,36.32-14.45-5.98-8.6-13.27-15.89-21.87-21.87Z"/>
    </g>
    <g>
      <path class="cls-2" d="M207.75,123.66V53.82h14.84l24.44,29.2,24.35-29.2h14.94v69.84h-14.06v-48.98l-25.22,30.17-25.32-30.07v48.89h-13.97Z"/>
      <path class="cls-2" d="M297.96,123.66V53.82h64.41v14.06h-50.25v13.77h40.45v14.16h-40.45v13.77h50.25v14.06h-64.41Z"/>
      <path class="cls-2" d="M372.06,123.66V53.92h55.77c2.59,0,4.93.63,7.03,1.89,2.1,1.26,3.8,2.96,5.09,5.09,1.29,2.13,1.94,4.46,1.94,6.98v18.43c0,2.52-.65,4.83-1.94,6.94-1.29,2.1-2.99,3.78-5.09,5.04-2.1,1.26-4.45,1.89-7.03,1.89l-41.81.1v23.38h-13.97ZM386.61,86.13h40.55c.19,0,.34-.05.44-.15.1-.1.15-.21.15-.34v-17.17c0-.19-.05-.34-.15-.44-.1-.1-.24-.15-.44-.15h-40.55c-.19,0-.34.05-.44.15s-.15.24-.15.44v17.17c0,.13.05.24.15.34.1.1.24.15.44.15ZM426.97,123.66l-20.66-24.64h18.33l17.07,20.27v4.37h-14.74Z"/>
      <path class="cls-2" d="M450.15,123.66V53.82h13.87v69.84h-13.87Z"/>
      <path class="cls-2" d="M473.04,123.66V53.82h55.77c2.59,0,4.93.63,7.03,1.89,2.1,1.26,3.8,2.94,5.09,5.04,1.29,2.1,1.94,4.45,1.94,7.03v41.9c0,2.59-.65,4.93-1.94,7.03-1.29,2.1-2.99,3.78-5.09,5.04-2.1,1.26-4.45,1.89-7.03,1.89h-55.77ZM487.49,109.6h40.64c.19,0,.34-.05.44-.15.1-.1.15-.24.15-.44v-40.55c0-.19-.05-.34-.15-.44s-.24-.15-.44-.15h-40.64c-.13,0-.26.05-.39.15-.13.1-.19.24-.19.44v40.55c0,.19.06.34.19.44.13.1.26.15.39.15Z"/>
      <path class="cls-2" d="M551.8,123.66V53.82h13.87v69.84h-13.87Z"/>
      <path class="cls-2" d="M574.69,67.79c0-2.59.63-4.93,1.89-7.03,1.26-2.1,2.94-3.78,5.04-5.04,2.1-1.26,4.45-1.89,7.03-1.89h41.81c2.59,0,4.93.63,7.03,1.89,2.1,1.26,3.8,2.94,5.09,5.04,1.29,2.1,1.94,4.45,1.94,7.03v55.87h-14.16v-22.99h-41.71v22.99h-13.97v-55.87ZM630.37,86.71v-18.24c0-.19-.05-.34-.15-.44s-.24-.15-.44-.15h-40.55c-.19,0-.34.05-.44.15s-.15.24-.15.44v18.24h41.71Z"/>
      <path class="cls-2" d="M655.59,123.66V53.82h14.84l40.84,48.69v-48.69h14.16v69.84h-14.84l-41.03-48.89v48.89h-13.97Z"/>
    </g>
  </g>
  <g id="Layer_2" data-name="Layer 2">
    <path class="cls-2" d="M89.92,0C80.98,50.66,51.18,80.46.51,89.4c50.66,8.94,80.46,38.74,89.4,89.4,8.94-50.66,38.74-80.46,89.4-89.4C128.66,80.46,98.86,50.66,89.92,0ZM112.24,111.56c-9.08,9.08-16.43,19.96-21.99,32.52-5.56-12.57-12.9-23.44-21.99-32.52s-19.96-16.43-32.52-21.99c12.57-5.56,23.44-12.9,32.52-21.99,9.08-9.08,16.43-19.96,21.99-32.52,5.56,12.57,12.9,23.44,21.99,32.52,9.08,9.08,19.96,16.43,32.52,21.99-12.57,5.56-23.44,12.9-32.52,21.99Z"/>
  </g>
</svg>