<svg width="151" height="33" viewBox="0 0 151 33" fill="none" xmlns="http://www.w3.org/2000/svg">
<path d="M150.416 30H144.732L140.237 22.3101C139.94 22.3473 139.643 22.3473 139.308 22.3473H133.439V30H128.461V3.99561H139.308C146.032 3.99561 149.859 7.22758 149.859 12.9485C149.859 17.0349 148.039 19.9697 144.695 21.3814L150.416 30ZM133.439 8.34205V17.9637H139.308C143.023 17.9637 145.104 16.3663 145.104 13.0971C145.104 9.90232 143.023 8.34205 139.308 8.34205H133.439Z" fill="#14191F"/>
<path d="M104.469 3.99561H125.681V8.41635H117.582V30H112.567V8.41635H104.469V3.99561Z" fill="#14191F"/>
<path d="M82.0625 3.99561H101.12V8.34205H87.0405V14.7689H99.6712V19.1153H87.0405V25.6535H101.566V30H82.0625V3.99561Z" fill="#14191F"/>
<path d="M51.1953 3.99561H56.9534L65.1262 20.6756L73.2619 3.99561H78.9829V30H74.4507L74.4135 11.4254L66.7236 27.3253H63.4917L55.8018 11.4254V30H51.1953V3.99561Z" fill="#14191F"/>
<path d="M13.6511 31.2849C8.79517 29.9803 4.36729 27.4172 0.8125 23.8532L21.0635 3.54932L13.6511 31.2849Z" fill="#9DC88E"/>
<path d="M21.1973 4.04688C21.2615 3.99002 21.3277 3.93214 21.3926 3.87598L39.2441 21.7744C36.8666 24.1384 34.0532 26.0168 30.959 27.3018C29.8986 27.7421 28.8116 28.1073 27.707 28.4014L28.4775 31.2852C23.6216 32.5897 18.5083 32.5897 13.6523 31.2852L14.4268 28.3867C14.3071 28.3546 14.1876 28.322 14.0684 28.2881C13.4817 26.2284 13.168 24.0553 13.168 21.8096C13.168 14.9191 16.1233 8.71266 20.8457 4.36621L21.0645 3.54883L21.1973 4.04688Z" fill="#F0DE7A"/>
<path d="M41.3174 23.8535C37.7626 27.4175 33.3344 29.9806 28.4785 31.2852L27.707 28.4004L27.7061 28.4014C27.4753 28.4627 27.244 28.5222 27.0117 28.5771C20.9918 26.8363 16.59 21.2839 16.5898 14.7031C16.5898 10.5181 18.3703 6.74883 21.2148 4.11133L21.2158 4.10938L21.0602 3.54883L41.3174 23.8535Z" fill="#FBA6A6"/>
<path d="M24.4809 4.17407C24.4809 6.07376 22.9409 7.61376 21.0413 7.61376C19.1416 7.61376 17.6016 6.07376 17.6016 4.17407C17.6016 2.27438 19.1416 0.734375 21.0413 0.734375C22.9409 0.734375 24.4809 2.27438 24.4809 4.17407Z" fill="white"/>
<path d="M21.5098 3.84473L21.9961 4.33203C21.9697 4.35508 21.9432 4.37813 21.917 4.40137L39.0156 21.5459C36.7435 23.9625 33.5014 25.4756 29.9004 25.4756C28.8383 25.4756 27.8074 25.3441 26.8232 25.0967C21.4394 23.7431 17.4572 18.9202 17.457 13.1777C17.457 12.8779 17.4679 12.5806 17.4893 12.2861C17.3502 13.0709 17.2773 13.8785 17.2773 14.7031C17.2775 21.401 22.0655 26.9792 28.4053 28.2051C27.9438 28.342 27.4788 28.4655 27.0107 28.5762C21.1053 26.8677 16.7571 21.492 16.5947 15.0752L16.5898 14.7031C16.5898 12.6856 17.0037 10.7646 17.751 9.02051C15.2902 12.6838 13.8555 17.0812 13.8555 21.8096C13.8555 24.1356 14.2041 26.3811 14.8496 28.499C14.5888 28.4337 14.3291 28.3635 14.0703 28.29C13.5369 26.418 13.2277 24.4526 13.1758 22.4238L13.168 21.8096C13.168 14.6186 16.3848 8.17102 21.4717 3.80664L21.5098 3.84473Z" fill="white"/>
<path fill-rule="evenodd" clip-rule="evenodd" d="M21.042 0.0107422C23.3412 0.0107422 25.205 1.8747 25.2051 4.17383C25.2051 4.89609 25.0191 5.57415 24.6953 6.16602L41.8272 23.3418C42.1087 23.6241 42.1086 24.0809 41.8272 24.3633C39.1007 27.0968 35.8633 29.2656 32.3008 30.7451C28.7385 32.2244 24.9203 32.9863 21.0645 32.9863C17.2085 32.9863 13.3896 32.2245 9.82716 30.7451C6.26471 29.2656 3.0272 27.0968 0.300793 24.3633C0.0195928 24.0809 0.0194617 23.6241 0.300793 23.3418L17.4024 6.19434C17.0693 5.59595 16.8789 4.90725 16.8789 4.17383C16.879 1.87479 18.743 0.0108855 21.042 0.0107422ZM27.4746 28.9453C26.5798 29.1732 25.6737 29.3536 24.7598 29.4854L24.9151 30.5654C24.7192 30.5935 24.5226 30.6188 24.3262 30.6426L24.1943 29.5615C23.2522 29.6764 22.303 29.7387 21.3506 29.75L21.3633 30.8379C21.2644 30.839 21.1654 30.8389 21.0664 30.8389C20.9675 30.8389 20.8684 30.839 20.7695 30.8379L20.7803 29.75C19.8277 29.7405 18.8781 29.6805 17.9356 29.5674L17.8067 30.6426C17.6101 30.6188 17.4137 30.5935 17.2178 30.5654L17.3701 29.4922C16.4541 29.3619 15.5455 29.1839 14.6484 28.957L14.1895 30.6758C16.4317 31.2469 18.7409 31.539 21.0645 31.5391C23.3875 31.539 25.6959 31.2467 27.9375 30.6758L27.4746 28.9453ZM1.84083 23.8447C4.32204 26.2074 7.21685 28.0947 10.3818 29.4092C11.3968 29.8307 12.4341 30.1896 13.4873 30.4873L13.9463 28.7676C13.0585 28.5165 12.1834 28.218 11.3242 27.873L10.9229 28.874C10.8311 28.8371 10.7389 28.7997 10.6475 28.7617C10.5561 28.7238 10.465 28.6844 10.374 28.6455L10.7969 27.6553C9.91984 27.2806 9.06542 26.8593 8.23732 26.3926L7.71095 27.3291C7.53845 27.2317 7.36658 27.1323 7.1963 27.0312L7.74415 26.1074C6.92518 25.622 6.13246 25.0934 5.37111 24.5215L4.72853 25.3779C4.57041 25.259 4.41338 25.138 4.25782 25.0156L4.91896 24.1729C4.28571 23.6752 3.67428 23.1484 3.0879 22.5928L1.84083 23.8447ZM39.0156 22.5713C38.4318 23.1258 37.8229 23.6514 37.1924 24.1484L37.875 25.0156C37.7195 25.138 37.5624 25.259 37.4043 25.3779L36.7412 24.4971C35.9817 25.0694 35.1911 25.5988 34.374 26.085L34.9365 27.0312C34.7663 27.1323 34.5943 27.2318 34.4219 27.3291L33.8809 26.3711C33.0544 26.8387 32.2016 27.2609 31.3262 27.6367L31.7588 28.6455C31.6679 28.6844 31.5768 28.7238 31.4854 28.7617C31.394 28.7997 31.3017 28.8371 31.21 28.874L30.7998 27.8555C29.9397 28.2026 29.0636 28.503 28.1748 28.7559L28.6387 30.4873C29.6925 30.1895 30.7305 29.8309 31.7461 29.4092C34.9107 28.0949 37.8051 26.2079 40.2861 23.8457L39.0156 22.5713ZM3.60157 22.0781C5.84714 24.203 8.45907 25.9045 11.3154 27.0908C14.3986 28.3712 17.7039 29.0303 21.041 29.0303C24.378 29.0303 27.6826 28.3711 30.7656 27.0908C33.6316 25.9006 36.2513 24.1914 38.502 22.0566L21.0635 4.57227L3.60157 22.0781ZM21.042 1.45801C19.5421 1.45815 18.3263 2.67388 18.3262 4.17383C18.3262 4.50031 18.3854 4.81268 18.4912 5.10254L19.3145 4.27734C19.3124 4.24304 19.3086 4.20864 19.3086 4.17383C19.3087 3.21656 20.0847 2.44055 21.042 2.44043C21.9994 2.44043 22.7753 3.21648 22.7754 4.17383C22.7754 4.19479 22.7723 4.21556 22.7715 4.23633L23.6035 5.07129C23.7027 4.79025 23.7588 4.48882 23.7588 4.17383C23.7587 2.6738 22.5421 1.45801 21.042 1.45801Z" fill="#14191F"/>
</svg>
