<svg width="279" height="73" viewBox="0 0 279 73" fill="none" xmlns="http://www.w3.org/2000/svg">
<path d="M259.364 65.3819V43.4878H263.08V52.9797H273.916V43.4878H277.632V65.3819H273.916V56.4272H263.08V65.3819H259.364Z" fill="#1D4B38"/>
<path d="M250.718 59.3374L253.091 61.7552C250.822 64.352 248.017 65.6505 244.674 65.6505C241.36 65.6505 238.599 64.5908 236.391 62.4716C234.212 60.3224 233.122 57.6211 233.122 54.3676C233.122 51.0842 234.241 48.368 236.48 46.2189C238.719 44.0399 241.539 42.9504 244.942 42.9504C248.285 42.9504 251.106 44.2041 253.404 46.7114L251.076 49.2635C250.031 48.2486 249.046 47.5472 248.121 47.1591C247.196 46.7711 246.106 46.5771 244.853 46.5771C242.614 46.5771 240.734 47.2934 239.211 48.7262C237.719 50.1589 236.973 51.9797 236.973 54.1885C236.973 56.3675 237.719 58.2181 239.211 59.7404C240.704 61.2627 242.48 62.0238 244.539 62.0238C245.793 62.0238 246.867 61.8149 247.763 61.397C248.688 60.9791 249.673 60.2926 250.718 59.3374Z" fill="#1D4B38"/>
<path d="M222.76 57.4123L228.491 65.3819H223.79L218.552 57.9943H213.716V65.3819H210V43.4878H218.149C221.462 43.4878 223.835 44.0549 225.268 45.1892C226.73 46.2936 227.462 48.0994 227.462 50.6067C227.462 54.2184 225.894 56.4869 222.76 57.4123ZM218.283 54.6811C220.343 54.6811 221.76 54.3677 222.536 53.7409C223.313 53.114 223.701 52.0544 223.701 50.562C223.701 49.1292 223.313 48.1591 222.536 47.6517C221.76 47.1144 220.372 46.8458 218.373 46.8458H213.716V54.6811H218.283Z" fill="#1D4B38"/>
<path d="M188.11 60.4121L185.917 65.3819H181.977L191.648 43.4878H195.588L205.214 65.3819H201.274L199.08 60.4121H188.11ZM197.602 56.9645L193.618 47.9651L189.633 56.9645H197.602Z" fill="#1D4B38"/>
<path d="M178.201 43.4878V46.9353H166.515V52.7558H176.992V56.0243H166.515V61.8896H178.559V65.3819H162.799V43.4878H178.201Z" fill="#1D4B38"/>
<path d="M144.253 48.9948C144.253 49.9201 144.596 50.5917 145.283 51.0096C145.969 51.517 147.432 52.0394 149.67 52.5767C152.028 53.1438 153.745 53.9199 154.819 54.9049C155.924 55.8899 156.476 57.3077 156.476 59.1583C156.476 61.0985 155.745 62.6656 154.282 63.8595C152.849 65.0535 150.969 65.6505 148.641 65.6505C145.268 65.6505 142.223 64.4565 139.507 62.0686L141.835 59.2927C144.104 61.2328 146.402 62.2029 148.73 62.2029C149.894 62.2029 150.834 61.9492 151.551 61.4418C152.267 60.9045 152.625 60.218 152.625 59.3822C152.625 58.5464 152.297 57.8898 151.64 57.4122C151.014 56.9346 149.879 56.5018 148.238 56.1138C145.402 55.4571 143.432 54.681 142.328 53.7856C141.044 52.8005 140.402 51.2932 140.402 49.2635C140.402 47.2934 141.119 45.7562 142.551 44.6518C143.984 43.5176 145.82 42.9504 148.059 42.9504C151.073 42.9504 153.655 43.831 155.804 45.5921L153.834 48.368C153.178 47.771 152.297 47.2934 151.193 46.9353C150.088 46.5472 148.999 46.3532 147.924 46.3532C146.82 46.3532 145.924 46.592 145.238 47.0696C144.581 47.5173 144.253 48.1591 144.253 48.9948Z" fill="#1D4B38"/>
<path d="M134.477 43.4878V46.9353H122.791V52.7558H133.268V56.0243H122.791V61.8896H134.835V65.3819H119.075V43.4878H134.477Z" fill="#1D4B38"/>
<path d="M107.281 57.4123L113.012 65.3819H108.311L103.072 57.9943H98.2367V65.3819H94.5205V43.4878H102.669C105.982 43.4878 108.355 44.0549 109.788 45.1892C111.251 46.2936 111.982 48.0994 111.982 50.6067C111.982 54.2184 110.415 56.4869 107.281 57.4123ZM102.804 54.6811C104.863 54.6811 106.281 54.3677 107.057 53.7409C107.833 53.114 108.221 52.0544 108.221 50.562C108.221 49.1292 107.833 48.1591 107.057 47.6517C106.281 47.1144 104.893 46.8458 102.893 46.8458H98.2367V54.6811H102.804Z" fill="#1D4B38"/>
<path d="M265.786 13.4878C269.696 13.4878 272.71 14.443 274.83 16.3533C276.949 18.2338 278.009 20.8903 278.009 24.3229C278.009 27.8152 276.964 30.5315 274.875 32.4716C272.785 34.4118 269.666 35.3819 265.517 35.3819H258.264V13.4878H265.786ZM265.651 16.8906H261.98V31.8896H266.054C268.741 31.8896 270.785 31.2628 272.188 30.0091C273.591 28.7256 274.292 26.8601 274.292 24.4125C274.292 19.3979 271.412 16.8906 265.651 16.8906Z" fill="#1D4B38"/>
<path d="M240.307 16.3084C238.128 16.3084 236.293 17.0845 234.8 18.6366C233.308 20.1888 232.562 22.0692 232.562 24.2781C232.562 26.4869 233.308 28.3673 234.8 29.9195C236.293 31.4418 238.128 32.2029 240.307 32.2029C242.486 32.2029 244.322 31.4418 245.814 29.9195C247.307 28.3673 248.053 26.4869 248.053 24.2781C248.053 22.0692 247.307 20.1888 245.814 18.6366C244.322 17.0845 242.486 16.3084 240.307 16.3084ZM240.307 35.6057C237.024 35.6057 234.278 34.5311 232.069 32.382C229.86 30.203 228.756 27.5017 228.756 24.2781C228.756 21.0544 229.86 18.368 232.069 16.2189C234.278 14.0399 237.024 12.9504 240.307 12.9504C243.591 12.9504 246.337 14.0399 248.546 16.2189C250.754 18.368 251.859 21.0544 251.859 24.2781C251.859 27.5017 250.739 30.1881 248.501 32.3372C246.262 34.5162 243.531 35.6057 240.307 35.6057Z" fill="#1D4B38"/>
<path d="M212.232 16.3084C210.053 16.3084 208.217 17.0845 206.725 18.6366C205.233 20.1888 204.486 22.0692 204.486 24.2781C204.486 26.4869 205.233 28.3673 206.725 29.9195C208.217 31.4418 210.053 32.2029 212.232 32.2029C214.411 32.2029 216.247 31.4418 217.739 29.9195C219.232 28.3673 219.978 26.4869 219.978 24.2781C219.978 22.0692 219.232 20.1888 217.739 18.6366C216.247 17.0845 214.411 16.3084 212.232 16.3084ZM212.232 35.6057C208.949 35.6057 206.203 34.5311 203.994 32.382C201.785 30.203 200.681 27.5017 200.681 24.2781C200.681 21.0544 201.785 18.368 203.994 16.2189C206.203 14.0399 208.949 12.9504 212.232 12.9504C215.516 12.9504 218.262 14.0399 220.47 16.2189C222.679 18.368 223.784 21.0544 223.784 24.2781C223.784 27.5017 222.664 30.1881 220.426 32.3372C218.187 34.5162 215.456 35.6057 212.232 35.6057Z" fill="#1D4B38"/>
<path d="M174.357 29.248L179.237 13.4878H182.55L187.431 29.248L192.938 13.4878H196.923L189.266 35.3819H185.595L181.028 20.3829H180.76L176.148 35.3819H172.477L164.82 13.4878H168.805L174.357 29.248Z" fill="#1D4B38"/>
<path d="M148.82 13.4878C152.73 13.4878 155.745 14.443 157.864 16.3533C159.983 18.2338 161.043 20.8903 161.043 24.3229C161.043 27.8152 159.998 30.5315 157.909 32.4716C155.819 34.4118 152.7 35.3819 148.551 35.3819H141.298V13.4878H148.82ZM148.685 16.8906H145.014V31.8896H149.088C151.775 31.8896 153.819 31.2628 155.222 30.0091C156.625 28.7256 157.327 26.8601 157.327 24.4125C157.327 19.3979 154.446 16.8906 148.685 16.8906Z" fill="#1D4B38"/>
<path d="M134.477 13.4878V16.9353H122.791V22.7558H133.268V26.0243H122.791V31.8896H134.835V35.3819H119.075V13.4878H134.477Z" fill="#1D4B38"/>
<path d="M107.281 27.4123L113.012 35.3819H108.311L103.072 27.9943H98.2367V35.3819H94.5205V13.4878H102.669C105.982 13.4878 108.355 14.0549 109.788 15.1892C111.251 16.2936 111.982 18.0994 111.982 20.6067C111.982 24.2184 110.415 26.4869 107.281 27.4123ZM102.804 24.6811C104.863 24.6811 106.281 24.3677 107.057 23.7409C107.833 23.114 108.221 22.0544 108.221 20.562C108.221 19.1292 107.833 18.1591 107.057 17.6517C106.281 17.1144 104.893 16.8458 102.893 16.8458H98.2367V24.6811H102.804Z" fill="#1D4B38"/>
<path fill-rule="evenodd" clip-rule="evenodd" d="M18.1204 6.99695C24.46 2.76095 31.9134 0.5 39.5379 0.5C47.1625 0.5 54.6159 2.76095 60.9555 6.99695C67.2951 11.2329 72.2363 17.2537 75.1541 24.2979C78.0719 31.3421 78.8353 39.0934 77.3478 46.5715C75.8604 54.0496 72.1888 60.9186 66.7974 66.31L63.2618 62.7745C67.954 58.0824 71.1494 52.1042 72.4439 45.596C73.7385 39.0878 73.0741 32.3419 70.5347 26.2114C67.9953 20.0808 63.695 14.8409 58.1777 11.1543C52.6603 7.46771 46.1736 5.5 39.5379 5.5C32.9023 5.5 26.4156 7.46771 20.8982 11.1543C15.3808 14.8409 11.0806 20.0808 8.54121 26.2114C6.00184 32.3419 5.33743 39.0878 6.63199 45.596C7.92655 52.1042 11.1219 58.0824 15.8141 62.7745L12.2785 66.31C6.88714 60.9186 3.21555 54.0496 1.72806 46.5715C0.240576 39.0934 1.00401 31.3421 3.92181 24.2979C6.83962 17.2537 11.7808 11.2329 18.1204 6.99695Z" fill="#1D4B38"/>
<rect width="5" height="25" transform="matrix(-0.707107 0.707107 0.707107 0.707107 37.7344 15.7681)" fill="#1D4B38"/>
<rect width="10.1" height="20" transform="matrix(0.707107 0.707107 0.707107 -0.707107 23.6025 29.9004)" fill="#1D4B38"/>
<rect width="5" height="25" transform="matrix(-0.707107 0.707107 0.707107 0.707107 37.7363 29.8992)" fill="#1D4B38"/>
<rect width="10.1" height="20" transform="matrix(0.707107 0.707107 0.707107 -0.707107 23.6035 44.0315)" fill="#1D4B38"/>
<rect width="5" height="25" transform="matrix(-0.707107 0.707107 0.707107 0.707107 37.7363 44.0317)" fill="#1D4B38"/>
<rect width="10" height="20" transform="matrix(0.707107 0.707107 0.707107 -0.707107 23.6035 58.1641)" fill="#1D4B38"/>
<path d="M37.0029 72.4626L41.9994 72.4626L41.9994 60.9707L37.0029 65.9672L37.0029 72.4626Z" fill="#1D4B38"/>
</svg>
