<?xml version="1.0" encoding="UTF-8" standalone="no"?>
<!-- Created with Inkscape (http://www.inkscape.org/) -->

<svg
   version="1.1"
   id="svg824"
   xml:space="preserve"
   width="254.57903"
   height="104.58953"
   viewBox="0 0 254.57903 104.58954"
   sodipodi:docname="Tony Blair Logo.svg"
   inkscape:version="1.1.1 (3bf5ae0d25, 2021-09-20)"
   xmlns:inkscape="http://www.inkscape.org/namespaces/inkscape"
   xmlns:sodipodi="http://sodipodi.sourceforge.net/DTD/sodipodi-0.dtd"
   xmlns="http://www.w3.org/2000/svg"
   xmlns:svg="http://www.w3.org/2000/svg"><defs
     id="defs828"><clipPath
       clipPathUnits="userSpaceOnUse"
       id="clipPath840"><path
         d="m 0,-0.5102 h 597.6 v 842.4 H 0 Z"
         clip-rule="evenodd"
         id="path838" /></clipPath><clipPath
       clipPathUnits="userSpaceOnUse"
       id="clipPath866"><path
         d="m 382.464,702.0332 h 191.232 v 78.6566 H 382.464 Z"
         clip-rule="evenodd"
         id="path864" /></clipPath></defs><sodipodi:namedview
     id="namedview826"
     pagecolor="#ffffff"
     bordercolor="#666666"
     borderopacity="1.0"
     inkscape:pageshadow="2"
     inkscape:pageopacity="0.0"
     inkscape:pagecheckerboard="true"
     showgrid="false"
     fit-margin-top="0"
     fit-margin-left="0"
     fit-margin-right="0"
     fit-margin-bottom="0"
     inkscape:zoom="2.8828003"
     inkscape:cx="78.916323"
     inkscape:cy="51.859298"
     inkscape:window-width="1920"
     inkscape:window-height="1017"
     inkscape:window-x="-8"
     inkscape:window-y="-8"
     inkscape:window-maximized="1"
     inkscape:current-layer="g836" /><g
     id="g830"
     inkscape:groupmode="layer"
     inkscape:label="Africa-s-Perfect-Storm"
     transform="matrix(1.3333333,0,0,-1.3333333,-509.96369,1040.6858)"><g
       id="g834"><g
         id="g836"
         clip-path="url(#clipPath840)"><g
           id="g860"><g
             id="g862"
             clip-path="url(#clipPath866)"><g
               id="g868"
               transform="matrix(0.2924,0,0,-0.2924,382.464,780.6898)" /><g
               id="g872"
               transform="matrix(0.2924,0,0,-0.2924,382.464,780.6898)" /><g
               id="g876"
               transform="matrix(0.2924,0,0,-0.2924,382.464,780.6898)" /><g
               id="g880"
               transform="matrix(0.2924,0,0,-0.2924,382.464,780.6898)" /><g
               id="g884"
               transform="matrix(0.2924,0,0,-0.2924,382.464,780.6898)" /><g
               id="g888"
               transform="matrix(0.2924,0,0,-0.2924,382.464,780.6898)" /><g
               id="g892"
               transform="matrix(0.2924,0,0,-0.2924,382.464,780.6898)" /><g
               id="g896"
               transform="matrix(0.2924,0,0,-0.2924,382.464,780.6898)" /><g
               id="g900"
               transform="matrix(0.2924,0,0,-0.2924,382.464,780.6898)" /><g
               id="g904"
               transform="matrix(0.2924,0,0,-0.2924,382.464,780.6898)" /><g
               id="g908"
               transform="matrix(0.2924,0,0,-0.2924,382.464,780.6898)" /><g
               id="g912"
               transform="matrix(0.2924,0,0,-0.2924,382.464,780.6898)" /><g
               id="g916"
               transform="matrix(0.2924,0,0,-0.2924,382.464,780.6898)" /><g
               id="g920"
               transform="matrix(0.2924,0,0,-0.2924,382.464,780.6898)" /><g
               id="g924"
               transform="matrix(0.2924,0,0,-0.2924,382.464,780.6898)" /><g
               id="g928"
               transform="matrix(0.2924,0,0,-0.2924,382.464,780.6898)" /><g
               id="g932"
               transform="matrix(0.2924,0,0,-0.2924,382.464,780.6898)" /><g
               id="g936"
               transform="matrix(0.2924,0,0,-0.2924,382.464,780.6898)" /><g
               id="g940"
               transform="matrix(0.2924,0,0,-0.2924,382.464,780.6898)" /><g
               id="g944"
               transform="matrix(0.2924,0,0,-0.2924,382.464,780.6898)" /><g
               id="g948"
               transform="matrix(0.2924,0,0,-0.2924,382.464,780.6898)" /><g
               id="g952"
               transform="matrix(0.2924,0,0,-0.2924,382.464,780.6898)" /><g
               id="g956"
               transform="matrix(0.2924,0,0,-0.2924,382.464,780.6898)" /><g
               id="g960"
               transform="matrix(0.2924,0,0,-0.2924,382.464,780.6898)" /><g
               id="g964"
               transform="matrix(0.2924,0,0,-0.2924,382.464,780.6898)" /><g
               id="g968"
               transform="matrix(0.2924,0,0,-0.2924,382.464,780.6898)" /><g
               id="g972"
               transform="matrix(0.2924,0,0,-0.2924,382.464,780.6898)" /><g
               id="g976"
               transform="matrix(0.2924,0,0,-0.2924,382.464,780.6898)" /><g
               id="g980"
               transform="matrix(0.2924,0,0,-0.2924,382.464,780.6898)" /><g
               id="g984"
               transform="matrix(0.2924,0,0,-0.2924,382.464,780.6898)" /><g
               id="g988"
               transform="matrix(0.2924,0,0,-0.2924,382.464,780.6898)" /><g
               id="g992"
               transform="matrix(0.2924,0,0,-0.2924,382.464,780.6898)" /><g
               id="g996"
               transform="matrix(0.2924,0,0,-0.2924,382.464,780.6898)" /><g
               id="g1000"
               transform="matrix(0.2924,0,0,-0.2924,382.464,780.6898)" /><g
               id="g1004"
               transform="matrix(0.2924,0,0,-0.2924,382.464,780.6898)" /><g
               id="g1008"
               transform="matrix(0.2924,0,0,-0.2924,382.464,780.6898)" /><g
               id="g1012"
               transform="matrix(0.2924,0,0,-0.2924,382.464,780.6898)" /><g
               id="g1016"
               transform="matrix(0.2924,0,0,-0.2924,382.464,780.6898)" /><g
               id="g1020"
               transform="matrix(0.2924,0,0,-0.2924,382.464,780.6898)" /><g
               id="g1024"
               transform="matrix(0.2924,0,0,-0.2924,382.464,780.6898)" /><g
               id="g1028"
               transform="matrix(0.2924,0,0,-0.2924,382.464,780.6898)" /><g
               id="g1032"
               transform="matrix(0.2924,0,0,-0.2924,382.464,780.6898)" /><g
               id="g1036"
               transform="matrix(0.2924,0,0,-0.2924,382.464,780.6898)" /><g
               id="g1040"
               transform="matrix(0.2924,0,0,-0.2924,382.464,780.6898)" /><g
               id="g1044"
               transform="matrix(0.2924,0,0,-0.2924,382.464,780.6898)" /><g
               id="g1048"
               transform="matrix(0.2924,0,0,-0.2924,382.464,780.6898)" /><g
               id="g1052"
               transform="matrix(0.2924,0,0,-0.2924,382.464,780.6898)" /><g
               id="g1056"
               transform="matrix(0.2924,0,0,-0.2924,382.464,780.6898)" /><g
               id="g1060"
               transform="matrix(0.2924,0,0,-0.2924,382.464,780.6898)" /><g
               id="g1064"
               transform="matrix(0.2924,0,0,-0.2924,382.464,780.6898)" /><g
               id="g1068"
               transform="matrix(0.2924,0,0,-0.2924,382.464,780.6898)" /><g
               id="g1072"
               transform="matrix(0.2924,0,0,-0.2924,382.464,780.6898)" /><g
               id="g1076"
               transform="matrix(0.2924,0,0,-0.2924,382.464,780.6898)" /><g
               id="g1080"
               transform="matrix(0.2924,0,0,-0.2924,382.464,780.6898)" /><g
               id="g1084"
               transform="matrix(0.2924,0,0,-0.2924,382.464,780.6898)" /><g
               id="g1088"
               transform="matrix(0.2924,0,0,-0.2924,382.464,780.6898)" /><g
               id="g1092"
               transform="matrix(0.2924,0,0,-0.2924,382.464,780.6898)" /><g
               id="g1096"
               transform="matrix(0.2924,0,0,-0.2924,382.464,780.6898)" /><g
               id="g1100"
               transform="matrix(0.2924,0,0,-0.2924,382.464,780.6898)" /><g
               id="g1104"
               transform="matrix(0.2924,0,0,-0.2924,382.464,780.6898)" /><g
               id="g1108"
               transform="matrix(0.2924,0,0,-0.2924,382.464,780.6898)" /><g
               id="g1112"
               transform="matrix(0.2924,0,0,-0.2924,382.464,780.6898)" /><g
               id="g1116"
               transform="matrix(0.2924,0,0,-0.2924,382.464,780.6898)" /><g
               id="g1120"
               transform="matrix(0.2924,0,0,-0.2924,382.464,780.6898)" /><g
               id="g1124"
               transform="matrix(0.2924,0,0,-0.2924,382.464,780.6898)"><g
                 id="g2291"><path
                   d="M 159.37,97.5 V 64.62 c 0,-0.8 -0.64,-1.44 -1.44,-1.44 h -11.51 c -0.8,0 -1.44,0.64 -1.44,1.44 V 97.5 c 0,0.8 0.64,1.44 1.44,1.44 h 11.51 c 0.79,0 1.44,-0.65 1.44,-1.44 z"
                   style="fill:#706f6f;fill-opacity:1;fill-rule:nonzero;stroke:none"
                   id="path870"
                   transform="translate(7.0506157e-6)" /><path
                   d="m 146.42,27.6 h 11.51 c 0.79,0 1.44,-0.64 1.44,-1.44 V 8.01 c 0,-1.02 -1.04,-1.73 -1.98,-1.34 -4.04,1.67 -7.96,3.69 -11.74,6.05 -0.42,0.26 -0.68,0.73 -0.68,1.23 v 12.2 c 0.01,0.81 0.65,1.45 1.45,1.45 z"
                   style="fill:#706f6f;fill-opacity:1;fill-rule:nonzero;stroke:none"
                   id="path874"
                   transform="translate(7.0506157e-6)" /><path
                   d="m 254.45,124.28 c 17.61,-26.58 17.61,-61.38 0,-87.95 -0.63,-0.95 -2.11,-0.49 -2.11,0.64 v 86.67 c 0,1.14 1.49,1.59 2.11,0.64 z"
                   style="fill:#706f6f;fill-opacity:1;fill-rule:nonzero;stroke:none"
                   id="path878"
                   transform="translate(7.0506157e-6)" /><path
                   d="m 218.05,98.94 h 11.51 c 0.79,0 1.44,-0.64 1.44,-1.44 V 14.01 c 0,-0.5 -0.26,-0.96 -0.68,-1.23 -3.77,-2.37 -7.7,-4.4 -11.74,-6.07 -0.94,-0.39 -1.97,0.32 -1.97,1.34 V 97.5 c 0,0.8 0.64,1.44 1.44,1.44 z"
                   style="fill:#706f6f;fill-opacity:1;fill-rule:nonzero;stroke:none"
                   id="path882"
                   transform="translate(7.0506157e-6)" /><path
                   d="m 193.77,0.81 c -3.91,-0.28 -7.82,-0.28 -11.73,0 -0.75,0.06 -1.33,0.69 -1.33,1.44 v 130.89 c 0,0.8 0.65,1.44 1.44,1.44 h 11.51 c 0.8,0 1.44,-0.65 1.44,-1.44 V 2.24 c 0,-0.74 -0.58,-1.38 -1.33,-1.43 z"
                   style="fill:#706f6f;fill-opacity:1;fill-rule:nonzero;stroke:none"
                   id="path886"
                   transform="translate(7.0506157e-6)" /><path
                   d="m 37.33,110.97 v 22.32 c 0,0.8 0.64,1.44 1.44,1.44 h 11.51 c 0.8,0 1.44,-0.64 1.44,-1.44 v -22.32 c 0,-0.8 -0.64,-1.44 -1.44,-1.44 H 38.77 c -0.79,0 -1.44,0.65 -1.44,1.44 z"
                   style="fill:#706f6f;fill-opacity:1;fill-rule:nonzero;stroke:none"
                   id="path890"
                   transform="translate(7.0506157e-6)" /><path
                   d="m 108.96,100.3 v 33 c 0,0.8 0.64,1.44 1.44,1.44 h 11.51 c 0.79,0 1.44,-0.64 1.44,-1.44 v -33 c 0,-0.8 -0.64,-1.44 -1.44,-1.44 H 110.4 c -0.79,0 -1.44,0.64 -1.44,1.44 z"
                   style="fill:#706f6f;fill-opacity:1;fill-rule:nonzero;stroke:none"
                   id="path894"
                   transform="translate(7.0506157e-6)" /><path
                   d="M 123.35,61.64 V 28.76 c 0,-0.8 -0.64,-1.44 -1.44,-1.44 H 110.4 c -0.8,0 -1.44,0.64 -1.44,1.44 v 32.88 c 0,0.8 0.64,1.44 1.44,1.44 h 11.51 c 0.8,-0.01 1.44,-0.65 1.44,-1.44 z"
                   style="fill:#706f6f;fill-opacity:1;fill-rule:nonzero;stroke:none"
                   id="path898"
                   transform="translate(7.0506157e-6)" /><path
                   d="m 108.96,171.97 v 32.88 c 0,0.8 0.64,1.44 1.44,1.44 h 11.51 c 0.8,0 1.44,-0.64 1.44,-1.44 v -32.88 c 0,-0.8 -0.64,-1.44 -1.44,-1.44 H 110.4 c -0.8,0 -1.44,0.64 -1.44,1.44 z"
                   style="fill:#706f6f;fill-opacity:1;fill-rule:nonzero;stroke:none"
                   id="path902"
                   transform="translate(7.0506157e-6)" /><path
                   d="M 121.91,241.87 H 110.4 c -0.79,0 -1.44,0.64 -1.44,1.44 v 18.15 c 0,1.02 1.04,1.73 1.98,1.34 4.04,-1.67 7.96,-3.69 11.74,-6.05 0.42,-0.26 0.68,-0.73 0.68,-1.23 v -12.2 c -0.01,-0.81 -0.65,-1.45 -1.45,-1.45 z"
                   style="fill:#706f6f;fill-opacity:1;fill-rule:nonzero;stroke:none"
                   id="path906"
                   transform="translate(7.0506157e-6)" /><path
                   d="m 13.87,145.19 c -17.61,26.58 -17.61,61.38 0,87.96 0.63,0.95 2.11,0.49 2.11,-0.64 v -86.67 c 0.01,-1.15 -1.48,-1.6 -2.11,-0.65 z"
                   style="fill:#706f6f;fill-opacity:1;fill-rule:nonzero;stroke:none"
                   id="path910"
                   transform="translate(7.0506157e-6)" /><path
                   d="M 50.28,170.53 H 38.77 c -0.79,0 -1.44,0.64 -1.44,1.44 v 83.49 c 0,0.5 0.25,0.96 0.68,1.23 3.77,2.37 7.7,4.4 11.74,6.07 0.94,0.39 1.98,-0.32 1.98,-1.34 v -89.45 c -0.01,-0.8 -0.65,-1.44 -1.45,-1.44 z"
                   style="fill:#706f6f;fill-opacity:1;fill-rule:nonzero;stroke:none"
                   id="path914"
                   transform="translate(7.0506157e-6)" /><path
                   d="m 74.56,268.66 c 3.91,0.28 7.82,0.28 11.73,0 0.75,-0.06 1.33,-0.69 1.33,-1.45 V 136.32 c 0,-0.8 -0.65,-1.44 -1.44,-1.44 H 74.67 c -0.8,0 -1.44,0.65 -1.44,1.44 v 130.9 c 0,0.75 0.58,1.39 1.33,1.44 z"
                   style="fill:#706f6f;fill-opacity:1;fill-rule:nonzero;stroke:none"
                   id="path918"
                   transform="translate(7.0506157e-6)" /><path
                   d="m 231,158.5 v -22.32 c 0,-0.8 -0.64,-1.44 -1.44,-1.44 h -11.51 c -0.8,0 -1.44,0.64 -1.44,1.44 v 22.32 c 0,0.8 0.64,1.44 1.44,1.44 h 11.51 c 0.79,0 1.44,-0.65 1.44,-1.44 z"
                   style="fill:#706f6f;fill-opacity:1;fill-rule:nonzero;stroke:none"
                   id="path922"
                   transform="translate(7.0506157e-6)" /><path
                   d="m 159.37,169.17 v -33 c 0,-0.8 -0.64,-1.44 -1.44,-1.44 h -11.51 c -0.79,0 -1.44,0.64 -1.44,1.44 v 33 c 0,0.8 0.64,1.44 1.44,1.44 h 11.51 c 0.79,0 1.44,-0.64 1.44,-1.44 z"
                   style="fill:#706f6f;fill-opacity:1;fill-rule:nonzero;stroke:none"
                   id="path926"
                   transform="translate(7.0506157e-6)" /><path
                   d="m 144.98,207.83 v 32.88 c 0,0.8 0.64,1.44 1.44,1.44 h 11.51 c 0.8,0 1.44,-0.64 1.44,-1.44 v -32.88 c 0,-0.8 -0.64,-1.44 -1.44,-1.44 h -11.51 c -0.8,0.01 -1.44,0.65 -1.44,1.44 z"
                   style="fill:#706f6f;fill-opacity:1;fill-rule:nonzero;stroke:none"
                   id="path930"
                   transform="translate(7.0506157e-6)" /><path
                   d="M 157.93,37.9 H 135.6 c -0.8,0 -1.44,0.64 -1.44,1.44 v 11.51 c 0,0.8 0.64,1.44 1.44,1.44 h 22.32 c 0.8,0 1.44,-0.64 1.44,-1.44 V 39.34 c 0.01,-0.79 -0.64,-1.44 -1.43,-1.44 z"
                   style="fill:#706f6f;fill-opacity:1;fill-rule:nonzero;stroke:none"
                   id="path934"
                   transform="translate(7.0506157e-6)" /><path
                   d="m 168.6,109.53 h -33 c -0.8,0 -1.44,0.64 -1.44,1.44 v 11.51 c 0,0.79 0.64,1.44 1.44,1.44 h 33 c 0.8,0 1.44,-0.64 1.44,-1.44 v -11.51 c 0,-0.8 -0.64,-1.44 -1.44,-1.44 z"
                   style="fill:#706f6f;fill-opacity:1;fill-rule:nonzero;stroke:none"
                   id="path938"
                   transform="translate(7.0506157e-6)" /><path
                   d="m 207.26,123.92 h 32.88 c 0.8,0 1.44,-0.64 1.44,-1.44 v -11.51 c 0,-0.8 -0.64,-1.44 -1.44,-1.44 h -32.88 c -0.8,0 -1.44,0.64 -1.44,1.44 v 11.51 c 0.01,0.8 0.65,1.44 1.44,1.44 z"
                   style="fill:#706f6f;fill-opacity:1;fill-rule:nonzero;stroke:none"
                   id="path942"
                   transform="translate(7.0506157e-6)" /><path
                   d="M 96.93,109.53 H 64.05 c -0.8,0 -1.44,0.64 -1.44,1.44 v 11.51 c 0,0.8 0.64,1.44 1.44,1.44 h 32.88 c 0.8,0 1.44,-0.64 1.44,-1.44 v -11.51 c 0,-0.8 -0.64,-1.44 -1.44,-1.44 z"
                   style="fill:#706f6f;fill-opacity:1;fill-rule:nonzero;stroke:none"
                   id="path946"
                   transform="translate(7.0506157e-6)" /><path
                   d="m 27.03,122.48 v -11.51 c 0,-0.79 -0.64,-1.44 -1.44,-1.44 H 7.44 c -1.02,0 -1.73,1.04 -1.34,1.98 1.67,4.04 3.69,7.96 6.05,11.74 0.26,0.42 0.73,0.68 1.23,0.68 h 12.2 c 0.81,-0.01 1.45,-0.65 1.45,-1.45 z"
                   style="fill:#706f6f;fill-opacity:1;fill-rule:nonzero;stroke:none"
                   id="path950"
                   transform="translate(7.0506157e-6)" /><path
                   d="m 123.71,14.44 c -26.57,-17.61 -61.38,-17.61 -87.95,0 -0.95,0.63 -0.49,2.11 0.64,2.11 h 86.67 c 1.14,0.01 1.59,-1.48 0.64,-2.11 z"
                   style="fill:#706f6f;fill-opacity:1;fill-rule:nonzero;stroke:none"
                   id="path954"
                   transform="translate(7.0506157e-6)" /><path
                   d="M 98.37,50.85 V 39.34 c 0,-0.79 -0.64,-1.44 -1.44,-1.44 H 13.44 c -0.5,0 -0.96,0.25 -1.23,0.68 -2.37,3.77 -4.4,7.7 -6.07,11.74 -0.39,0.94 0.32,1.97 1.34,1.97 h 89.45 c 0.8,0 1.44,-0.64 1.44,-1.44 z"
                   style="fill:#706f6f;fill-opacity:1;fill-rule:nonzero;stroke:none"
                   id="path958"
                   transform="translate(7.0506157e-6)" /><path
                   d="m 0.24,75.13 c -0.28,3.91 -0.28,7.82 0,11.73 0.06,0.75 0.69,1.33 1.45,1.33 h 130.89 c 0.8,0 1.44,-0.65 1.44,-1.44 V 75.24 c 0,-0.8 -0.65,-1.44 -1.44,-1.44 H 1.68 c -0.75,0 -1.39,0.58 -1.44,1.33 z"
                   style="fill:#706f6f;fill-opacity:1;fill-rule:nonzero;stroke:none"
                   id="path962"
                   transform="translate(7.0506157e-6)" /><path
                   d="m 110.4,231.57 h 22.32 c 0.8,0 1.44,-0.64 1.44,-1.44 v -11.51 c 0,-0.8 -0.64,-1.44 -1.44,-1.44 H 110.4 c -0.8,0 -1.44,0.64 -1.44,1.44 v 11.51 c 0,0.79 0.65,1.44 1.44,1.44 z"
                   style="fill:#706f6f;fill-opacity:1;fill-rule:nonzero;stroke:none"
                   id="path966"
                   transform="translate(7.0506157e-6)" /><path
                   d="m 99.73,159.94 h 33 c 0.8,0 1.44,-0.64 1.44,-1.44 v -11.51 c 0,-0.79 -0.64,-1.44 -1.44,-1.44 h -33 c -0.8,0 -1.44,0.64 -1.44,1.44 v 11.51 c 0,0.79 0.64,1.44 1.44,1.44 z"
                   style="fill:#706f6f;fill-opacity:1;fill-rule:nonzero;stroke:none"
                   id="path970"
                   transform="translate(7.0506157e-6)" /><path
                   d="M 61.07,145.55 H 28.19 c -0.8,0 -1.44,0.64 -1.44,1.44 v 11.51 c 0,0.8 0.64,1.44 1.44,1.44 h 32.88 c 0.8,0 1.44,-0.64 1.44,-1.44 v -11.51 c -0.01,-0.8 -0.65,-1.44 -1.44,-1.44 z"
                   style="fill:#706f6f;fill-opacity:1;fill-rule:nonzero;stroke:none"
                   id="path974"
                   transform="translate(7.0506157e-6)" /><path
                   d="m 171.4,159.94 h 32.88 c 0.8,0 1.44,-0.64 1.44,-1.44 v -11.51 c 0,-0.8 -0.64,-1.44 -1.44,-1.44 H 171.4 c -0.8,0 -1.44,0.64 -1.44,1.44 v 11.51 c 0,0.79 0.64,1.44 1.44,1.44 z"
                   style="fill:#706f6f;fill-opacity:1;fill-rule:nonzero;stroke:none"
                   id="path978"
                   transform="translate(7.0506157e-6)" /><path
                   d="m 241.3,146.99 v 11.51 c 0,0.79 0.64,1.44 1.44,1.44 h 18.15 c 1.02,0 1.73,-1.04 1.34,-1.98 -1.67,-4.04 -3.69,-7.96 -6.05,-11.74 -0.26,-0.42 -0.73,-0.68 -1.23,-0.68 h -12.2 c -0.81,0.01 -1.45,0.65 -1.45,1.45 z"
                   style="fill:#706f6f;fill-opacity:1;fill-rule:nonzero;stroke:none"
                   id="path982"
                   transform="translate(7.0506157e-6)" /><path
                   d="m 144.62,255.02 c 26.58,17.61 61.38,17.61 87.95,0 0.95,-0.63 0.49,-2.11 -0.64,-2.11 h -86.67 c -1.14,0 -1.59,1.49 -0.64,2.11 z"
                   style="fill:#706f6f;fill-opacity:1;fill-rule:nonzero;stroke:none"
                   id="path986"
                   transform="translate(7.0506157e-6)" /><path
                   d="m 169.96,218.62 v 11.51 c 0,0.79 0.64,1.44 1.44,1.44 h 83.49 c 0.5,0 0.96,-0.25 1.23,-0.68 2.37,-3.77 4.4,-7.7 6.07,-11.74 0.39,-0.94 -0.32,-1.98 -1.34,-1.98 H 171.4 c -0.8,0.01 -1.44,0.65 -1.44,1.45 z"
                   style="fill:#706f6f;fill-opacity:1;fill-rule:nonzero;stroke:none"
                   id="path990"
                   transform="translate(7.0506157e-6)" /><path
                   d="m 268.09,194.34 c 0.28,-3.91 0.28,-7.82 0,-11.73 -0.06,-0.75 -0.69,-1.33 -1.44,-1.33 h -130.9 c -0.8,0 -1.44,0.65 -1.44,1.44 v 11.51 c 0,0.8 0.65,1.44 1.44,1.44 h 130.9 c 0.75,0 1.39,-0.58 1.44,-1.33 z"
                   style="fill:#706f6f;fill-opacity:1;fill-rule:nonzero;stroke:none"
                   id="path994"
                   transform="translate(7.0506157e-6)" /><path
                   d="m 330.21,22.73 h -7.87 c -0.56,0 -0.97,-0.46 -0.97,-0.98 v -4.22 c 0,-0.51 0.41,-0.98 0.97,-0.98 h 22.46 c 0.57,0 0.98,0.46 0.98,0.98 v 4.22 c 0,0.51 -0.41,0.98 -0.98,0.98 h -7.86 v 28.83 c 0,0.51 -0.46,0.98 -0.98,0.98 h -4.78 c -0.52,0 -0.98,-0.46 -0.98,-0.98 V 22.73 Z"
                   style="fill:#706f6f;fill-opacity:1;fill-rule:nonzero;stroke:none"
                   id="path998"
                   transform="translate(7.0506157e-6)" /><path
                   d="m 369.11,16.04 c 10.28,0 18.5,8.28 18.5,18.56 0,10.28 -8.23,18.45 -18.5,18.45 -10.28,0 -18.45,-8.17 -18.45,-18.45 0,-10.28 8.17,-18.56 18.45,-18.56 z m 0,30.33 c 6.48,0 11.82,-5.29 11.82,-11.77 0,-6.48 -5.35,-11.87 -11.82,-11.87 -6.47,0 -11.77,5.4 -11.77,11.87 0,6.47 5.29,11.77 11.77,11.77 z"
                   style="fill:#706f6f;fill-opacity:1;fill-rule:nonzero;stroke:none"
                   id="path1002"
                   transform="translate(7.0506157e-6)" /><path
                   d="m 396.79,16.97 c 0,-0.51 0.46,-0.93 0.98,-0.93 h 1.28 l 21.38,22.72 h 0.05 V 17.53 c 0,-0.51 0.41,-0.98 0.98,-0.98 h 4.73 c 0.52,0 0.98,0.46 0.98,0.98 v 34.59 c 0,0.51 -0.46,0.93 -0.98,0.93 h -1.23 L 403.47,29.46 h -0.05 v 22.1 c 0,0.51 -0.41,0.98 -0.98,0.98 h -4.68 c -0.51,0 -0.98,-0.46 -0.98,-0.98 V 16.97 Z"
                   style="fill:#706f6f;fill-opacity:1;fill-rule:nonzero;stroke:none"
                   id="path1006"
                   transform="translate(7.0506157e-6)" /><path
                   d="M 445.86,35.21 434.14,18.04 c -0.41,-0.67 0,-1.49 0.82,-1.49 h 5.24 c 0.41,0 0.67,0.26 0.82,0.46 l 8.23,11.82 8.22,-11.82 c 0.15,-0.2 0.41,-0.46 0.82,-0.46 h 5.29 c 0.82,0 1.23,0.82 0.82,1.49 l -11.87,17.12 v 16.4 c 0,0.51 -0.46,0.98 -0.98,0.98 h -4.73 c -0.56,0 -0.97,-0.46 -0.97,-0.98 V 35.21 Z"
                   style="fill:#706f6f;fill-opacity:1;fill-rule:nonzero;stroke:none"
                   id="path1010"
                   transform="translate(7.0506157e-6)" /><path
                   d="m 485.21,17.53 c 0,-0.51 0.41,-0.98 0.98,-0.98 h 11.77 c 6.11,0 10.85,4.11 10.85,9.51 0,3.96 -3.24,7.04 -5.65,8.17 2.72,0.87 6.68,3.65 6.68,8.38 0,5.76 -4.94,9.92 -11.2,9.92 H 486.2 c -0.56,0 -0.98,-0.46 -0.98,-0.98 V 17.53 Z m 12.13,14.14 c 2.62,0 4.42,-2.06 4.42,-4.63 0,-2.57 -1.8,-4.37 -4.42,-4.37 h -5.5 v 8.99 h 5.5 z m 0.72,14.8 c 2.57,0 4.63,-2.01 4.63,-4.68 0,-2.57 -2.57,-4.47 -5.24,-4.47 h -5.6 v 9.15 z"
                   style="fill:#706f6f;fill-opacity:1;fill-rule:nonzero;stroke:none"
                   id="path1014"
                   transform="translate(7.0506157e-6)" /><path
                   d="m 519.37,17.53 c 0,-0.51 0.41,-0.98 0.98,-0.98 h 4.73 c 0.52,0 0.98,0.46 0.98,0.98 v 28.84 h 13.11 c 0.57,0 0.98,0.46 0.98,0.98 v 4.21 c 0,0.51 -0.41,0.98 -0.98,0.98 h -18.81 c -0.56,0 -0.98,-0.46 -0.98,-0.98 V 17.53 Z"
                   style="fill:#706f6f;fill-opacity:1;fill-rule:nonzero;stroke:none"
                   id="path1018"
                   transform="translate(7.0506157e-6)" /><path
                   d="m 544.75,51.2 15.99,-34.59 c 0.15,-0.31 0.41,-0.57 0.87,-0.57 h 0.52 c 0.51,0 0.72,0.26 0.87,0.57 l 15.83,34.59 c 0.31,0.67 -0.1,1.34 -0.87,1.34 h -4.47 c -0.77,0 -1.13,-0.31 -1.49,-1.03 l -2.52,-5.55 H 554.1 l -2.52,5.55 c -0.2,0.51 -0.67,1.03 -1.49,1.03 h -4.47 c -0.77,0 -1.18,-0.67 -0.87,-1.34 z m 22.2,-10.95 -5.14,-11.31 h -0.16 l -5.04,11.31 z"
                   style="fill:#706f6f;fill-opacity:1;fill-rule:nonzero;stroke:none"
                   id="path1022"
                   transform="translate(7.0506157e-6)" /><path
                   d="m 585.95,17.53 c 0,-0.51 0.46,-0.98 0.98,-0.98 h 4.78 c 0.51,0 0.97,0.46 0.97,0.98 v 34.03 c 0,0.51 -0.46,0.98 -0.97,0.98 h -4.78 c -0.51,0 -0.98,-0.46 -0.98,-0.98 z"
                   style="fill:#706f6f;fill-opacity:1;fill-rule:nonzero;stroke:none"
                   id="path1026"
                   transform="translate(7.0506157e-6)" /><path
                   d="m 604.5,17.53 c 0,-0.51 0.41,-0.98 0.98,-0.98 h 14.7 c 6.17,0 11.2,4.93 11.2,11.05 0,4.73 -3.14,8.58 -7.61,10.38 l 7.04,13.06 c 0.36,0.67 0,1.49 -0.87,1.49 h -5.39 c -0.46,0 -0.72,-0.26 -0.82,-0.46 l -6.84,-13.62 h -5.71 v 13.11 c 0,0.51 -0.46,0.98 -0.98,0.98 h -4.73 c -0.56,0 -0.98,-0.46 -0.98,-0.98 V 17.53 Z m 15.11,15.42 c 2.73,0 5.09,-2.36 5.09,-5.24 0,-2.72 -2.36,-4.99 -5.09,-4.99 h -8.38 v 10.23 z"
                   style="fill:#706f6f;fill-opacity:1;fill-rule:nonzero;stroke:none"
                   id="path1030"
                   transform="translate(7.0506157e-6)" /><path
                   d="m 325.38,84.32 c 0,-0.51 0.46,-0.98 0.98,-0.98 h 4.78 c 0.51,0 0.97,0.46 0.97,0.98 v 34.03 c 0,0.51 -0.46,0.98 -0.97,0.98 h -4.78 c -0.51,0 -0.98,-0.46 -0.98,-0.98 z"
                   style="fill:#706f6f;fill-opacity:1;fill-rule:nonzero;stroke:none"
                   id="path1034"
                   transform="translate(7.0506157e-6)" /><path
                   d="m 343.93,83.76 c 0,-0.51 0.46,-0.93 0.98,-0.93 h 1.28 l 21.38,22.72 h 0.05 V 84.32 c 0,-0.51 0.41,-0.98 0.98,-0.98 h 4.73 c 0.52,0 0.98,0.46 0.98,0.98 v 34.59 c 0,0.51 -0.46,0.93 -0.98,0.93 H 372.1 L 350.61,96.25 h -0.05 v 22.1 c 0,0.51 -0.41,0.98 -0.98,0.98 h -4.68 c -0.51,0 -0.98,-0.46 -0.98,-0.98 V 83.76 Z"
                   style="fill:#706f6f;fill-opacity:1;fill-rule:nonzero;stroke:none"
                   id="path1038"
                   transform="translate(7.0506157e-6)" /><path
                   d="m 384,114.29 1.85,-3.19 c 0.41,-0.72 1.28,-0.72 1.75,-0.36 0.26,0.16 4.42,3.19 7.76,3.19 2.67,0 4.68,-1.75 4.68,-3.96 0,-2.62 -2.21,-4.42 -6.53,-6.17 -4.83,-1.95 -9.66,-5.04 -9.66,-11.1 0,-4.57 3.39,-9.87 11.57,-9.87 5.24,0 9.25,2.67 10.28,3.45 0.52,0.31 0.67,1.18 0.31,1.7 l -1.95,2.93 c -0.41,0.62 -1.18,1.03 -1.8,0.62 -0.41,-0.26 -4.32,-2.83 -7.15,-2.83 -2.93,0 -4.52,1.95 -4.52,3.6 0,2.42 1.9,4.06 6.07,5.76 4.98,2.01 10.74,4.99 10.74,11.62 0,5.29 -4.57,10.18 -11.82,10.18 -6.48,0 -10.28,-3.03 -11.31,-4.01 -0.48,-0.48 -0.73,-0.74 -0.27,-1.56 z"
                   style="fill:#706f6f;fill-opacity:1;fill-rule:nonzero;stroke:none"
                   id="path1042"
                   transform="translate(7.0506157e-6)" /><path
                   d="m 421.25,89.51 h -7.87 c -0.56,0 -0.97,-0.46 -0.97,-0.98 v -4.22 c 0,-0.51 0.41,-0.98 0.97,-0.98 h 22.46 c 0.57,0 0.98,0.46 0.98,0.98 v 4.22 c 0,0.51 -0.41,0.98 -0.98,0.98 h -7.86 v 28.83 c 0,0.51 -0.46,0.98 -0.98,0.98 h -4.78 c -0.52,0 -0.98,-0.46 -0.98,-0.98 V 89.51 Z"
                   style="fill:#706f6f;fill-opacity:1;fill-rule:nonzero;stroke:none"
                   id="path1046"
                   transform="translate(7.0506157e-6)" /><path
                   d="m 444.62,84.32 c 0,-0.51 0.46,-0.98 0.98,-0.98 h 4.78 c 0.51,0 0.97,0.46 0.97,0.98 v 34.03 c 0,0.51 -0.46,0.98 -0.97,0.98 h -4.78 c -0.51,0 -0.98,-0.46 -0.98,-0.98 z"
                   style="fill:#706f6f;fill-opacity:1;fill-rule:nonzero;stroke:none"
                   id="path1050"
                   transform="translate(7.0506157e-6)" /><path
                   d="m 468,89.51 h -7.87 c -0.56,0 -0.97,-0.46 -0.97,-0.98 v -4.22 c 0,-0.51 0.41,-0.98 0.97,-0.98 h 22.46 c 0.57,0 0.98,0.46 0.98,0.98 v 4.22 c 0,0.51 -0.41,0.98 -0.98,0.98 h -7.86 v 28.83 c 0,0.51 -0.46,0.98 -0.98,0.98 h -4.78 c -0.52,0 -0.98,-0.46 -0.98,-0.98 V 89.51 Z"
                   style="fill:#706f6f;fill-opacity:1;fill-rule:nonzero;stroke:none"
                   id="path1054"
                   transform="translate(7.0506157e-6)" /><path
                   d="m 490.86,84.32 c 0,-0.51 0.46,-0.98 0.98,-0.98 h 4.88 c 0.57,0 0.98,0.46 0.98,0.98 v 21.02 c 0,4.37 2.98,7.81 7.45,7.81 4.47,0 7.5,-3.45 7.5,-7.76 V 84.31 c 0,-0.51 0.41,-0.98 0.98,-0.98 h 4.88 c 0.51,0 0.98,0.46 0.98,0.98 v 21.38 c 0,7.81 -6.22,14.14 -14.34,14.14 -8.07,0 -14.29,-6.32 -14.29,-14.14 z"
                   style="fill:#706f6f;fill-opacity:1;fill-rule:nonzero;stroke:none"
                   id="path1058"
                   transform="translate(7.0506157e-6)" /><path
                   d="m 535.61,89.51 h -7.87 c -0.56,0 -0.97,-0.46 -0.97,-0.98 v -4.22 c 0,-0.51 0.41,-0.98 0.97,-0.98 h 22.46 c 0.57,0 0.98,0.46 0.98,0.98 v 4.22 c 0,0.51 -0.41,0.98 -0.98,0.98 h -7.86 v 28.83 c 0,0.51 -0.46,0.98 -0.98,0.98 h -4.78 c -0.52,0 -0.98,-0.46 -0.98,-0.98 V 89.51 Z"
                   style="fill:#706f6f;fill-opacity:1;fill-rule:nonzero;stroke:none"
                   id="path1062"
                   transform="translate(7.0506157e-6)" /><path
                   d="m 558.98,84.32 c 0,-0.51 0.41,-0.98 0.98,-0.98 h 20.92 c 0.57,0 0.98,0.46 0.98,0.98 v 4.22 c 0,0.51 -0.41,0.98 -0.98,0.98 h -15.21 v 8.43 h 12.7 c 0.51,0 0.98,0.46 0.98,0.98 v 4.27 c 0,0.57 -0.46,0.98 -0.98,0.98 h -12.7 v 9 h 15.21 c 0.57,0 0.98,0.46 0.98,0.98 v 4.21 c 0,0.51 -0.41,0.98 -0.98,0.98 h -20.92 c -0.56,0 -0.98,-0.46 -0.98,-0.98 z"
                   style="fill:#706f6f;fill-opacity:1;fill-rule:nonzero;stroke:none"
                   id="path1066"
                   transform="translate(7.0506157e-6)" /><path
                   d="m 325.38,151.11 c 0,-0.51 0.41,-0.98 0.98,-0.98 h 20.92 c 0.57,0 0.98,0.46 0.98,0.98 v 4.22 c 0,0.51 -0.41,0.98 -0.98,0.98 h -15.21 v 9.66 h 12.7 c 0.51,0 0.98,0.46 0.98,0.98 v 4.22 c 0,0.51 -0.46,0.98 -0.98,0.98 h -12.7 v 13 c 0,0.51 -0.46,0.98 -0.98,0.98 h -4.73 c -0.56,0 -0.98,-0.46 -0.98,-0.98 z"
                   style="fill:#706f6f;fill-opacity:1;fill-rule:nonzero;stroke:none"
                   id="path1070"
                   transform="translate(7.0506157e-6)" /><path
                   d="m 372.7,149.62 c 10.28,0 18.5,8.28 18.5,18.56 0,10.28 -8.23,18.45 -18.5,18.45 -10.28,0 -18.45,-8.17 -18.45,-18.45 0,-10.28 8.17,-18.56 18.45,-18.56 z m 0,30.33 c 6.48,0 11.82,-5.29 11.82,-11.77 0,-6.48 -5.35,-11.87 -11.82,-11.87 -6.47,0 -11.77,5.4 -11.77,11.87 0,6.47 5.3,11.77 11.77,11.77 z"
                   style="fill:#706f6f;fill-opacity:1;fill-rule:nonzero;stroke:none"
                   id="path1074"
                   transform="translate(7.0506157e-6)" /><path
                   d="m 400.39,151.11 c 0,-0.51 0.41,-0.98 0.98,-0.98 h 14.7 c 6.17,0 11.2,4.93 11.2,11.05 0,4.73 -3.14,8.58 -7.61,10.38 l 7.04,13.06 c 0.36,0.67 0,1.49 -0.87,1.49 h -5.39 c -0.46,0 -0.72,-0.26 -0.82,-0.46 l -6.84,-13.62 h -5.71 v 13.11 c 0,0.51 -0.46,0.98 -0.98,0.98 h -4.73 c -0.56,0 -0.98,-0.46 -0.98,-0.98 v -34.03 z m 15.11,15.42 c 2.73,0 5.09,-2.36 5.09,-5.24 0,-2.72 -2.36,-4.99 -5.09,-4.99 h -8.38 v 10.23 z"
                   style="fill:#706f6f;fill-opacity:1;fill-rule:nonzero;stroke:none"
                   id="path1078"
                   transform="translate(7.0506157e-6)" /><path
                   d="m 466.77,149.62 c 4.63,0 9.05,1.8 12.54,4.78 0.41,0.41 0.46,1.03 0.05,1.44 l -3.19,3.34 c -0.41,0.41 -0.87,0.41 -1.34,0 -2.21,-1.95 -4.93,-2.98 -7.76,-2.98 -6.43,0 -11.51,5.5 -11.51,11.93 0,6.37 5.09,11.77 11.56,11.77 2.88,0 5.09,-0.87 6.12,-1.29 v -4.37 h -4.11 c -0.57,0 -0.98,-0.41 -0.98,-0.92 v -4.06 c 0,-0.57 0.41,-0.98 0.98,-0.98 H 479 c 0.51,0 0.93,0.46 0.93,0.98 v 13.16 c 0,0.41 -0.2,0.67 -0.41,0.82 0,0 -5.29,3.34 -12.75,3.34 -10.23,0 -18.45,-8.12 -18.45,-18.4 0,-10.28 8.22,-18.56 18.45,-18.56 z"
                   style="fill:#706f6f;fill-opacity:1;fill-rule:nonzero;stroke:none"
                   id="path1082"
                   transform="translate(7.0506157e-6)" /><path
                   d="m 489.93,151.11 c 0,-0.51 0.41,-0.98 0.98,-0.98 h 4.73 c 0.52,0 0.98,0.46 0.98,0.98 v 28.84 h 13.11 c 0.57,0 0.98,0.46 0.98,0.98 v 4.21 c 0,0.51 -0.41,0.98 -0.98,0.98 h -18.81 c -0.56,0 -0.98,-0.46 -0.98,-0.98 v -34.03 z"
                   style="fill:#706f6f;fill-opacity:1;fill-rule:nonzero;stroke:none"
                   id="path1086"
                   transform="translate(7.0506157e-6)" /><path
                   d="m 533.87,149.62 c 10.28,0 18.5,8.28 18.5,18.56 0,10.28 -8.23,18.45 -18.5,18.45 -10.28,0 -18.45,-8.17 -18.45,-18.45 -0.01,-10.28 8.17,-18.56 18.45,-18.56 z m 0,30.33 c 6.48,0 11.82,-5.29 11.82,-11.77 0,-6.48 -5.35,-11.87 -11.82,-11.87 -6.47,0 -11.77,5.4 -11.77,11.87 0,6.47 5.29,11.77 11.77,11.77 z"
                   style="fill:#706f6f;fill-opacity:1;fill-rule:nonzero;stroke:none"
                   id="path1090"
                   transform="translate(7.0506157e-6)" /><path
                   d="m 561.55,151.11 c 0,-0.51 0.41,-0.98 0.98,-0.98 h 11.77 c 6.11,0 10.85,4.11 10.85,9.51 0,3.96 -3.24,7.04 -5.65,8.17 2.72,0.87 6.68,3.65 6.68,8.38 0,5.76 -4.94,9.92 -11.2,9.92 h -12.44 c -0.56,0 -0.98,-0.46 -0.98,-0.98 v -34.02 z m 12.13,14.14 c 2.62,0 4.42,-2.06 4.42,-4.63 0,-2.57 -1.8,-4.37 -4.42,-4.37 h -5.5 v 8.99 h 5.5 z m 0.72,14.8 c 2.57,0 4.63,-2.01 4.63,-4.68 0,-2.57 -2.57,-4.47 -5.24,-4.47 h -5.6 v 9.15 z"
                   style="fill:#706f6f;fill-opacity:1;fill-rule:nonzero;stroke:none"
                   id="path1094"
                   transform="translate(7.0506157e-6)" /><path
                   d="m 591.04,184.78 15.99,-34.59 c 0.15,-0.31 0.41,-0.57 0.87,-0.57 h 0.52 c 0.51,0 0.72,0.26 0.87,0.57 l 15.83,34.59 c 0.31,0.67 -0.1,1.34 -0.87,1.34 h -4.47 c -0.77,0 -1.13,-0.31 -1.49,-1.03 l -2.52,-5.55 H 600.4 l -2.52,5.55 c -0.2,0.51 -0.67,1.03 -1.49,1.03 h -4.47 c -0.78,0 -1.19,-0.67 -0.88,-1.34 z m 22.2,-10.95 -5.14,-11.31 h -0.16 l -5.04,11.31 z"
                   style="fill:#706f6f;fill-opacity:1;fill-rule:nonzero;stroke:none"
                   id="path1098"
                   transform="translate(7.0506157e-6)" /><path
                   d="m 632.24,151.11 c 0,-0.51 0.41,-0.98 0.98,-0.98 h 4.73 c 0.52,0 0.98,0.46 0.98,0.98 v 28.84 h 13.11 c 0.57,0 0.98,0.46 0.98,0.98 v 4.21 c 0,0.51 -0.41,0.98 -0.98,0.98 h -18.81 c -0.56,0 -0.98,-0.46 -0.98,-0.98 v -34.03 z"
                   style="fill:#706f6f;fill-opacity:1;fill-rule:nonzero;stroke:none"
                   id="path1102"
                   transform="translate(7.0506157e-6)" /><path
                   d="m 341.32,216.41 c 5.19,0 8.94,1.64 12.44,4.78 0.46,0.41 0.46,1.03 0.05,1.44 l -3.14,3.24 c -0.36,0.41 -0.87,0.41 -1.28,0 -2.16,-1.9 -5.04,-3.03 -7.91,-3.03 -6.58,0 -11.46,5.5 -11.46,11.98 0,6.43 4.94,11.87 11.52,11.87 3.08,0 5.7,-1.18 7.86,-2.93 0.41,-0.36 0.98,-0.31 1.28,0 l 3.19,3.29 c 0.41,0.36 0.31,1.03 -0.05,1.39 -3.49,3.39 -7.91,4.99 -12.49,4.99 -10.28,0 -18.56,-8.17 -18.56,-18.45 -0.01,-10.29 8.26,-18.57 18.55,-18.57 z"
                   style="fill:#706f6f;fill-opacity:1;fill-rule:nonzero;stroke:none"
                   id="path1106"
                   transform="translate(7.0506157e-6)" /><path
                   d="m 362.99,217.9 c 0,-0.51 0.46,-0.98 0.98,-0.98 h 4.78 c 0.56,0 0.97,0.46 0.97,0.98 v 13.62 h 16.76 V 217.9 c 0,-0.51 0.41,-0.98 0.98,-0.98 h 4.73 c 0.51,0 0.98,0.46 0.98,0.98 v 34.03 c 0,0.51 -0.46,0.98 -0.98,0.98 h -4.73 c -0.57,0 -0.98,-0.46 -0.98,-0.98 v -14.19 h -16.76 v 14.19 c 0,0.51 -0.41,0.98 -0.97,0.98 h -4.78 c -0.51,0 -0.98,-0.46 -0.98,-0.98 z"
                   style="fill:#706f6f;fill-opacity:1;fill-rule:nonzero;stroke:none"
                   id="path1110"
                   transform="translate(7.0506157e-6)" /><path
                   d="m 400.28,251.57 15.99,-34.59 c 0.15,-0.31 0.41,-0.57 0.87,-0.57 h 0.52 c 0.51,0 0.72,0.26 0.87,0.57 l 15.83,34.59 c 0.31,0.67 -0.1,1.34 -0.87,1.34 h -4.47 c -0.77,0 -1.13,-0.31 -1.49,-1.03 l -2.52,-5.55 h -15.37 l -2.52,5.55 c -0.2,0.51 -0.67,1.03 -1.49,1.03 h -4.47 c -0.78,0 -1.19,-0.67 -0.88,-1.34 z m 22.21,-10.95 -5.14,-11.31 h -0.16 l -5.04,11.31 z"
                   style="fill:#706f6f;fill-opacity:1;fill-rule:nonzero;stroke:none"
                   id="path1114"
                   transform="translate(7.0506157e-6)" /><path
                   d="m 441.49,217.34 c 0,-0.51 0.46,-0.93 0.98,-0.93 h 1.28 l 21.38,22.72 h 0.05 V 217.9 c 0,-0.51 0.41,-0.98 0.98,-0.98 h 4.73 c 0.52,0 0.98,0.46 0.98,0.98 v 34.59 c 0,0.51 -0.46,0.93 -0.98,0.93 h -1.23 l -21.49,-23.59 h -0.05 v 22.1 c 0,0.51 -0.41,0.98 -0.98,0.98 h -4.68 c -0.51,0 -0.98,-0.46 -0.98,-0.98 v -34.59 z"
                   style="fill:#706f6f;fill-opacity:1;fill-rule:nonzero;stroke:none"
                   id="path1118"
                   transform="translate(7.0506157e-6)" /><path
                   d="m 499.55,216.41 c 4.63,0 9.05,1.8 12.54,4.78 0.41,0.41 0.46,1.03 0.05,1.44 l -3.19,3.34 c -0.41,0.41 -0.87,0.41 -1.34,0 -2.21,-1.95 -4.93,-2.98 -7.76,-2.98 -6.43,0 -11.51,5.5 -11.51,11.93 0,6.37 5.09,11.77 11.56,11.77 2.88,0 5.09,-0.87 6.12,-1.29 v -4.37 h -4.11 c -0.57,0 -0.98,-0.41 -0.98,-0.92 v -4.06 c 0,-0.57 0.41,-0.98 0.98,-0.98 h 9.87 c 0.51,0 0.93,0.46 0.93,0.98 v 13.16 c 0,0.41 -0.2,0.67 -0.41,0.82 0,0 -5.29,3.34 -12.75,3.34 -10.23,0 -18.45,-8.12 -18.45,-18.4 0,-10.28 8.22,-18.56 18.45,-18.56 z"
                   style="fill:#706f6f;fill-opacity:1;fill-rule:nonzero;stroke:none"
                   id="path1122"
                   transform="translate(7.0506157e-6)" /><path
                   d="m 522.71,217.9 c 0,-0.51 0.41,-0.98 0.98,-0.98 h 20.92 c 0.57,0 0.98,0.46 0.98,0.98 v 4.22 c 0,0.51 -0.41,0.98 -0.98,0.98 H 529.4 v 8.43 h 12.7 c 0.51,0 0.98,0.46 0.98,0.98 v 4.27 c 0,0.57 -0.46,0.98 -0.98,0.98 h -12.7 v 9 h 15.21 c 0.57,0 0.98,0.46 0.98,0.98 v 4.21 c 0,0.51 -0.41,0.98 -0.98,0.98 h -20.92 c -0.56,0 -0.98,-0.46 -0.98,-0.98 z"
                   style="fill:#706f6f;fill-opacity:1;fill-rule:nonzero;stroke:none"
                   id="path1126" /></g></g></g></g></g></g></g></svg>
