<svg width="80" height="80" viewBox="0 0 80 80" fill="none" xmlns="http://www.w3.org/2000/svg">
<g clip-path="url(#clip0_71_31656)">
<path d="M40 57C48.8366 57 56 49.8366 56 41C56 32.1634 48.8366 25 40 25C31.1634 25 24 32.1634 24 41C24 49.8366 31.1634 57 40 57Z" stroke="white" stroke-width="2.5" stroke-linecap="round" stroke-linejoin="round"/>
<path d="M65 64.9462C61.9595 66.8892 58.3587 67.7649 54.7655 67.4352C51.1722 67.1056 47.7909 65.5894 45.1546 63.1256C42.5183 60.6619 40.777 57.3907 40.2053 53.828C39.6336 50.2652 40.2639 46.6135 41.9969 43.4486C43.7299 40.2837 46.467 37.7856 49.7767 36.3482C53.0864 34.9108 56.7803 34.6158 60.2762 35.5098C63.772 36.4039 66.8708 38.436 69.0841 41.2858C71.2974 44.1356 72.4992 47.641 72.5 51.2494" stroke="white" stroke-width="2.5" stroke-linecap="round" stroke-linejoin="round"/>
<path d="M7.5 51.2494C7.50085 47.641 8.70264 44.1356 10.9159 41.2858C13.1292 38.436 16.228 36.4039 19.7239 35.5098C23.2197 34.6158 26.9136 34.9108 30.2233 36.3482C33.533 37.7856 36.2701 40.2837 38.0031 43.4486C39.7361 46.6135 40.3665 50.2652 39.7947 53.828C39.223 57.3907 37.4817 60.6619 34.8454 63.1256C32.2091 65.5894 28.8278 67.1056 25.2346 67.4352C21.6413 67.7649 18.0406 66.8892 15 64.9462" stroke="white" stroke-width="2.5" stroke-linecap="round" stroke-linejoin="round"/>
<path d="M47.5 8.68408C50.7276 10.3633 53.2982 13.077 54.8004 16.3907C56.3025 19.7043 56.6491 23.4262 55.7848 26.9603C54.9204 30.4944 52.8951 33.6362 50.0332 35.8825C47.1712 38.1288 43.6382 39.3498 40 39.3498C36.3618 39.3498 32.8288 38.1288 29.9668 35.8825C27.1049 33.6362 25.0796 30.4944 24.2152 26.9603C23.3509 23.4262 23.6976 19.7043 25.1997 16.3907C26.7018 13.077 29.2725 10.3633 32.5 8.68408" stroke="white" stroke-width="2.5" stroke-linecap="round" stroke-linejoin="round"/>
</g>
<defs>
<clipPath id="clip0_71_31656">
<rect width="80" height="80" fill="white"/>
</clipPath>
</defs>
</svg>
