<svg width="80" height="80" viewBox="0 0 80 80" fill="none" xmlns="http://www.w3.org/2000/svg">
<g clip-path="url(#clip0_0_2812)">
<path d="M40 58.75C49.665 58.75 57.5 50.915 57.5 41.25C57.5 31.585 49.665 23.75 40 23.75C30.335 23.75 22.5 31.585 22.5 41.25C22.5 50.915 30.335 58.75 40 58.75Z" stroke="white" stroke-width="2.5" stroke-linecap="round" stroke-linejoin="round"/>
<path d="M65 64.9467C61.9595 66.8897 58.3587 67.7654 54.7655 67.4357C51.1722 67.1061 47.7909 65.5898 45.1546 63.1261C42.5183 60.6623 40.777 57.3912 40.2053 53.8285C39.6336 50.2657 40.2639 46.614 41.9969 43.4491C43.7299 40.2842 46.467 37.7861 49.7767 36.3487C53.0864 34.9113 56.7803 34.6163 60.2762 35.5103C63.772 36.4043 66.8708 38.4365 69.0841 41.2863C71.2974 44.1361 72.4992 47.6415 72.5 51.2499" stroke="white" stroke-width="2.5" stroke-linecap="round" stroke-linejoin="round"/>
<path d="M7.5 51.2499C7.50085 47.6415 8.70264 44.1361 10.9159 41.2863C13.1292 38.4365 16.228 36.4043 19.7239 35.5103C23.2197 34.6163 26.9136 34.9113 30.2233 36.3487C33.533 37.7861 36.2701 40.2842 38.0031 43.4491C39.7361 46.614 40.3665 50.2657 39.7947 53.8285C39.223 57.3912 37.4817 60.6623 34.8454 63.1261C32.2091 65.5898 28.8278 67.1061 25.2346 67.4357C21.6413 67.7654 18.0406 66.8897 15 64.9467" stroke="white" stroke-width="2.5" stroke-linecap="round" stroke-linejoin="round"/>
<path d="M47.5 8.68433C50.7276 10.3635 53.2982 13.0772 54.8004 16.3909C56.3025 19.7046 56.6491 23.4265 55.7848 26.9606C54.9204 30.4946 52.8951 33.6364 50.0332 35.8828C47.1712 38.1291 43.6382 39.35 40 39.35C36.3618 39.35 32.8288 38.1291 29.9668 35.8828C27.1049 33.6364 25.0796 30.4946 24.2152 26.9606C23.3509 23.4265 23.6976 19.7046 25.1997 16.3909C26.7018 13.0772 29.2725 10.3635 32.5 8.68433" stroke="white" stroke-width="2.5" stroke-linecap="round" stroke-linejoin="round"/>
</g>
<defs>
<clipPath id="clip0_0_2812">
<rect width="80" height="80" fill="white"/>
</clipPath>
</defs>
</svg>
