<svg xmlns="http://www.w3.org/2000/svg" width="1000" height="1000"><path d="M0 0h1000v1000H0z" style="fill:#0037ff;fill-opacity:1;stroke-width:4.90738;stroke-linecap:round;stroke-linejoin:round"/><g clip-path="url(#a)" transform="matrix(5.6 0 0 5.6 150 150)"><svg width="125" height="125"><svg xml:space="preserve" width="125" height="125" style="clip-rule:evenodd;fill-rule:evenodd;stroke-linejoin:round;stroke-miterlimit:2" viewBox="0 0 125 125"><path d="M0-48.62a14.89 14.89 0 0 1-11.26 5.19 14.88 14.88 0 0 1-14.83-14.86 14.85 14.85 0 0 1 14.83-14.8h.53A14.95 14.95 0 0 1 3.63-58.77v.47c0 3.53-1.3 6.96-3.58 9.67zm-34.91-23.9c.62 1.09.62 2.38.1 3.52a25.88 25.88 0 0 0 20.65 36.38A25.8 25.8 0 0 0-.63-34.76a4 4 0 0 1 3.53.1 3.95 3.95 0 0 1 2 2.8c.72 4.57.77 9.34.2 13.95C2.28 5.57-16.85 24.3-40.3 26.67A51 51 0 0 1-81.56 12a51.12 51.12 0 0 1-14.73-41.24A51.25 51.25 0 0 1-45.5-75.19c2.58 0 5.2.19 7.77.62 1.2.19 2.25.9 2.82 2zm49.65 33.7a39.62 39.62 0 0 1-.48-15.61 25.82 25.82 0 0 0-29.38-29.43c-5.58.86-10.83.67-15.64-.48a60.39 60.39 0 0 0-21.7-1.42 62 62 0 0 0-54.8 56.19 62.13 62.13 0 0 0 17.93 49.33A62.03 62.03 0 0 0 16.17-17.1c.8-7.33.33-14.66-1.39-21.71z" style="fill:#fff;fill-rule:nonzero" transform="translate(107.5 86.16)"/></svg></svg></g><defs><clipPath id="a" clipPathUnits="userSpaceOnUse"><rect width="178.57" height="178.57" x="-26.79" y="-26.79" rx="62.5" ry="62.5" style="stroke-width:.178571"/></clipPath></defs></svg>