<svg xmlns="http://www.w3.org/2000/svg" width="2240" height="630" version="1.0" viewBox="0 0 1680 472.5"><defs><clipPath id="b"><path d="M.89 0H1679.1v472H.89Zm0 0"/></clipPath><clipPath id="e"><path d="M1000.53 0H1190v186h-189.47Zm0 0"/></clipPath><clipPath id="f"><path d="M1191 91.9h189.64V281H1191Zm0 0"/></clipPath><clipPath id="g"><path d="M985 221h205v190H985Zm0 0"/></clipPath><clipPath id="h"><path d="m1055.43 443.45-88.24-168.6 168.6-88.25 88.25 168.6Zm0 0"/></clipPath><clipPath id="i"><path d="m1055.43 443.45-88.24-168.6 168.6-88.25 88.25 168.6Zm0 0"/></clipPath><clipPath id="j"><path d="M1190 308h190v164h-190Zm0 0"/></clipPath><clipPath id="k"><path d="m1171.07 480.5 44.32-185.06 185.07 44.32-44.32 185.06Zm0 0"/></clipPath><clipPath id="l"><path d="m1171.07 480.5 44.32-185.06 185.07 44.32-44.32 185.06Zm0 0"/></clipPath><clipPath id="m"><path d="M1001 433h205v39h-205Zm0 0"/></clipPath><clipPath id="n"><path d="m1133.3 399.76 91.36 166.94-166.94 91.35-91.36-166.93Zm0 0"/></clipPath><clipPath id="o"><path d="m1133.3 399.76 91.36 166.94-166.94 91.35-91.36-166.93Zm0 0"/></clipPath><clipPath id="p"><path d="M1622 0h57.1v109H1622Zm0 0"/></clipPath><clipPath id="q"><path d="M1398 49h205v190h-205Zm0 0"/></clipPath><clipPath id="r"><path d="m1468.46 271.49-88.25-168.6 168.6-88.25 88.25 168.6Zm0 0"/></clipPath><clipPath id="s"><path d="m1468.46 271.49-88.25-168.6 168.6-88.25 88.25 168.6Zm0 0"/></clipPath><clipPath id="t"><path d="M1620 136h59.1v198H1620Zm0 0"/></clipPath><clipPath id="u"><path d="m1601.5 308.54 44.32-185.06 185.07 44.32-44.32 185.06Zm0 0"/></clipPath><clipPath id="v"><path d="m1601.5 308.54 44.32-185.06 185.07 44.32-44.32 185.06Zm0 0"/></clipPath><clipPath id="w"><path d="M1414 261h205v190h-205Zm0 0"/></clipPath><clipPath id="x"><path d="m1546.32 227.8 91.36 166.94-166.94 91.35-91.35-166.93Zm0 0"/></clipPath><clipPath id="y"><path d="m1546.32 227.8 91.36 166.94-166.94 91.35-91.35-166.93Zm0 0"/></clipPath><clipPath id="z"><path d="M1628 359h51.1v113H1628Zm0 0"/></clipPath><clipPath id="A"><path d="m1799.25 568.66-184.46-46.75 46.74-184.46L1846 384.2Zm0 0"/></clipPath><clipPath id="B"><path d="m1799.25 568.66-184.46-46.75 46.74-184.46L1846 384.2Zm0 0"/></clipPath><clipPath id="C"><path d="M1400 469h202v3h-202Zm0 0"/></clipPath><clipPath id="D"><path d="m1455.64 687.09-72.04-176.14 176.14-72.03 72.03 176.13Zm0 0"/></clipPath><clipPath id="E"><path d="m1455.64 687.09-72.04-176.14 176.14-72.03 72.03 176.13Zm0 0"/></clipPath><clipPath id="F"><path d="M.89 90H167v198H.89Zm0 0"/></clipPath><clipPath id="G"><path d="M141.06 300.34-43.4 253.59 3.34 69.12l184.47 46.75Zm0 0"/></clipPath><clipPath id="H"><path d="m-43.17 253.65 184.47 46.74 46.75-184.46L3.58 69.18Zm0 0"/></clipPath><clipPath id="I"><path d="M.89 302H160v170H.89Zm0 0"/></clipPath><clipPath id="J"><path d="m150.72 294.84 17.12 189.53-189.52 17.12-17.12-189.53Zm0 0"/></clipPath><clipPath id="K"><path d="M167.82 484.12 150.7 294.6l-189.52 17.13 17.12 189.52Zm0 0"/></clipPath><clipPath id="L"><path d="M169 0h190v154H169Zm0 0"/></clipPath><clipPath id="M"><path d="M224.93 172.37 136.68 3.77l168.6-88.25 88.25 168.6Zm0 0"/></clipPath><clipPath id="N"><path d="m136.8 3.98 88.24 168.6 168.6-88.24-88.24-168.6Zm0 0"/></clipPath><clipPath id="O"><path d="M366 54h197v190H366Zm0 0"/></clipPath><clipPath id="P"><path d="m353.95 219.52 44.32-185.07 185.07 44.32-44.32 185.07Zm0 0"/></clipPath><clipPath id="Q"><path d="M398.21 34.7 353.9 219.76l185.07 44.32 44.32-185.06Zm0 0"/></clipPath><clipPath id="R"><path d="M171 158h190v205H171Zm0 0"/></clipPath><clipPath id="S"><path d="m302.8 139.27 91.35 166.94-166.94 91.35-91.35-166.94Zm0 0"/></clipPath><clipPath id="T"><path d="m394.03 306-91.35-166.95-166.94 91.36 91.35 166.93Zm0 0"/></clipPath><clipPath id="U"><path d="M374 269h190v198H374Zm0 0"/></clipPath><clipPath id="V"><path d="m538.32 479.39-184.47-46.75 46.75-184.47 184.47 46.75Zm0 0"/></clipPath><clipPath id="W"><path d="m354.09 432.7 184.47 46.75 46.74-184.47-184.46-46.75Zm0 0"/></clipPath><clipPath id="X"><path d="M168 374h190v98H168Zm0 0"/></clipPath><clipPath id="Y"><path d="M212.1 593.34 140.08 417.2l176.14-72.03 72.04 176.14Zm0 0"/></clipPath><clipPath id="Z"><path d="m140.17 417.43 72.03 176.14 176.14-72.03L316.3 345.4Zm0 0"/></clipPath><clipPath id="aa"><path d="M783 0h197v84H783Zm0 0"/></clipPath><clipPath id="ab"><path d="m771 60.1 44.32-185.06 185.06 44.32-44.32 185.07Zm0 0"/></clipPath><clipPath id="ac"><path d="M815.26-124.71 770.94 60.35 956 104.67l44.32-185.06Zm0 0"/></clipPath><clipPath id="ad"><path d="M586 0h190v190H586Zm0 0"/></clipPath><clipPath id="ae"><path d="m718.13-34.16 91.35 166.94-166.93 91.36L551.19 57.2Zm0 0"/></clipPath><clipPath id="af"><path d="M809.36 132.57 718.01-34.37 551.07 56.98l91.36 166.94Zm0 0"/></clipPath><clipPath id="ag"><path d="M802 102h190v198H802Zm0 0"/></clipPath><clipPath id="ah"><path d="m966.5 311.99-184.47-46.75 46.75-184.47 184.47 46.75Zm0 0"/></clipPath><clipPath id="ai"><path d="m782.27 265.3 184.47 46.75 46.74-184.47-184.46-46.75Zm0 0"/></clipPath><clipPath id="aj"><path d="M591 219h190v203H591Zm0 0"/></clipPath><clipPath id="ak"><path d="m634.7 438.66-72.03-176.14 176.14-72.04 72.03 176.14Zm0 0"/></clipPath><clipPath id="al"><path d="m562.77 262.75 72.03 176.13 176.14-72.03L738.9 190.7Zm0 0"/></clipPath><clipPath id="am"><path d="M798 322h190v150H798Zm0 0"/></clipPath><clipPath id="an"><path d="m978.41 314.73 17.12 189.53L806 521.38l-17.12-189.52Zm0 0"/></clipPath><clipPath id="ao"><path d="m995.5 504.02-17.1-189.53-189.54 17.11 17.12 189.53Zm0 0"/></clipPath><clipPath id="ap"><path d="M582 436h190v36H582Zm0 0"/></clipPath><clipPath id="aq"><path d="m577.6 440.1 190.17-7.05 7.06 190.17-190.17 7.06Zm0 0"/></clipPath><clipPath id="ar"><path d="m767.52 433.06-190.16 7.06 7.05 190.17 190.17-7.06Zm0 0"/></clipPath><clipPath id="c"><path d="M0 0h1680v472H0z"/></clipPath><filter id="a" width="100%" height="100%" x="0%" y="0%"><feColorMatrix color-interpolation-filters="sRGB" values="0 0 0 0 1 0 0 0 0 1 0 0 0 0 1 0 0 0 1 0"/></filter><mask id="d"><g filter="url(#a)"><path fill-opacity=".2" d="M-168-47.25h2016v567H-168z"/></g></mask></defs><g clip-path="url(#b)"><path fill="#fff" d="M.89 0H1679.1v472H.9Zm0 0"/><path fill="#002199" d="M.89 0H1679.1v472H.9Zm0 0"/><g clip-path="url(#c)" mask="url(#d)"><g clip-path="url(#e)"><path fill="#ccd7ff" fill-rule="evenodd" d="M1186.35 69.42a3.6 3.6 0 0 1-.17.31l.59-.75a95.43 95.43 0 0 1 2.1 33.07c-4.93 44.52-40.9 79.63-85.48 83.47-2.77.29-5.6.36-8.3.36a94.5 94.5 0 0 1-66.9-27.7 94.6 94.6 0 0 1-27.3-75.14c3.84-44.67 38.92-80.64 83.45-85.58a92.14 92.14 0 0 1 33.05 2.18c7.22 1.72 15.07 2 23.44.72a39.67 39.67 0 0 1 44.56 30.23 38.2 38.2 0 0 1 .59 15c-1.28 8.34-1.07 16.19.71 23.39Zm-.65.31h-.07l-.11-.46c-1.82-7.35-2.05-15.36-.74-23.87.79-4.76.57-9.7-.57-14.53A38.46 38.46 0 0 0 1141 1.55a62.12 62.12 0 0 1-23.9-.74 90.86 90.86 0 0 0-32.63-2.15c-43.96 4.87-78.59 40.37-82.39 84.48a93.39 93.39 0 0 0 26.96 74.17 93.28 93.28 0 0 0 74.22 26.99c44.03-3.79 79.53-38.44 84.4-82.4a94.1 94.1 0 0 0-1.97-32.18Zm-21.62-14.85a23.12 23.12 0 0 1-17.3 7.85 23.12 23.12 0 0 1-23.05-23.08c0-6.74 2.95-13.03 8.07-17.47a22.83 22.83 0 0 1 14.97-5.54h.83a23.21 23.21 0 0 1 22.3 22.29v.72c0 5.47-2 10.8-5.56 15.01l-.18.22Zm-1.5 0 .84-1c3.37-4 5.27-9.05 5.27-14.23v-.7a22 22 0 0 0-21.13-21.1h-.79a21.83 21.83 0 0 0-21.84 21.8 21.9 21.9 0 0 0 21.84 21.87c6.33 0 12.43-2.8 16.58-7.64l-.86 1Zm-51.6-38v-.18l.54 1.02c-.16-.3-.34-.58-.54-.85Zm0 0 .53.92.03.06a6.36 6.36 0 0 1 .14 5.82 38.54 38.54 0 0 0 30.77 54.2 38.5 38.5 0 0 0 20.17-3.2 6.52 6.52 0 0 1 9.21 4.84 77.61 77.61 0 0 1 .3 21.28c-4.3 35.81-33.45 64.35-69.25 67.99a77.8 77.8 0 0 1-62.92-22.37 77.97 77.97 0 0 1-22.47-62.89c3.56-35.94 32.08-65.14 67.94-69.5 3.2-.37 6.4-.59 9.52-.59 3.93 0 7.94.3 11.87.94a6.47 6.47 0 0 1 4.16 2.5Zm0 2.42-.4-.75a.48.48 0 0 1-.13-.15l.02.03a.58.58 0 0 1-.1-.27 5.2 5.2 0 0 0-3.75-2.59c-3.87-.63-7.8-.92-11.67-.92a83 83 0 0 0-9.38.58c-35.3 4.3-63.36 33.04-66.87 68.42a76.75 76.75 0 0 0 22.12 61.92 76.58 76.58 0 0 0 61.94 22c35.24-3.57 63.94-31.66 68.17-66.91.85-6.93.78-14.08-.29-20.95a5.34 5.34 0 0 0-2.7-3.8 5.46 5.46 0 0 0-4.82-.13 39.75 39.75 0 0 1-20.8 3.3 39.77 39.77 0 0 1-31.75-55.9 5.16 5.16 0 0 0-.1-4.75l.51.9Zm0 0"/></g><g clip-path="url(#f)"><path fill="#ccd7ff" fill-rule="evenodd" d="m1308.1 277.72-.31-.17.75.59a95.32 95.32 0 0 1-33.07 2.1c-44.53-4.93-79.63-40.9-83.47-85.48a80.3 80.3 0 0 1-.36-8.3 94.5 94.5 0 0 1 27.7-66.9 94.59 94.59 0 0 1 75.13-27.3c44.68 3.84 80.65 38.92 85.58 83.45a92.13 92.13 0 0 1-2.18 33.05 60.9 60.9 0 0 0-.71 23.44 39.69 39.69 0 0 1-30.23 44.56 38.23 38.23 0 0 1-15 .59c-8.34-1.29-16.2-1.07-23.4.71Zm-.31-.65V277l.46-.11c7.34-1.82 15.35-2.05 23.87-.74 4.75.79 9.7.57 14.53-.57a38.46 38.46 0 0 0 29.3-43.2 62.14 62.14 0 0 1 .75-23.9v-.01a90.85 90.85 0 0 0 2.15-32.63c-4.87-43.95-40.38-78.58-84.48-82.38a93.37 93.37 0 0 0-101.16 101.18c3.79 44.02 38.43 79.53 82.4 84.4a93.99 93.99 0 0 0 32.18-1.97Zm14.85-21.62a23.13 23.13 0 0 1-7.86-17.3 23.12 23.12 0 0 1 23.09-23.06c6.74 0 13.02 2.96 17.47 8.09a22.84 22.84 0 0 1 5.54 14.96v.82a23.21 23.21 0 0 1-22.29 22.3h-.72c-5.47 0-10.8-2-15.01-5.55l-.22-.18Zm0-1.5 1 .84a22.12 22.12 0 0 0 14.23 5.26h.7a22 22 0 0 0 21.1-21.12v-.79a21.84 21.84 0 0 0-21.8-21.84 21.9 21.9 0 0 0-21.88 21.84 21.9 21.9 0 0 0 7.65 16.57l-1-.85Zm38-51.6h.17l-1.02.54c.3-.16.59-.34.85-.54Zm0 0-.93.53-.05.03a6.35 6.35 0 0 1-5.82.14 38.54 38.54 0 0 0-54.2 30.77 38.53 38.53 0 0 0 3.2 20.17 6.54 6.54 0 0 1-4.84 9.21h-.01a77.61 77.61 0 0 1-21.28.3c-35.8-4.3-64.34-33.45-67.98-69.25a77.8 77.8 0 0 1 22.36-62.91 77.96 77.96 0 0 1 62.9-22.48c35.94 3.57 65.13 32.08 69.5 67.94.37 3.2.58 6.4.58 9.52 0 3.93-.29 7.93-.93 11.86a6.46 6.46 0 0 1-2.5 4.17Zm-2.43 0 .76-.4a.85.85 0 0 1 .12-.11l.03-.02-.03.02a.54.54 0 0 1 .26-.1 5.22 5.22 0 0 0 2.6-3.75c.63-3.87.91-7.8.91-11.67 0-3.07-.21-6.23-.57-9.38-4.3-35.3-33.04-63.37-68.42-66.87a76.74 76.74 0 0 0-61.92 22.12 76.58 76.58 0 0 0-22.01 61.94c3.58 35.24 31.67 63.94 66.92 68.17 6.93.85 14.08.78 20.94-.29a5.33 5.33 0 0 0 3.94-7.51 39.72 39.72 0 0 1 52.6-52.56c1.54.72 3.27.73 4.75-.1l-.9.5Zm0 0"/></g><g clip-path="url(#g)"><g clip-path="url(#h)"><g clip-path="url(#i)"><path fill="#ccd7ff" fill-rule="evenodd" d="M1033.54 245.18h.36l-.94-.17a95.3 95.3 0 0 1 28.32-17.2c41.74-16.28 89.51-.7 113.6 37.03a94.5 94.5 0 0 1 10.64 79.3 94.58 94.58 0 0 1-53.9 59.04c-41.37 17.3-89.5 2.9-114.53-34.26a92.2 92.2 0 0 1-13.4-30.3 60.98 60.98 0 0 0-10.22-21.09 39.69 39.69 0 0 1 6.12-53.5 38.18 38.18 0 0 1 13.01-7.48c7.99-2.73 14.84-6.55 20.4-11.48Zm.58.43.03.05-.35.32c-5.67 5.02-12.66 8.93-20.81 11.72-4.58 1.51-8.87 4-12.61 7.25a38.47 38.47 0 0 0-5.93 51.87 62.12 62.12 0 0 1 10.42 21.51v.01a90.97 90.97 0 0 0 13.23 29.9c24.7 36.69 72.21 50.9 113.05 33.82a93.38 93.38 0 0 0 53.2-58.29 93.28 93.28 0 0 0-10.5-78.27c-23.76-37.24-70.92-52.63-112.13-36.56a94.07 94.07 0 0 0-27.6 16.67Zm-3.14 26.03a23.12 23.12 0 0 1 14.99 11.7 23.12 23.12 0 0 1-9.76 31.12 23.04 23.04 0 0 1-19.23.94 22.83 22.83 0 0 1-11.85-10.69l-.38-.71v-.02a23.22 23.22 0 0 1 9.4-30.09l.65-.33a23.35 23.35 0 0 1 15.87-2.04l.28.06Zm.7 1.34-1.27-.28a22.17 22.17 0 0 0-15.05 1.93l-.63.33a22 22 0 0 0-8.9 28.5l.37.7c2.4 4.6 6.33 8.16 11.23 10.12a21.83 21.83 0 0 0 18.21-.89 21.9 21.9 0 0 0 9.26-29.5 21.9 21.9 0 0 0-14.46-11.13l1.28.3Zm-9.74 63.34-.15.07.65-.94a6.3 6.3 0 0 0-.5.87Zm0 0 .58-.9.03-.06a6.36 6.36 0 0 1 5.09-2.82 38.55 38.55 0 0 0 33.74-52.4 38.52 38.52 0 0 0-12.18-16.38 6.53 6.53 0 0 1 .02-10.4v-.02a77.63 77.63 0 0 1 18.73-10.12c33.71-12.8 72.51-.2 92.34 29.83a77.8 77.8 0 0 1 9.35 66.11 77.95 77.95 0 0 1-45.3 49.07c-33.49 13.52-72.58 1.79-93.07-27.95a84.6 84.6 0 0 1-4.94-8.17 73.74 73.74 0 0 1-4.67-10.95 6.47 6.47 0 0 1 .28-4.84Zm2.15-1.13-.48.7a.62.62 0 0 1-.06.16l-.01.02.01-.02a.55.55 0 0 1-.2.2 5.22 5.22 0 0 0-.54 4.53 72.34 72.34 0 0 0 4.6 10.77 82.2 82.2 0 0 0 4.86 8.04c20.17 29.28 58.65 40.82 91.62 27.52a76.73 76.73 0 0 0 44.6-48.3 76.58 76.58 0 0 0-9.22-65.1c-19.5-29.56-57.7-41.96-90.9-29.36a76.37 76.37 0 0 0-18.42 9.97 5.32 5.32 0 0 0 0 8.48 39.74 39.74 0 0 1 12.57 16.91 39.77 39.77 0 0 1-34.8 54.04h-.01a5.16 5.16 0 0 0-4.16 2.3l.56-.87Zm0 0"/></g></g></g><g clip-path="url(#j)"><g clip-path="url(#k)"><g clip-path="url(#l)"><path fill="#ccd7ff" fill-rule="evenodd" d="M1284.9 316.7c.16.12.27.23.27.23l-.6-.75a95.22 95.22 0 0 1 32.65 5.66c42.15 15.16 67.91 58.31 61.26 102.57a94.49 94.49 0 0 1-44.1 66.75 94.6 94.6 0 0 1-79.42 9.07c-42.55-14.15-69.36-56.64-63.79-101.1a92.15 92.15 0 0 1 9.82-31.63 60.91 60.91 0 0 0 6.15-22.62 39.68 39.68 0 0 1 39.78-36.3c5.12.01 10.14.99 14.72 2.92 7.81 3.2 15.5 4.81 22.91 4.75Zm.15.7-.01.06h-.47c-7.57.06-15.41-1.58-23.39-4.84a36.97 36.97 0 0 0-14.27-2.83 38.47 38.47 0 0 0-38.56 35.2 62.26 62.26 0 0 1-6.28 23.06 90.95 90.95 0 0 0-9.7 31.24c-5.5 43.88 20.97 85.82 62.97 99.79a93.37 93.37 0 0 0 121.95-74.84c6.57-43.7-18.86-86.3-60.48-101.27a93.98 93.98 0 0 0-31.76-5.58Zm-19.48 17.56a23.1 23.1 0 0 1 3.61 18.66 23.11 23.11 0 0 1-27.81 17.04 23.04 23.04 0 0 1-15.1-11.93 22.84 22.84 0 0 1-1.91-15.85l.18-.78v-.01a23.22 23.22 0 0 1 26.87-16.5l.71.17a23.37 23.37 0 0 1 13.3 8.9l.17.22Zm-.34 1.46-.78-1.05a22.17 22.17 0 0 0-12.61-8.44l-.69-.16a22 22 0 0 0-25.44 15.63l-.18.76a21.64 21.64 0 0 0 1.81 15.02c2.96 5.7 8.1 9.81 14.3 11.3a21.9 21.9 0 0 0 26.37-16.14 21.91 21.91 0 0 0-3.58-17.9l.78 1.07Zm-48.98 41.33-.17-.04 1.12-.28a5.9 5.9 0 0 0-.95.32Zm0 0 1.03-.3.06-.01a6.35 6.35 0 0 1 5.69 1.22 38.54 38.54 0 0 0 59.87-17.3 38.47 38.47 0 0 0 1.59-20.37 6.53 6.53 0 0 1 6.86-7.83 77.58 77.58 0 0 1 20.77 4.67c33.82 12.51 54.78 47.52 49.98 83.18a77.8 77.8 0 0 1-36.4 55.97 77.95 77.95 0 0 1-66.4 7.21c-34.12-11.83-55.87-46.36-51.77-82.25.39-3.2.92-6.37 1.65-9.4a73.3 73.3 0 0 1 3.68-11.32 6.44 6.44 0 0 1 3.39-3.47Zm2.36.57-.82.2a.58.58 0 0 1-.15.09h-.03.03a.53.53 0 0 1-.28.03 5.21 5.21 0 0 0-3.39 3.05 72.15 72.15 0 0 0-3.61 11.13 83.4 83.4 0 0 0-1.63 9.26c-4.04 35.33 17.38 69.31 50.97 80.97a76.74 76.74 0 0 0 65.36-7.1 76.59 76.59 0 0 0 35.84-55.1c4.72-35.1-15.91-69.56-49.2-81.89a76.41 76.41 0 0 0-20.44-4.6 5.34 5.34 0 0 0-5.58 6.4c1.34 6.95.8 14.2-1.64 21a39.76 39.76 0 0 1-61.75 17.85 5.15 5.15 0 0 0-4.65-1l1-.29Zm0 0"/></g></g></g><g clip-path="url(#m)"><g clip-path="url(#n)"><g clip-path="url(#o)"><path fill="#ccd7ff" fill-rule="evenodd" d="M1158.86 597.6h-.35l.94.15a95.3 95.3 0 0 1-28 17.72c-41.43 17.05-89.48 2.35-114.26-34.92a94.51 94.51 0 0 1-12.1-79.09 94.58 94.58 0 0 1 52.79-60.02c41.04-18.07 89.43-4.57 115.13 32.13a92.14 92.14 0 0 1 13.96 30.04 60.97 60.97 0 0 0 10.62 20.9 39.67 39.67 0 0 1-5.13 53.6 38.21 38.21 0 0 1-12.87 7.72c-7.93 2.88-14.72 6.83-20.18 11.85Zm-.58-.42-.03-.07.34-.32c5.57-5.12 12.5-9.16 20.59-12.1a37 37 0 0 0 12.48-7.48 38.46 38.46 0 0 0 4.96-51.97 62.2 62.2 0 0 1-10.82-21.32 90.95 90.95 0 0 0-13.78-29.66c-25.38-36.22-73.14-49.55-113.65-31.71a93.37 93.37 0 0 0-44.42 130.32 78.72 78.72 0 0 0 4.25 7c24.45 36.8 71.89 51.31 112.8 34.48a94.08 94.08 0 0 0 27.28-17.17Zm2.65-26.1a23.14 23.14 0 0 1-15.2-11.41 23.12 23.12 0 0 1 9.18-31.3 23.04 23.04 0 0 1 19.2-1.3 22.84 22.84 0 0 1 12.06 10.47l.38.71.01.01a23.21 23.21 0 0 1-8.85 30.26l-.63.35a23.38 23.38 0 0 1-15.84 2.33l-.27-.05Zm-.72-1.32 1.27.26a22.16 22.16 0 0 0 15.02-2.21l.62-.34a22 22 0 0 0 8.36-28.66l-.37-.69a21.65 21.65 0 0 0-11.42-9.92 21.83 21.83 0 0 0-18.2 1.23 21.9 21.9 0 0 0-8.7 29.66 21.9 21.9 0 0 0 14.66 10.87l-1.28-.28Zm8.57-63.51.15-.08-.64.96c.19-.28.35-.58.49-.88Zm0 0-.57.91a.67.67 0 0 1-.03.05 6.38 6.38 0 0 1-5.04 2.91 38.55 38.55 0 0 0-32.77 53 38.4 38.4 0 0 0 12.5 16.18 6.53 6.53 0 0 1 .18 10.4l-.02.01a77.6 77.6 0 0 1-18.53 10.48c-33.47 13.42-72.5 1.54-92.88-28.12a77.8 77.8 0 0 1-10.58-65.92 77.97 77.97 0 0 1 44.38-49.9c33.24-14.14 72.54-3.14 93.59 26.22a84.06 84.06 0 0 1 5.08 8.07 73.54 73.54 0 0 1 4.87 10.86 6.45 6.45 0 0 1-.18 4.85Zm-2.14 1.17.48-.71c0-.06.02-.1.05-.16l.01-.03-.01.03c.04-.08.1-.15.19-.2.85-1.39 1-3.04.46-4.55a72.1 72.1 0 0 0-4.79-10.68 82.38 82.38 0 0 0-5.01-7.95c-20.72-28.9-59.4-39.72-92.12-25.81a76.75 76.75 0 0 0-43.7 49.12 76.6 76.6 0 0 0 10.42 64.91c20.06 29.2 58.48 40.89 91.43 27.67a76.3 76.3 0 0 0 18.24-10.3 5.32 5.32 0 0 0-.15-8.49 39.75 39.75 0 0 1-12.89-16.67 39.77 39.77 0 0 1 33.8-54.68 5.15 5.15 0 0 0 4.12-2.37l-.55.88Zm0 0"/></g></g></g><g clip-path="url(#p)"><path fill="#ccd7ff" fill-rule="evenodd" d="m1738.53 105.76-.32-.17.75.59a95.43 95.43 0 0 1-33.06 2.1c-44.53-4.93-79.63-40.9-83.47-85.48a94.5 94.5 0 0 1 27.34-75.19 94.6 94.6 0 0 1 75.13-27.32c44.68 3.85 80.64 38.93 85.58 83.46 1.23 11.2.57 22.3-2.18 33.05a61.05 61.05 0 0 0-.72 23.44 39.67 39.67 0 0 1-30.23 44.56 38.16 38.16 0 0 1-15 .59c-8.33-1.28-16.19-1.07-23.39.71Zm-.32-.65v-.07l.46-.11c7.35-1.82 15.36-2.05 23.87-.74a37 37 0 0 0 14.54-.57 38.46 38.46 0 0 0 29.3-43.2c-1.3-8.54-1-16.54.74-23.9a90.86 90.86 0 0 0 2.15-32.63c-4.87-43.96-40.37-78.59-84.47-82.39a93.39 93.39 0 0 0-74.17 26.96 93.28 93.28 0 0 0-27 74.22c3.8 44.03 38.44 79.53 82.4 84.4a94.11 94.11 0 0 0 32.18-1.97Zm14.86-21.62a23.12 23.12 0 0 1-7.86-17.3 23.12 23.12 0 0 1 23.09-23.05c6.73 0 13.02 2.95 17.46 8.07a22.85 22.85 0 0 1 5.55 14.97v.83a23.21 23.21 0 0 1-22.29 22.3h-.72c-5.47 0-10.8-2-15.02-5.56l-.21-.18Zm0-1.5 1 .84a22.12 22.12 0 0 0 14.23 5.26h.7a22 22 0 0 0 21.1-21.12v-.79a21.6 21.6 0 0 0-5.26-14.18 21.83 21.83 0 0 0-16.54-7.65 21.9 21.9 0 0 0-21.88 21.83 21.9 21.9 0 0 0 7.65 16.58l-1-.86Zm38-51.6h.17l-1.02.54c.3-.16.58-.34.85-.54Zm0 0-.93.53a.43.43 0 0 0-.06.03 6.37 6.37 0 0 1-5.82.14 38.56 38.56 0 0 0-54.2 30.77 38.54 38.54 0 0 0 3.21 20.18 6.52 6.52 0 0 1-4.84 9.21h-.01a77.64 77.64 0 0 1-21.28.29c-35.8-4.3-64.34-33.45-67.98-69.25a77.8 77.8 0 0 1 22.36-62.91 77.97 77.97 0 0 1 62.9-22.48c35.94 3.56 65.13 32.08 69.5 67.94.37 3.2.58 6.4.58 9.52 0 3.93-.29 7.94-.94 11.87a6.43 6.43 0 0 1-2.49 4.16Zm-2.43 0 .76-.4a.46.46 0 0 1 .12-.11l.02-.02-.02.02a.58.58 0 0 1 .26-.1 5.2 5.2 0 0 0 2.59-3.75c.63-3.87.92-7.8.92-11.67 0-3.07-.22-6.23-.58-9.38-4.3-35.3-33.03-63.36-68.42-66.87a76.75 76.75 0 0 0-61.91 22.12 76.6 76.6 0 0 0-22.02 61.94c3.58 35.24 31.68 63.94 66.93 68.17 6.92.85 14.07.78 20.94-.29a5.33 5.33 0 0 0 3.94-7.51 39.75 39.75 0 0 1-3.3-20.81 39.77 39.77 0 0 1 55.9-31.75c1.53.72 3.27.73 4.75-.1l-.9.51Zm0 0"/></g><g clip-path="url(#q)"><g clip-path="url(#r)"><g clip-path="url(#s)"><path fill="#ccd7ff" fill-rule="evenodd" d="m1446.57 73.21.35.01-.94-.17a95.3 95.3 0 0 1 28.32-17.2c41.74-16.28 89.52-.69 113.6 37.03a94.48 94.48 0 0 1 10.64 79.3 94.6 94.6 0 0 1-53.9 59.04c-41.37 17.3-89.5 2.9-114.52-34.26a92.14 92.14 0 0 1-13.4-30.3 60.96 60.96 0 0 0-10.23-21.09 39.68 39.68 0 0 1 6.12-53.5 38.2 38.2 0 0 1 13.02-7.48c7.98-2.73 14.83-6.55 20.39-11.47Zm.57.43.04.07-.36.31c-5.67 5.02-12.66 8.93-20.8 11.72h-.01c-4.58 1.51-8.87 4-12.6 7.25h-.01a38.46 38.46 0 0 0-5.93 51.87 62.1 62.1 0 0 1 10.43 21.51 90.9 90.9 0 0 0 13.22 29.91c24.7 36.7 72.22 50.9 113.05 33.82a93.39 93.39 0 0 0 53.21-58.29 93.27 93.27 0 0 0-10.5-78.26v-.01c-23.77-37.24-70.93-52.63-112.14-36.56a94.07 94.07 0 0 0-27.6 16.66Zm-3.13 26.05a23.12 23.12 0 0 1 14.98 11.69 23.12 23.12 0 0 1-9.76 31.12 23.04 23.04 0 0 1-19.22.95 22.86 22.86 0 0 1-11.86-10.7l-.37-.71-.01-.01a23.22 23.22 0 0 1 9.4-30.1l.65-.33a23.37 23.37 0 0 1 15.88-2.04l.27.06Zm.7 1.33-1.28-.28a22.15 22.15 0 0 0-15.05 1.93l-.63.33a22 22 0 0 0-8.9 28.5l.38.7c2.4 4.6 6.32 8.17 11.22 10.12a21.84 21.84 0 0 0 18.22-.89 21.9 21.9 0 0 0 9.25-29.5 21.92 21.92 0 0 0-14.46-11.13l1.29.3Zm-9.75 63.34-.15.08.65-.95c-.19.28-.35.57-.5.87Zm0 0 .58-.9a.28.28 0 0 1 .04-.05c0-.03 0-.05.05-.08a6.32 6.32 0 0 1 5.04-2.74 38.55 38.55 0 0 0 33.74-52.4 38.56 38.56 0 0 0-12.19-16.4 6.53 6.53 0 0 1 .02-10.4h.01a77.51 77.51 0 0 1 18.72-10.13c33.71-12.8 72.52-.2 92.34 29.83a77.79 77.79 0 0 1 9.36 66.1 77.94 77.94 0 0 1-45.3 49.08c-33.5 13.52-72.58 1.8-93.08-27.95a84.66 84.66 0 0 1-4.94-8.17 73.57 73.57 0 0 1-4.67-10.95 6.46 6.46 0 0 1 .28-4.84Zm2.16-1.13-.5.7a.57.57 0 0 1-.05.16l-.01.03.01-.03a.55.55 0 0 1-.19.2 5.23 5.23 0 0 0-.55 4.53 72.34 72.34 0 0 0 4.6 10.77 82.6 82.6 0 0 0 4.86 8.04c20.17 29.28 58.65 40.82 91.63 27.52a76.74 76.74 0 0 0 44.6-48.31 76.59 76.59 0 0 0-9.22-65.09c-19.51-29.55-57.71-41.96-90.9-29.36a76.38 76.38 0 0 0-18.43 9.97 5.32 5.32 0 0 0 0 8.48 39.74 39.74 0 0 1 12.57 16.91 39.77 39.77 0 0 1-34.8 54.04h-.01a5.17 5.17 0 0 0-4.16 2.3l.56-.87Zm0 0"/></g></g></g><g clip-path="url(#t)"><g clip-path="url(#u)"><g clip-path="url(#v)"><path fill="#ccd7ff" fill-rule="evenodd" d="m1715.33 144.73.26.24-.59-.74a95.32 95.32 0 0 1 32.65 5.65c42.15 15.17 67.91 58.32 61.26 102.57a94.47 94.47 0 0 1-44.1 66.75 94.57 94.57 0 0 1-79.42 9.07 94.43 94.43 0 0 1-63.8-101.1 92.15 92.15 0 0 1 9.83-31.63 60.9 60.9 0 0 0 6.15-22.62 39.67 39.67 0 0 1 39.77-36.3 38.2 38.2 0 0 1 14.73 2.92c7.81 3.2 15.5 4.82 22.91 4.76Zm.15.7-.01.07h-.48c-7.57.07-15.4-1.58-23.38-4.84a36.98 36.98 0 0 0-14.27-2.82 38.46 38.46 0 0 0-38.56 35.18 62.13 62.13 0 0 1-6.29 23.08 90.82 90.82 0 0 0-9.69 31.23c-5.5 43.88 20.96 85.82 62.97 99.8a93.36 93.36 0 0 0 121.94-74.84v-.01a93.16 93.16 0 0 0-60.47-101.26 94.32 94.32 0 0 0-31.76-5.59ZM1696 163a23.13 23.13 0 0 1 3.61 18.66 23.12 23.12 0 0 1-27.81 17.04 23.04 23.04 0 0 1-15.1-11.93 22.83 22.83 0 0 1-1.91-15.84l.18-.8a23.22 23.22 0 0 1 26.87-16.5l.7.17a23.36 23.36 0 0 1 13.32 8.9l.16.22Zm-.35 1.46-.77-1.05a22.16 22.16 0 0 0-12.61-8.43l-.7-.17a22 22 0 0 0-25.43 15.63l-.18.77a21.63 21.63 0 0 0 1.8 15c2.97 5.7 8.1 9.83 14.32 11.31a21.9 21.9 0 0 0 26.36-16.14 21.92 21.92 0 0 0-3.58-17.9l.77 1.07Zm-48.97 41.33-.17-.04 1.12-.28a5.9 5.9 0 0 0-.95.32Zm0 0 1.02-.3.07-.01a6.37 6.37 0 0 1 5.7 1.22 38.55 38.55 0 0 0 59.87-17.3 38.53 38.53 0 0 0 1.58-20.37 6.53 6.53 0 0 1 6.85-7.83h.01a77.57 77.57 0 0 1 20.76 4.67c33.83 12.52 54.78 47.52 49.99 83.18a77.8 77.8 0 0 1-36.4 55.97 77.95 77.95 0 0 1-66.4 7.21c-34.12-11.84-55.87-46.36-51.77-82.25.38-3.2.92-6.37 1.65-9.4a73.55 73.55 0 0 1 3.67-11.32 6.46 6.46 0 0 1 3.4-3.47Zm2.36.57-.83.2a.56.56 0 0 1-.14.1h-.03.03c-.08.02-.17.04-.28.02a5.22 5.22 0 0 0-3.4 3.05 72.41 72.41 0 0 0-3.6 11.13c-.72 3-1.25 6.12-1.63 9.26-4.04 35.33 17.38 69.32 50.96 80.97a76.74 76.74 0 0 0 65.37-7.1 76.59 76.59 0 0 0 35.83-55.1c4.73-35.1-15.9-69.57-49.2-81.89a76.48 76.48 0 0 0-20.43-4.6 5.33 5.33 0 0 0-5.58 6.4c1.34 6.96.8 14.2-1.65 21a39.77 39.77 0 0 1-61.75 17.85 5.16 5.16 0 0 0-4.64-1l1-.29Zm0 0"/></g></g></g><g clip-path="url(#w)"><g clip-path="url(#x)"><g clip-path="url(#y)"><path fill="#ccd7ff" fill-rule="evenodd" d="M1571.89 425.64h-.36l.94.15a95.3 95.3 0 0 1-28 17.72c-41.42 17.05-89.48 2.35-114.26-34.92a94.5 94.5 0 0 1-12.1-79.08 94.56 94.56 0 0 1 52.8-60.03c41.03-18.07 89.42-4.57 115.13 32.13a92.09 92.09 0 0 1 13.95 30.04 61.02 61.02 0 0 0 10.62 20.9 39.68 39.68 0 0 1-5.13 53.6 38.14 38.14 0 0 1-12.87 7.72c-7.93 2.88-14.72 6.83-20.17 11.86Zm-.59-.43-.03-.05.35-.32c5.57-5.13 12.49-9.17 20.58-12.11a36.92 36.92 0 0 0 12.48-7.48 38.46 38.46 0 0 0 4.97-51.97 62.15 62.15 0 0 1-10.83-21.32 90.92 90.92 0 0 0-13.77-29.66c-25.38-36.22-73.15-49.55-113.66-31.71a93.38 93.38 0 0 0-52.12 59.26 93.3 93.3 0 0 0 11.95 78.06c24.46 36.8 71.9 51.31 112.8 34.48a94 94 0 0 0 27.28-17.18Zm2.65-26.09a23.13 23.13 0 0 1-15.2-11.4 23.12 23.12 0 0 1 9.19-31.31 23.04 23.04 0 0 1 19.2-1.3 22.85 22.85 0 0 1 12.05 10.47l.39.7v.02a23.22 23.22 0 0 1-8.84 30.26l-.64.35a23.38 23.38 0 0 1-15.83 2.34l-.28-.06Zm-.72-1.32 1.28.26a22.16 22.16 0 0 0 15.01-2.21l.62-.34a22 22 0 0 0 8.37-28.66l-.38-.69a21.86 21.86 0 0 0-29.6-8.7 21.9 21.9 0 0 0-8.71 29.67 21.9 21.9 0 0 0 14.66 10.87l-1.3-.27Zm8.57-63.5.15-.09-.64.96c.19-.28.35-.58.5-.88Zm0 0-.56.9-.04.06c0 .02 0 .04-.04.07a6.36 6.36 0 0 1-5 2.84 38.55 38.55 0 0 0-32.77 53.01c2.67 6.48 7 12.04 12.5 16.17a6.52 6.52 0 0 1 .18 10.4h-.02a77.73 77.73 0 0 1-18.52 10.48c-33.48 13.42-72.5 1.54-92.88-28.11a77.8 77.8 0 0 1-10.59-65.93 77.98 77.98 0 0 1 44.39-49.9c33.23-14.14 72.53-3.14 93.58 26.22a84.6 84.6 0 0 1 5.09 8.08 73.68 73.68 0 0 1 4.87 10.85 6.46 6.46 0 0 1-.19 4.85Zm-2.14 1.16.48-.71c0-.05.02-.1.05-.16l.02-.03-.02.03a.6.6 0 0 1 .19-.2 5.2 5.2 0 0 0 .46-4.54 71.92 71.92 0 0 0-4.79-10.68 82.92 82.92 0 0 0-5-7.96c-20.72-28.9-59.4-39.72-92.13-25.81a76.73 76.73 0 0 0-43.7 49.13 76.58 76.58 0 0 0 10.43 64.9c20.05 29.2 58.47 40.89 91.43 27.68a76.44 76.44 0 0 0 18.23-10.31 5.32 5.32 0 0 0-.15-8.48 39.77 39.77 0 0 1-12.88-16.68 39.76 39.76 0 0 1 33.8-54.68 5.16 5.16 0 0 0 4.11-2.37l-.54.88Zm0 0"/></g></g></g><g clip-path="url(#z)"><g clip-path="url(#A)"><g clip-path="url(#B)"><path fill="#ccd7ff" fill-rule="evenodd" d="M1636.95 452.7c.13-.16.25-.27.25-.27l-.76.58a95.35 95.35 0 0 1 6.08-32.56c15.72-41.96 59.2-67.15 103.37-59.92a94.5 94.5 0 0 1 66.17 44.97 94.57 94.57 0 0 1 8.02 79.54 94.4 94.4 0 0 1-101.92 62.46 92.07 92.07 0 0 1-31.5-10.23 60.88 60.88 0 0 0-22.55-6.45 39.68 39.68 0 0 1-35.77-40.25 38.3 38.3 0 0 1 3.12-14.7c3.29-7.76 5.01-15.42 5.05-22.84Zm.7-.15.07.02v.47c-.04 7.57-1.79 15.39-5.15 23.32a36.97 36.97 0 0 0-3.02 14.23 38.47 38.47 0 0 0 34.68 39.02c8.6.83 16.28 3.08 23 6.59a90.86 90.86 0 0 0 31.1 10.1c43.8 6.08 86.09-19.84 100.6-61.65a93.37 93.37 0 0 0-73.22-122.92h-.01c-43.6-7.14-86.53 17.72-102.05 59.14a94.02 94.02 0 0 0-6 31.68Zm17.31 19.7a23.13 23.13 0 0 1 18.71-3.36 23.12 23.12 0 0 1 16.67 28.04 23.03 23.03 0 0 1-12.12 14.95 22.83 22.83 0 0 1-15.87 1.7l-.79-.2a23.21 23.21 0 0 1-16.15-27.09l.18-.7a23.35 23.35 0 0 1 9.07-13.19l.23-.16Zm1.46.38-1.06.75a22.18 22.18 0 0 0-8.6 12.5l-.17.7a22 22 0 0 0 15.3 25.63l.75.2a21.84 21.84 0 0 0 26.52-15.77 21.9 21.9 0 0 0-15.79-26.57 21.9 21.9 0 0 0-17.94 3.34l1.07-.76Zm40.68 49.51-.04.16-.27-1.11c.08.33.19.65.31.95Zm0 0-.28-1.03-.02-.06a6.36 6.36 0 0 1 1.3-5.67 38.54 38.54 0 0 0-16.52-60.09 38.54 38.54 0 0 0-20.34-1.87 6.54 6.54 0 0 1-7.74-6.95v-.01a77.7 77.7 0 0 1 4.95-20.7c12.95-33.66 48.23-54.15 83.82-48.88a77.8 77.8 0 0 1 55.5 37.13 77.97 77.97 0 0 1 6.33 66.48c-12.28 33.97-47.1 55.26-82.93 50.69-3.19-.43-6.35-1-9.37-1.77a73.36 73.36 0 0 1-11.27-3.83 6.46 6.46 0 0 1-3.43-3.44Zm.6-2.36.2.84.08.14v.03-.03c.03.08.04.17.02.28a5.22 5.22 0 0 0 3 3.43 72.24 72.24 0 0 0 11.1 3.76c2.97.76 6.1 1.32 9.23 1.75 35.27 4.5 69.54-16.46 81.63-49.9a76.75 76.75 0 0 0-6.23-65.45 76.6 76.6 0 0 0-54.64-36.56c-35.04-5.19-69.76 15-82.52 48.13a76.4 76.4 0 0 0-4.86 20.37 5.32 5.32 0 0 0 6.31 5.66 39.73 39.73 0 0 1 20.99 1.92 39.76 39.76 0 0 1 17.03 61.98 5.17 5.17 0 0 0-1.06 4.63l-.27-1Zm0 0"/></g></g></g><g clip-path="url(#C)"><g clip-path="url(#D)"><g clip-path="url(#E)"><path fill="#ccd7ff" fill-rule="evenodd" d="M1452.45 487.64c.2 0 .35.04.35.04l-.91-.26a95.33 95.33 0 0 1 29.8-14.47c43.08-12.29 89.18 7.71 109.62 47.53a94.47 94.47 0 0 1 3.16 79.94 94.58 94.58 0 0 1-59.2 53.72c-42.82 13.35-89.38-5.5-110.8-44.85a92.16 92.16 0 0 1-10.5-31.41 60.92 60.92 0 0 0-8.2-21.97 39.7 39.7 0 0 1 11.1-52.69 38.17 38.17 0 0 1 13.67-6.22c8.2-1.97 15.38-5.13 21.37-9.51Zm.53.48.03.06-.38.28c-6.11 4.47-13.44 7.71-21.82 9.72a36.94 36.94 0 0 0-13.24 6.03 38.47 38.47 0 0 0-10.77 51.08 62.21 62.21 0 0 1 8.37 22.4 90.84 90.84 0 0 0 10.36 31.02c21.15 38.84 67.11 57.45 109.37 44.28a93.38 93.38 0 0 0 55.34-131.95c-20.17-39.31-65.69-59.06-108.22-46.93a94.2 94.2 0 0 0-29.04 14.01Zm-5.56 25.63a23.14 23.14 0 0 1 13.82 13.05 23.12 23.12 0 0 1-12.64 30.07 23.04 23.04 0 0 1-19.22-.87 22.84 22.84 0 0 1-10.8-11.75l-.31-.75v-.01a23.22 23.22 0 0 1 12.18-29.08l.67-.27a23.37 23.37 0 0 1 16-.55l.27.09Zm.57 1.4-1.24-.4a22.14 22.14 0 0 0-15.17.5l-.65.27a22 22 0 0 0-11.53 27.54l.3.73a21.86 21.86 0 0 0 28.45 11.96 21.9 21.9 0 0 0 11.97-28.5 21.9 21.9 0 0 0-13.35-12.44l1.25.42Zm-15.65 62.14-.16.07.75-.89c-.22.26-.42.53-.59.82Zm0 0 .66-.84.04-.05a6.35 6.35 0 0 1 5.33-2.33 38.54 38.54 0 0 0 38.51-49 38.52 38.52 0 0 0-10.59-17.46 6.53 6.53 0 0 1 1-10.36 77.77 77.77 0 0 1 19.6-8.33c34.76-9.58 72.21 6.6 89.13 38.36a77.8 77.8 0 0 1 3.11 66.7 77.97 77.97 0 0 1-49.7 44.6c-34.62 10.31-72.43-5.03-90.05-36.56a83.66 83.66 0 0 1-4.15-8.6 72.98 72.98 0 0 1-3.62-11.33 6.44 6.44 0 0 1 .73-4.8Zm2.25-.92-.55.65a.86.86 0 0 1-.06.16l-.02.02.02-.02a.61.61 0 0 1-.21.18 5.2 5.2 0 0 0-.98 4.46 72.5 72.5 0 0 0 3.56 11.14 83.63 83.63 0 0 0 4.09 8.47c17.34 31.04 54.57 46.14 88.64 36a76.75 76.75 0 0 0 48.94-43.92 76.58 76.58 0 0 0-3.07-65.66c-16.65-31.26-53.52-47.2-87.75-37.76a76.5 76.5 0 0 0-19.27 8.19 5.31 5.31 0 0 0-.8 8.45 39.72 39.72 0 0 1-28.8 68.55 5.14 5.14 0 0 0-4.35 1.9l.63-.82Zm0 0"/></g></g></g><g clip-path="url(#F)"><g clip-path="url(#G)"><g clip-path="url(#H)"><path fill="#ccd7ff" fill-rule="evenodd" d="M154.78 228.97c-.04-.2-.1-.34-.1-.34l.4.87a95.36 95.36 0 0 0 10.16-31.54c6.15-44.37-20.08-87.23-62.37-101.9a94.49 94.49 0 0 0-79.6 8.03 94.57 94.57 0 0 0-44.93 66.11c-7.24 44.26 17.93 87.74 59.88 103.46a92.07 92.07 0 0 0 32.57 6c7.42.12 15.1 1.77 22.9 5.07a39.68 39.68 0 0 0 50.62-18.35 38.18 38.18 0 0 0 4.25-14.4c.8-8.4 2.94-15.96 6.44-22.5Zm-.56-.46-.06-.02-.23.42c-3.57 6.68-5.75 14.38-6.57 22.96a37.18 37.18 0 0 1-4.13 13.95 38.47 38.47 0 0 1-49.08 17.79 62.16 62.16 0 0 0-23.35-5.15 90.94 90.94 0 0 1-32.16-5.93C-2.77 257-27.6 214.08-20.46 170.4a93.4 93.4 0 0 1 44.35-65.28 93.3 93.3 0 0 1 78.58-7.93c41.74 14.49 67.65 56.8 61.57 100.6a94 94 0 0 1-9.82 30.72Zm-24.6 9.09a23.12 23.12 0 0 0-14.85-11.87 23.12 23.12 0 0 0-28.01 16.72 23.05 23.05 0 0 0 3.54 18.9 22.73 22.73 0 0 0 13.15 9.06l.78.2h.02a23.21 23.21 0 0 0 27.09-16.12l.18-.7a23.4 23.4 0 0 0-1.7-15.92l-.12-.26Zm-1.46-.37.57 1.17a22.15 22.15 0 0 1 1.61 15.09l-.17.68a22 22 0 0 1-25.66 15.26l-.76-.2a21.84 21.84 0 0 1-15.81-26.5 21.9 21.9 0 0 1 26.54-15.83 21.9 21.9 0 0 1 14.18 11.48l-.58-1.18Zm-59.35 24.16-.04.16.77-.85c-.23.25-.47.48-.73.7Zm0 0 .74-.77.04-.05a6.37 6.37 0 0 0 1.56-5.6A38.55 38.55 0 0 1 114.3 210a38.42 38.42 0 0 1 18.78 8.05 6.52 6.52 0 0 0 10.12-2.43v-.01a77.45 77.45 0 0 0 5.51-20.56c4.64-35.76-16.62-70.59-50.42-82.9a77.79 77.79 0 0 0-66.48 6.22A77.95 77.95 0 0 0-5.44 173.8c-5.37 35.71 15.1 71.02 48.78 84.06a85.4 85.4 0 0 0 9.09 2.91 71.7 71.7 0 0 0 11.73 2 6.46 6.46 0 0 0 4.65-1.39Zm.6-2.36-.58.64a.57.57 0 0 0-.13.09l-.03.02.03-.02a.57.57 0 0 0-.16.23 5.22 5.22 0 0 1-4.27 1.59 72.64 72.64 0 0 1-11.54-1.97c-2.98-.76-6-1.75-8.96-2.87C10.61 243.9-9.53 209.14-4.24 174a76.75 76.75 0 0 1 36.65-54.58 76.6 76.6 0 0 1 65.45-6.13c33.28 12.13 54.2 46.41 49.64 81.62a76.4 76.4 0 0 1-5.42 20.23 5.33 5.33 0 0 1-8.25 1.97 39.74 39.74 0 0 0-19.37-8.3 39.76 39.76 0 0 0-44.5 46.38 5.16 5.16 0 0 1-1.26 4.58l.71-.75Zm0 0"/></g></g></g><g clip-path="url(#I)"><g clip-path="url(#J)"><g clip-path="url(#K)"><path fill="#ccd7ff" fill-rule="evenodd" d="M78.85 305.59c-.17.1-.3.2-.3.2l.7-.66a95.25 95.25 0 0 0-33.12.88c-43.9 8.92-75.63 47.9-75.44 92.65a94.52 94.52 0 0 0 111.28 92.87c44.15-7.86 76.81-46.03 77.72-90.82a92.1 92.1 0 0 0-5.14-32.73 60.84 60.84 0 0 1-2.82-23.27 39.68 39.68 0 0 0-34.12-41.66 38.18 38.18 0 0 0-15 .76c-8.18 2.03-16.02 2.53-23.35 1.4Zm-.25.67v.07l.47.07c7.48 1.15 15.48.65 23.84-1.41a37 37 0 0 1 14.53-.74 38.46 38.46 0 0 1 33.08 40.4 62.14 62.14 0 0 0 2.88 23.73 90.91 90.91 0 0 1 5.08 32.3c-.9 44.22-33.14 81.9-76.72 89.65A93.37 93.37 0 0 1-28.1 398.66c-.19-44.18 31.13-82.66 74.47-91.46a93.97 93.97 0 0 1 32.23-.94Zm16.74 20.2a23.12 23.12 0 0 0-6.27 17.94 23.12 23.12 0 0 0 25.07 20.88c6.7-.6 12.7-4.12 16.66-9.62a22.86 22.86 0 0 0 4.18-15.41l-.07-.8v-.02a23.21 23.21 0 0 0-24.2-20.2l-.73.06a23.39 23.39 0 0 0-14.45 6.89l-.2.2Zm.13 1.5.92-.93a22.16 22.16 0 0 1 13.7-6.53l.7-.06a22 22 0 0 1 22.91 19.13l.07.79a21.85 21.85 0 0 1-19.75 23.71 21.9 21.9 0 0 1-23.74-19.78 21.9 21.9 0 0 1 6.12-17.2l-.92.95Zm42.5 47.96.16-.01-1.06-.45c.31.13.61.29.9.46Zm0 0-.98-.44-.06-.03a6.37 6.37 0 0 0-5.8.39 38.54 38.54 0 0 1-56.74-25.77 38.5 38.5 0 0 1 1.36-20.38 6.53 6.53 0 0 0-5.65-8.74h-.01a77.57 77.57 0 0 0-21.22 1.62c-35.28 7.5-61.07 39.11-61.47 75.09a77.8 77.8 0 0 0 27.93 60.64A77.97 77.97 0 0 0 80 475.03c35.47-6.78 61.99-37.8 63.11-73.91.08-3.22 0-6.44-.28-9.55-.35-3.91-1-7.87-2-11.73a6.47 6.47 0 0 0-2.86-3.92Zm-2.43.22.8.33a.4.4 0 0 0 .12.1c.01 0 .02 0 .03.02l-.03-.02c.08.04.16.07.27.07a5.22 5.22 0 0 1 2.92 3.5 71.73 71.73 0 0 1 1.97 11.54c.28 3.07.34 6.23.27 9.4-1.1 35.54-27.2 66.08-62.13 72.76a76.74 76.74 0 0 1-63.65-16.46 76.57 76.57 0 0 1-27.5-59.71c.4-35.42 25.79-66.53 60.52-73.92a76.5 76.5 0 0 1 20.88-1.6 5.33 5.33 0 0 1 4.6 7.14 39.7 39.7 0 0 0 57.11 47.6 5.15 5.15 0 0 1 4.74-.32l-.94-.43Zm0 0"/></g></g></g><g clip-path="url(#L)"><g clip-path="url(#M)"><g clip-path="url(#N)"><path fill="#ccd7ff" fill-rule="evenodd" d="M287.24 134.97c.12-.16.2-.3.2-.3l-.4.87a95.24 95.24 0 0 0 30.28-13.46c37.16-25.02 51.58-73.16 34.3-114.45a94.5 94.5 0 0 0-59.09-53.94 94.59 94.59 0 0 0-79.23 10.65c-37.8 24.12-53.39 71.88-37.11 113.62a92.04 92.04 0 0 0 17.26 28.27 60.95 60.95 0 0 1 11.5 20.43 39.68 39.68 0 0 0 47.45 25.46 38.1 38.1 0 0 0 13.55-6.43c6.8-5 13.85-8.45 21.06-10.21Zm-.03-.72-.03-.06-.46.11c-7.35 1.8-14.55 5.31-21.49 10.42a36.98 36.98 0 0 1-13.14 6.23 38.46 38.46 0 0 1-46-24.68 62.13 62.13 0 0 0-11.74-20.84 91 91 0 0 1-17.04-27.9 93.2 93.2 0 0 1 36.65-112.17A93.38 93.38 0 0 1 347.04.68a79.01 79.01 0 0 1 3.46 7.41c17.06 40.76 2.83 88.28-33.86 112.98a94.1 94.1 0 0 1-29.43 13.18ZM264.03 122a23.12 23.12 0 0 0-1.07-18.98 23.12 23.12 0 0 0-31.14-9.72 23.05 23.05 0 0 0-9.7 31.1l.38.72a23.21 23.21 0 0 0 30.09 9.43l.64-.34a23.34 23.34 0 0 0 10.73-11.88l.1-.26Zm-.7-1.34-.49 1.2a22.16 22.16 0 0 1-10.17 11.28l-.63.33a22 22 0 0 1-28.48-8.94l-.36-.7a21.62 21.62 0 0 1-1.93-15 21.84 21.84 0 0 1 11.11-14.45 21.9 21.9 0 0 1 29.51 9.2 21.93 21.93 0 0 1 .91 18.23l.49-1.22Zm-57.6-28.09-.15.08h1.15c-.34 0-.67-.03-1-.08Zm0 0 1.07.04h.07a6.37 6.37 0 0 0 5.22-2.58 38.55 38.55 0 0 1 62.28 2.13 38.55 38.55 0 0 1 6.52 19.37 6.52 6.52 0 0 0 8.56 5.92l.01-.01a77.74 77.74 0 0 0 19-9.61c29.73-20.41 41.49-59.48 28.11-92.87a77.8 77.8 0 0 0-48.99-45.38 77.96 77.96 0 0 0-66.14 9.25c-30.19 19.83-42.83 58.63-30.08 92.42a83.6 83.6 0 0 0 3.9 8.71 72.92 72.92 0 0 0 6.33 10.08 6.43 6.43 0 0 0 4.14 2.53Zm2.16-1.13h-.86a.64.64 0 0 0-.16-.04h-.03.03a.54.54 0 0 0-.27.04 5.21 5.21 0 0 1-4.04-2.13 72.34 72.34 0 0 1-6.23-9.9 83.2 83.2 0 0 1-3.84-8.59c-12.56-33.27-.1-71.46 29.62-90.97a76.75 76.75 0 0 1 65.1-9.11 76.59 76.59 0 0 1 48.24 44.66c13.16 32.88 1.59 71.34-27.68 91.43a76.39 76.39 0 0 1-18.7 9.46 5.34 5.34 0 0 1-4.62-.63 5.44 5.44 0 0 1-2.35-4.2 39.7 39.7 0 0 0-70.97-22.17 5.16 5.16 0 0 1-4.26 2.1l1.04.05Zm0 0"/></g></g></g><g clip-path="url(#O)"><g clip-path="url(#P)"><g clip-path="url(#Q)"><path fill="#ccd7ff" fill-rule="evenodd" d="m425.5 232.3.34-.1-.87.4a95.38 95.38 0 0 0 31.66 9.75c44.46 5.57 86.97-21.23 101.08-63.7a94.5 94.5 0 0 0-9.07-79.49 94.6 94.6 0 0 0-66.7-44.05c-44.35-6.66-87.5 19.07-102.67 61.23a92.14 92.14 0 0 0-5.57 32.65 60.85 60.85 0 0 1-4.77 22.95 39.68 39.68 0 0 0 19.02 50.38c4.57 2.3 9.5 3.71 14.46 4.07 8.4.7 15.99 2.72 22.57 6.14Zm.45-.56.01-.07-.42-.22c-6.72-3.48-14.46-5.56-23.04-6.27a36.7 36.7 0 0 1-14-3.95 38.47 38.47 0 0 1-18.44-48.84 62.22 62.22 0 0 0 4.85-23.41 90.93 90.93 0 0 1 5.5-32.23c14.98-41.62 57.57-67.02 101.34-60.45a93.38 93.38 0 0 1 65.86 43.5 93.27 93.27 0 0 1 8.96 78.46c-13.94 41.93-55.9 68.39-99.78 62.89a94.02 94.02 0 0 1-30.84-9.41Zm-9.41-24.48a23.13 23.13 0 0 0 11.67-15 23.12 23.12 0 0 0-17.08-27.8 23.06 23.06 0 0 0-27.75 17.06l-.2.78v.02a23.21 23.21 0 0 0 16.49 26.88l.7.16a23.36 23.36 0 0 0 15.9-1.9l.25-.13Zm.35-1.47-1.17.59a22.16 22.16 0 0 1-15.07 1.8l-.69-.16a22 22 0 0 1-15.59-25.45l.18-.77a21.64 21.64 0 0 1 8.41-12.57 21.82 21.82 0 0 1 17.88-3.59 21.9 21.9 0 0 1 16.2 26.33 21.93 21.93 0 0 1-11.3 14.34l1.17-.6Zm-24.94-59.03-.17-.04.86.76a6.38 6.38 0 0 1-.7-.72Zm0 0 .78.73.04.05a6.36 6.36 0 0 0 5.63 1.49 38.55 38.55 0 0 1 45.54 42.55 38.53 38.53 0 0 1-7.81 18.87 6.53 6.53 0 0 0 2.56 10.09h.01a77.4 77.4 0 0 0 20.63 5.24c35.82 4.16 70.36-17.55 82.24-51.51a77.8 77.8 0 0 0-7.1-66.4 77.96 77.96 0 0 0-55.93-36.5c-35.78-4.9-70.81 16.02-83.42 49.88a84.73 84.73 0 0 0-2.78 9.13 73.41 73.41 0 0 0-1.85 11.75 6.45 6.45 0 0 0 1.46 4.63Zm2.36.57-.65-.56a.7.7 0 0 0-.09-.15l-.02-.01.02.01a.56.56 0 0 0-.23-.14 5.23 5.23 0 0 1-1.64-4.26c.28-3.9.92-7.8 1.82-11.56a83.98 83.98 0 0 1 2.74-9c12.4-33.32 46.9-53.92 82.12-49.09a76.8 76.8 0 0 1 55.06 35.93 76.6 76.6 0 0 1 6.98 65.37c-11.69 33.43-45.69 54.8-80.96 50.7a76.4 76.4 0 0 1-20.3-5.15 5.31 5.31 0 0 1-2.08-8.23 39.7 39.7 0 0 0-38.91-63.35 5.16 5.16 0 0 1-4.6-1.22l.76.71Zm0 0"/></g></g></g><g clip-path="url(#R)"><g clip-path="url(#S)"><g clip-path="url(#T)"><path fill="#ccd7ff" fill-rule="evenodd" d="M241.19 177.81c-.12.16-.2.3-.2.3l.38-.87a95.29 95.29 0 0 0-30.01 14.02c-36.7 25.7-50.23 74.1-32.19 115.06a94.5 94.5 0 0 0 60.08 52.83 94.59 94.59 0 0 0 79.02-12.1c37.34-24.83 52.05-72.86 35-114.3a92.08 92.08 0 0 0-17.77-27.94 60.99 60.99 0 0 1-11.88-20.22 39.68 39.68 0 0 0-47.91-24.58 38.2 38.2 0 0 0-13.44 6.69c-6.7 5.13-13.69 8.71-20.86 10.6Zm.04.72.03.06.45-.12c7.33-1.93 14.46-5.58 21.3-10.81a36.95 36.95 0 0 1 13.03-6.48 38.46 38.46 0 0 1 46.44 23.83c2.95 8.12 7.06 15 12.13 20.62 7.48 8 13.3 17.3 17.55 27.58 16.83 40.9 2.3 88.33-34.56 112.83a93.39 93.39 0 0 1-78 11.96 93.28 93.28 0 0 1-59.3-52.15c-17.82-40.43-4.47-88.21 31.76-113.59a94 94 0 0 1 29.18-13.72Zm23.4 11.83a23.13 23.13 0 0 0 1.42 18.96 23.12 23.12 0 0 0 31.32 9.14 23.1 23.1 0 0 0 11.44-15.48 22.82 22.82 0 0 0-2.32-15.79l-.4-.71v-.01a23.22 23.22 0 0 0-30.25-8.86l-.64.34a23.37 23.37 0 0 0-10.5 12.09l-.1.26Zm.73 1.32.46-1.21a22.17 22.17 0 0 1 9.96-11.45l.62-.34a22 22 0 0 1 28.65 8.4l.38.69a21.84 21.84 0 0 1-8.64 29.63 21.9 21.9 0 0 1-29.68-8.66 21.9 21.9 0 0 1-1.25-18.2l-.46 1.22Zm58.1 27.02.15-.08-1.15.02c.34 0 .68.02 1 .06Zm0 0-1.07-.01h-.06a6.36 6.36 0 0 0-5.17 2.67 38.55 38.55 0 0 1-62.3-.98 38.52 38.52 0 0 1-6.9-19.23 6.53 6.53 0 0 0-8.67-5.76 77.52 77.52 0 0 0-18.81 9.96c-29.35 20.96-40.39 60.24-26.39 93.38a77.8 77.8 0 0 0 49.82 44.46 77.95 77.95 0 0 0 65.96-10.48c29.82-20.37 41.74-59.4 28.36-92.96a83.63 83.63 0 0 0-4.06-8.63 73.32 73.32 0 0 0-6.52-9.96 6.45 6.45 0 0 0-4.19-2.46Zm-2.13 1.17.86-.01.16.04h.03-.03c.08 0 .17 0 .27-.05 1.63.02 3.1.8 4.08 2.06a72.12 72.12 0 0 1 6.4 9.79 81.7 81.7 0 0 1 4 8.5c13.18 33.03 1.44 71.45-27.92 91.51a76.76 76.76 0 0 1-64.93 10.32 76.6 76.6 0 0 1-49.05-43.77c-13.77-32.63-2.9-71.3 25.98-91.92a76.34 76.34 0 0 1 18.52-9.8 5.32 5.32 0 0 1 7.06 4.7 39.71 39.71 0 0 0 71.37 20.85 5.17 5.17 0 0 1 4.22-2.2h-1.04Zm0 0"/></g></g></g><g clip-path="url(#U)"><g clip-path="url(#V)"><g clip-path="url(#W)"><path fill="#ccd7ff" fill-rule="evenodd" d="M552.04 408.02c-.04-.2-.1-.34-.1-.34l.4.87a95.36 95.36 0 0 0 10.16-31.53c6.15-44.38-20.09-87.24-62.37-101.92a94.49 94.49 0 0 0-79.6 8.03 94.59 94.59 0 0 0-44.93 66.12c-7.24 44.26 17.92 87.74 59.88 103.46a92.07 92.07 0 0 0 32.57 6 61.2 61.2 0 0 1 22.9 5.07 39.68 39.68 0 0 0 50.62-18.36 38.25 38.25 0 0 0 4.25-14.4c.8-8.4 2.94-15.95 6.44-22.49Zm-.56-.46-.07-.02-.22.42c-3.57 6.68-5.75 14.38-6.58 22.96-.4 4.8-1.83 9.55-4.12 13.95a38.47 38.47 0 0 1-49.08 17.79 62.16 62.16 0 0 0-23.35-5.15 90.94 90.94 0 0 1-32.16-5.93 93.18 93.18 0 0 1-59.1-102.13 93.37 93.37 0 0 1 122.93-73.2c41.74 14.48 67.64 56.79 61.57 100.6a94.06 94.06 0 0 1-9.82 30.7Zm-24.6 9.09a23.13 23.13 0 0 0-14.85-11.87 23.12 23.12 0 0 0-28.01 16.72 23.05 23.05 0 0 0 3.54 18.91 22.8 22.8 0 0 0 13.15 9.05l.78.2h.01a23.21 23.21 0 0 0 27.1-16.12l.17-.7c1.34-5.3.72-10.96-1.7-15.92l-.12-.26Zm-1.46-.37.57 1.17a22.15 22.15 0 0 1 1.6 15.09l-.16.68a22 22 0 0 1-25.66 15.26l-.77-.2a21.84 21.84 0 0 1-15.81-26.5 21.9 21.9 0 0 1 26.54-15.83 21.9 21.9 0 0 1 14.19 11.48l-.58-1.18Zm-59.35 24.16-.05.17.77-.86c-.22.25-.47.48-.72.7Zm0 0 .73-.77.05-.05a6.36 6.36 0 0 0 1.56-5.6 38.55 38.55 0 0 1 43.14-44.97 38.5 38.5 0 0 1 18.78 8.05 6.52 6.52 0 0 0 10.12-2.43v-.01a77.6 77.6 0 0 0 5.51-20.56c4.63-35.76-16.62-70.59-50.42-82.9a77.79 77.79 0 0 0-66.49 6.22 77.94 77.94 0 0 0-37.23 55.44c-5.38 35.71 15.09 71.02 48.78 84.07a85.4 85.4 0 0 0 9.09 2.9 71.7 71.7 0 0 0 11.73 2 6.46 6.46 0 0 0 4.65-1.39Zm.6-2.36-.58.64a.68.68 0 0 0-.14.09l-.02.02.02-.02a.61.61 0 0 0-.15.23 5.22 5.22 0 0 1-4.28 1.59 72.04 72.04 0 0 1-11.54-1.97 84.46 84.46 0 0 1-8.95-2.87c-33.16-12.84-53.3-47.6-48.01-82.75a76.75 76.75 0 0 1 36.65-54.58 76.6 76.6 0 0 1 65.45-6.13c33.28 12.13 54.2 46.41 49.64 81.62a76.4 76.4 0 0 1-5.42 20.23 5.32 5.32 0 0 1-8.26 1.97 39.7 39.7 0 0 0-63.86 38.08 5.15 5.15 0 0 1-1.27 4.58l.72-.75Zm0 0"/></g></g></g><g clip-path="url(#X)"><g clip-path="url(#Y)"><g clip-path="url(#Z)"><path fill="#ccd7ff" fill-rule="evenodd" d="M277.65 561.96c.14-.15.23-.28.23-.28l-.47.83a95.35 95.35 0 0 0 31.4-10.56c39.35-21.43 58.22-68 44.9-110.72a94.5 94.5 0 0 0-53.77-59.25 94.59 94.59 0 0 0-79.88 3.16 94.42 94.42 0 0 0-47.62 109.64 92.08 92.08 0 0 0 14.53 29.77 60.93 60.93 0 0 1 9.53 21.41 39.68 39.68 0 0 0 44.84 29.8 38.08 38.08 0 0 0 14.12-5.12c7.23-4.35 14.58-7.12 21.92-8.2Zm.05-.72-.03-.06-.47.07c-7.49 1.09-14.99 3.92-22.37 8.35a36.88 36.88 0 0 1-13.67 4.97 38.46 38.46 0 0 1-43.48-28.9 62.16 62.16 0 0 0-9.73-21.83 90.87 90.87 0 0 1-14.34-29.4c-12.14-42.52 7.62-88.01 47-108.23a93.4 93.4 0 0 1 78.86-3.11 93.27 93.27 0 0 1 53.08 58.47c13.15 42.19-5.48 88.16-44.32 109.31a94.11 94.11 0 0 1-30.53 10.36Zm-21.93-14.38a23.13 23.13 0 0 0 .71-19 23.12 23.12 0 0 0-30.09-12.6 23.04 23.04 0 0 0-13.1 14.1 22.81 22.81 0 0 0 .53 15.95l.3.75v.01a23.21 23.21 0 0 0 29.08 12.2l.67-.27a23.36 23.36 0 0 0 11.8-10.82l.12-.25Zm-.57-1.4-.6 1.16a22.16 22.16 0 0 1-11.19 10.26l-.65.27a22 22 0 0 1-27.52-11.57l-.3-.73a21.64 21.64 0 0 1-.5-15.11 21.83 21.83 0 0 1 12.41-13.35 21.9 21.9 0 0 1 28.51 11.93 21.9 21.9 0 0 1-.8 18.23l.6-1.17Zm-54.71-33.37-.16.06 1.15.12c-.34-.04-.67-.1-1-.18Zm0 0 1.06.14h.06a6.36 6.36 0 0 0 5.44-2.08 38.55 38.55 0 0 1 61.8 7.97 38.54 38.54 0 0 1 4.69 19.9 6.53 6.53 0 0 0 7.97 6.7v-.02a77.68 77.68 0 0 0 19.81-7.78c31.52-17.53 46.9-55.32 36.71-89.83a77.8 77.8 0 0 0-44.51-49.77 77.97 77.97 0 0 0-66.72 3c-31.92 16.91-48.15 54.35-38.62 89.2a84 84 0 0 0 3.06 9.03 73.6 73.6 0 0 0 5.37 10.63 6.46 6.46 0 0 0 3.88 2.91Zm2.25-.92-.85-.08a.62.62 0 0 0-.16-.06h-.03.03a.57.57 0 0 0-.28.01 5.23 5.23 0 0 1-3.81-2.5 72.6 72.6 0 0 1-5.28-10.45 82.16 82.16 0 0 1-3.01-8.9c-9.39-34.3 6.6-71.15 38.01-87.8a76.75 76.75 0 0 1 65.69-2.95 76.59 76.59 0 0 1 43.82 49c10.02 33.96-5.11 71.17-36.14 88.42a76.44 76.44 0 0 1-19.5 7.66 5.32 5.32 0 0 1-6.48-5.46 39.77 39.77 0 0 0-4.83-20.51 39.77 39.77 0 0 0-63.75-8.22 5.14 5.14 0 0 1-4.44 1.7l1.03.13Zm0 0"/></g></g></g><g clip-path="url(#aa)"><g clip-path="url(#ab)"><g clip-path="url(#ac)"><path fill="#ccd7ff" fill-rule="evenodd" d="m842.54 72.89.34-.1-.87.4a95.3 95.3 0 0 0 31.67 9.75c44.45 5.57 86.96-21.23 101.08-63.7a94.5 94.5 0 0 0-9.08-79.49 94.59 94.59 0 0 0-66.7-44.05c-44.35-6.66-87.5 19.07-102.66 61.23a92.23 92.23 0 0 0-5.58 32.65 60.92 60.92 0 0 1-4.76 22.95A39.67 39.67 0 0 0 805 62.91a38.44 38.44 0 0 0 14.45 4.07c8.4.7 16 2.72 22.58 6.14Zm.45-.56.01-.07-.41-.22c-6.73-3.48-14.47-5.56-23.05-6.27a36.7 36.7 0 0 1-14-3.95 38.47 38.47 0 0 1-18.44-48.84 62.02 62.02 0 0 0 4.85-23.41 90.93 90.93 0 0 1 5.5-32.23c14.98-41.62 57.57-67.02 101.35-60.45a93.4 93.4 0 0 1 65.85 43.5 93.28 93.28 0 0 1 8.96 78.46c-13.93 41.93-55.9 68.39-99.78 62.89a94.02 94.02 0 0 1-30.84-9.41Zm-9.41-24.48a23.12 23.12 0 0 0 11.67-15 23.12 23.12 0 0 0-17.08-27.8 23.03 23.03 0 0 0-18.87 3.8 22.82 22.82 0 0 0-8.88 13.26l-.19.78v.02a23.21 23.21 0 0 0 16.48 26.88l.7.16a23.36 23.36 0 0 0 15.9-1.9l.25-.13Zm.35-1.47-1.16.59a22.17 22.17 0 0 1-15.07 1.8l-.69-.16a22 22 0 0 1-15.6-25.45l.19-.77a21.84 21.84 0 0 1 26.29-16.16 21.9 21.9 0 0 1 16.18 26.33 21.9 21.9 0 0 1-11.3 14.34l1.18-.6Zm-24.94-59.03-.17-.04.87.76a6.38 6.38 0 0 1-.7-.72Zm0 0 .78.73.05.04a6.35 6.35 0 0 0 5.63 1.49 38.55 38.55 0 0 1 45.54 42.55 38.52 38.52 0 0 1-7.82 18.88 6.54 6.54 0 0 0 2.56 10.09h.02a77.56 77.56 0 0 0 20.62 5.24c35.83 4.16 70.36-17.55 82.24-51.51a77.8 77.8 0 0 0-7.1-66.4 77.96 77.96 0 0 0-55.92-36.5c-35.79-4.9-70.82 16.02-83.42 49.88a84.73 84.73 0 0 0-2.79 9.12 73.4 73.4 0 0 0-1.84 11.76 6.43 6.43 0 0 0 1.45 4.63Zm2.37.57-.65-.56a.57.57 0 0 0-.1-.15l-.01-.01.02.01a.54.54 0 0 0-.24-.14 5.22 5.22 0 0 1-1.64-4.26c.28-3.9.92-7.8 1.82-11.56.72-3 1.66-6.02 2.75-9 12.4-33.32 46.89-53.92 82.11-49.09a76.75 76.75 0 0 1 55.06 35.93 76.58 76.58 0 0 1 6.98 65.37c-11.68 33.43-45.69 54.8-80.95 50.7a76.4 76.4 0 0 1-20.3-5.15 5.32 5.32 0 0 1-2.08-8.23 39.74 39.74 0 0 0 8.05-19.47 39.77 39.77 0 0 0-46.97-43.88 5.14 5.14 0 0 1-4.6-1.22l.76.71Zm0 0"/></g></g></g><g clip-path="url(#ad)"><g clip-path="url(#ae)"><g clip-path="url(#af)"><path fill="#ccd7ff" fill-rule="evenodd" d="m656.52 4.39-.2.3.38-.88a95.33 95.33 0 0 0-30.01 14.03c-36.7 25.7-50.22 74.1-32.19 115.06a94.46 94.46 0 0 0 60.08 52.83 94.58 94.58 0 0 0 79.02-12.1c37.35-24.83 52.06-72.86 35-114.3a92.16 92.16 0 0 0-17.77-27.95 60.9 60.9 0 0 1-11.88-20.2 39.66 39.66 0 0 0-47.9-24.58 38.21 38.21 0 0 0-13.45 6.68c-6.7 5.12-13.69 8.7-20.86 10.6Zm.04.72.03.06.46-.12c7.32-1.93 14.45-5.58 21.3-10.82a36.95 36.95 0 0 1 13.02-6.47 38.47 38.47 0 0 1 46.45 23.83c2.95 8.11 7.05 15 12.12 20.61a90.85 90.85 0 0 1 17.55 27.6c16.83 40.9 2.3 88.3-34.56 112.82a93.38 93.38 0 0 1-78 11.95 93.3 93.3 0 0 1-59.31-52.15c-17.82-40.44-4.46-88.22 31.76-113.6a94.12 94.12 0 0 1 29.18-13.71Zm23.4 11.83a23.12 23.12 0 0 0 1.42 18.95 23.12 23.12 0 0 0 31.32 9.14 23.05 23.05 0 0 0 9.12-31.26l-.39-.72a23.21 23.21 0 0 0-30.26-8.87l-.63.35a23.36 23.36 0 0 0-10.5 12.08l-.11.26Zm.73 1.32.47-1.21a22.14 22.14 0 0 1 9.96-11.46l.61-.34a22 22 0 0 1 28.65 8.4l.38.7a21.6 21.6 0 0 1 2.2 14.96 21.83 21.83 0 0 1-10.84 14.66 21.9 21.9 0 0 1-29.67-8.66 21.9 21.9 0 0 1-1.25-18.2l-.47 1.23Zm58.1 27.02.16-.08-1.15.02c.33 0 .67.01 1 .06Zm0 0-1.06-.01h-.07a6.36 6.36 0 0 0-5.17 2.67 38.55 38.55 0 0 1-62.31-.98 38.54 38.54 0 0 1-6.88-19.24 6.51 6.51 0 0 0-8.67-5.75 77.62 77.62 0 0 0-18.82 9.96c-29.35 20.96-40.38 60.23-26.39 93.38a77.78 77.78 0 0 0 49.82 44.46 77.96 77.96 0 0 0 65.96-10.48c29.82-20.38 41.75-59.4 28.36-92.96a85.36 85.36 0 0 0-4.06-8.64 73.52 73.52 0 0 0-6.52-9.95 6.44 6.44 0 0 0-4.18-2.46Zm-2.13 1.17.86-.02.16.05h.03-.03c.09 0 .18 0 .28-.05 1.62.02 3.1.8 4.07 2.05a72.14 72.14 0 0 1 6.41 9.8 83.2 83.2 0 0 1 4 8.5c13.17 33.03 1.43 71.45-27.92 91.5a76.73 76.73 0 0 1-64.93 10.33 76.58 76.58 0 0 1-49.05-43.77c-13.78-32.63-2.91-71.3 25.98-91.93a76.52 76.52 0 0 1 18.5-9.8 5.33 5.33 0 0 1 7.07 4.7 39.76 39.76 0 0 0 7.1 19.84 39.77 39.77 0 0 0 64.27 1.01c1-1.36 2.52-2.2 4.22-2.18l-1.04-.02Zm0 0"/></g></g></g><g clip-path="url(#ag)"><g clip-path="url(#ah)"><g clip-path="url(#ai)"><path fill="#ccd7ff" fill-rule="evenodd" d="M980.21 240.63c-.03-.2-.09-.35-.09-.35l.4.87a95.33 95.33 0 0 0 10.16-31.53c6.15-44.38-20.09-87.24-62.37-101.92a94.49 94.49 0 0 0-79.6 8.03 94.6 94.6 0 0 0-44.93 66.13c-7.24 44.25 17.92 87.73 59.88 103.45a92.16 92.16 0 0 0 32.57 6.01 61 61 0 0 1 22.9 5.06 39.68 39.68 0 0 0 50.62-18.36 38.25 38.25 0 0 0 4.25-14.4c.8-8.39 2.94-15.94 6.44-22.49Zm-.55-.47-.07-.02-.22.42c-3.57 6.68-5.75 14.39-6.58 22.96-.4 4.8-1.83 9.55-4.12 13.95a38.46 38.46 0 0 1-49.08 17.8 62.17 62.17 0 0 0-23.35-5.16 90.94 90.94 0 0 1-32.16-5.93c-41.42-15.52-66.26-58.44-59.1-102.13a93.38 93.38 0 0 1 44.35-65.27 93.28 93.28 0 0 1 78.58-7.94c41.74 14.5 67.64 56.8 61.57 100.6a93.97 93.97 0 0 1-9.82 30.72Zm-24.6 9.09a23.13 23.13 0 0 0-14.85-11.87 23.12 23.12 0 0 0-28.01 16.72 23.05 23.05 0 0 0 3.54 18.91c3.2 4.56 7.83 7.7 13.15 9.06l.78.2h.01a23.22 23.22 0 0 0 27.1-16.13l.17-.7c1.34-5.3.72-10.96-1.7-15.92l-.12-.25Zm-1.46-.37.57 1.17a22.15 22.15 0 0 1 1.6 15.1l-.16.68a22 22 0 0 1-25.66 15.26l-.77-.2a21.64 21.64 0 0 1-12.45-8.57 21.83 21.83 0 0 1-3.36-17.93 21.9 21.9 0 0 1 26.54-15.84 21.9 21.9 0 0 1 14.19 11.49l-.58-1.18Zm-59.35 24.16-.05.17.77-.86c-.22.26-.47.49-.72.7Zm0 0 .73-.77.05-.05a6.37 6.37 0 0 0 1.56-5.6 38.55 38.55 0 0 1 43.14-44.97 38.5 38.5 0 0 1 18.78 8.05 6.52 6.52 0 0 0 10.12-2.43v-.01a77.46 77.46 0 0 0 5.51-20.55c4.63-35.77-16.62-70.6-50.43-82.91a77.79 77.79 0 0 0-66.48 6.22A77.96 77.96 0 0 0 820 185.46c-5.38 35.72 15.09 71.02 48.78 84.07 3 1.14 6.06 2.14 9.09 2.9a71.7 71.7 0 0 0 11.73 2 6.44 6.44 0 0 0 4.65-1.39Zm.6-2.35-.58.63a.57.57 0 0 0-.14.09l-.02.02.02-.02a.57.57 0 0 0-.15.23 5.2 5.2 0 0 1-4.28 1.59 71.9 71.9 0 0 1-11.54-1.97 82.9 82.9 0 0 1-8.95-2.87c-33.16-12.84-53.3-47.59-48.01-82.75a76.74 76.74 0 0 1 36.65-54.58 76.56 76.56 0 0 1 65.45-6.12c33.28 12.12 54.2 46.4 49.64 81.61a76.48 76.48 0 0 1-5.42 20.24 5.31 5.31 0 0 1-8.25 1.96 39.74 39.74 0 0 0-19.37-8.3 39.77 39.77 0 0 0-44.5 46.39 5.15 5.15 0 0 1-1.27 4.57l.72-.74Zm0 0"/></g></g></g><g clip-path="url(#aj)"><g clip-path="url(#ak)"><g clip-path="url(#al)"><path fill="#ccd7ff" fill-rule="evenodd" d="M700.25 407.27c.14-.14.23-.27.23-.27l-.48.82a95.25 95.25 0 0 0 31.4-10.56c39.35-21.42 58.23-68 44.9-110.72a94.5 94.5 0 0 0-53.77-59.25 94.6 94.6 0 0 0-79.87 3.16c-39.9 20.48-59.91 66.56-47.62 109.64a92.22 92.22 0 0 0 14.53 29.77 60.96 60.96 0 0 1 9.53 21.42 39.69 39.69 0 0 0 44.85 29.8c5.05-.8 9.87-2.52 14.1-5.13 7.24-4.34 14.58-7.12 21.93-8.2Zm.05-.72-.03-.06-.47.07c-7.5 1.1-14.99 3.92-22.37 8.35a37.07 37.07 0 0 1-13.67 4.98 38.47 38.47 0 0 1-43.48-28.9 62.18 62.18 0 0 0-9.73-21.84 90.88 90.88 0 0 1-14.35-29.39c-12.13-42.53 7.63-88.02 47.01-108.23a93.38 93.38 0 0 1 78.86-3.12 93.3 93.3 0 0 1 53.07 58.48c13.16 42.18-5.47 88.16-44.31 109.3a94.1 94.1 0 0 1-30.53 10.36Zm-21.94-14.38a23.1 23.1 0 0 0 .73-19 23.12 23.12 0 0 0-30.1-12.59 23.03 23.03 0 0 0-13.1 14.1 22.85 22.85 0 0 0 .53 15.94l.3.75.01.02a23.21 23.21 0 0 0 29.07 12.2l.67-.28a23.34 23.34 0 0 0 11.8-10.82l.12-.25Zm-.57-1.4-.6 1.16a22.17 22.17 0 0 1-11.18 10.27l-.65.26a22 22 0 0 1-27.52-11.57l-.3-.72a21.85 21.85 0 0 1 11.91-28.47 21.91 21.91 0 0 1 28.51 11.93 21.9 21.9 0 0 1-.8 18.24l.6-1.17Zm-54.7-33.37-.16.07 1.14.1a5.95 5.95 0 0 1-.98-.17Zm0 0 1.05.14h.07a6.36 6.36 0 0 0 5.44-2.07 38.55 38.55 0 0 1 61.8 7.97 38.51 38.51 0 0 1 4.69 19.88 6.53 6.53 0 0 0 7.97 6.7 77.6 77.6 0 0 0 19.81-7.79c31.52-17.53 46.9-55.32 36.7-89.83a77.78 77.78 0 0 0-44.5-49.76 77.96 77.96 0 0 0-66.72 3c-31.92 16.9-48.15 54.34-38.62 89.19.87 3.1 1.88 6.15 3.06 9.04a73.17 73.17 0 0 0 5.36 10.62 6.45 6.45 0 0 0 3.89 2.91Zm2.25-.92-.86-.08a.66.66 0 0 0-.15-.06h-.03.03a.59.59 0 0 0-.28.02 5.21 5.21 0 0 1-3.82-2.5 71.93 71.93 0 0 1-5.27-10.45 83.62 83.62 0 0 1-3.01-8.9c-9.38-34.3 6.6-71.16 38.01-87.8a76.74 76.74 0 0 1 65.68-2.96 76.6 76.6 0 0 1 43.83 49c10.02 33.97-5.11 71.17-36.14 88.43a76.53 76.53 0 0 1-19.5 7.66 5.33 5.33 0 0 1-6.48-5.47 39.71 39.71 0 0 0-68.58-28.73 5.15 5.15 0 0 1-4.44 1.7l1.03.14Zm0 0"/></g></g></g><g clip-path="url(#am)"><g clip-path="url(#an)"><g clip-path="url(#ao)"><path fill="#ccd7ff" fill-rule="evenodd" d="M906.54 325.48c-.17.1-.3.2-.3.2l.7-.65a95.22 95.22 0 0 0-33.12.87c-43.91 8.92-75.63 47.9-75.45 92.65-.04 2.79.15 5.61.39 8.29a94.58 94.58 0 0 0 110.9 84.58 94.43 94.43 0 0 0 77.72-90.82 92.1 92.1 0 0 0-5.15-32.72 60.91 60.91 0 0 1-2.82-23.27 39.67 39.67 0 0 0-34.11-41.66 38.2 38.2 0 0 0-15 .76c-8.19 2.02-16.02 2.52-23.36 1.4Zm-.25.68v.06l.47.08c7.48 1.15 15.48.65 23.84-1.42a37 37 0 0 1 14.52-.74 38.46 38.46 0 0 1 33.08 40.4 62.13 62.13 0 0 0 2.89 23.73 90.83 90.83 0 0 1 5.07 32.3c-.89 44.23-33.14 81.9-76.72 89.66a93.37 93.37 0 0 1-109.85-91.67c-.2-44.19 31.12-82.67 74.46-91.47a93.99 93.99 0 0 1 32.24-.93Zm16.73 20.19a23.14 23.14 0 0 0-6.27 17.94 23.12 23.12 0 0 0 25.07 20.88c6.71-.6 12.7-4.12 16.67-9.62a22.84 22.84 0 0 0 4.17-15.4l-.07-.81v-.01a23.2 23.2 0 0 0-24.2-20.2l-.72.06a23.37 23.37 0 0 0-14.46 6.88l-.2.2Zm.14 1.5.91-.93a22.15 22.15 0 0 1 13.7-6.53l.71-.06a22 22 0 0 1 22.91 19.14l.07.78a21.6 21.6 0 0 1-3.96 14.6 21.83 21.83 0 0 1-15.79 9.11 21.9 21.9 0 0 1-23.75-19.78 21.9 21.9 0 0 1 6.12-17.19l-.92.94Zm42.5 47.97.16-.02-1.06-.44c.31.13.6.28.9.46Zm0 0h-.02l-.96-.44a.4.4 0 0 1-.06-.03 6.35 6.35 0 0 0-5.8.39 38.55 38.55 0 0 1-56.74-25.77c-1.4-6.87-.9-13.9 1.36-20.39a6.54 6.54 0 0 0-5.65-8.74h-.02a77.57 77.57 0 0 0-21.22 1.62c-35.27 7.5-61.07 39.11-61.47 75.1a77.8 77.8 0 0 0 27.94 60.64 77.97 77.97 0 0 0 64.65 16.72c35.48-6.78 61.99-37.8 63.12-73.9V421c.07-3.22 0-6.43-.28-9.54-.35-3.92-1-7.88-2-11.73a6.46 6.46 0 0 0-2.86-3.92Zm-2.43.22.79.32c.03.04.08.08.13.1l.03.02-.03-.02c.07.05.16.08.27.08a5.2 5.2 0 0 1 2.92 3.5 72.15 72.15 0 0 1 1.96 11.54c.28 3.06.35 6.23.27 9.4-1.1 35.54-27.2 66.07-62.12 72.75a76.74 76.74 0 0 1-63.66-16.46 76.59 76.59 0 0 1-27.5-59.7c.4-35.43 25.8-66.54 60.52-73.92a76.47 76.47 0 0 1 20.89-1.6 5.32 5.32 0 0 1 4.6 7.13 39.74 39.74 0 0 0-1.42 21.02 39.77 39.77 0 0 0 58.53 26.59 5.15 5.15 0 0 1 4.74-.33l-.94-.42Zm0 0"/></g></g></g><g clip-path="url(#ap)"><g clip-path="url(#aq)"><g clip-path="url(#ar)"><path fill="#ccd7ff" fill-rule="evenodd" d="m584.52 512.45.19.3-.62-.72a95.36 95.36 0 0 0-.88 33.12c6.58 44.31 43.83 78.06 88.52 80.24a94.49 94.49 0 0 0 74.13-30.1 94.59 94.59 0 0 0 24.5-76.1c-5.5-44.5-41.88-79.15-86.57-82.42a92.06 92.06 0 0 0-32.95 3.4 60.91 60.91 0 0 1-23.38 1.58 39.68 39.68 0 0 0-43.41 31.86 38.16 38.16 0 0 0-.04 15.02c1.6 8.28 1.67 16.13.16 23.4Zm.66.29h.07l.1-.47c1.55-7.4 1.47-15.42-.15-23.88-.96-4.72-.93-9.68.03-14.55a38.46 38.46 0 0 1 42.09-30.88c8.57.99 16.56.4 23.86-1.63a90.86 90.86 0 0 1 32.53-3.36c44.1 3.24 80.02 37.44 85.46 81.37a93.38 93.38 0 0 1-97.36 104.84c-44.14-2.15-80.9-35.46-87.4-79.2a94.04 94.04 0 0 1 .77-32.24Zm21.06-15.65c4.55 4.82 11 7.46 17.58 7.21A23.12 23.12 0 0 0 646 480.38a23.05 23.05 0 0 0-23.89-22.14l-.8.03h-.02a23.2 23.2 0 0 0-21.45 23.1l.02.72c.2 5.46 2.4 10.72 6.1 14.8l.2.2Zm1.5-.05-.88-.97a22.15 22.15 0 0 1-5.79-14.02l-.02-.71a22 22 0 0 1 20.33-21.86l.78-.03a21.61 21.61 0 0 1 14.36 4.72c5 4.02 8.03 9.87 8.27 16.26a21.9 21.9 0 0 1-21.01 22.66 21.91 21.91 0 0 1-16.85-7.02l.9.97Zm50.15-39.9v-.16l-.5 1.04c.15-.3.32-.6.5-.88Zm0 0v.01l-.49.94-.03.06a6.37 6.37 0 0 0 .08 5.82 38.54 38.54 0 0 1-28.74 55.3 38.5 38.5 0 0 1-20.28-2.45 6.52 6.52 0 0 0-9.03 5.18v.02c-.83 7-.63 14.27.5 21.27 5.62 35.62 35.81 63.06 71.72 65.36a77.79 77.79 0 0 0 62.04-24.68 77.97 77.97 0 0 0 20.13-63.68c-4.9-35.78-34.47-63.9-70.47-66.93a84.1 84.1 0 0 0-9.54-.24c-3.92.15-7.91.6-11.82 1.38a6.47 6.47 0 0 0-4.07 2.64Zm.1 2.44.37-.78a.7.7 0 0 0 .1-.12l.02-.03-.02.03a.53.53 0 0 0 .08-.27 5.23 5.23 0 0 1 3.66-2.72 72.4 72.4 0 0 1 11.63-1.36c3.07-.11 6.24-.01 9.4.23 35.43 3 64.54 30.67 69.36 65.9a76.75 76.75 0 0 1-19.81 62.69 76.58 76.58 0 0 1-61.08 24.3c-35.35-2.27-65.08-29.28-70.6-64.35a76.32 76.32 0 0 1-.5-20.94 5.32 5.32 0 0 1 7.37-4.21 39.72 39.72 0 0 0 50.56-54.52 5.15 5.15 0 0 1-.07-4.75l-.48.92Zm0 0"/></g></g></g></g></g></svg>