<svg version="1.0" xmlns="http://www.w3.org/2000/svg" viewBox="0 0 5531 1197">
  <path d="m66 86-1 53c-3 160 7 313 25 396 22 104 65 200 130 291a934 934 0 0 0 276 250 960 960 0 0 0 235-197c37-45 72-96 95-140l9-18 25-54c40-96 58-194 64-346l2-42V88l-1-2H66zm607 62-5 8-1 69c1 75 0 71 9 75 4 2 7 2 29 2 25 1 29 1 34 5 3 2 3 2-33 2l-38-1c-4-1-5-5-6-18v-12h-9c-13-1-17-4-16-10 1-4 7-6 17-6h8v-71l-9 1c-9 0-15-2-16-5-2-7 5-10 17-10h8v-11c0-12 1-19 4-21 1-2 8-3 10-2 1 0 0 2-3 5zm-534-2-5 7c-2 4-2 7-2 70v67l2 4c4 8 5 8 35 9 26 0 27 0 32 2l5 3c0 2-71 1-74 0-4-2-5-7-5-19v-11h-10c-10-1-14-2-15-6-2-7 4-10 17-10h8v-70h-8c-12 1-19-3-17-9 1-4 7-6 16-6l8-1 1-13c1-19 1-20 11-20h4l-3 3zm75-1 4 1v72l-1 71-4-2c-5-3-26-5-41-5l-13-1c-4-1-5-6-4-74v-64h28c24 0 28 0 31 2zm77 65v69c-2 3-7 4-13 4-5-1-28 1-38 3l-9 3-6 3v-73c0-69 0-73 2-73l4-1c2-2 8-2 31-2h29v67zm34-64c1 2 2 5 2 16v13l8 1c8 0 14 1 16 4 2 2 2 2 0 4-2 3-9 5-18 6h-6v71h9c12 0 17 3 15 9-1 3-7 5-16 5h-8v11c0 14-1 18-6 21a1123 1123 0 0 1-73 2h-7l5-3c5-2 6-2 29-3 28 0 32 0 36-6l2-3 1-67-1-70-6-9-4-5h10c10 0 10 0 12 3zm82 1c-7 7-7 4-7 76 0 75 0 73 8 77 4 2 5 2 29 2 26 1 30 1 35 5 2 2 2 2-34 2l-38-1c-4-1-6-7-6-19v-11h-8c-10 0-16-2-17-5-2-8 4-11 17-11h8v-70h-8c-6 0-9 0-12-2-5-2-5-2-5-6 1-5 5-7 17-7h8v-12c0-18 2-22 11-22h5l-3 4zm75-2 4 2v86l-14-16c-1-2-1-3 5-7 3-3 6-6 6-8 4-7 3-15-2-21-4-6-6-6-27-6h-18v2l2 5c5 4 5 6 5 26v20l-3 3-3 7v4h23v-3l-2-7c-2-5-3-14-1-14 1 0 3 1 3 3 3 5 9 12 14 16 3 3 5 3 8 3h4v50l-5-2c-6-4-24-6-42-6-13 0-13 0-15-3l-1-75v-61h27c24 0 28 0 32 2zm78 66-1 70c-2 1-3 2-10 1l-36 3c-5 1-9 2-14 5l-6 3V146l3-1c2-2 8-2 33-2h31v68zm31-65c1 2 2 5 2 16l1 13 7 1c9 0 14 1 16 4 2 2 2 2 1 4-3 3-10 5-19 6h-6v71h9l11 1c4 1 5 5 4 8-2 3-7 5-16 5h-8v11l-1 15c-2 7-4 7-39 8h-44l5-3c5-2 6-2 29-3 31 0 34 0 37-9 2-4 2-12 2-70 0-74 0-69-7-77l-4-4h9c9 0 9 0 11 3zm159-1 4 2v15c0 15 0 15-5 33-9 31-10 35-13 38-3 4-6 4-8 0l-1-27v-24h3c2 0 3 2 5 5 1 3 3 5 4 5l5-15c0-3-3-5-7-3-5 2-21 1-27-1-5-2-6-2-7 0-2 2-4 8-4 13s1 5 4 1l5-5c6-2 6-1 6 25v23l-4 4-3 5c1 1 26 2 44 1 2 0 2-4-1-6l-2-4c0-2 4-8 5-7l1 66-5-2c-6-3-26-5-42-5h-13l-2-4c-2-3-2-9-2-69v-66h28c26 0 28 0 32 2zm77 64v69c-1 4-5 5-13 5h-16c-22 3-25 3-32 7l-6 3v-69l3 4 4 4-2 3c-4 6-2 7 11 7 11 0 12-1 7-5-3-3-4-5-7-15l-5-14-5-16-5-16-1-15v-14l4-2c4-2 7-2 34-2h29v66zm33-64c1 2 2 4 2 16l1 14 8 1c20 1 21 9 2 13l-10 2-1 35v35h9c10 0 15 2 16 5 1 6-4 9-17 9h-8v12c0 16-1 18-8 20-4 2-12 2-41 2l-35-1 4-3 30-2c25 0 28 0 32-4 5-4 5-4 5-75l-1-69-6-7-4-5h10c9 0 10 0 12 2zM149 279c1 1 0 3-4 6l-6 5V158c0-2 3-5 5-7l3-4 1 65 1 67zm263 6-4 5c-1 0-2-6-1-70v-64l4-5 4-4 1 67v67l-4 4zm272-8c1 2 0 3-4 8l-6 4c-1-2 0-131 1-133l4-6 3-3 1 64 1 66zM306 158c3 4 3 130 0 134-2 4-5 5-30 5-23 0-30 1-35 4-2 2-3 2-6-2l-3-4 4-1c5-2 26-5 40-5 9 0 12 0 15-2 7-4 7-1 7-74v-65l3 3c2 2 5 5 5 7zm267-3 3 4v65c0 71 0 70-6 72l-26 1c-23 0-30 1-35 4-2 2-2 2-5-1l-3-4c0-3 26-7 44-7 14 0 17-1 20-6l1-69v-66l2 2 5 5zm269 2 1 67c0 70 0 70-6 72l-25 1c-23 0-31 1-37 5h-2l-3-3-2-3c0-3 27-7 45-7 12 0 16-1 19-6l1-69v-66l3 3 6 6zm-373 27c3 3 4 7 4 13s-4 10-10 10c-3 0-4 0-5-3v-20c1-3 8-2 11 0zm289 22 2 8c-1 1-8 2-8 0-1-6 2-14 3-14l3 6zm-603 81c1 2 9 2 13 1h12c22 3 28 3 31 5l4 2-3 3-3 4-5-3c-6-3-25-4-41-3-11 1-18 1-18-1l9-9 1 1zm271 1h9c7-1 37 2 43 5l4 2-3 4-3 3-5-3c-6-3-22-4-40-3h-17l-2-1 4-5 5-4 5 2zm267 0h10c9-1 37 2 43 5l4 2-3 3-3 4-5-2c-7-4-22-5-42-4l-15-1c-2 0-2-1 2-5l4-4 5 2zm-464 16c3 3 3 8 0 11s-7 4-10 1c-3-2-4-6-3-10 3-5 9-6 13-2zm269 1c3 3 3 6 0 10-5 5-13 3-14-4-1-4 1-8 4-9s7 0 10 3zm266-1c4 4 4 7 0 11-3 3-4 3-6 3-4-1-7-4-7-8 0-8 7-12 13-6zm139 51-3 39v6H90l-1-2c0-4-3-47-2-48l408-1h408v6zm-10 108a1007 1007 0 0 0-5 39l-2 7H103l-1-10a3014 3014 0 0 1-6-35v-3h399c379 0 399 0 398 2zm-22 111-9 32-3 7H495c-346 0-364 0-365-2l-13-44 378-1h379l-3 8zm-36 100-17 36-5 11H178l-12-23-11-24a40735 40735 0 0 1 680 0zm-56 105-24 36-8 11H496l-252-1c-2-1-32-45-32-46a38671 38671 0 0 1 567 0zm-85 112-22 24-14 15H334l-18-19-21-23-4-5h410l-7 8zM588 993a798 798 0 0 1-90 65 747 747 0 0 1-93-64 4010 4010 0 0 1 183-1z"/>
  <path d="m198 179 2 5 2 3-2 7c-2 9-6 16-7 16s-4-6-7-15l-2-7 2-4 1-5h-21a192 192 0 0 1 20 49l4 10c2 0 3-2 10-28 5-19 8-25 12-28 4-4 3-5-6-5-7 0-8 0-8 2zm60-3-13 1c-8 0-12 1-13 2l3 4 3 3v41l-3 3c-7 7-6 8 19 8h20v-4c0-5-1-9-3-9l-3 3c-3 4-8 7-13 7-6 0-7-2-7-14 0-8 0-10 2-11 3-3 5-2 8 1 6 5 8 4 8-6 0-9-2-10-7-6-7 6-12 4-12-5l1-8c1-3 2-3 6-3 3 0 5 1 8 3l5 3c1 0 2-6 0-11-1-3-2-3-5-3l-4 1zm249 2 4 4 3 4v21l-1 23-3 4c-3 1-3 2-3 4v4h26v-4c0-2 0-3-2-4-6-1-6-3-6-26v-21l3-3 4-3 1-3v-2h-13c-11 0-13 0-13 2zm302-2-6 1c-7 0-12 3-14 9-2 3-2 5-2 9 2 8 5 12 15 19 8 5 11 9 11 13 0 5-2 8-7 8-4 0-7-3-10-11-4-9-5-9-6 0v16h11c10 0 10 0 13-3 4-3 7-10 7-14 0-6-5-14-11-18-13-10-17-15-14-19l6-1c4 0 4 0 7 4l4 4c2 0 3-1 3-6s-1-7-2-9c-2-3-3-3-5-2zm384-89a14727 14727 0 0 0 0 408h81v-91l1-90h117v90l1 91h82l1-205-1-203h-82l-1 78-1 79h-116l-1-79-1-78-40-1-40 1zm475 2-3 9-11 35-17 50a874 874 0 0 1-10 32l-10 29-36 110-7 23a1696 1696 0 0 0-18 55l-10 29-9 28c-2 5-4 5 42 5h43l1-6 4-10a3341 3341 0 0 0 25-80 1460 1460 0 0 1 120 2l3 10 4 13 2 8a167 167 0 0 1 6 19l3 10 2 8a644 644 0 0 0 6 20l2 6h43l43-1-1-6a255 255 0 0 1-7-24l-6-18-5-17-5-16-6-18-15-48-5-18a685 685 0 0 1-12-37l-6-18-4-14-6-18-6-20-4-13-5-13-5-18-5-17-11-35-7-21-4-15-1-3h-91l-1 3zm45 92 4 15a1523 1523 0 0 0 21 91 2001 2001 0 0 0 11 40l1 3h-39c-44 0-41 1-39-7a745 745 0 0 0 9-26l3-11 2-9 7-27 7-28 10-40c0-3 2-4 3-1zm236-94v406l40 1h40l1-85c0-75 1-85 2-85l5 1c6 2 14 7 20 14s19 28 27 41l19 35 10 17 9 16 5 10 22 37a1232 1232 0 0 0 95-1l-12-22a1453 1453 0 0 1-43-72 483 483 0 0 0-57-81l7-1c21-2 42-16 58-37a112 112 0 0 0 16-29l1-3 4-13c2-10 2-12 2-30l-1-28c-11-48-40-78-88-89-8-2-10-3-95-3l-87 1zm141 66c11 3 19 5 24 8 13 9 21 27 22 49 0 14-5 26-13 36-10 12-28 17-70 16h-22l-1-55 1-55c2-2 52-1 59 1zm174-66 22 66 9 25a6157 6157 0 0 0 38 113l3 9a2796 2796 0 0 0 43 127l14 41a264 264 0 0 1 7 22l3 8h37c36 1 36 1 38-2a864 864 0 0 0 27-78l11-31a816 816 0 0 0 22-63l7-22 2-5 3-9a346 346 0 0 0 12-35l11-31 4-12a2274 2274 0 0 0 41-119l1-3c0-2-2-2-43-2h-43l-1 4-5 15-11 31-11 32-11 32a1489 1489 0 0 0-28 83 262 262 0 0 1-8 24 411 411 0 0 0-17 59c-2-1-3-5-5-17l-3-10-3-9-14-49-6-18a534 534 0 0 0-8-25l-7-22-7-22a2336 2336 0 0 0-25-80l-5-15-4-12-46-1-44 1zm465 13a5350 5350 0 0 1-31 95l-9 29a1801 1801 0 0 0-29 87l-9 29a1801 1801 0 0 0-28 84 366 366 0 0 1-10 32c-4 9-13 37-12 38h43l42-1 2-5 4-11 7-26a1451 1451 0 0 0 17-53l61-1h59l3 10 9 32 4 13 5 14 6 21 2 6 43 1 43-1-1-6-3-11-6-18-5-18-6-17a1659 1659 0 0 1-9-31l-6-17-5-18-7-20a685 685 0 0 0-11-35l-8-26-6-18a194 194 0 0 0-6-20l-4-15a3260 3260 0 0 1-42-134l-1-3h-91l-5 14zm49 81a636 636 0 0 0 10 39l17 71 4 15 3 11 2 10 1 3h-40c-38 0-39 0-39-2l1-4 16-55 3-11a922 922 0 0 0 15-61l6-18 1 2zm236-94-1 204v203h41l40-1a52540 52540 0 0 1 1-169c1-1 12 3 17 6 7 4 16 16 30 38l4 8 4 7 4 6 6 11a9565 9565 0 0 0 13 24l5 9a739 739 0 0 0 36 61c1 1 8 2 49 1l47-1-5-9-4-8a222 222 0 0 0-14-24 466 466 0 0 0-19-31 1587 1587 0 0 0-64-97l-6-6 7-1c31-4 62-32 74-69 4-12 5-13 6-23 4-26 0-55-10-78-6-12-12-20-22-30a94 94 0 0 0-42-25c-19-7-15-6-110-7l-88 1zm141 66c22 5 32 11 39 26 4 8 6 16 6 28 0 14-2 23-9 33-6 10-12 14-22 17-12 4-23 5-50 5l-24-1V153c0-2 3-2 27-2l33 2zm227-66-1 205v203h65c87 0 99 0 124-9 37-12 70-43 89-86l4-7 10-31 2-8c4-14 6-39 6-61 0-47-8-87-23-118-22-44-57-74-99-84-16-4-24-4-101-5l-76 1zm129 64 17 2c35 9 53 41 59 101 2 18 2 67 0 81-3 26-7 41-14 55-8 16-16 24-30 31-13 7-19 7-50 7h-26l-1-138 1-139h44zm-443 448v165l-6-5a85 85 0 0 0-43-20c-18-4-46-1-64 8l-7 3c-6 3-13 7-21 14-30 25-49 63-55 111-3 16-2 55 0 70a195 195 0 0 0 17 55l14 22c23 30 57 46 97 46 27 0 53-9 70-25l6-4 3 6c0 5 3 14 4 15l63 1-1-6c-3-8-5-21-7-40l-2-212V609l-3-1-10-2a2089 2089 0 0 1-55-7zm-44 195 20 6c8 4 18 12 21 16l3 4v159l-4 6c-8 10-22 19-36 23-9 2-27 2-36-1-25-6-37-22-44-58-2-13-3-64-1-81 6-44 21-68 48-74h29zm1267-193-16 4a1330 1330 0 0 0-42 9 500 500 0 0 1 4 41l1 209 1 197h67l1-114V833l6-5c9-8 21-17 33-23 18-9 33-12 47-10 17 3 24 9 30 26l2 122 1 117h66V935c-1-139 0-135-7-152-5-14-13-23-25-31a90 90 0 0 0-25-11c-19-7-52-5-73 3a160 160 0 0 0-54 32l-1-65a566 566 0 0 0-8-112l-8 2zm1023 2a2421 2421 0 0 1-54 12l1 12c5 28 5 27 5 200 0 178 0 181 6 198 7 22 21 36 43 42 9 2 34 2 43 0 10-3 15-5 17-7l-1-6-8-32-1-2h-7c-12 0-16-4-20-16l-2-186c0-117-1-185-2-192-1-14-3-24-4-26-1-1-5 0-16 3zm-1593 17c-33 4-60 14-80 30a121 121 0 0 0-46 99c0 15 0 19 2 27 9 35 28 57 64 74 16 7 25 10 64 21l29 9c23 8 37 18 45 30 8 11 8 14 8 31 0 16 0 21-6 32-8 16-23 28-43 33a166 166 0 0 1-91-3 295 295 0 0 1-61-27s-6 9-14 26l-13 28a104 104 0 0 0 27 15l13 6 7 2a256 256 0 0 0 73 16c37 3 77-2 105-14 19-9 33-18 48-33 25-25 38-56 38-92 0-58-34-101-97-122a1221 1221 0 0 0-43-13c-44-12-61-21-70-33-5-8-6-13-6-27 0-12 0-15 5-25 6-13 19-23 35-29 20-6 51-5 77 3 12 4 39 17 52 24 4 3 4 3 14-14l15-22c4-6 7-11 6-12a241 241 0 0 0-157-40zm-2510 7v433l71 1 1-115c0-124 0-118 6-108a1270 1270 0 0 0 54 86l22 35 21 34 20 31 16 26 7 10h93l-2-4-17-25-30-43-10-15-12-16-20-29-20-29-9-14-38-56a6437 6437 0 0 1 148-201c0-2-5-2-43-2l-44 1c-2 1-9 12-26 36l-15 22-17 24-14 20-12 17a2980 2980 0 0 1-56 80c-2 0-2-13-2-100v-99l-36-1-36 1zm704 111-42 12c-6 2-6 3-3 13l7 28c1 5 2 37 2 138l1 132h66V831l3-3c9-9 21-18 34-24 16-8 29-11 41-9s19 7 23 16c5 12 5 10 6 134l1 116 66-1 1-129-1-128-2-8c-8-31-25-49-54-57-14-3-38-3-54 1a172 172 0 0 0-68 39l-2-11c-3-17-8-32-12-32l-13 3zm354-2-17 4-19 6-17 4c-6 2-6 3-4 10l8 28 2 140 1 132 65 1 1-115V831l2-2c4-5 14-13 22-17 20-14 39-19 54-17 9 1 13 4 18 8 6 7 9 15 10 34l1 118c0 101 0 105 2 106s65 2 66 1 0-248-1-255c-3-24-13-43-28-54-10-8-19-12-33-15-7-2-32-2-40 0a158 158 0 0 0-34 11 241 241 0 0 0-43 29c-1 0-2-3-2-8 0-8-3-20-8-30-2-5-3-5-6-4zm1806 0c-37 3-71 23-93 54-17 22-26 46-32 82-2 12-2 61 0 74 12 75 53 117 117 123 30 3 56-1 79-13 15-7 37-24 37-28 0-2-30-41-32-41l-6 5c-11 10-26 19-40 23l-17 2c-10 0-14-1-19-3-18-6-33-23-39-44-5-17-5-26-5-61 0-40 1-55 8-76 12-35 48-51 82-35a107 107 0 0 1 26 17l16-20c21-27 19-24 15-28-3-4-15-12-20-16-25-14-45-18-77-15zm-1411 1c-28 3-58 19-76 39-23 27-34 51-39 89-4 25-3 64 3 87a141 141 0 0 0 97 111c23 5 23 5 43 5a162 162 0 0 0 111-38l4-4-5-9a5335 5335 0 0 1-22-31l-10 7c-21 15-43 23-68 23-44 0-70-21-77-64-3-11-3-28-2-30l95-1h94v-15c0-31-4-65-9-82a118 118 0 0 0-92-85c-7-2-39-3-47-2zm34 53c21 6 34 24 40 52 3 12 3 27 1 28a885 885 0 0 1-115-1c-3-4 2-32 7-45 5-12 15-25 26-30 12-6 29-8 41-4zm558-53-11 2-8 2-8 1a2503 2503 0 0 0-36 6c-2 0-3-1 33 104a4786 4786 0 0 1 64 197c3 13 3 13 13 12 10 0 12 0 10 6-3 12-13 33-21 44a98 98 0 0 1-52 38l-10 4 10 22 11 22 5-1a125 125 0 0 0 98-73c8-16 18-44 37-98l9-28 10-27c1-4 4-15 8-23l9-28 10-27 9-28 10-27 9-28 10-27 12-38h-73l-3 10-4 13-4 13-4 13a1021 1021 0 0 0-22 71l-4 12a583 583 0 0 0-19 62l-4 15-2 9-2 9a1741 1741 0 0 0-7 26c-2 1-4-4-8-22l-15-58-10-32-10-32-2-8-2-8-3-10-8-24a5810 5810 0 0 1-9-31l-2-8-9-26-6-1zm1444 0c-49 3-88 30-109 74a207 207 0 0 0-17 57c-2 10-2 45-1 59 1 15 2 21 8 44 4 17 18 42 31 56 23 26 50 39 87 42a156 156 0 0 0 70-10c42-18 70-58 79-112a312 312 0 0 0-6-111l-5-13c-21-54-63-84-120-86h-17zm25 53c23 5 38 22 45 51 8 32 9 88 1 119l-5 20c-10 25-28 38-53 38-18 0-29-4-40-15s-18-28-23-57c-2-17-2-76 0-92 6-32 16-51 33-60 11-6 28-8 42-4zm310-53a128 128 0 0 0-109 79c-7 15-11 32-15 53-2 16-2 55 1 72 8 49 27 83 59 106l25 13 7 3a151 151 0 0 0 123-15 145 145 0 0 0 56-81c7-27 8-44 8-69-2-62-22-108-59-136-15-11-36-20-55-23-11-2-30-3-41-2zm28 53c27 6 42 29 49 74 2 15 2 63 0 78-4 29-11 47-23 60-11 12-24 17-44 16-18-1-30-7-39-20-4-5-11-18-12-23-7-26-8-38-8-75 0-33 1-42 5-60 6-29 20-45 41-50 8-2 23-2 31 0zm-3413-51c-32 6-57 20-77 44-21 26-31 52-35 92a364 364 0 0 0 6 85 86 86 0 0 0 6 20l13 26c23 38 59 59 107 63a176 176 0 0 0 127-42l-20-31c-5-9-6-10-8-9l-2 2-20 13a115 115 0 0 1-86 10c-22-9-34-22-42-45-4-10-6-27-6-37l1-8h93l95-1c1-2 0-35-1-53-2-28-8-51-17-68a120 120 0 0 0-88-62h-46zm37 51c15 4 26 13 34 28 7 14 13 49 9 52h-115l-1-12c3-36 19-62 45-68 7-2 21-2 28 0z"/>
</svg>