<svg xmlns="http://www.w3.org/2000/svg" version="1.1" xmlns:xlink="http://www.w3.org/1999/xlink" xmlns:svgjs="http://svgjs.dev/svgjs" width="1000" height="1000"><g clip-path="url(#SvgjsClipPath1082)"><rect width="1000" height="1000" fill="#0037ff"></rect><g transform="matrix(5.6,0,0,5.6,150,150)"><svg xmlns="http://www.w3.org/2000/svg" version="1.1" xmlns:xlink="http://www.w3.org/1999/xlink" xmlns:svgjs="http://svgjs.dev/svgjs" width="125" height="125"><svg xmlns="http://www.w3.org/2000/svg" xmlns:xlink="http://www.w3.org/1999/xlink" xmlns:serif="http://www.serif.com/" width="125" height="125" viewBox="0 0 125 125" version="1.1" xml:space="preserve" style="fill-rule:evenodd;clip-rule:evenodd;stroke-linejoin:round;stroke-miterlimit:2;">
    <g transform="matrix(1,0,0,1,-123.818,-124.109)">
        <g transform="matrix(1,0,0,1,231.312,210.264)">
            <path d="M0,-48.62C-2.814,-45.334 -6.963,-43.43 -11.256,-43.43C-19.411,-43.43 -26.088,-50.096 -26.088,-58.287C-26.088,-62.62 -24.18,-66.668 -20.89,-69.525C-18.171,-71.859 -14.785,-73.097 -11.256,-73.097L-10.731,-73.097C-2.957,-72.811 3.339,-66.525 3.625,-58.763L3.625,-58.287C3.625,-54.763 2.337,-51.334 0.048,-48.62L0,-48.62ZM-34.912,-72.525C-34.292,-71.43 -34.292,-70.144 -34.816,-69.001C-36.724,-64.763 -37.487,-60.096 -36.962,-55.43C-35.675,-43.477 -26.041,-33.906 -14.165,-32.62C-9.491,-32.096 -4.817,-32.858 -0.62,-34.763C0.525,-35.287 1.812,-35.239 2.909,-34.667C4.006,-34.096 4.674,-33.048 4.912,-31.858C5.628,-27.286 5.676,-22.524 5.103,-17.905C2.289,5.571 -16.836,24.286 -40.301,26.667C-55.658,28.191 -70.682,22.857 -81.556,12C-92.43,1.143 -97.772,-13.905 -96.293,-29.239C-93.956,-52.811 -75.26,-71.954 -51.748,-74.811C-49.649,-75.049 -47.551,-75.192 -45.5,-75.192C-42.924,-75.192 -40.301,-75.001 -37.725,-74.573C-36.533,-74.382 -35.484,-73.668 -34.912,-72.573L-34.912,-72.525ZM14.737,-38.811C13.545,-43.62 13.402,-48.858 14.26,-54.43C14.785,-57.62 14.642,-60.953 13.879,-64.192C11.685,-73.716 4.149,-81.287 -5.389,-83.478C-8.632,-84.24 -11.923,-84.335 -15.119,-83.859C-20.699,-83.001 -25.945,-83.192 -30.762,-84.335C-37.821,-86.144 -45.118,-86.573 -52.463,-85.763C-81.699,-82.525 -104.735,-58.906 -107.263,-29.572C-108.837,-11.191 -102.303,6.762 -89.33,19.762C-77.597,31.476 -61.859,37.953 -45.404,37.953C-43.639,37.953 -41.78,37.905 -39.967,37.715C-10.683,35.191 12.925,12.143 16.168,-17.096C16.979,-24.429 16.502,-31.763 14.785,-38.811L14.737,-38.811Z" style="fill:rgb(255,255,255);fill-rule:nonzero;"></path>
        </g>
    </g>
</svg></svg></g></g><defs><clipPath id="SvgjsClipPath1082"><rect width="1000" height="1000" x="0" y="0" rx="350" ry="350"></rect></clipPath></defs></svg>