<svg xmlns="http://www.w3.org/2000/svg" width="254" height="285.1" preserveAspectRatio="xMidYMid" version="1.0" viewBox="0 0 190.5 213.8"><defs><clipPath id="b"><path d="M0 .7h1024V522H0Zm0 0"/></clipPath><clipPath id="e"><path d="M729 187h198v217H729Zm0 0"/></clipPath><clipPath id="f"><path d="m688.3 309.2 136.3-144.5L969.1 301 832.8 445.5Zm0 0"/></clipPath><clipPath id="g"><path d="m688.3 309.2 136.3-144.5L969.1 301 832.8 445.5Zm0 0"/></clipPath><clipPath id="h"><path d="M566 78h217v198H566Zm0 0"/></clipPath><clipPath id="i"><path d="M652.5 37.8 804.9 165 677.6 317.6 525 190.2Zm0 0"/></clipPath><clipPath id="j"><path d="M652.5 37.8 804.9 165 677.6 317.6 525 190.2Zm0 0"/></clipPath><clipPath id="k"><path d="M834 30h190v199H834Zm0 0"/></clipPath><clipPath id="l"><path d="M965.7 269 812.4 142.5 939-10.7 1092 115.7Zm0 0"/></clipPath><clipPath id="m"><path d="M965.7 269 812.4 142.5 939-10.7 1092 115.7Zm0 0"/></clipPath><clipPath id="n"><path d="M467 276h217v199H467Zm0 0"/></clipPath><clipPath id="o"><path d="M598.3 515 445.1 388.4l126.4-153.2 153.3 126.4Zm0 0"/></clipPath><clipPath id="p"><path d="M598.3 515 445.1 388.4l126.4-153.2 153.3 126.4Zm0 0"/></clipPath><clipPath id="q"><path d="M332 76h199v218H332Zm0 0"/></clipPath><clipPath id="r"><path d="M291.9 194.6 432.3 54.1l140.5 140.5-140.5 140.5Zm0 0"/></clipPath><clipPath id="s"><path d="M291.9 194.6 432.3 54.1l140.5 140.5-140.5 140.5Zm0 0"/></clipPath><clipPath id="t"><path d="M213 .7h199V123H213Zm0 0"/></clipPath><clipPath id="u"><path d="m451.8-.6-135 145.7L171 10.1l135-145.7Zm0 0"/></clipPath><clipPath id="v"><path d="m451.8-.6-135 145.7L171 10.1l135-145.7Zm0 0"/></clipPath><clipPath id="w"><path d="M90 97h218v199H90Zm0 0"/></clipPath><clipPath id="x"><path d="m186.3 57 143.9 136.9-137 143.9-143.9-137Zm0 0"/></clipPath><clipPath id="y"><path d="m186.3 57 143.9 136.9-137 143.9-143.9-137Zm0 0"/></clipPath><clipPath id="z"><path d="M4 285h198v206H4Zm0 0"/></clipPath><clipPath id="A"><path d="M-15.5 465.6 29 272l193.6 44.6L178 510.2zm0 0"/></clipPath><clipPath id="B"><path d="M-15.5 465.6 29 272l193.6 44.6L178 510.2zm0 0"/></clipPath><clipPath id="C"><path d="M231 287h215v199H231Zm0 0"/></clipPath><clipPath id="D"><path d="m291.2 252.2 174 95.9-96 174-173.9-96zm0 0"/></clipPath><clipPath id="E"><path d="m291.2 252.2 174 95.9-96 174-173.9-96zm0 0"/></clipPath><clipPath id="F"><path d="M0 70h73v199H0Zm0 0"/></clipPath><clipPath id="G"><path d="m-93.5 40.8 184 74.6L16 299.5l-184.1-74.6Zm0 0"/></clipPath><clipPath id="H"><path d="m-93.5 40.8 184 74.6L16 299.5l-184.1-74.6Zm0 0"/></clipPath><clipPath id="I"><path d="M10 .7h212V77H10Zm0 0"/></clipPath><clipPath id="J"><path d="m55.2-150.7 184 74.6-74.5 184-184.1-74.5Zm0 0"/></clipPath><clipPath id="K"><path d="m55.2-150.7 184 74.6-74.5 184-184.1-74.5Zm0 0"/></clipPath><clipPath id="L"><path d="M670 .7h217V89H670Zm0 0"/></clipPath><clipPath id="M"><path d="M773 129 648.5-25.8l154.8-124.5L927.8 4.6Zm0 0"/></clipPath><clipPath id="N"><path d="M773 129 648.5-25.8l154.8-124.5L927.8 4.6Zm0 0"/></clipPath><clipPath id="O"><path d="M445 .7h210V95H445Zm0 0"/></clipPath><clipPath id="P"><path d="m607.2-129.2 62.6 188.5L481.3 122 418.6-66.5Zm0 0"/></clipPath><clipPath id="Q"><path d="m607.2-129.2 62.6 188.5L481.3 122 418.6-66.5Zm0 0"/></clipPath><clipPath id="R"><path d="M946 241h78v199h-78zm0 0"/></clipPath><clipPath id="S"><path d="m1018.5 203.6 164.6 111.2L1072 479.4 907.3 368.2zm0 0"/></clipPath><clipPath id="T"><path d="m1018.5 203.6 164.6 111.2L1072 479.4 907.3 368.2zm0 0"/></clipPath><clipPath id="d"><path d="M0 0h1024v522H0z"/></clipPath><clipPath id="U"><path d="M741 489h25.4v42H741Zm0 0"/></clipPath><clipPath id="V"><path d="M681.7 489H707v42h-25.3zm0 0"/></clipPath><clipPath id="W"><path d="M708 478.9h29V541h-29zm0 0"/></clipPath><clipPath id="X"><path d="M777.8 539.3h94.5V606h-94.5zm0 0"/></clipPath><clipPath id="Y"><path d="M681.7 603h93.7v89.9h-93.7zm0 0"/></clipPath><filter id="a" width="1" height="1" x="0" y="0"><feColorMatrix color-interpolation-filters="sRGB" values="0 0 0 0 1 0 0 0 0 1 0 0 0 0 1 0 0 0 1 0"/></filter><mask id="c"><g filter="url(#a)"><path fill-opacity=".1" d="M-102.5-444.8h1229.4v5337.9H-102.5z"/></g></mask></defs><g clip-path="url(#b)" transform="translate(-681.7 -478.9)"><g clip-path="url(#d)" mask="url(#c)"><g clip-path="url(#e)"><g clip-path="url(#f)"><g clip-path="url(#g)"><path fill="#fffcf7" fill-rule="evenodd" d="M876.9 219.9v.4-1a98.7 98.7 0 1 1-122.7 151.5 98.7 98.7 0 0 1 20-148.5c6.6-4.3 12.4-10 17.4-17.3a41.7 41.7 0 0 1 66.9-2c5.4 7 11.5 12.5 18.3 16.3zm-.3.7-.5-.2a63.4 63.4 0 0 1-18.6-16.5 40.2 40.2 0 0 0-64.8 1.9 65 65 0 0 1-17.7 17.6 97.5 97.5 0 1 0 129.7 142.2 97.5 97.5 0 0 0-28-145Zm-26.8 5.8c.7 7-1.7 13.8-6.4 18.8a24.2 24.2 0 0 1-41.6-17.7c.2-5.8 2.6-11.2 6.5-15.4l.6-.6c9-8.9 23.4-9.3 33-1l.5.6c4.2 3.9 6.8 9.2 7.4 15v.3zm-1 1.2-.2-1.4a23.2 23.2 0 0 0-7-14.2l-.6-.5a23 23 0 0 0-31.2 1l-.6.5a22.8 22.8 0 1 0 39.3 13.2l.2 1.4zm-66 12-.1-.2 1.1.3-1-.2zm0 0 1 .2h.2c2 .6 3.7 2.1 4.5 4.1a40.4 40.4 0 0 0 63.3 15.5 40.3 40.3 0 0 0 12-17.7 6.8 6.8 0 0 1 10.3-3.5 81.7 81.7 0 0 1 18.4 116.5A81.4 81.4 0 0 1 762.4 257a88.9 88.9 0 0 1 15.6-16c1.4-1 3.1-1.6 4.9-1.4zm1.8 1.7-.8-.2h-.2l-.3-.2c-1.6-.4-3.3 0-4.6 1a75.4 75.4 0 0 0-15.4 15.8 80.3 80.3 0 0 0 128.3 96.2 80.5 80.5 0 0 0-18.2-114.7 5.6 5.6 0 0 0-8.4 3 41.6 41.6 0 0 1-77.7 2.2c-.7-1.7-2-3-3.7-3.3l1 .2zm0 0"/></g></g></g><g clip-path="url(#h)"><g clip-path="url(#i)"><g clip-path="url(#j)"><path fill="#fffcf7" fill-rule="evenodd" d="m753 220.6-.4.1 1-.2A98.7 98.7 0 1 1 595 107.2a98.7 98.7 0 0 1 149.4 11.2 63.8 63.8 0 0 0 18.3 16.2 41.6 41.6 0 0 1 6 66.6 62.1 62.1 0 0 0-15.1 19.3zm-.7-.2h-.1l.2-.5a63.3 63.3 0 0 1 15.4-19.6 40.2 40.2 0 0 0-5.8-64.5 65 65 0 0 1-18.6-16.7 97.5 97.5 0 1 0-134.1 138 97.5 97.5 0 0 0 143-36.7zm-7.4-26.4a24.2 24.2 0 1 1-4-47.9c5.8 0 11.3 2 15.7 5.6l.7.5a24.3 24.3 0 0 1 3 32.9l-.6.6a24.4 24.4 0 0 1-14.5 8.3h-.3zm-1.2-1 1.3-.2c5.4-1 10.3-3.8 13.8-8l.4-.5a23 23 0 0 0-2.8-31.1l-.6-.5a22.8 22.8 0 1 0-10.9 40l-1.3.2zm-16-65.1.1-.2-.2 1.2.1-1zm0 0-.2 1v.2c-.4 2.1-1.9 3.8-3.8 4.7a40.4 40.4 0 0 0-11.6 64.1c5 5.3 11.4 9.1 18.3 11a6.8 6.8 0 0 1 4.2 10 81.3 81.3 0 1 1-8.6-95.8c1.2 1.3 1.8 3 1.7 4.8zm-1.6 2 .2-1v-.4c.4-1.7-.1-3.3-1.2-4.6a75.4 75.4 0 0 0-16.7-14.4 80.3 80.3 0 0 0-88.3 133.8 80.5 80.5 0 0 0 113.4-25 5.6 5.6 0 0 0-3.4-8.2 41.6 41.6 0 0 1-7-77.4 5.4 5.4 0 0 0 3.2-4l-.2 1.2zm0 0"/></g></g></g><g clip-path="url(#k)"><g clip-path="url(#l)"><g clip-path="url(#m)"><path fill="#fffcf7" fill-rule="evenodd" d="m864 86.7.4-.1-1 .2a98.7 98.7 0 1 1 159.3 112.4 98.7 98.7 0 0 1-149.5-10.3 63.7 63.7 0 0 0-18.4-16.1 41.7 41.7 0 0 1-15.8-54 40 40 0 0 1 9.5-12.6 62 62 0 0 0 15-19.3zm.8.2-.2.5a63.4 63.4 0 0 1-15.3 19.8 40.2 40.2 0 0 0 6.1 64.5 65 65 0 0 1 18.8 16.5 97.5 97.5 0 1 0 133.3-138.8 97.5 97.5 0 0 0-142.7 37.5zm7.5 26.4a24.2 24.2 0 1 1 4.3 47.9c-5.8 0-11.3-1.9-15.8-5.5l-.6-.6a24.3 24.3 0 0 1-3.2-32.8l.5-.6c3.6-4.4 8.8-7.4 14.5-8.4h.3zm1.2 1-1.3.2c-5.4 1-10.3 3.8-13.7 8l-.5.6a23 23 0 0 0 3 31l.6.6a22.8 22.8 0 1 0 10.6-40.1l1.4-.2zm16.4 65-.1.1.2-1.1-.1 1zm0 0 .2-1.1a5.7 5.7 0 0 0 0-.2c.4-2 1.8-3.7 3.7-4.7a40.4 40.4 0 0 0 11.3-64.2c-5.1-5.2-11.5-9-18.4-10.8a6.8 6.8 0 0 1-4.2-10 81.7 81.7 0 0 1 115-26.1 81.4 81.4 0 0 1-88.9 136.4 88.4 88.4 0 0 1-17-14.5 6.8 6.8 0 0 1-1.7-4.8zm1.6-2-.2 1v.4c-.4 1.6.1 3.3 1.2 4.5a75.4 75.4 0 0 0 16.8 14.3 80.3 80.3 0 0 0 87.5-134.4A80.5 80.5 0 0 0 883.6 89 5.6 5.6 0 0 0 887 97a41.5 41.5 0 0 1 7.4 77.4 5.4 5.4 0 0 0-3 3.9l.1-1zm0 0"/></g></g></g><g clip-path="url(#n)"><g clip-path="url(#o)"><g clip-path="url(#p)"><path fill="#fffcf7" fill-rule="evenodd" d="m496.7 332.7.4-.1-1 .2a98.7 98.7 0 1 1 159.3 112.4A98.7 98.7 0 0 1 506 434.9a63.7 63.7 0 0 0-18.4-16.2 41.7 41.7 0 0 1-15.9-54 40 40 0 0 1 9.6-12.5 62 62 0 0 0 15-19.3zm.7.2h.1l-.2.5a63.4 63.4 0 0 1-15.3 19.8 40.2 40.2 0 0 0 6.1 64.5 65 65 0 0 1 18.8 16.5 97.5 97.5 0 1 0 133.3-138.8 97.5 97.5 0 0 0-142.8 37.5zm7.6 26.4a24.2 24.2 0 1 1 4.3 47.9c-5.9 0-11.4-1.9-15.8-5.5l-.6-.6a24.3 24.3 0 0 1-3.2-32.8l.5-.6c3.6-4.4 8.8-7.4 14.4-8.4h.3zm1.2 1-1.3.2c-5.4 1-10.3 3.8-13.8 8l-.4.6a23 23 0 0 0 3 31l.6.6a22.8 22.8 0 1 0 10.6-40.1l1.4-.3zm16.3 65v.1l.2-1.1-.2 1zm0 0 .2-1.1a5.7 5.7 0 0 0 0-.2 6.6 6.6 0 0 1 3.8-4.7 40.5 40.5 0 0 0 11.3-64.2c-5.1-5.2-11.5-9-18.4-10.8a6.8 6.8 0 0 1-4.2-10 81.7 81.7 0 0 1 115-26.1 81.4 81.4 0 0 1-89 136.4 87.1 87.1 0 0 1-17-14.5 6.7 6.7 0 0 1-1.7-4.8zm1.7-2-.2 1v.1l-.1.3c-.3 1.6.2 3.3 1.3 4.5a75.4 75.4 0 0 0 16.8 14.3 80.3 80.3 0 0 0 87.5-134.4A80.5 80.5 0 0 0 516.2 335a5.6 5.6 0 0 0 3.5 8.2 41.5 41.5 0 0 1 7.4 77.4 5.4 5.4 0 0 0-3.1 3.9l.2-1zm0 0"/></g></g></g><g clip-path="url(#q)"><g clip-path="url(#r)"><g clip-path="url(#s)"><path fill="#fffcf7" fill-rule="evenodd" d="M483 110.8v.4-1a98.7 98.7 0 1 1-127 147.9 98.7 98.7 0 0 1 24.4-147.9c6.6-4 12.6-9.6 17.8-16.8a41.6 41.6 0 0 1 66.9 0 62.1 62.1 0 0 0 17.8 16.9zm-.3.7v.1l-.5-.3c-6.7-4-12.8-9.8-18.2-17a40.2 40.2 0 0 0-64.8 0 65 65 0 0 1-18.2 17 97.5 97.5 0 1 0 125.5 146 97.5 97.5 0 0 0-23.8-145.8zm-27 5a24.2 24.2 0 1 1-48-.3c.4-5.8 2.9-11 7-15.1l.6-.6a24.3 24.3 0 0 1 33 0l.5.5c4 4 6.5 9.5 7 15.2v.3zm-1 1.2-.2-1.4A23.2 23.2 0 0 0 448 102l-.5-.5a23 23 0 0 0-31.3 0l-.5.6a22.8 22.8 0 1 0 39 14.4v1.3zm-66.3 10-.2-.1 1.2.3-1-.2zm0 0 1 .3h.1c2.1.7 3.7 2.2 4.4 4.2a40.4 40.4 0 0 0 62.8 17.4c5.8-4.6 10-10.6 12.6-17.3a6.8 6.8 0 0 1 10.4-3.2 81.7 81.7 0 0 1 15 117 81.4 81.4 0 0 1-127.3-101.6 87.7 87.7 0 0 1 16-15.5c1.5-1 3.2-1.5 5-1.3zm1.8 1.8-.9-.2h-.2l-.2-.2a5.5 5.5 0 0 0-4.7.9 75.4 75.4 0 0 0-15.9 15.3 80.3 80.3 0 0 0 125.4 100A80.5 80.5 0 0 0 479 130a5.6 5.6 0 0 0-8.5 2.6 41.5 41.5 0 0 1-77.8 0c-.6-1.7-1.9-3-3.6-3.5l1 .3zm0 0"/></g></g></g><g clip-path="url(#t)"><g clip-path="url(#u)"><g clip-path="url(#v)"><path fill="#fffcf7" fill-rule="evenodd" d="M264 90.4V90l.1 1A98.7 98.7 0 1 1 385.5-61.6a98.7 98.7 0 0 1-18.9 148.7 63.8 63.8 0 0 0-17.2 17.5 41.6 41.6 0 0 1-66.8 2.4 62 62 0 0 0-18.4-16zm.3-.8.5.2c6.9 3.9 13.2 9.4 18.8 16.4a40.2 40.2 0 0 0 64.8-2.4c5-7.4 11-13.4 17.5-17.8A97.5 97.5 0 1 0 235-55h.1a97.5 97.5 0 0 0 29.3 144.6zm26.7-6a24.2 24.2 0 1 1 48-1.5 23.9 23.9 0 0 1-6.3 15.4l-.6.7c-9 9-23.4 9.5-33 1.2l-.5-.5a24.4 24.4 0 0 1-7.6-15v-.2zm1.1-1.1.2 1.3a23.2 23.2 0 0 0 7.7 14.7 23 23 0 0 0 31.2-1.2l.6-.6a22.8 22.8 0 1 0-39.4-13l-.2-1.3zM358 69.9v.1l-1-.3 1 .2zm0 0-1.1-.2h-.1c-2.2-.6-3.7-2.1-4.6-4a40.5 40.5 0 0 0-63.4-15c-5.5 4.8-9.6 11-11.9 17.7a6.8 6.8 0 0 1-10.3 3.6 81.7 81.7 0 0 1-19.4-116.4 81.4 81.4 0 0 1 131.1 96.7 88.4 88.4 0 0 1-15.5 16.2 6.8 6.8 0 0 1-4.8 1.4zm-2-1.7 1 .2h.1l.3.1c1.6.4 3.3 0 4.7-1a76 76 0 0 0 15.2-15.9 80.3 80.3 0 0 0-129-95.1 80.5 80.5 0 0 0 19 114.5 5.6 5.6 0 0 0 8.4-3 41.6 41.6 0 0 1 77.7-2.9c.7 1.7 2 3 3.7 3.3l-1-.2zm0 0"/></g></g></g><g clip-path="url(#w)"><g clip-path="url(#x)"><g clip-path="url(#y)"><path fill="#fffcf7" fill-rule="evenodd" d="M274.8 245.9h-.4 1a98.7 98.7 0 1 1-151-123.4 98.7 98.7 0 0 1 148.4 20.8c4.3 6.5 10 12.4 17.3 17.4a41.7 41.7 0 0 1 12 55 40 40 0 0 1-10.4 11.8 62.1 62.1 0 0 0-16.4 18.3zm-.7-.3h-.1l.2-.4c4-7 9.6-13.2 16.7-18.7a40.2 40.2 0 0 0-1.6-64.8 65.1 65.1 0 0 1-17.5-17.7A97.5 97.5 0 1 0 129 273a97.5 97.5 0 0 0 145-27.4zm-5.7-26.8c-7 .6-13.8-1.8-18.8-6.5a24.2 24.2 0 0 1 17.9-41.6 24 24 0 0 1 15.3 6.6l.7.6c8.8 9 9.2 23.5.8 33l-.5.5c-4 4.2-9.3 6.8-15 7.4h-.4zm-1.2-1 1.4-.2c5.4-.6 10.5-3.1 14.3-7l.5-.6a23 23 0 0 0-.8-31.2l-.6-.5a22.8 22.8 0 1 0-13.4 39.2l-1.4.1zm-11.6-66v-.2l-.3 1.1.3-1zm0 0-.3 1v.1c-.6 2.1-2.1 3.7-4.1 4.5a40.5 40.5 0 0 0-15.8 63.2 40.3 40.3 0 0 0 17.6 12.1 6.8 6.8 0 0 1 3.5 10.3A81.7 81.7 0 0 1 139.9 261a81.4 81.4 0 1 1 114.3-114c1 1.3 1.6 3 1.4 4.8zm-1.8 1.8.2-1v-.1l.2-.2c.4-1.7 0-3.4-1-4.7a75.4 75.4 0 0 0-15.7-15.5A80.3 80.3 0 0 0 140.7 260a80.5 80.5 0 0 0 114.7-17.6 5.6 5.6 0 0 0-2.8-8.4 41.6 41.6 0 0 1-1.9-77.7c1.7-.7 3-2 3.3-3.7l-.2 1zm0 0"/></g></g></g><g clip-path="url(#z)"><g clip-path="url(#A)"><g clip-path="url(#B)"><path fill="#fffcf7" fill-rule="evenodd" d="m102.1 293.2.3.3-.6-.8a98.7 98.7 0 1 1-29.4 192.8A98.7 98.7 0 0 1 14.8 347c3.4-7 5.6-14.9 6.2-23.7A41.7 41.7 0 0 1 62.3 285c5.4 0 10.6 1 15.4 3a62.2 62.2 0 0 0 24 4.7zm.2.8h-.5c-8 .2-16.2-1.5-24.5-4.8a40.2 40.2 0 0 0-55 34.3 65 65 0 0 1-6.4 24.2 97.5 97.5 0 1 0 183.8 57.2 97.5 97.5 0 0 0-97.4-111zM82 312.5a24.2 24.2 0 0 1-25 37.6 24.1 24.1 0 0 1-18-29l.2-.8a24.3 24.3 0 0 1 28-17.5l.7.2a24.4 24.4 0 0 1 14 9.2l.2.2zm-.3 1.5-.8-1c-3.3-4.4-8-7.5-13.3-8.8l-.7-.1a23 23 0 0 0-26.5 16.5l-.2.8a22.8 22.8 0 1 0 40.6-8.4l.9 1.1zm-50.9 43.7h-.1l1.1-.4a7 7 0 0 0-1 .4zm0 0 1.1-.3h.2c2-.6 4.1-.1 5.8 1.2a40.4 40.4 0 0 0 62.5-18.6c2.4-7 2.9-14.3 1.5-21.4a6.8 6.8 0 0 1 7.1-8.3 81.7 81.7 0 0 1 74.8 91.3 81.4 81.4 0 0 1-161.9-18.5 89.2 89.2 0 0 1 5.4-21.7c.7-1.7 2-3 3.5-3.7zm2.5.6-.9.2h-.1l-.3.1a5.5 5.5 0 0 0-3.5 3.2 75.4 75.4 0 0 0-5.3 21.4 80.3 80.3 0 0 0 159.3 18.3 80.5 80.5 0 0 0-73.6-89.8 5.6 5.6 0 0 0-5.8 6.7 41.6 41.6 0 0 1-66 41.2 5.4 5.4 0 0 0-4.8-1l1-.3zm0 0"/></g></g></g><g clip-path="url(#C)"><g clip-path="url(#D)"><g clip-path="url(#E)"><path fill="#fffcf7" fill-rule="evenodd" d="m424.8 412.4-.3.2 1-.3a98.7 98.7 0 1 1-177.4-81 98.8 98.8 0 0 1 148.8-17.6 63.7 63.7 0 0 0 21 12.5 41.7 41.7 0 0 1 18.6 64.2 62 62 0 0 0-11.2 21.8zm-.7 0h-.1l.1-.5c2-7.7 5.9-15.1 11.4-22.2a40.2 40.2 0 0 0-18-62.3 65 65 0 0 1-21.5-12.8 97.5 97.5 0 1 0-105.3 161v.1a97.5 97.5 0 0 0 133.4-63.3zM411.8 388a24.2 24.2 0 1 1-13-46.3c5.6-1.2 11.4-.3 16.4 2.5l.8.4a24.3 24.3 0 0 1 9.1 31.7l-.3.7c-2.8 5-7.3 8.9-12.7 11h-.3zm-1.4-.8 1.2-.5c5.1-2 9.4-5.6 12-10.3l.4-.7a23 23 0 0 0-8.7-30l-.7-.4a22.8 22.8 0 1 0-3 41.4l-1.3.5zm-28.1-60.8v-.2 1.2-1zm0 0V327.5c0 2.2-1 4-2.8 5.3a40.4 40.4 0 0 0 .8 65.2c6 4.2 13 6.7 20.1 7.3a6.8 6.8 0 0 1 6 9 81.7 81.7 0 0 1-108.2 47 81.4 81.4 0 0 1 62.1-150.6 89.3 89.3 0 0 1 19.4 11.2c1.4 1 2.4 2.6 2.6 4.4zm-1.2 2.2V327c0-1.7-.8-3.2-2.1-4.2a76 76 0 0 0-19.1-11 80.3 80.3 0 0 0-61.2 148.2A80.5 80.5 0 0 0 405.2 414a5.6 5.6 0 0 0-4.9-7.4 41.5 41.5 0 0 1-21.6-74.7c1.5-1 2.4-2.6 2.4-4.4v1.1zm0 0"/></g></g></g><g clip-path="url(#F)"><g clip-path="url(#G)"><g clip-path="url(#H)"><path fill="#fffcf7" fill-rule="evenodd" d="m58.1 184.1-.3.2.9-.5A98.7 98.7 0 1 1-127 124.4a98.7 98.7 0 0 1 145.7-35A63.8 63.8 0 0 0 41 99.3 41.7 41.7 0 0 1 72.4 146a40 40 0 0 1-5.3 14.8 62 62 0 0 0-8.5 23zm-.7 0h-.1v-.5c1.2-7.8 4.1-15.7 8.7-23.4a40.2 40.2 0 0 0-25.2-59.7 65 65 0 0 1-22.9-10 97.5 97.5 0 1 0-85.5 172.4 97.5 97.5 0 0 0 125-78.8zm-15.2-22.8a24.2 24.2 0 1 1-18.5-44.4 23.9 23.9 0 0 1 16.8.5l.8.3A24.3 24.3 0 0 1 54 148.1l-.3.7a24.4 24.4 0 0 1-11.2 12.4h-.3zm-1.4-.6 1.2-.7c4.8-2.5 8.6-6.7 10.7-11.7l.3-.7A23 23 0 0 0 40.8 119l-.8-.3a22.8 22.8 0 1 0 2 41.4l-1.3.6zM5.7 103.6v-.2l.2 1.2-.2-1zm0 0 .1 1v.2c.3 2.2-.6 4.2-2.1 5.6A40.4 40.4 0 0 0 33 180a6.8 6.8 0 0 1 7 8.3A81.3 81.3 0 1 1 2.7 99.5c1.5 1 2.6 2.4 3 4zm-1 2.3v-.9l-.1-.1v-.3a5.5 5.5 0 0 0-2.6-4A75.6 75.6 0 0 0-18.3 92a80.3 80.3 0 0 0-43.2 154.4A80.5 80.5 0 0 0 38.8 188a5.6 5.6 0 0 0-5.7-6.8 41.6 41.6 0 0 1-30.3-71.6c1.3-1.2 2-2.9 1.8-4.6l.1 1zm0 0"/></g></g></g><g clip-path="url(#I)"><g clip-path="url(#J)"><g clip-path="url(#K)"><path fill="#fffcf7" fill-rule="evenodd" d="m206.8-7.4-.3.2.9-.5A98.7 98.7 0 1 1 21.7-67a98.7 98.7 0 0 1 145.7-35 63.8 63.8 0 0 0 22.4 9.8A41.7 41.7 0 0 1 221-45.4a40 40 0 0 1-5.3 14.7 62 62 0 0 0-8.5 23zm-.7 0h-.1V-8c1.2-7.8 4.1-15.7 8.7-23.4A40.2 40.2 0 0 0 189.5-91a65 65 0 0 1-22.9-10.1A97.5 97.5 0 1 0 81.1 71.3a97.5 97.5 0 0 0 125-78.7zm-15.2-22.9a24.2 24.2 0 1 1-18.4-44.4 23.9 23.9 0 0 1 16.7.6l.8.3a24.3 24.3 0 0 1 12.8 30.3l-.3.8a24.4 24.4 0 0 1-11.2 12.3l-.3.2zm-1.4-.6 1.2-.6c4.8-2.5 8.6-6.7 10.7-11.7l.2-.7a23 23 0 0 0-12.1-28.8l-.8-.3a22.8 22.8 0 1 0 2 41.4l-1.3.7zm-35.1-57v-.2l.2 1.2-.2-1zm0 0 .1 1v.2c.3 2.1-.6 4.1-2.1 5.6a40.4 40.4 0 0 0 29.3 69.5 6.8 6.8 0 0 1 7 8.3A81.7 81.7 0 0 1 86.9 56a81.4 81.4 0 0 1 44-156.9 87.6 87.6 0 0 1 20.5 8.8c1.5.9 2.6 2.3 3 4zm-1 2.3v-.9l-.1-.2v-.2a5.5 5.5 0 0 0-2.6-4 75.6 75.6 0 0 0-20.3-8.6A80.3 80.3 0 0 0 87.2 54.9 80.5 80.5 0 0 0 187.5-3.6c.4-1.7 0-3.4-1.1-4.8a5.7 5.7 0 0 0-4.6-2A41.6 41.6 0 0 1 151.5-82c1.3-1.2 2-2.9 1.8-4.7l.1 1.1zm0 0"/></g></g></g><g clip-path="url(#L)"><g clip-path="url(#M)"><g clip-path="url(#N)"><path fill="#fffcf7" fill-rule="evenodd" d="M710.3-70h.4-1A98.7 98.7 0 1 1 843 72.3 98.7 98.7 0 0 1 698.6 32c-3.3-7-8.2-13.6-14.7-19.6a41.6 41.6 0 0 1 7.2-66.5A62 62 0 0 0 709.7-70zm.7.3v.1l-.2.4a63.4 63.4 0 0 1-19 16.2 40.2 40.2 0 0 0-7 64.4 65 65 0 0 1 15 20 97.5 97.5 0 1 0 158.6-109 97.5 97.5 0 0 0-147.4 8zm2 27.4a24.2 24.2 0 1 1-5.5 47.7c-5.7-1-10.7-4-14.3-8.5l-.5-.7a24.3 24.3 0 0 1 3.5-32.8l.6-.5a24.4 24.4 0 0 1 16-5.3h.2zm1 1.2h-1.3a23.2 23.2 0 0 0-15 5l-.6.5a23 23 0 0 0-3.4 31l.5.7c3.4 4.2 8.2 7 13.6 8a22.8 22.8 0 1 0 5-45.1h1.3zm2.9 67-.1.1.4-1.1-.3 1zm0 0 .4-1v-.1c.9-2 2.6-3.4 4.7-4a40.4 40.4 0 0 0 24-60.5c-4-6.2-9.4-11.1-15.8-14.4a6.8 6.8 0 0 1-2-10.7h-.1A81.7 81.7 0 0 1 846-67 81.4 81.4 0 0 1 731.2 48.6a88.6 88.6 0 0 1-13.7-17.7 6.8 6.8 0 0 1-.7-5zm2-1.6-.4.8v.2s0 .2-.2.2c-.6 1.6-.4 3.3.4 4.8a75.5 75.5 0 0 0 13.5 17.4 80.3 80.3 0 0 0 113-113.9A80.5 80.5 0 0 0 729-63.9a5.6 5.6 0 0 0 1.7 8.7 41.6 41.6 0 0 1-8.4 77.3 5.4 5.4 0 0 0-3.8 3.2l.4-1zm0 0"/></g></g></g><g clip-path="url(#O)"><g clip-path="url(#P)"><g clip-path="url(#Q)"><path fill="#fffcf7" fill-rule="evenodd" d="m596.5 79.2-.4-.1 1 .3a98.7 98.7 0 1 1-75.3-179.9A98.8 98.8 0 0 1 643-12.2c.6 7.7 3 15.6 7 23.5a41.7 41.7 0 0 1-15.3 54.2 39.9 39.9 0 0 1-14.7 5.5 62.1 62.1 0 0 0-23 8.4zm-.6-.6.4-.3a63.4 63.4 0 0 1 23.5-8.6 40.2 40.2 0 0 0 29-58c-4-8-6.4-16-7.1-24A97.5 97.5 0 1 0 455 34.6v.1a97.5 97.5 0 0 0 141 44zm7.6-26.3a24.2 24.2 0 1 1 21.8-42.8c5 3 8.7 7.5 10.5 13l.3.8c3.5 12.1-3 25-14.8 29.5l-.7.2a24.5 24.5 0 0 1-16.8-.6h-.2zm-.4-1.5 1.2.5c5 2 10.7 2.2 15.9.5l.7-.2a23 23 0 0 0 14-28l-.3-.7a22.8 22.8 0 1 0-30.3 28.3l-1.3-.5zM623.7-13h.2l-.8.8.6-.8zm0 0-.7.8-.1.2a6.7 6.7 0 0 1-5.7 2 40.4 40.4 0 0 0-43.6 48.4c1.5 7.1 5 13.7 9.8 19a6.8 6.8 0 0 1-1.8 10.7 81.7 81.7 0 0 1-111.3-39 81.4 81.4 0 0 1 147.8-68.4 89.2 89.2 0 0 1 6.7 21.4c.3 1.7 0 3.5-1 5zm-2.4.8.7-.6v-.2l.3-.2c1.1-1.2 1.6-2.9 1.3-4.5a75.3 75.3 0 0 0-6.6-21 80.3 80.3 0 0 0-145.5 67.3A80.5 80.5 0 0 0 581 67a5.6 5.6 0 0 0 1.4-8.8 41.6 41.6 0 0 1 34.9-69.5c1.7.2 3.4-.4 4.6-1.7l-.7.8zm0 0"/></g></g></g><g clip-path="url(#R)"><g clip-path="url(#S)"><g clip-path="url(#T)"><path fill="#fffcf7" fill-rule="evenodd" d="m1137 375.2-.2.2 1-.3a98.7 98.7 0 1 1-169.3-96.6 98.7 98.7 0 0 1 149.7-4.1 63.7 63.7 0 0 0 19.9 14.3A41.7 41.7 0 0 1 1159 341a40 40 0 0 1-8.3 13.4 62.1 62.1 0 0 0-13 20.7zm-.7 0v-.1l.2-.5a63.4 63.4 0 0 1 13.3-21v-.1a40.2 40.2 0 0 0-12.3-63.6 65 65 0 0 1-20.3-14.7 97.5 97.5 0 1 0-119.4 151 97.5 97.5 0 0 0 138.5-51zm-10-25.6a24.2 24.2 0 1 1-8.8-47.2c5.8-.7 11.4.7 16.2 4l.7.4a24.3 24.3 0 0 1 6.3 32.4l-.4.6c-3.2 4.7-8.1 8.2-13.6 9.8h-.3zm-1.3-.9 1.3-.3c5.3-1.5 9.9-4.8 13-9.3l.3-.6a23 23 0 0 0-6-30.7l-.6-.4a22.9 22.9 0 1 0-6.7 41l-1.4.3zm-22.5-63.1.1-.2-.1 1.2v-1zm0 0v1.2c-.3 2.2-1.5 4-3.4 5a40.5 40.5 0 0 0-5 65 40.3 40.3 0 0 0 19.4 9.1 6.8 6.8 0 0 1 5.2 9.6 81.8 81.8 0 0 1-112 37 81.4 81.4 0 1 1 93.7-131.5c1.3 1.2 2 2.8 2.1 4.6zm-1.4 2 .1-.8v-.5c.2-1.6-.5-3.3-1.7-4.4a75 75 0 0 0-18-12.6 80.3 80.3 0 0 0-74.3 142.1 80.5 80.5 0 0 0 110.2-36.4 5.6 5.6 0 0 0-4.2-7.8 41.6 41.6 0 0 1-14.7-76.4c1.5-1 2.5-2.4 2.7-4.2l-.1 1.1zm0 0"/></g></g></g></g></g><g clip-path="url(#U)" transform="translate(-681.7 -478.9)"><path fill="#ccd7ff" d="m747.7 530.4-6.2-5.2 14-15.4-14-15.5 6.2-5.1 18.6 20.6zm0 0"/></g><g clip-path="url(#V)" transform="translate(-681.7 -478.9)"><path fill="#ccd7ff" d="m700.3 530.4-18.6-20.6 18.6-20.6 6.2 5.1-14.3 15.5 14.3 15.4zm0 0"/></g><g clip-path="url(#W)" transform="translate(-681.7 -478.9)"><path fill="#6687ff" d="m716.8 540.7-7.9-2.7 20.3-59.1 7.8 2.6zm0 0"/></g><path fill="#6687ff" d="m155.7 82.8-15.1-10.3c-.7-.5-1.4-.8-2-.8-1.5 0-2.6 1.3-2.6 3.2v21.7c0 2 1 3.2 2.5 3.2.7 0 1.4-.3 2-.8l15.2-10.3a3.6 3.6 0 0 0 1.7-3c0-1-.6-2.2-1.7-2.9zm0 0"/><g clip-path="url(#X)" transform="translate(-681.7 -478.9)"><path fill="#6687ff" d="M786.6 605.7h77c4.7 0 8.7-4 8.7-8.7v-49c0-4.8-4-8.7-8.7-8.7h-77c-4.8 0-8.7 4-8.7 8.7v49c0 4.8 4 8.7 8.7 8.7zm78.4-8.9h-62.1c-.6 3-2.8 4.4-5.4 4.4-2.7 0-4.9-1.4-5.4-4.4h-6.8c-.8 0-1.5-.6-1.5-1.4 0-.8.7-1.5 1.5-1.5h7a5.5 5.5 0 0 1 5.2-3.8c2.4 0 4.5 1.6 5.2 3.8H865a1.5 1.5 0 0 1 0 3zm-84.1-48.5c0-3.2 2.6-6 5.8-6h77c3.1 0 5.7 2.8 5.7 6v38.2h-88.5Zm0 0"/></g><g clip-path="url(#Y)" transform="translate(-681.7 -478.9)"><path fill="#6687ff" d="M717.7 603c-19.6 0-35.8 14.2-35.8 32 0 8.6 3.8 16.4 9.9 22.1l-.2 1c-1.4 4-4.7 6.3-6.7 7-1.2.4-2.1 1-2.7 2.1-.5 1.1-.2 2.6.6 3.4 1.9 1.9 4.3 1.7 6 1.7 6.7 0 14.5-3.4 19.3-5.8l1.7-1-.7-.1h.1c2.7.6 5.4.8 8.1.8 17.2 0 32-10.3 35.3-25 .4-2 .6-4 .6-6.1 0-17.9-16-32-35.5-32zm0 4.1c17.5 0 31.4 12.6 31.4 28a24 24 0 0 1-.5 5.2c-2.8 12.6-15.7 21.8-31.3 21.8-2.5 0-5-.2-7.2-.7l-.8-.2-3 1.7a46.5 46.5 0 0 1-17.4 5.3c-.7 0-.8-.1-1.2-.2 2.9-1.4 6.2-4 7.8-8.7l.8-3.5-1-.8a26.5 26.5 0 0 1-9.3-20c0-15.3 14.1-27.9 31.7-27.9zm-17.5 14.3v4H735v-4zm0 10.2v4H735v-4zM757 640l-.4 2-.5 2c9.4 3.7 15.5 11 15.5 19 0 5.9-3 11.3-8.5 15.4l-1.1.8.3 1.3c1.1 4.3 5 6.4 7.6 7.9-4.2.6-13.4-.4-18-5.9l-.8-.9-1.1.2c-1.9.4-4 .6-6.6.6-12.7 0-23-5-27-12.3-1.6 0-3.2-.1-4.6-.3 3.7 10 16 16.7 31.6 16.7 2.3 0 4.4-.2 6.2-.4a26 26 0 0 0 19 6.5c3.4-.2 5.6-1 6.6-2.4.5-.6.6-1.4.4-2.1-.3-1.5-1.6-2.2-3.5-3.2-1.8-1-4.2-2.3-5.3-4.2a23 23 0 0 0 8.9-17.6c0-10-7.5-19-18.7-23zm-56.7 1.6v4.1h24.5v-4zm51 12.3a35 35 0 0 1-3.4 4h9.5v-4zm-11 10.2c-2.9 1.6-6 3-9.2 4h26.3v-4zm0 0"/></g></svg>