<?xml version="1.0" encoding="UTF-8" standalone="no"?>
<svg
   width="94.953125"
   zoomAndPan="magnify"
   viewBox="0 0 71.214844 70.464844"
   height="93.953125"
   preserveAspectRatio="xMidYMid"
   version="1.0"
   id="svg35849"
   xmlns="http://www.w3.org/2000/svg"
   xmlns:svg="http://www.w3.org/2000/svg">
  <metadata
     id="metadata1">
    <ContainsAiGeneratedContent>Yes</ContainsAiGeneratedContent>
  </metadata>
  <defs
     id="defs387">
    <clipPath
       id="93e3b9336a">
      <path
         d="m 477.125,834.70703 h 71.21484 v 70.46484 H 477.125 Z m 0,0"
         clip-rule="nonzero"
         id="path192" />
    </clipPath>
  </defs>
  <g
     clip-path="url(#93e3b9336a)"
     id="g9355"
     transform="translate(-477.12503,-834.70703)">
    <path
       fill="#002199"
       d="m 548.41016,883.58594 c 0,-2.15625 -1.75391,-3.91016 -3.91016,-3.91016 h -10.41797 v -39.76172 c 0,-2.87109 -2.33984,-5.20703 -5.21094,-5.20703 h -46.53515 c -2.875,0 -5.21094,2.33594 -5.21094,5.20703 v 60.15235 c 0,2.875 2.33594,5.21093 5.21094,5.21093 h 28.99218 c 0.62891,0 1.13672,-0.50781 1.13672,-1.13672 0,-0.6289 -0.50781,-1.14062 -1.13672,-1.14062 h -28.99218 c -1.61719,0 -2.9336,-1.31641 -2.9336,-2.92969 v -60.15625 c 0,-1.61328 1.31641,-2.92969 2.9336,-2.92969 h 46.53515 c 1.61719,0 2.9336,1.31641 2.9336,2.92969 v 11.01953 h -48.9961 c -0.6289,0 -1.13672,0.51172 -1.13672,1.14063 0,0.6289 0.50782,1.13672 1.13672,1.13672 h 48.9961 v 26.46484 h -7.22266 c 0.043,-0.52344 0.0664,-1.04687 0.0664,-1.57031 0,-10.5 -8.54297,-19.04297 -19.04688,-19.04297 -10.5,0 -19.04297,8.54297 -19.04297,19.04297 0,10.5039 8.54297,19.04687 19.04297,19.04687 2.76953,0 5.50391,-0.60937 7.9961,-1.76172 l 0.96484,6.58594 c 0.27734,1.88281 1.92187,3.30078 3.82422,3.30078 h 20.55469 c 1.90234,0 3.54687,-1.41797 3.82421,-3.30078 l 2.12891,-14.5039 c 1.96875,-0.19922 3.51563,-1.86719 3.51563,-3.88672 z m -42.8086,11.28906 c -9.24219,0 -16.76562,-7.52344 -16.76562,-16.76953 0,-9.24219 7.52343,-16.76563 16.76562,-16.76563 9.2461,0 16.76953,7.51953 16.76953,16.76563 0,0.52344 -0.0273,1.05078 -0.0742,1.57031 h -9.46875 c -2.15625,0 -3.91015,1.75391 -3.91015,3.91016 0,1.83593 1.27734,3.38281 2.99219,3.79687 -1.85157,1.25781 -4.05079,1.94141 -6.30469,1.94141 -6.1875,0 -11.21875,-5.03125 -11.21875,-11.21875 0,-6.1836 5.03125,-11.21875 11.21875,-11.21875 5.5,0 10.15234,3.93359 11.0625,9.34765 0.10547,0.6211 0.6914,1.03907 1.3125,0.9336 0.61719,-0.10156 1.03515,-0.69141 0.93359,-1.3086 -0.52344,-3.10937 -2.13672,-5.95703 -4.55078,-8.01562 -2.4375,-2.08594 -5.54687,-3.23047 -8.75781,-3.23047 -7.44141,0 -13.4961,6.05469 -13.4961,13.49609 0,7.44141 6.05469,13.49219 13.4961,13.49219 2.53125,0 5.00781,-0.71484 7.13672,-2.04297 l 0.51172,3.47266 c -2.35547,1.20703 -4.98438,1.84375 -7.65235,1.84375 z m 36.98828,-7.38281 -0.97265,6.61718 h -6.73828 l 0.52734,-6.61718 z m -9.99609,6.61718 h -7.85938 l -0.52734,-6.61718 h 8.91406 z M 525.44531,903 l -0.52734,-6.61328 h 7.49219 L 531.88281,903 Z m -3.52344,-15.50781 0.53125,6.61718 h -6.74218 l -0.97266,-6.61718 z m -5.10546,14.15234 -0.77344,-5.25781 h 6.58984 L 523.16016,903 h -4.77344 c -0.78125,0 -1.45703,-0.58203 -1.57031,-1.35547 z M 538.94141,903 h -4.77735 l 0.53125,-6.61328 h 6.58985 l -0.77344,5.25781 C 540.39844,902.41797 539.72266,903 538.94141,903 Z M 544.5,885.21484 h -31.67188 c -0.90234,0 -1.63281,-0.73047 -1.63281,-1.6289 0,-0.90235 0.73438,-1.63282 1.63281,-1.63282 H 544.5 c 0.90234,0 1.63281,0.73047 1.63281,1.63282 0,0.89843 -0.73437,1.6289 -1.63281,1.6289 z m 0,0"
       fill-opacity="1"
       fill-rule="nonzero"
       id="path9355" />
  </g>
</svg>
