<svg width="271" height="70" viewBox="0 0 271 70" fill="none" xmlns="http://www.w3.org/2000/svg">
<g clip-path="url(#clip0_300_6628)">
<rect width="70" height="70" fill="#801323"/>
<path d="M41.1271 42.1885L41.8167 39.8643C39.591 39.9737 37.3106 40.0357 34.9791 40.0357C32.6476 40.0357 30.4913 39.9774 28.3203 39.8752L29.0099 42.1994C30.9583 42.2833 32.9505 42.3308 34.9755 42.3308C37.0005 42.3308 39.1167 42.2833 41.1235 42.1921L41.1271 42.1885Z" fill="white"/>
<path d="M43.9803 37.5685L45.1406 35.0254C41.886 35.2699 38.4855 35.4049 34.9791 35.4049C31.4727 35.4049 28.1999 35.2772 25 35.04L26.1603 37.5795C29.0062 37.7655 31.9544 37.864 34.9791 37.864C38.0038 37.864 41.0797 37.7619 43.9803 37.5685Z" fill="white"/>
<path d="M33.9983 44.1995C33.0569 44.1898 32.1265 44.1702 31.207 44.1279L32.9365 64.5419C33.3889 64.5516 33.845 64.5582 34.3047 64.5582L34.0019 44.1963L33.9983 44.1995Z" fill="white"/>
<path d="M38.928 44.1214C38.0086 44.1637 37.0745 44.1865 36.1368 44.1963L35.834 64.5582C36.2901 64.5582 36.7498 64.5516 37.2022 64.5386L38.9317 44.1182L38.928 44.1214Z" fill="white"/>
<path d="M47.2999 18.9348C47.3255 18.5553 47.2014 18.1831 46.9533 17.8949C46.7015 17.6067 46.3549 17.4315 45.9718 17.406C45.5924 17.3804 45.2202 17.5045 44.9319 17.7526C44.6437 18.0007 44.4686 18.351 44.443 18.7341C44.4175 19.1136 44.5415 19.4857 44.7897 19.774C44.8991 19.9017 45.0341 20.0038 45.1764 20.0804L44.6583 23.5649C44.6583 23.5649 44.6474 23.5649 44.6401 23.5686L43.8045 22.0836C44.0417 21.8427 44.1913 21.529 44.2132 21.186C44.2679 20.4161 43.6987 19.7484 42.9361 19.6681L42.2903 16.9718C42.345 16.9353 42.3998 16.8988 42.4509 16.855C42.7391 16.6033 42.9142 16.2567 42.9398 15.8735C42.9653 15.4941 42.8413 15.1219 42.5932 14.8337C42.345 14.5454 41.9948 14.3703 41.6117 14.3448C41.4365 14.3338 41.2687 14.3557 41.1045 14.4031L40.32 13.1589C40.5353 12.9218 40.6667 12.6262 40.6886 12.3052C40.7433 11.517 40.1486 10.8311 39.3604 10.7764C38.981 10.7508 38.6088 10.8749 38.3206 11.123C38.0323 11.3747 37.8572 11.7214 37.8317 12.1045C37.8061 12.4839 37.9302 12.8561 38.1783 13.1443C38.4264 13.4326 38.7767 13.6077 39.1598 13.6333C39.1926 13.6333 39.2291 13.6333 39.2619 13.6333C39.2838 13.6333 39.3021 13.6296 39.3203 13.6296L40.2471 15.1C40.1522 15.2752 40.0938 15.4685 40.0792 15.6729C40.061 15.9465 40.123 16.2056 40.2434 16.4318L38.8642 17.6103C38.6453 17.4461 38.3863 17.3476 38.109 17.3294C37.7733 17.3075 37.4485 17.406 37.1785 17.5994L35.3834 16.0195C35.4783 15.8444 35.5403 15.6473 35.5549 15.4394C35.5804 15.0599 35.4564 14.6877 35.2083 14.3995C34.9602 14.1112 34.6099 13.9361 34.2268 13.9106C34.2085 13.9106 34.1939 13.9106 34.1757 13.9106L33.4679 11.5754C33.5043 11.5499 33.5408 11.528 33.5773 11.4988C33.8656 11.247 34.0407 10.9004 34.0662 10.5173C34.0772 10.3458 34.0553 10.178 34.0079 10.0174L35.5658 8.28797C35.6023 8.29162 35.6352 8.30257 35.6716 8.30622C35.7045 8.30622 35.741 8.30622 35.7738 8.30622C36.1168 8.30622 36.4488 8.18216 36.7115 7.95595C36.9998 7.70419 37.1749 7.35757 37.2004 6.97446C37.226 6.595 37.1019 6.22283 36.8538 5.93459C36.6057 5.64634 36.2554 5.47121 35.8723 5.44567C35.4929 5.42013 35.1207 5.54418 34.8325 5.79229C34.5442 6.0404 34.3691 6.39067 34.3435 6.77378C34.318 7.1204 34.4275 7.44148 34.6135 7.70419L33.3073 9.15636C33.1322 9.06149 32.9388 9.00311 32.7345 8.98852C32.355 8.96298 31.9829 9.08703 31.6946 9.33514C31.4064 9.5869 31.2312 9.93352 31.2057 10.3166C31.1801 10.6961 31.3042 11.0683 31.5523 11.3565C31.5706 11.3784 31.5924 11.393 31.6107 11.4112L29.7426 14.7023C29.6659 14.6841 29.5893 14.6695 29.5127 14.6622C28.7246 14.6075 28.0386 15.2022 27.9839 15.9903C27.9438 16.5741 28.2612 17.0995 28.7465 17.3549L28.3305 20.8576C28.1627 20.9014 28.0022 20.9744 27.8599 21.0765L25.8458 19.2814C25.9407 19.1063 26.0063 18.9092 26.0209 18.6976C26.0465 18.3473 25.937 18.0226 25.7436 17.7563L26.5172 16.1289C27.2286 16.0925 27.8234 15.5342 27.8708 14.8045C27.8964 14.425 27.7723 14.0529 27.5242 13.7646C27.2724 13.4764 26.9258 13.3012 26.5427 13.2757C25.7546 13.221 25.0723 13.8157 25.0139 14.6038C24.9811 15.0562 25.1708 15.4685 25.4809 15.7531L24.7986 17.1871C24.7621 17.1834 24.7293 17.1725 24.6892 17.1688C23.9011 17.1141 23.2188 17.7088 23.1604 18.4969C23.1348 18.88 23.2589 19.2486 23.507 19.5368C23.6493 19.701 23.8244 19.8214 24.0142 19.9053L23.923 23.6525C23.7697 23.7109 23.6201 23.7948 23.4924 23.9042C23.2042 24.156 23.029 24.5026 23.0035 24.8857C22.9488 25.6738 23.5435 26.3561 24.3316 26.4145C24.3644 26.4145 24.4009 26.4145 24.4338 26.4145C24.4921 26.4145 24.5469 26.4072 24.6053 26.3999L28.2247 31.0593C28.2211 31.0921 28.2101 31.1249 28.2065 31.1614C28.1518 31.9495 28.7465 32.6318 29.5346 32.6902C29.5674 32.6902 29.6039 32.6939 29.6368 32.6939C29.9615 32.6939 30.2753 32.5808 30.5307 32.3728L33.6649 33.2229C33.7233 33.3798 33.8072 33.5258 33.9203 33.6535C34.172 33.9417 34.5187 34.1168 34.9018 34.1424C34.9346 34.1424 34.9711 34.1424 35.0039 34.1424C35.3469 34.1424 35.6789 34.0183 35.9416 33.7921C36.1569 33.606 36.3102 33.3616 36.3831 33.0916L39.6852 31.8839C39.8931 32.0262 40.1303 32.1137 40.3857 32.132C40.4186 32.132 40.4514 32.132 40.4879 32.132C41.2322 32.132 41.8634 31.5555 41.9145 30.8002C41.9291 30.5813 41.889 30.3733 41.816 30.1799L44.7787 26.3561C44.8042 26.3561 44.8261 26.3671 44.848 26.3671C44.8809 26.3671 44.9137 26.3671 44.9502 26.3671C45.6945 26.3671 46.3221 25.7906 46.3768 25.0353C46.4024 24.6522 46.2783 24.2837 46.0302 23.9955C45.9426 23.8933 45.8368 23.8094 45.7237 23.7401L46.2528 20.179C46.811 20.0148 47.2415 19.5259 47.2853 18.9092L47.2999 18.9348ZM25.127 20.106L27.2907 22.0325C27.2834 22.0726 27.2724 22.1091 27.2688 22.1529C27.2542 22.3645 27.2907 22.5725 27.3636 22.7622L25.4627 23.9918C25.3386 23.8678 25.1963 23.7656 25.0394 23.6926L25.127 20.106ZM41.2176 17.1725L41.889 19.9819C41.889 19.9819 41.8634 20.0002 41.8488 20.0111C41.5679 20.2556 41.3964 20.5949 41.3636 20.9671L35.7665 21.4596L37.5471 20.106C37.6638 20.1461 37.7879 20.179 37.9156 20.1899C37.9484 20.1899 37.9813 20.1899 38.0177 20.1899C38.7621 20.1899 39.3933 19.6134 39.4444 18.8581C39.4517 18.7596 39.4444 18.6648 39.4371 18.5699L41.1082 17.1433C41.141 17.1542 41.1775 17.1579 41.214 17.1652L41.2176 17.1725ZM43.5564 25.1995L40.3821 26.378L42.7391 22.5214C42.7391 22.5214 42.7719 22.5214 42.7902 22.5214C42.7902 22.5214 42.7902 22.5214 42.7938 22.5214L43.7461 24.2144C43.6294 24.4041 43.5491 24.6194 43.5345 24.8565C43.5272 24.9733 43.5345 25.0864 43.5564 25.1959V25.1995ZM35.5293 31.3986C35.398 31.3475 35.263 31.311 35.1171 31.3001C34.8361 31.2818 34.5698 31.3475 34.3399 31.4716L30.9466 27.739C31.0853 27.5347 31.1728 27.2975 31.1874 27.0457C31.202 26.8268 31.1619 26.6116 31.0816 26.4145L33.6576 23.273C33.7123 23.284 33.7634 23.2949 33.8218 23.3022C33.8546 23.3022 33.8875 23.3022 33.9239 23.3022C34.0298 23.3022 34.1283 23.2876 34.2268 23.2657L37.7003 26.8086C37.6821 26.8852 37.6675 26.9618 37.6602 27.0421C37.6346 27.407 37.7514 27.7572 37.9776 28.0382L35.5293 31.3986ZM25.8567 25.2324C25.864 25.1886 25.875 25.1448 25.8786 25.0974C25.8786 25.0755 25.8786 25.0536 25.8786 25.028L28.1408 23.5649C28.2174 23.5978 28.2977 23.6233 28.3816 23.6415L28.8778 25.8234C28.8778 25.8234 28.8414 25.849 28.8231 25.8636C28.7064 25.9657 28.6151 26.0861 28.5385 26.2138L25.8567 25.2287V25.2324ZM30.6985 16.7602L33.1395 16.3698C33.2599 16.4865 33.3985 16.585 33.5554 16.6544L33.4277 20.5329C33.4058 20.5402 33.3803 20.5548 33.3584 20.5621L30.5599 16.9754C30.611 16.9061 30.6584 16.8331 30.6949 16.7602H30.6985ZM41.7138 22.0398C41.7138 22.0398 41.7321 22.0544 41.7394 22.0617L39.4735 25.7651C39.3823 25.7395 39.2875 25.7213 39.189 25.714C38.8934 25.6957 38.6088 25.7651 38.3571 25.9147L35.1316 22.6236C35.1316 22.6236 35.1316 22.6163 35.1389 22.6163L41.7138 22.0398ZM36.7261 19.3617L34.847 20.7846C34.7485 20.7007 34.6391 20.6277 34.5223 20.573L34.6464 16.8295L36.6094 18.5553C36.6057 18.5918 36.5948 18.6283 36.5911 18.6648C36.5729 18.9129 36.6276 19.15 36.7261 19.3617ZM32.7126 15.3299L30.7788 15.64C30.746 15.5452 30.7022 15.4539 30.6474 15.37L32.4937 12.1191L33.1577 14.3156C32.906 14.5527 32.7345 14.8811 32.7089 15.2533C32.7089 15.2788 32.7089 15.3044 32.7089 15.3299H32.7126ZM29.8119 17.7964L32.5922 21.3611C32.5411 21.4925 32.5046 21.6311 32.4937 21.7734C32.4718 22.0945 32.563 22.4046 32.7381 22.6673L30.3081 25.6337C30.1877 25.5826 30.0637 25.5498 29.9287 25.5352L29.458 23.4628C29.5164 23.4263 29.5747 23.3861 29.6295 23.3387C29.9177 23.0869 30.0928 22.7403 30.1184 22.3572C30.1585 21.8026 29.8703 21.3027 29.4215 21.0364L29.8083 17.7964H29.8119ZM28.3889 27.3303C28.5057 27.7426 28.7976 28.082 29.188 28.2534L29.1442 29.9428C29.0457 29.9793 28.9508 30.0303 28.8632 30.0887L26.0538 26.4729L28.3889 27.3303ZM30.735 30.3368C30.5964 30.1799 30.4285 30.0595 30.2424 29.9756L30.2753 28.6293L33.3511 32.0152L31.078 31.3986C31.078 31.3986 31.078 31.384 31.078 31.3767C31.1035 30.9972 30.9795 30.6251 30.7314 30.3368H30.735ZM38.9481 28.5745L39.4261 29.7895C39.2218 30.0231 39.0977 30.3113 39.0758 30.6251C39.0686 30.7382 39.0758 30.8513 39.0941 30.9608L36.5218 31.9021L38.9445 28.5782L38.9481 28.5745ZM40.601 29.297C40.5353 29.2933 40.4733 29.297 40.4113 29.3006L39.999 28.2498C39.999 28.2498 40.0208 28.2352 40.0318 28.2243C40.2507 28.0345 40.4003 27.7901 40.4733 27.5164L43.3557 26.4437L41.0571 29.4101C40.9148 29.348 40.7615 29.3043 40.601 29.2933V29.297Z" fill="white"/>
</g>
<path d="M86.3328 58.7V57.0337L87.6658 56.9004C89.221 56.7226 90.3985 56.5005 91.1983 56.2339C92.0425 55.9228 92.6202 55.3008 92.9312 54.3677C93.2422 53.3901 93.3978 51.8127 93.3978 49.6355V20.0425C93.3978 17.8208 93.2422 16.2434 92.9312 15.3103C92.6202 14.3772 92.0425 13.7774 91.1983 13.5108C90.3985 13.1997 89.221 12.9553 87.6658 12.7776L86.3328 12.6443V10.978L96.1971 11.178H99.9295L115.792 49.6355L133.322 11.178H137.321L146.652 10.978V12.6443L145.319 12.7776C143.808 12.9553 142.63 13.1997 141.786 13.5108C140.942 13.7774 140.364 14.3772 140.053 15.3103C139.742 16.2434 139.587 17.8208 139.587 20.0425V49.6355C139.587 51.8127 139.742 53.3901 140.053 54.3677C140.364 55.3452 140.942 55.9673 141.786 56.2339C142.63 56.5005 143.808 56.7226 145.319 56.9004L146.652 57.0337V58.7L136.787 58.5L126.856 58.7V57.0337L128.189 56.9004C129.745 56.7226 130.922 56.5005 131.722 56.2339C132.566 55.9673 133.144 55.3452 133.455 54.3677C133.766 53.3901 133.921 51.8127 133.921 49.6355V15.377L114.193 58.5H112.926L95.7305 16.0435V51.5017C95.7305 52.9236 95.9083 53.99 96.2637 54.7009C96.6192 55.4118 97.1968 55.9228 97.9967 56.2339C98.8409 56.5005 99.9962 56.7226 101.462 56.9004L102.796 57.0337V58.7L94.3309 58.5L86.3328 58.7ZM145.683 58.7V57.0337L146.283 56.967C147.838 56.7449 149.105 56.4338 150.082 56.0339C151.104 55.634 151.971 54.9897 152.681 54.1011C153.437 53.1679 154.148 51.9016 154.814 50.302L170.944 11.178H173.21L188.939 50.302C189.828 52.4792 190.783 54.0788 191.805 55.1008C192.827 56.1228 194.227 56.7226 196.004 56.9004L197.337 57.0337V58.7L189.073 58.5L178.409 58.7V57.0337L179.742 56.9004C181.297 56.7226 182.408 56.3894 183.074 55.9006C183.741 55.4118 184.074 54.7231 184.074 53.8344C184.074 52.9458 183.763 51.7461 183.141 50.2353L179.675 41.5707H160.88L157.28 50.2353C156.969 51.0351 156.703 51.7683 156.481 52.4348C156.258 53.0569 156.147 53.6123 156.147 54.1011C156.147 54.9453 156.503 55.5896 157.214 56.0339C157.969 56.4783 159.191 56.7671 160.88 56.9004L162.213 57.0337V58.7L153.748 58.5L145.683 58.7ZM161.746 39.4379H178.875L170.477 18.3096L161.746 39.4379ZM203.765 58.7V57.0337L205.231 56.9004C207.053 56.7226 208.43 56.5005 209.363 56.2339C210.341 55.9228 211.007 55.3008 211.363 54.3677C211.763 53.3901 211.963 51.8127 211.963 49.6355V12.9776H202.565C200.521 12.9776 198.899 13.3775 197.699 14.1773C196.544 14.9326 195.522 16.1768 194.633 17.9097C193.789 19.6426 192.789 21.9532 191.634 24.8414L190.234 24.5081L191.901 16.3101L192.634 10.978L211.629 11.178H217.961L237.023 10.978L237.756 16.3101L239.423 24.5081L237.956 24.908C236.934 22.3309 235.979 20.1536 235.09 18.3763C234.246 16.5989 233.246 15.2659 232.091 14.3772C230.936 13.4441 229.403 12.9776 227.492 12.9776H217.628V49.6355C217.628 51.8127 217.806 53.3901 218.161 54.3677C218.561 55.3008 219.25 55.9228 220.227 56.2339C221.205 56.5005 222.582 56.7226 224.36 56.9004L225.826 57.0337V58.7L214.962 58.5L203.765 58.7ZM257.561 59.2332C255.784 59.2332 254.162 58.9443 252.696 58.3667C251.274 57.7891 249.985 57.2114 248.83 56.6338C247.852 56.1006 247.03 55.7007 246.364 55.4341C245.742 55.1675 245.186 55.0342 244.697 55.0342C244.075 55.0342 243.631 55.3008 243.364 55.834C243.142 56.3227 242.965 56.8782 242.831 57.5002L242.631 58.5H240.965L241.298 50.6352L241.098 42.0373H242.765L243.498 45.1699C243.987 47.1249 244.853 49.0356 246.097 50.9018C247.386 52.768 248.985 54.301 250.896 55.5007C252.851 56.7004 255.073 57.3003 257.561 57.3003C258.939 57.3003 260.249 57.0115 261.493 56.4338C262.782 55.8118 263.826 54.8786 264.626 53.6345C265.47 52.3904 265.892 50.7685 265.892 48.769C265.892 45.7919 264.915 43.3925 262.96 41.5707C261.049 39.7489 258.383 38.016 254.962 36.372L252.162 35.0389C248.83 33.4393 246.342 31.6842 244.697 29.7735C243.098 27.8185 242.298 25.3302 242.298 22.3087C242.298 19.9537 242.876 17.8653 244.031 16.0435C245.186 14.2217 246.764 12.7998 248.763 11.7778C250.807 10.7559 253.14 10.2449 255.762 10.2449C257.583 10.2449 259.116 10.4893 260.36 10.978C261.605 11.4668 262.582 11.8889 263.293 12.2444C264.448 12.822 265.359 13.1109 266.026 13.1109C266.737 13.1109 267.159 12.4221 267.292 11.0447H268.958L268.758 17.4432L268.892 23.9083H267.225C266.959 21.42 266.27 19.3094 265.159 17.5765C264.048 15.7991 262.693 14.4439 261.094 13.5108C259.538 12.5777 257.872 12.1111 256.095 12.1111C253.473 12.1111 251.34 12.8665 249.696 14.3772C248.097 15.888 247.297 17.8208 247.297 20.1758C247.297 22.7086 248.119 24.7081 249.763 26.1744C251.407 27.5963 253.54 28.9515 256.161 30.2401L258.894 31.5731C261.338 32.7728 263.426 34.017 265.159 35.3055C266.937 36.5497 268.292 38.016 269.225 39.7045C270.202 41.393 270.691 43.5036 270.691 46.0363C270.691 48.6579 270.091 50.9685 268.892 52.968C267.736 54.9675 266.159 56.5227 264.159 57.6335C262.204 58.7 260.005 59.2332 257.561 59.2332Z" fill="#801323"/>
<defs>
<clipPath id="clip0_300_6628">
<rect width="70" height="70" rx="4" fill="white"/>
</clipPath>
</defs>
</svg>
