<svg xmlns="http://www.w3.org/2000/svg" fill="none" viewBox="0 0 1913 382" class="h-7 w-auto text-white">
  <path fill="#011f0e" d="M485.82 260.64V61.83l4.5-.2h53c3 0 4.6.3 6 3.8q19.9 47.7 40 95.3a3099 3099 0 0 1 21 51q7.5-17.1 14.5-33.9l19.2-46.7q14-33.2 27.7-66.5c1.1-2.8 2.3-3.1 4.6-3.1h58.3v219.7h-53.4v-121l-.7-.2-14.7 34.6-20 48.9-13.3 33c-1.4 3.6-3.4 5.5-7.9 5.3q-14.7-.51-29.5 0c-3.5 0-5.1-1.2-6.4-4.4l-16.8-40.4-20-48.9a482 482 0 0 0-12-27.9v121.2h-54.1zm-326.2 119c-13.3 1.3-26.2 3.2-38.3-3.2a40 40 0 0 1-17.6-19.6c-2.7-6-7.8-8-13.2-9a57 57 0 0 1-28.7-14 45 45 0 0 1-14.2-26.4 75 75 0 0 1 1.1-24.7q1.1-5.4-4.2-7.9a67 67 0 0 1-26.7-18.6 44 44 0 0 1-11-25.6c-.4-7.7.7-15.4.8-23.2 0-1.7-.8-4-2-5.2-7.4-7.7-6.6-16.8-2.7-25a33 33 0 0 0 3.8-17.3 51 51 0 0 1 9-32.2 56 56 0 0 1 22.9-19q11.3-5.8 8.9-18.7a45 45 0 0 1 7.6-35 53 53 0 0 1 30.9-20.5 40 40 0 0 0 20.6-16.3c8.1-11.2 18.4-18 33-17.6 11.6.2 23 .1 34 5a55 55 0 0 1 22.8 19 24 24 0 0 1 3.2 13q.3 76 0 152-.3 79.4-.9 158.7c0 5-2.1 8.6-5.2 12.1a61 61 0 0 1-34 19.3m-34.7-53.4q-2.2 6-4 12.2-1.2 5.3-1.9 10.7l-1.6.4c3 3.3 5.4 7.3 8.9 9.9a31 31 0 0 0 24.6 5.1 56 56 0 0 0 28.2-12.7c2.4-2 3.3-4.3 1.3-7.5-2.5-4-4.4-8.6-6.5-12.9l-20.9-43.3c-1.6-3.3-4.1-3.2-6 0l-5.1 9.2zm4-40c.9-3.2 5.8-4.9 2.2-9.6-2.4-3.4-5-3.2-8-3q-17.5.6-35 2a42 42 0 0 0-11.9 3.2c-2.9 1.3-5.3 3.6-7.8 5.7a12 12 0 0 0-3.5 4c-5.7 13.4 2.9 32 14.7 37.1 4.5 2 9.7 6.2 13.5 5.2 5.8-1.6 12-5.8 15.5-10.7 7.6-10.5 13.6-22.1 20.3-34m-23.9-195.4c.4-1.5 1.2-3 1.2-4.5-.3-6.1-1.6-12.4 3-17.8.9-1 1.4-3 1-4.1q-2.1-5.2-5.4-9.7c-3-3.8-7-6.5-12.1-5-15.4 4.2-26.7 13-29.5 29.5-1 6.3-.8 13 5.6 17.8 3.5 2.6 6.2 5.9 6.5 11 .2 3 2.8 5.8 4.6 9.2 8.7-9 16.6-17.4 25.1-26.4m5.4 140.7 23.4 13.4c1.5.9 11-1.5 11.9-3l.2-.9 1-9.2c.7-7.1.7-14.4 2.3-21.4 1-4-.1-6.2-2.5-8.6-3.8-3.9-8-7.5-11.5-11.7-2-2.4-3-4.1-7-2.9-2.8 1-6 .5-8 3.6q-8.6 13.8-17 28c-3.2 5.6-2.4 7.7 3.6 10.7zm66.5-203.4c-4.9-2.9-9.5-6-14.6-8.5a39 39 0 0 0-34 .4c-6 2.6-9.3 9.5-8.3 13 .5 2.1 1.4 4.5.8 6.3-2 5.8.8 10.4 3.4 14.8 1.2 2 3.6 3.3 5.7 4.5 7 3.8 12.5.5 17.7-4.1q3.2-2.6 6.6-5l25.7-19.1zm-145 219 3.1 3.1c8.8 8.7 20 9.1 28.4 0 4.4-4.8 7.2-11.2 10.5-17 .4-.8-.4-3-1.3-3.5a108 108 0 0 0-10.3-6.2l-28.6-15.9c-3.2-1.7-8.8-.2-9.6 2.7-1.1 4-2.5 8.4-2 12.4a43 43 0 0 0 9.8 24.3m144.4-192.4c-6.8 5-13.2 10.4-20.3 14.8-5.3 3.3-6.8 7.2-7.5 13.3-.8 6.8 2.3 10.1 6 14.2 3.4 3.5 6.3 7.5 9.5 11.1q9 10.2 18.6 20.6v-78.8zm-.9 93-7.5-9.5-19.6-22.5q-6.3-7-12.8-13.8l-1.6.5q.2 19-.1 38c-.2 6.7 4.4 9.9 8.1 13.8.4.4 1.7 0 2.5-.2zm0 60.1 7.3 8.2v-53.3c-13 3.7-26.6 5.1-40 10.7zm-127.3-14.8-3.4 1.4a1688 1688 0 0 0 36.6 20.1c1.2.7 4.6-.7 5.5-2 6.9-10.4 13.4-21 20.8-32.7l-24.8 5.5zm-17.7-56.3a36 36 0 0 0-7.2 28.6l8.3 2.3 37.7-39c-.8-.5-1.8-1.7-3-2-6.3-1-12.9-3.2-18.9-2.2-6.6 1-12.3 5.8-16.9 12.3m36 19-19 20.4 49.4-11.4c1.8-.5 4.6-1.8 4.8-3 .3-1.9-.9-4.6-2.3-6-5.6-5.2-11.5-10-17.7-15.3zm52.5-21.6v-33.2c-4.9 5.3-8.7 9.9-12.8 14-4.2 4.3-8.7 8.1-13.4 12.4 7.2 6.3 13.2 11.9 19.6 17 3 2.6 6.4.8 6.6-3.2zm64 113.2c-.1-1.8.5-4.1-.4-5.3-5.5-7.1-11.3-14-17.8-22-1.1 8.5-2.2 15-2.7 21.6-.7 8.5 8 15.4 16.4 13.3l4.5-.5zm-74 11.8 14-.9c-9.6-5.3-18.3-9.7-26.5-14.9-4.6-2.9-7.5-1-9.9 2.3-3.2 4.5-5.8 9.5-8.6 14 10.2 0 20.2 0 31-.5m63.6 12.4c-4.6 1.3-6.8 4.4-5 8 5 11 10.4 21.9 16.2 33.8v-42.5c-3.7 0-7.1 0-11.2.7m38.4-14.8v-43q-.3-86.5-1.1-173.2a32 32 0 0 1 14.8-27.8 69 69 0 0 1 50.5-11.8c15 1.9 26.6 10 31 25 2 6.5 6 7.4 11.2 7.8a51 51 0 0 1 44.9 42.2c1 10-1 19.1-2.7 28.4 6.2 3 12.8 5.6 18.7 9.3 12.7 8 21.3 19 23.8 34.4a90 90 0 0 1-3 37.7 20 20 0 0 0 0 10.3 68 68 0 0 1-1.3 50.9 52 52 0 0 1-29.2 25.8l-8.8 3.3c1 7.6 3.2 15.4 3 23.1a48 48 0 0 1-36 46.5q-6 1.8-12.3 2c-4.2.2-6.5 1.8-7.6 6a35 35 0 0 1-20.4 23.8 68 68 0 0 1-67.7-13.6 26 26 0 0 1-8.8-20.4zm155.1-43.3a17 17 0 0 1-8.3 23.8c-10 4.4-20.6-1-23.4-11.7-1.5-6-.1-11.7 4.5-16 3.2-3 4.3-6.3 4.2-10.6q-.51-14 0-28c.2-2.7 1.5-6.4 3.5-8 5-3.9 10.8-7 16.3-10.2l20.2-11.7a47 47 0 0 0-28.8-20.5c-1.7-.5-4-.7-5.5 0q-34.5 20-68.6 40.3c-1.8 1-3.7 3.2-4 5.1-1.5 8.8-10 14.7-17.4 13.8-9.2-1.1-16.2-7.6-16.2-17.7s11.7-19 20.9-15.5q5 2 10-.9c6.5-4 13.4-7.6 19.8-11.9a11 11 0 0 0 4.5-7.2q.8-12.1 0-24.4c0-3-.7-6.8-2.6-8.4-5.5-4.6-6.3-10.1-6.4-16.7-.2-7 7.4-13.3 13-14.2 8.3-1.4 16.4 2.5 19.3 9.5 2.5 6.2 3.3 13.6-4.2 20.2-1.7 1.4-3.5 3.9-3.6 6-.5 7.6-.2 15.4-.2 23.7 7.4-4.3 14.2-7.8 20.7-12 3.2-2 6.8-4.3 8.4-7.5a38 38 0 0 0 4-25.3c-4-18.8-24.5-32.8-41.5-27.9-4.5 1.4-9.7-.3-10.8-7.5-1.9-13.1-8-22.8-22-26-3.3-.7-4.9-.2-5 3.7-.1 11.2-.7 22.5-.9 33.7q-.3 16.5.2 33c0 2.8 1.8 5.7 3.3 8.2s4.2 4.3 5.3 7c3.5 8.5.2 17-7.8 21.6a18 18 0 0 1-22.3-5.4c-4.5-6.6-4.2-17.8 3-22.8 2.5-1.8 3.4-3.5 3.3-6.4v-65.9l-.3-4.2a44 44 0 0 0-20.1 11.5 17 17 0 0 0-4.4 10.3c-.2 98.7-.2 197.3-.2 296.7 7.6-4 14.6-8.1 22-11.6q5.5-2.5 6.8-8c2.8-11.8 17.3-15 26.6-7.6 5.6 4.4 7.8 16.2 4.1 22-4.4 7-14 10.1-21.5 7-1.4-.5-3.4-1.2-4.6-.6q-14.2 7.1-28.5 14.6l-.1 1.8c8 3.3 16 7 24.3 9.7a34 34 0 0 0 25-2.2c10-4.4 12.1-13.6 13.9-22.9 1-5.6 5-8.5 10.5-7.3 9.6 2.3 17.7-1.4 26-6l-4-3-66-38c-6.5-3.6-10.3-7.8-9.7-15.8.7-8.6 0-17.3.3-26 0-3.4-.6-6.1-3.4-8.1-6.5-4.7-7.2-14.5-4.5-20a15 15 0 0 1 16-9.3c7.4.5 13.7 4.1 15.8 10.2 2.6 7.5.4 14.3-5.7 19.3-1.3 1-2.1 3.3-2.2 5-.3 5.6 0 11-.1 16.6 0 2.7-.8 5.4-.4 8 1.2 7.5 7.9 9.8 13.4 13l43 24.6 19.7 11.2c5.8-10.2 4.4-20.2 1.4-30.4-1.3-4.6-2.8-8.9-7.3-11.4a2013 2013 0 0 0-33.6-19c-6.2-3.4-9.9-7.6-9.4-15.4.7-10.5.1-21 .2-31.5 0-3.5-.7-6.4-4.2-8.2a9 9 0 0 1-1.8-2 17 17 0 0 1-1.5-18.6c3-6 8.5-9.2 16.1-8.4 6.6.6 13.4 4 15.1 9.6 2.2 7.3 1.2 14.1-4.4 19.8-1.5 1.6-3 4.1-3.2 6.3q-.4 15 0 30a8 8 0 0 0 3.5 5.5c10.5 6.2 21.6 11.5 31.7 18.2 5.2 3.4 9.6 4 14.8 1.7 21.3-9.2 31.5-28 25.4-51a61 61 0 0 1 0-35c1.5-5 2-10.4 3-15.7-9.5 4.2-17.5 9-25.7 13.3-3.3 1.8-4 4-3.9 7.6a88 88 0 0 1 0 15.4c-.8 6.7-.8 12.8 5.8 16.8.5.3.6 1.1 1.4 2.3m812.7 5.5a56.4 56.4 0 0 0 30.6 13.8 55 55 0 0 0 38.4-8 47 47 0 0 0 17-26.1h-61.6v-40.8h120.1c-2 18.3 3 36.9-4.2 54.8a118 118 0 0 1-50.5 57.8 103 103 0 0 1-34.7 11.3 118 118 0 0 1-63.5-8.7 107 107 0 0 1-27.6-18 92 92 0 0 1-23.2-28.6q-7.2-14.7-11.4-30.5a123 123 0 0 1-1.4-41.6 102 102 0 0 1 23.4-55.2 108 108 0 0 1 71.8-39.6c19.8-2.2 39-1 57.8 6 29.2 10.8 54 34.6 63 65.9h-64.3c-6-11.4-15-20-27.8-22.3-16.6-2.8-33-1-47.2 9.5a54 54 0 0 0-21.5 38.2c-2 14.6-2 29.1 4.2 42.7 3 6.8 8.1 12.8 12.6 19.4m688.2 62.7h-7.7v-25.3l-8.4 9a57 57 0 0 1-38.4 17.5 71 71 0 0 1-50.3-14.7 80 80 0 0 1-31-49.1 129 129 0 0 1-3-30.2c1.2-25.8 10-48.6 30.1-65.9a73 73 0 0 1 38.1-17.4c15.9-2.3 31-.7 44.8 7.3 6.4 3.7 11.7 9.3 17.6 14.1v-77h54v231.7zm-35.2-128.6a37 37 0 0 0-42.1 15.5 49 49 0 0 0-5.5 37.5 37.56 37.56 0 0 0 40 29.9c13.1-1 27.9-12 31.8-25.4 3-10 2.8-20 1-30.1a38 38 0 0 0-25.2-27.4m-854.8 87.6h-70c0-9.6.6-19-.2-28.4a40 40 0 0 1 9-28.3c17-23.2 32.9-47.2 49.3-70.8a8061 8061 0 0 1 39-55c.8-1.1 2.3-2.4 3.5-2.4l58.3-.1v137.8h24.8v47h-24.7v34.7c0 6.5 0 6.5-6.5 6.5h-47.3v-41zm14.5-47h23.3v-74.7l-47.7 74.7zm378.2-70.3a81 81 0 0 1 36.3-16.6q10.9-2 22-2 31.59-.9 57.3 17.7a77 77 0 0 1 31.6 48.9 96 96 0 0 1-8 66 81 81 0 0 1-57.6 43.2 116 116 0 0 1-25.7 2.9 92 92 0 0 1-56.3-19.3 80 80 0 0 1-30.4-49.7c-3.8-22.1-3-43.6 7.2-63.8a65 65 0 0 1 23.6-27.3m81.6 36.3-2.3-1.6a35.3 35.3 0 0 0-56 23.4 64 64 0 0 0 2.3 33.8 36.5 36.5 0 0 0 36.1 21.5 37 37 0 0 0 28.6-20.5 58 58 0 0 0 4-26.9 41 41 0 0 0-12.7-29.7m90.7 76c-6-11-8.4-22.4-9-34.3a100 100 0 0 1 5.9-43.3 80 80 0 0 1 26-34.4 90 90 0 0 1 40.7-17.7c19-3 37.6-1.6 55.8 5.4a88 88 0 0 1 28.8 18.3c11.8 11 19.5 25 22.6 41a97 97 0 0 1-7.4 66 82.1 82.1 0 0 1-58.3 44 114 114 0 0 1-23.2 2.8 94 94 0 0 1-58.7-19.4 78 78 0 0 1-23.2-28.4m116-58.4a35 35 0 0 0-40.7-25.6 34 34 0 0 0-26.3 21.3c-3.7 8.6-3.3 17.7-3 26.6.5 13 5.6 23.7 16.7 31.3a35 35 0 0 0 44-4.2c13-14.4 13.2-31 9.3-49.4m-831 30.4v31.8h66.7v42h-120.4V61.84h53.7z"></path>
</svg>
