<?xml version="1.0" encoding="UTF-8"?> <svg xmlns="http://www.w3.org/2000/svg" width="760" height="240" viewBox="0 0 760 240" fill="none"><path d="M241.798 113.771V58.6023H257.017C270.021 58.6023 276.353 64.7037 276.353 75.1188C276.353 85.5338 269.993 91.6353 257.017 91.6353H252.361V113.799H241.798V113.771ZM252.361 82.8946H258.011C263.207 82.8946 265.819 80.2837 265.819 75.0904C265.819 69.8971 263.207 67.2862 258.011 67.2862H252.361V82.8662V82.8946Z" fill="#13132E"></path><path d="M308.495 113.771L299.324 91.2947H294.27V113.771H283.708V58.6023H299.012C311.703 58.6023 317.751 64.7037 317.751 75.1188C317.751 81.9865 315.309 86.9528 309.404 89.1947L319.796 113.799H308.467L308.495 113.771ZM294.27 82.5824H299.693C304.35 82.5824 307.189 80.2837 307.189 74.9485C307.189 69.6133 304.35 67.3146 299.693 67.3146H294.27V82.6108V82.5824Z" fill="#13132E"></path><path d="M326.837 113.771V58.6023H337.4V113.771H326.837Z" fill="#13132E"></path><path d="M348.076 113.771V58.6023H359.632L374.311 91.3231H374.453V58.6023H384.079V113.771H373.971L357.843 78.1553H357.701V113.771H348.076Z" fill="#13132E"></path><path d="M403.812 97.3964C403.812 103.498 406.481 105.201 410.684 105.201C414.886 105.201 417.555 103.526 417.555 97.3964V93.7355H428.117V96.0342C428.117 109.628 420.934 114.537 410.684 114.537C400.434 114.537 393.25 109.656 393.25 96.0342V76.3109C393.25 62.7174 400.434 57.8079 410.684 57.8079C420.934 57.8079 428.117 62.689 428.117 76.3109V76.4528H417.555V74.9203C417.555 68.8189 414.886 67.1161 410.684 67.1161C406.481 67.1161 403.812 68.7905 403.812 74.9203V97.3964Z" fill="#13132E"></path><path d="M437.288 113.771V58.6023H447.85V113.771H437.288Z" fill="#13132E"></path><path d="M458.554 113.771V58.6023H473.773C486.777 58.6023 493.109 64.7037 493.109 75.1188C493.109 85.5338 486.749 91.6353 473.773 91.6353H469.117V113.799H458.554V113.771ZM469.117 82.8946H474.767C479.963 82.8946 482.575 80.2837 482.575 75.0904C482.575 69.8971 479.963 67.2862 474.767 67.2862H469.117V82.8662V82.8946Z" fill="#13132E"></path><path d="M500.436 113.771V58.6023H510.998V104.463H527.977V113.799H500.436V113.771Z" fill="#13132E"></path><path d="M534.393 113.771V58.6023H563.298V67.9389H544.955V80.6243H558.953V89.9609H544.955V104.491H564.064V113.828H534.393V113.771Z" fill="#13132E"></path><path d="M595.951 73.9551C594.19 68.7618 591.891 66.5483 588.228 66.5483C584.565 66.5483 582.407 68.8469 582.407 72.5929C582.407 80.9363 605.945 81.5323 605.945 98.815C605.945 108.294 599.443 114.565 588.37 114.565C579.795 114.565 573.151 109.911 570.312 99.042L580.704 96.8285C581.924 103.469 585.758 105.853 588.881 105.853C592.544 105.853 595.383 103.412 595.383 99.2691C595.383 88.8824 571.845 88.7121 571.845 73.274C571.845 63.7955 577.495 57.8359 588.427 57.8359C597.825 57.8359 603.56 63.4266 605.406 71.2024L595.922 73.9551H595.951Z" fill="#13132E"></path><path d="M326.837 179.752V124.583H337.4V179.752H326.837Z" fill="#13132E"></path><path d="M348.076 179.752V124.583H359.632L374.311 157.304H374.453V124.583H384.079V179.752H373.971L357.843 144.136H357.701V179.752H348.076Z" fill="#13132E"></path><path d="M426.158 124.583V133.92H413.835V179.78H403.272V133.92H390.95V124.583H426.129H426.158Z" fill="#13132E"></path><path d="M432.405 179.752V124.583H461.309V133.92H442.967V146.605H456.965V155.942H442.967V170.472H462.076V179.808H432.405V179.752Z" fill="#13132E"></path><path d="M470.622 179.752V124.583H481.184V170.443H498.163V179.78H470.622V179.752Z" fill="#13132E"></path><path d="M504.581 179.752V124.583H515.143V170.443H532.122V179.78H504.581V179.752Z" fill="#13132E"></path><path d="M539.136 179.752V124.583H549.698V179.752H539.136Z" fill="#13132E"></path><path d="M586.155 175.183C583.315 178.39 580.277 180.546 576.302 180.546C566.052 180.546 558.869 175.665 558.869 162.043V142.32C558.869 128.727 566.052 123.817 576.302 123.817C587.092 123.817 592.884 130.004 593.282 142.547H582.719C582.719 135.452 580.107 133.154 576.302 133.154C572.1 133.154 569.431 134.828 569.431 140.958V163.434C569.431 169.535 572.1 171.238 576.302 171.238C580.277 171.238 582.719 168.344 582.719 163.604V160.227H575.308V151.515H593.282V179.78H587.773L586.155 175.183Z" fill="#13132E"></path><path d="M602.282 179.752V124.583H631.187V133.92H612.845V146.605H626.843V155.942H612.845V170.472H631.953V179.808H602.282V179.752Z" fill="#13132E"></path><path d="M641.125 179.752V124.583H652.681L667.361 157.304H667.503V124.583H677.128V179.752H667.02L650.892 144.136H650.75V179.752H641.125Z" fill="#13132E"></path><path d="M696.861 163.406C696.861 169.507 699.53 171.21 703.732 171.21C707.935 171.21 710.604 169.535 710.604 163.406V159.745H721.166V162.043C721.166 175.637 713.982 180.546 703.732 180.546C693.482 180.546 686.299 175.665 686.299 162.043V142.32C686.299 128.727 693.482 123.817 703.732 123.817C713.982 123.817 721.166 128.698 721.166 142.32V142.462H710.604V140.93C710.604 134.828 707.935 133.125 703.732 133.125C699.53 133.125 696.861 134.8 696.861 140.93V163.406Z" fill="#13132E"></path><path d="M729.713 179.752V124.583H758.617V133.92H740.275V146.605H754.273V155.942H740.275V170.472H759.384V179.808H729.713V179.752Z" fill="#13132E"></path><path d="M260.141 138.461C263.122 138.461 265.819 139.142 268.176 140.532C270.561 141.923 272.435 143.938 273.855 146.577C275.275 149.216 275.984 152.423 275.984 156.226C275.984 160.426 275.189 164.37 273.571 168.06C271.981 171.749 269.681 174.7 266.728 176.886C263.775 179.099 260.198 180.206 256.052 180.206C252.475 180.206 249.522 179.383 247.165 177.765C244.808 176.148 243.076 173.963 241.912 171.21C240.748 168.457 240.18 165.449 240.18 162.129C240.18 157.872 240.975 153.927 242.594 150.323C244.212 146.719 246.484 143.853 249.465 141.696C252.446 139.539 255.995 138.461 260.112 138.461H260.141ZM258.948 142.944C257.131 142.888 255.541 143.626 254.15 145.158C252.759 146.69 251.708 148.705 250.941 151.288C250.203 153.842 249.834 156.68 249.834 159.773C249.777 161.476 249.834 163.264 250.061 165.08C250.26 166.925 250.657 168.627 251.225 170.245C251.793 171.834 252.56 173.168 253.497 174.161C254.434 175.154 255.655 175.694 257.103 175.694C258.75 175.75 260.169 175.211 261.305 174.104C262.441 172.998 263.378 171.55 264.059 169.791C264.741 168.031 265.28 166.158 265.621 164.2C265.961 162.214 266.16 160.369 266.217 158.61C266.274 157.077 266.217 155.374 266.018 153.558C265.82 151.742 265.479 150.039 264.968 148.45C264.457 146.861 263.718 145.555 262.725 144.562C261.731 143.569 260.482 143.058 258.92 143.001L258.948 142.944Z" fill="#13132E"></path><path d="M305.031 118.538C307.274 118.538 309.006 119.021 310.227 120.014C311.448 121.007 312.073 122.284 312.073 123.902C312.073 124.384 311.931 124.98 311.675 125.662C311.391 126.343 310.966 126.967 310.312 127.449C309.659 127.96 308.779 128.216 307.672 128.216C306.565 128.159 305.628 127.705 304.861 126.825C304.094 125.945 303.81 124.867 303.981 123.59C303.924 123.476 303.754 123.42 303.47 123.391C303.186 123.391 302.873 123.363 302.561 123.363C301.539 123.42 300.715 123.902 300.034 124.839C299.353 125.775 298.813 127.024 298.387 128.613C297.961 130.174 297.649 131.905 297.422 133.778C297.195 135.651 296.996 137.524 296.797 139.369H307.53L307.047 144.079L296.57 144.25C296.4 146.236 296.258 148.478 296.087 151.004C295.917 153.53 295.747 156.169 295.519 158.893C295.292 161.618 295.094 164.257 294.895 166.811C294.668 169.365 294.469 171.664 294.27 173.679C293.958 176.602 293.532 179.411 293.021 182.107C292.51 184.803 291.857 187.3 291.062 189.599C290.267 191.898 289.216 193.913 287.938 195.644C286.661 197.375 285.099 198.709 283.253 199.645C281.408 200.582 279.25 201.036 276.723 201.036C274.423 201.036 272.663 200.553 271.442 199.645C270.221 198.709 269.596 197.432 269.596 195.842C269.596 195.247 269.738 194.622 269.994 193.913C270.278 193.232 270.732 192.607 271.385 192.068C272.066 191.529 272.918 191.302 273.997 191.359C275.105 191.415 276.042 191.869 276.751 192.721C277.461 193.572 277.745 194.651 277.603 195.928C278.029 196.155 278.54 196.24 279.108 196.24C280.329 196.24 281.323 195.587 282.033 194.282C282.742 192.976 283.31 191.217 283.679 189.032C284.048 186.846 284.361 184.377 284.588 181.681C284.815 178.957 285.071 176.204 285.355 173.452C285.525 171.437 285.695 169.138 285.866 166.612C286.036 164.087 286.235 161.476 286.434 158.78C286.604 156.084 286.831 153.473 287.03 150.975C287.229 148.478 287.427 146.265 287.598 144.335L280.954 144.42L281.578 139.369H288.137C288.677 135.31 289.557 131.735 290.806 128.641C292.055 125.548 293.844 123.107 296.144 121.291C298.444 119.475 301.397 118.567 305.031 118.567V118.538Z" fill="#13132E"></path><path d="M209.004 62.0362C209.004 61.6673 208.948 61.3267 208.862 60.9578C208.806 60.7591 208.692 60.5605 208.607 60.3618C208.55 60.2199 208.522 60.1064 208.437 59.9645C208.266 59.6524 208.039 59.3969 207.812 59.1415C207.755 59.0848 207.67 59.028 207.613 58.9713C207.414 58.801 207.216 58.6307 207.017 58.5172C207.017 58.5172 206.988 58.5172 206.96 58.4888L106.532 0.539198C106.22 0.368925 105.908 0.227031 105.567 0.141894C105.482 0.141894 105.397 0.141894 105.283 0.0851366C105.027 0.0283789 104.8 0 104.545 0C104.545 0 104.516 0 104.488 0C104.374 0 104.261 0.0283789 104.147 0.0567577C103.949 0.0567577 103.721 0.0851366 103.523 0.141894C103.381 0.170273 103.239 0.227031 103.097 0.283789C102.955 0.340546 102.813 0.368925 102.699 0.425683L102.472 0.539198L2.01594 58.5172C2.01594 58.5172 1.93076 58.6023 1.87397 58.6307C1.67522 58.7726 1.47646 58.9145 1.27771 59.0848C1.22092 59.1415 1.13574 59.1983 1.07895 59.2551C0.851804 59.4821 0.65305 59.7375 0.511083 60.0213C0.340722 60.3051 0.227148 60.6172 0.141967 60.901C0.141967 60.9862 0.113574 61.0713 0.0851804 61.1564C0.0283935 61.4118 0 61.6389 0 61.8943C0 61.951 0 62.0078 0 62.0646V177.964C0 177.964 0 178.077 0 178.134C0 178.39 0.0283935 178.617 0.0851804 178.872C0.0851804 178.957 0.113574 179.042 0.141967 179.127C0.227148 179.44 0.340722 179.723 0.511083 180.007C0.511083 180.007 0.511083 180.007 0.511083 180.035C0.681444 180.319 0.880198 180.546 1.07895 180.773C1.13574 180.83 1.22092 180.887 1.27771 180.972C1.44807 181.142 1.64682 181.284 1.84558 181.426C1.90236 181.454 1.93076 181.511 1.98754 181.54L102.415 239.489C102.699 239.659 103.012 239.773 103.324 239.858C103.409 239.858 103.494 239.886 103.579 239.915C103.807 239.972 104.062 240 104.289 240C104.374 240 104.46 240 104.573 240C104.886 240 105.198 239.972 105.482 239.886C105.482 239.886 105.482 239.886 105.51 239.886C105.823 239.801 106.106 239.688 106.39 239.518C106.419 239.518 106.447 239.518 106.504 239.461L206.932 181.511C207.244 181.341 207.5 181.114 207.755 180.887C208.039 180.603 208.266 180.263 208.465 179.894C208.522 179.78 208.579 179.667 208.607 179.525C208.72 179.269 208.777 179.014 208.834 178.73C208.834 178.588 208.891 178.446 208.891 178.304C208.891 178.191 208.919 178.106 208.919 177.992V62.0362H209.004ZM12.2376 177.935L104.488 124.697L149.123 150.465L102.983 230.323L12.2376 177.935ZM8.14893 69.1025L96.3107 119.986L8.14893 170.869V69.1025ZM153.211 143.398L106.532 116.467L59.8535 89.5353L104.488 12.2597L166.727 120.014L153.211 143.427V143.398ZM171.44 128.159L193.757 166.783L160.281 147.457L171.44 128.131V128.159ZM145.034 66.1227H197.846L171.44 111.841L145.034 66.1227ZM140.321 57.9496L115.647 15.2394L189.697 57.9496H140.349H140.321ZM52.7835 85.4487L12.2376 62.0362L93.3294 15.2394L52.7835 85.4487ZM156.193 154.551L196.738 177.964L115.647 224.761L156.193 154.551ZM176.153 119.986L200.827 77.2756V162.724L176.153 120.014V119.986Z" fill="#13132E"></path></svg> 