<svg width="629" height="481" viewBox="0 0 629 481" fill="none" xmlns="http://www.w3.org/2000/svg">
<path opacity="0.05" d="M619.579 92.2668C613.547 67.9622 612.786 41.4848 617.146 13.34C619.781 -2.77882 619.072 -19.605 615.219 -35.9765C604.118 -84.0804 565.898 -122.382 517.54 -133.448C501.117 -137.288 484.44 -137.793 468.219 -135.368C439.934 -131.022 413.322 -131.982 388.941 -137.793C353.154 -146.939 316.15 -149.112 278.944 -145.019C130.727 -128.647 13.9892 -9.29715 1.16467 138.905C-6.7936 231.778 26.3067 322.478 92.0512 388.166C151.51 447.336 231.296 480.079 314.731 480.079C323.652 480.079 333.081 479.827 342.306 478.867C490.726 466.133 610.404 349.663 626.878 201.915C630.984 164.877 628.551 127.789 619.883 92.2163H619.579V92.2668ZM367.904 -78.0675C371.047 -72.5092 371.047 -66.0415 368.411 -60.2812C358.73 -38.8568 354.877 -15.3101 357.513 8.28709C364.052 68.6696 412.866 117.026 473.085 123.544C496.758 126.172 520.48 122.332 541.719 112.731C547.498 110.104 554.037 110.306 559.613 113.236C565.189 116.117 568.534 121.422 569.751 127.435C573.4 150.527 573.603 174.579 570.714 197.924C556.47 316.566 459.501 411.107 340.583 423.133C262.723 430.813 186.587 403.881 131.437 349.006C76.3374 294.131 49.2184 218.135 56.7205 140.623C68.5819 21.5258 163.321 -75.1873 282.543 -89.6387C293.188 -90.8514 303.833 -91.5588 314.224 -91.5588C327.302 -91.5588 340.583 -90.5987 353.61 -88.426C359.642 -87.4659 364.964 -83.8783 367.854 -78.3201V-78.0675H367.904ZM544.862 42.6975C530.618 59.3217 509.582 68.9223 487.785 68.9223C446.423 68.9223 412.613 35.2192 412.613 -6.16429C412.613 -28.0435 422.294 -48.5079 438.971 -62.9592C452.759 -74.7326 469.892 -80.9982 487.785 -80.9982H490.421C529.807 -79.5328 561.742 -47.8004 563.212 -8.58968V-6.16429C563.212 11.622 556.673 28.9536 545.065 42.6975H544.862Z" fill="#0033CC"/>
</svg>
