<svg width="32" height="30" viewBox="0 0 32 30" fill="none" xmlns="http://www.w3.org/2000/svg">
<path d="M31.3776 11.3937C31.0737 10.2363 31.0354 8.97547 31.255 7.63524C31.3878 6.86768 31.3521 6.06643 31.158 5.28683C30.5986 2.99617 28.6726 1.1723 26.2359 0.645353C25.4083 0.462485 24.5679 0.438424 23.7506 0.553919C22.3253 0.760849 20.9843 0.715131 19.7557 0.438423C17.9523 0.00290838 16.0877 -0.100556 14.2129 0.0943423C6.74416 0.873937 0.861659 6.55728 0.215427 13.6145C-0.185595 18.0371 1.48235 22.3561 4.79525 25.4841C7.79142 28.3017 11.8119 29.8609 16.0162 29.8609C16.4657 29.8609 16.9408 29.8489 17.4057 29.8032C24.8847 29.1968 30.9153 23.6506 31.7454 16.615C31.9523 14.8513 31.8297 13.0852 31.393 11.3913H31.3776V11.3937ZM18.6956 3.2825C18.854 3.54718 18.854 3.85517 18.7212 4.12947C18.2333 5.14968 18.0392 6.27095 18.172 7.39462C18.5015 10.27 20.9613 12.5727 23.9958 12.8831C25.1886 13.0082 26.384 12.8253 27.4543 12.3682C27.7454 12.243 28.0749 12.2527 28.3559 12.3922C28.6369 12.5294 28.8055 12.782 28.8668 13.0683C29.0507 14.168 29.0609 15.3133 28.9153 16.4249C28.1975 22.0746 23.3112 26.5765 17.3189 27.1492C13.3955 27.5149 9.55898 26.2324 6.77992 23.6193C4.00342 21.0063 2.63688 17.3874 3.01491 13.6964C3.61262 8.02504 8.38656 3.41965 14.3942 2.73149C14.9306 2.67374 15.467 2.64006 15.9907 2.64006C16.6497 2.64006 17.3189 2.68577 17.9753 2.78924C18.2793 2.83496 18.5475 3.00579 18.6931 3.27047V3.2825H18.6956ZM27.6126 9.03322C26.8949 9.82484 25.8348 10.282 24.7365 10.282C22.6522 10.282 20.9485 8.67711 20.9485 6.70646C20.9485 5.6646 21.4364 4.6901 22.2767 4.00194C22.9715 3.44131 23.8348 3.14294 24.7365 3.14294H24.8693C26.854 3.21272 28.4632 4.72379 28.5373 6.59097V6.70646C28.5373 7.55343 28.2078 8.37874 27.6228 9.03322H27.6126Z" fill="white"/>
</svg>
