<svg width="340" height="64" viewBox="0 0 340 64" fill="none" xmlns="http://www.w3.org/2000/svg">
<path d="M61.2926 19.6486C61.2304 19.4618 61.1681 19.1972 61.1059 18.8704C61.0748 18.5435 61.0437 18.2167 60.997 17.8899C60.9814 17.563 60.9503 17.1272 60.8881 16.5669C60.857 16.0066 60.8259 15.5085 60.7792 15.1039C60.6548 13.9988 60.3747 13.1739 59.9236 12.6292C59.488 12.0689 58.8346 11.6486 57.9634 11.3996V11.3218C60.2192 10.6992 61.3393 9.22065 61.3393 6.8549C61.3393 5.32962 60.7948 4.08449 59.6902 3.13508C58.6013 2.18567 57.1856 1.71875 55.4121 1.71875H46.9492V20.1622H50.6829V12.7537H53.7009C55.9566 12.7537 57.1545 13.8121 57.31 15.8976C57.3256 16.1 57.3412 16.3957 57.3567 16.7537C57.3878 17.0961 57.4189 17.3762 57.4345 17.6097C57.45 17.812 57.4656 18.0611 57.4812 18.3568C57.5123 18.6369 57.5434 18.8704 57.5589 19.0572C57.5901 19.2284 57.6212 19.3996 57.6678 19.5708C57.699 19.742 57.7456 19.8821 57.7923 19.9754C57.839 20.0688 57.9012 20.1155 57.979 20.1622H61.5726V19.9754C61.4482 19.9287 61.3548 19.8042 61.2615 19.633M56.9367 9.17395C56.4233 9.64088 55.6766 9.87434 54.6965 9.87434H50.7295V4.73819H54.8054C55.7699 4.73819 56.5011 4.97165 56.9989 5.45413C57.4967 5.93662 57.7456 6.55919 57.7456 7.33739C57.7456 8.1156 57.4812 8.70703 56.9522 9.17395" fill="#13132E"/>
<path d="M66.4899 12.0533H75.1084V8.98712H66.4899V4.86264H76.3062V1.70312H62.7407V20.1621H76.384V17.0338H66.4899V12.0533Z" fill="#13132E"/>
<path d="M3.73314 12.0533H12.3516V8.98712H3.73314V4.86264H13.565V1.70312H-0.000488281V20.1621H13.6428V17.0338H3.73314V12.0533Z" fill="#13132E"/>
<path d="M26.1825 11.384C26.1825 12.24 26.2136 13.3139 26.2914 14.5902H26.2447L26.0425 14.17C25.918 13.8743 25.7469 13.5163 25.5291 13.0805C25.3268 12.6447 25.1402 12.2867 24.969 11.991L18.8086 1.70312H15.0127V20.1466H18.6997V10.6214C18.6997 9.76533 18.6685 8.69141 18.5908 7.39959H18.6374L18.8397 7.80425C18.9641 8.09997 19.1352 8.45794 19.353 8.89374C19.5708 9.29841 19.7731 9.65638 19.9442 9.9521L26.2447 20.1466H29.8539V1.70312H26.1669V11.384H26.1825Z" fill="#13132E"/>
<path d="M31.0039 4.8627H36.5577V20.1622H40.2913V4.8627H45.8451V1.71875H31.0039V4.8627Z" fill="#13132E"/>
<path d="M30.0387 40.2804C29.9764 40.0937 29.9142 39.8291 29.852 39.5022C29.8209 39.1754 29.7898 38.8485 29.7431 38.5217C29.7275 38.1948 29.6964 37.759 29.6342 37.1987C29.6031 36.6384 29.572 36.1404 29.5253 35.7357C29.4008 34.6307 29.1208 33.8058 28.6697 33.261C28.2341 32.7007 27.5807 32.2805 26.7095 32.0315V31.9536C28.9653 31.3311 30.0853 29.8525 30.0853 27.4867C30.0853 25.9615 29.5409 24.7163 28.4363 23.7669C27.3474 22.8175 25.9317 22.3506 24.1582 22.3506H15.6953V40.794H19.4289V33.3855H22.447C24.7027 33.3855 25.9006 34.4439 26.0561 36.5295C26.0717 36.7318 26.0873 37.0275 26.1028 37.3855C26.1339 37.7279 26.165 38.0081 26.1806 38.2415C26.1961 38.4439 26.2117 38.6929 26.2273 38.9886C26.2584 39.2688 26.2895 39.5022 26.305 39.689C26.3362 39.8602 26.3673 40.0314 26.4139 40.2026C26.4451 40.3738 26.4917 40.5139 26.5384 40.6073C26.5851 40.7007 26.6473 40.7474 26.7251 40.794H30.3187V40.6073C30.1942 40.5606 30.1009 40.4361 30.0076 40.2649M25.6672 29.8058C25.1538 30.2727 24.4071 30.5062 23.427 30.5062H19.4601V25.37H23.5359C24.5005 25.37 25.2316 25.6035 25.7294 26.086C26.2273 26.5685 26.4762 27.191 26.4762 27.9692C26.4762 28.7474 26.2117 29.3389 25.6828 29.8058" fill="#13132E"/>
<path d="M122.525 31.891C122.167 31.533 121.654 31.2062 120.969 30.9105C120.316 30.5992 119.709 30.3657 119.133 30.2101C118.573 30.0389 117.842 29.8521 116.94 29.6654C115.447 29.3385 114.389 29.0117 113.798 28.6848C113.206 28.358 112.926 27.8444 112.926 27.144C112.926 26.4903 113.222 25.9611 113.829 25.572C114.435 25.1829 115.244 24.9806 116.255 24.9806C117.267 24.9806 118.045 25.214 118.682 25.6965C119.336 26.179 119.709 26.8638 119.818 27.7665H123.412C123.272 25.93 122.572 24.4981 121.327 23.502C120.067 22.5059 118.402 22.0078 116.302 22.0078C114.202 22.0078 112.475 22.4903 111.168 23.4553C109.877 24.4047 109.239 25.7588 109.239 27.5331C109.239 28.2801 109.364 28.9338 109.597 29.5253C109.831 30.0856 110.126 30.5525 110.468 30.9105C110.826 31.2529 111.308 31.5797 111.915 31.8599C112.537 32.1556 113.097 32.3735 113.595 32.5136C114.109 32.6537 114.762 32.8093 115.555 33.0116C116.209 33.1673 116.66 33.2762 116.893 33.3385C117.127 33.3852 117.484 33.4786 117.951 33.6186C118.418 33.7431 118.729 33.8521 118.9 33.9766C119.071 34.0856 119.274 34.2256 119.522 34.4124C119.756 34.5836 119.911 34.7859 119.989 35.035C120.067 35.2529 120.114 35.5175 120.114 35.8132C120.114 36.6225 119.771 37.2295 119.102 37.6186C118.433 37.9921 117.578 38.1945 116.52 38.1945C115.198 38.1945 114.202 37.961 113.533 37.4785C112.88 36.996 112.491 36.2023 112.366 35.1128H108.71C108.773 37.0739 109.504 38.5836 110.873 39.6575C112.242 40.7003 114.186 41.2295 116.676 41.2295C118.807 41.2295 120.534 40.7159 121.856 39.6886C123.178 38.6614 123.847 37.2295 123.847 35.4085C123.847 34.6303 123.723 33.961 123.458 33.3696C123.225 32.7626 122.914 32.2801 122.525 31.9221" fill="#13132E"/>
<path d="M8.1046 22.3506H-0.000488281V40.794H3.87315V34.117H8.41573C10.3292 34.117 11.8227 33.5879 12.9272 32.5139C14.0317 31.44 14.5762 30.0393 14.5762 28.2805C14.5762 26.5218 14.0317 25.2144 12.9272 24.0782C11.8071 22.9265 10.2048 22.3506 8.1046 22.3506ZM9.95586 30.335C9.44248 30.8175 8.69576 31.0509 7.73124 31.0509H3.85759V25.5879H7.77791C8.71131 25.5879 9.42692 25.8214 9.9403 26.3039C10.4537 26.7708 10.7181 27.4245 10.7181 28.2961C10.7181 29.1677 10.4537 29.8369 9.9403 30.335" fill="#13132E"/>
<path d="M88.5793 34.8019C88.5793 35.798 88.2837 36.6073 87.7081 37.1987C87.1169 37.8057 86.2613 38.1015 85.1101 38.1015C82.8077 38.1015 81.6565 37.012 81.6565 34.8486V22.3506H77.9229V34.8641C77.9229 36.8719 78.5451 38.4283 79.7741 39.5022C81.0187 40.5606 82.8232 41.1053 85.1879 41.1053C87.5525 41.1053 89.2949 40.5606 90.4927 39.4867C91.7217 38.3972 92.3284 36.8563 92.3284 34.8641V22.3506H88.5948V34.8174L88.5793 34.8019Z" fill="#13132E"/>
<path d="M35.2185 32.6851H43.837V29.619H35.2185V25.4945H45.0504V22.335H31.4849V40.794H45.1282V37.6656H35.2185V32.6851Z" fill="#13132E"/>
<path d="M66.6296 32.6851H75.2325V29.619H66.6296V25.4945H76.4459V22.335H62.8804V40.794H76.5237V37.6656H66.6296V32.6851Z" fill="#13132E"/>
<path d="M57.667 32.0158C57.667 32.8719 57.6981 33.9458 57.7759 35.222H57.7292L57.527 34.8018C57.4025 34.5061 57.2314 34.1481 57.0136 33.7123C56.8114 33.2765 56.6247 32.9185 56.4535 32.6228L50.3242 22.335H46.5283V40.7784H50.2153V31.2532C50.2153 30.3972 50.1842 29.3232 50.1064 28.0314H50.1531L50.3553 28.4361C50.4797 28.7318 50.6509 29.0898 50.8687 29.5256C51.0865 29.9302 51.2887 30.2882 51.4598 30.5839L57.7448 40.7784H61.3539V22.335H57.667V32.0158Z" fill="#13132E"/>
<path d="M108.01 40.2804C107.948 40.0937 107.886 39.8291 107.824 39.5022C107.793 39.1754 107.761 38.8485 107.715 38.5217C107.699 38.1948 107.668 37.759 107.606 37.1987C107.575 36.6384 107.544 36.1404 107.497 35.7357C107.373 34.6307 107.092 33.8058 106.641 33.261C106.206 32.7007 105.552 32.2805 104.681 32.0315V31.9536C106.937 31.3311 108.057 29.8525 108.057 27.4867C108.057 25.9615 107.513 24.7163 106.408 23.7669C105.319 22.8175 103.903 22.3506 102.13 22.3506H93.667V40.794H97.4006V33.3855H100.419C102.674 33.3855 103.872 34.4439 104.028 36.5295C104.043 36.7318 104.059 37.0275 104.074 37.3855C104.106 37.7279 104.137 38.0081 104.152 38.2415C104.168 38.4439 104.183 38.6929 104.199 38.9886C104.23 39.2688 104.261 39.5022 104.277 39.689C104.308 39.8602 104.339 40.0314 104.386 40.2026C104.417 40.3738 104.463 40.5139 104.51 40.6073C104.557 40.7007 104.619 40.7474 104.697 40.794H108.275V40.6073C108.15 40.5606 108.057 40.4361 107.964 40.2649M103.639 29.8058C103.126 30.2727 102.379 30.5062 101.399 30.5062H97.4317V25.37H101.508C102.472 25.37 103.203 25.6035 103.701 26.086C104.199 26.5685 104.448 27.191 104.448 27.9692C104.448 28.7474 104.183 29.3389 103.654 29.8058" fill="#13132E"/>
<path d="M34.1627 61.3459C34.1005 61.1591 34.0382 60.8945 33.976 60.5677C33.9449 60.2408 33.9138 59.914 33.8671 59.5871C33.8516 59.2603 33.8204 58.8245 33.7582 58.2642C33.7271 57.7039 33.696 57.2058 33.6493 56.8011C33.5249 55.6961 33.2448 54.8712 32.7937 54.3265C32.3581 53.7661 31.7047 53.3459 30.8335 53.0969V53.0191C33.0893 52.3965 34.2094 50.9179 34.2094 48.5522C34.2094 47.0269 33.6649 45.7818 32.5604 44.8323C31.4714 43.8829 30.0557 43.416 28.2822 43.416H19.8193V61.8595H23.553V54.451H26.571C28.8267 54.451 30.0246 55.5093 30.1802 57.5949C30.1957 57.7972 30.2113 58.093 30.2268 58.4509C30.2579 58.7933 30.289 59.0735 30.3046 59.307C30.3202 59.5093 30.3357 59.7583 30.3513 60.054C30.3824 60.3342 30.4135 60.5677 30.4291 60.7544C30.4602 60.9256 30.4913 61.0968 30.538 61.268C30.5691 61.4392 30.6158 61.5793 30.6624 61.6727C30.7091 61.7661 30.7713 61.8128 30.8491 61.8595H34.4272V61.6727C34.3027 61.626 34.2094 61.5015 34.116 61.3303M29.8068 50.8712C29.2934 51.3381 28.5467 51.5716 27.5666 51.5716H23.5996V46.4355H27.6755C28.64 46.4355 29.3712 46.6689 29.869 47.1514C30.3668 47.6339 30.6158 48.2565 30.6158 49.0347C30.6158 49.8129 30.3513 50.4043 29.8223 50.8712" fill="#13132E"/>
<path d="M48.6772 52.9574C48.3194 52.5994 47.8061 52.2726 47.1216 51.9769C46.4682 51.6656 45.8614 51.4321 45.2858 51.2765C44.7258 51.1053 43.9946 50.9185 43.0923 50.7318C41.5989 50.4049 40.541 50.0781 39.9499 49.7512C39.3587 49.4244 39.0787 48.9108 39.0787 48.2104C39.0787 47.5567 39.3743 47.0275 39.981 46.6384C40.5877 46.2493 41.3967 46.047 42.4078 46.047C43.419 46.047 44.1969 46.2804 44.8347 46.7629C45.4881 47.2454 45.8614 47.9302 45.9703 48.8329H49.564C49.4239 46.9964 48.7239 45.5645 47.4794 44.5684C46.2193 43.5723 44.5547 43.0742 42.4545 43.0742C40.3543 43.0742 38.6275 43.5567 37.3208 44.5217C36.0296 45.4711 35.3917 46.8252 35.3917 48.5995C35.3917 49.3466 35.5162 50.0002 35.7495 50.5917C35.9829 51.152 36.2785 51.6189 36.6207 51.9769C36.9785 52.3193 37.4608 52.6461 38.0675 52.9263C38.6898 53.222 39.2498 53.4399 39.7476 53.58C40.261 53.7201 40.9144 53.8757 41.7078 54.078C42.3612 54.2337 42.8123 54.3426 43.0457 54.4049C43.279 54.4516 43.6368 54.545 44.1035 54.685C44.5702 54.8096 44.8814 54.9185 45.0525 55.043C45.2236 55.152 45.4259 55.292 45.6748 55.4788C45.9081 55.65 46.0637 55.8523 46.1415 56.1014C46.2193 56.3193 46.2659 56.5839 46.2659 56.8796C46.2659 57.6889 45.9237 58.2959 45.2547 58.685C44.5858 59.0586 43.7302 59.2609 42.6723 59.2609C41.35 59.2609 40.3544 59.0274 39.6854 58.5449C39.032 58.0624 38.6431 57.2687 38.5186 56.1792H34.8628C34.925 58.1403 35.6562 59.65 37.0252 60.7239C38.3942 61.7667 40.3388 62.2959 42.8279 62.2959C44.9591 62.2959 46.686 61.7823 48.0083 60.755C49.3306 59.7278 49.9995 58.2959 49.9995 56.4749C49.9995 55.6967 49.8751 55.0274 49.6106 54.436C49.3773 53.829 49.0662 53.3465 48.6772 52.9886" fill="#13132E"/>
<path d="M49.6562 43.416V46.56H55.1945V61.8595H58.9437V46.56H64.4819V43.416H49.6562Z" fill="#13132E"/>
<path d="M18.3098 43.416H14.5762V61.8595H18.3098V43.416Z" fill="#13132E"/>
<path d="M-0.000488281 61.8595H3.7487V54.2175H11.7604V51.0269H3.7487V46.5755H13.2072V43.416H-0.000488281V61.8595Z" fill="#13132E"/>
</svg>
