<svg width="340" height="64" viewBox="0 0 340 64" fill="none" xmlns="http://www.w3.org/2000/svg">
<path d="M48 8.03962V56H0V8.03962H48ZM0.192 8.10676C0.192 8.09574 0.187617 8.08517 0.179816 8.07737C0.172014 8.06958 0.161433 8.0652 0.1504 8.0652H0.1088C0.097767 8.0652 0.0871859 8.06958 0.0793844 8.07737C0.0715828 8.08517 0.0672 8.09574 0.0672 8.10676V55.466C0.0672 55.4771 0.0715828 55.4876 0.0793844 55.4954C0.0871859 55.5032 0.097767 55.5076 0.1088 55.5076H0.1504C0.161433 55.5076 0.172014 55.5032 0.179816 55.4954C0.187617 55.4876 0.192 55.4771 0.192 55.466V8.10676ZM0.4928 8.11955C0.4768 8.11422 0.461333 8.10996 0.4464 8.10676C0.441626 8.10569 0.436458 8.10651 0.432032 8.10905C0.427606 8.11159 0.424285 8.11564 0.4228 8.1203C0.421315 8.12497 0.421787 8.12987 0.424112 8.13392C0.426438 8.13798 0.430426 8.14086 0.4352 8.14193C0.453333 8.14513 0.472 8.1446 0.4912 8.14034C0.493355 8.13968 0.495262 8.13839 0.496671 8.13663C0.498081 8.13487 0.498927 8.13273 0.4991 8.13049C0.499273 8.12824 0.498764 8.126 0.49764 8.12405C0.496516 8.1221 0.494829 8.12053 0.4928 8.11955ZM47.7888 8.14353C47.8123 8.1446 47.8352 8.14513 47.8576 8.14513C47.8725 8.14503 47.887 8.1402 47.899 8.13132C47.911 8.12245 47.9199 8.11 47.9243 8.09577C47.9288 8.08154 47.9286 8.06627 47.9238 8.05215C47.919 8.03803 47.9098 8.02581 47.8976 8.01724C47.8549 7.98633 47.8069 7.99699 47.7536 8.04921C47.7456 8.05653 47.7401 8.06604 47.7375 8.07655C47.735 8.08706 47.7357 8.09807 47.7395 8.10819C47.7432 8.11831 47.75 8.12708 47.7587 8.13338C47.7675 8.13967 47.778 8.14321 47.7888 8.14353ZM1.192 8.10516C1.16 8.09877 1.11253 8.1073 1.0496 8.13074C1.04789 8.13149 1.04643 8.13272 1.04541 8.13428C1.04438 8.13584 1.04384 8.13767 1.04384 8.13954C1.04384 8.1414 1.04438 8.14323 1.04541 8.14479C1.04643 8.14635 1.04789 8.14758 1.0496 8.14833C1.0976 8.16751 1.14507 8.17337 1.192 8.16591C1.20006 8.16591 1.20779 8.16271 1.2135 8.15702C1.2192 8.15132 1.2224 8.1436 1.2224 8.13554C1.2224 8.12748 1.2192 8.11976 1.2135 8.11406C1.20779 8.10836 1.20006 8.10516 1.192 8.10516ZM1.8304 8.10516C1.792 8.0977 1.74453 8.10303 1.688 8.12115C1.68421 8.12261 1.68088 8.12522 1.67852 8.1286C1.67615 8.13197 1.67488 8.13593 1.67488 8.13988C1.67488 8.14383 1.67615 8.14756 1.67852 8.15052C1.68088 8.15349 1.68421 8.15552 1.688 8.15632C1.75733 8.17337 1.8048 8.17977 1.8304 8.17551C1.83974 8.17551 1.84869 8.1718 1.85529 8.1652C1.86189 8.15861 1.8656 8.14966 1.8656 8.14034C1.8656 8.13101 1.86189 8.12206 1.85529 8.11547C1.84869 8.10887 1.83974 8.10516 1.8304 8.10516ZM2.1296 8.10037C2.09867 8.09397 2.05813 8.09984 2.008 8.11795C2.00521 8.11911 2.00281 8.12102 2.00107 8.12348C1.99932 8.12593 1.99831 8.12883 1.99814 8.13184C1.99797 8.13485 1.99866 8.13784 2.00012 8.14047C2.00158 8.14311 2.00376 8.14528 2.0064 8.14673C2.04907 8.17018 2.0896 8.1787 2.128 8.17231C2.1363 8.17075 2.14381 8.16639 2.14927 8.15996C2.15473 8.15353 2.15782 8.14542 2.158 8.13699C2.15819 8.12855 2.15547 8.12031 2.1503 8.11365C2.14513 8.10698 2.13782 8.10229 2.1296 8.10037ZM2.5152 8.12435C2.50773 8.12328 2.49973 8.12328 2.4912 8.12435C2.48985 8.125 2.48871 8.12603 2.48791 8.1273C2.48711 8.12857 2.48669 8.13004 2.48669 8.13154C2.48669 8.13304 2.48711 8.13452 2.48791 8.13579C2.48871 8.13706 2.48985 8.13808 2.4912 8.13874C2.49867 8.14087 2.50613 8.14193 2.5136 8.14193C2.51539 8.14136 2.51698 8.14027 2.51816 8.1388C2.51933 8.13733 2.52005 8.13555 2.52022 8.13367C2.52039 8.1318 2.52001 8.12991 2.51912 8.12825C2.51822 8.1266 2.51686 8.12524 2.5152 8.12435ZM2.8352 8.12275C2.82667 8.12168 2.81867 8.12222 2.8112 8.12435C2.80985 8.125 2.80871 8.12603 2.80791 8.1273C2.80711 8.12857 2.80669 8.13004 2.80669 8.13154C2.80669 8.13304 2.80711 8.13452 2.80791 8.13579C2.80871 8.13706 2.80985 8.13808 2.8112 8.13874C2.81867 8.14087 2.82613 8.14193 2.8336 8.14193C2.83486 8.14204 2.83613 8.14189 2.83733 8.14151C2.83854 8.14112 2.83966 8.14051 2.84062 8.13969C2.84159 8.13887 2.84238 8.13787 2.84296 8.13675C2.84354 8.13563 2.84389 8.1344 2.844 8.13314C2.84411 8.13188 2.84396 8.13061 2.84358 8.12941C2.84319 8.12821 2.84257 8.12709 2.84175 8.12612C2.84094 8.12516 2.83994 8.12436 2.83881 8.12379C2.83769 8.12321 2.83646 8.12285 2.8352 8.12275ZM2.9648 8.13234C2.9648 8.13658 3.14281 8.14065 3.45967 8.14365C3.77653 8.14664 4.20629 8.14833 4.6544 8.14833C4.87628 8.14833 5.09599 8.14792 5.30098 8.14711C5.50597 8.14631 5.69223 8.14513 5.84913 8.14365C6.00602 8.14216 6.13048 8.1404 6.21539 8.13846C6.3003 8.13652 6.344 8.13444 6.344 8.13234C6.344 8.1281 6.16599 8.12404 5.84913 8.12104C5.53227 8.11804 5.10251 8.11636 4.6544 8.11636C4.43252 8.11636 4.21281 8.11677 4.00782 8.11757C3.80283 8.11838 3.61657 8.11955 3.45967 8.12104C3.30278 8.12252 3.17832 8.12428 3.09341 8.12622C3.0085 8.12816 2.9648 8.13024 2.9648 8.13234ZM7.6912 8.13074C7.6912 8.12693 7.6263 8.12327 7.51078 8.12057C7.39526 8.11787 7.23857 8.11636 7.0752 8.11636C6.91183 8.11636 6.75514 8.11787 6.63962 8.12057C6.5241 8.12327 6.4592 8.12693 6.4592 8.13074C6.4592 8.13456 6.5241 8.13822 6.63962 8.14092C6.75514 8.14362 6.91183 8.14513 7.0752 8.14513C7.23857 8.14513 7.39526 8.14362 7.51078 8.14092C7.6263 8.13822 7.6912 8.13456 7.6912 8.13074ZM8.976 8.13074C8.976 8.12693 8.91059 8.12327 8.79417 8.12057C8.67775 8.11787 8.51985 8.11636 8.3552 8.11636C8.19055 8.11636 8.03265 8.11787 7.91623 8.12057C7.79981 8.12327 7.7344 8.12693 7.7344 8.13074C7.7344 8.13456 7.79981 8.13822 7.91623 8.14092C8.03265 8.14362 8.19055 8.14513 8.3552 8.14513C8.51985 8.14513 8.67775 8.14362 8.79417 8.14092C8.91059 8.13822 8.976 8.13456 8.976 8.13074ZM10.256 8.13074C10.256 8.12693 10.1906 8.12327 10.0742 8.12057C9.95775 8.11787 9.79985 8.11636 9.6352 8.11636C9.47055 8.11636 9.31265 8.11787 9.19623 8.12057C9.07981 8.12327 9.0144 8.12693 9.0144 8.13074C9.0144 8.13456 9.07981 8.13822 9.19623 8.14092C9.31265 8.14362 9.47055 8.14513 9.6352 8.14513C9.79985 8.14513 9.95775 8.14362 10.0742 8.14092C10.1906 8.13822 10.256 8.13456 10.256 8.13074ZM11.536 8.13074C11.536 8.12693 11.4706 8.12327 11.3542 8.12057C11.2377 8.11787 11.0798 8.11636 10.9152 8.11636C10.7506 8.11636 10.5927 8.11787 10.4762 8.12057C10.3598 8.12327 10.2944 8.12693 10.2944 8.13074C10.2944 8.13456 10.3598 8.13822 10.4762 8.14092C10.5927 8.14362 10.7506 8.14513 10.9152 8.14513C11.0798 8.14513 11.2377 8.14362 11.3542 8.14092C11.4706 8.13822 11.536 8.13456 11.536 8.13074ZM12.8128 8.13074C12.8128 8.12693 12.7477 8.12327 12.6319 8.12057C12.5161 8.11787 12.359 8.11636 12.1952 8.11636C12.0314 8.11636 11.8743 8.11787 11.7585 8.12057C11.6427 8.12327 11.5776 8.12693 11.5776 8.13074C11.5776 8.13456 11.6427 8.13822 11.7585 8.14092C11.8743 8.14362 12.0314 8.14513 12.1952 8.14513C12.359 8.14513 12.5161 8.14362 12.6319 8.14092C12.7477 8.13822 12.8128 8.13456 12.8128 8.13074ZM14.0928 8.13074C14.0928 8.12693 14.0277 8.12327 13.9119 8.12057C13.7961 8.11787 13.639 8.11636 13.4752 8.11636C13.3114 8.11636 13.1543 8.11787 13.0385 8.12057C12.9227 8.12327 12.8576 8.12693 12.8576 8.13074C12.8576 8.13456 12.9227 8.13822 13.0385 8.14092C13.1543 8.14362 13.3114 8.14513 13.4752 8.14513C13.639 8.14513 13.7961 8.14362 13.9119 8.14092C14.0277 8.13822 14.0928 8.13456 14.0928 8.13074ZM15.3728 8.13074C15.3728 8.12693 15.3077 8.12327 15.1919 8.12057C15.0761 8.11787 14.919 8.11636 14.7552 8.11636C14.5914 8.11636 14.4343 8.11787 14.3185 8.12057C14.2027 8.12327 14.1376 8.12693 14.1376 8.13074C14.1376 8.13456 14.2027 8.13822 14.3185 8.14092C14.4343 8.14362 14.5914 8.14513 14.7552 8.14513C14.919 8.14513 15.0761 8.14362 15.1919 8.14092C15.3077 8.13822 15.3728 8.13456 15.3728 8.13074ZM16.6528 8.13074C16.6528 8.12693 16.5877 8.12327 16.4719 8.12057C16.3561 8.11787 16.199 8.11636 16.0352 8.11636C15.8714 8.11636 15.7143 8.11787 15.5985 8.12057C15.4827 8.12327 15.4176 8.12693 15.4176 8.13074C15.4176 8.13456 15.4827 8.13822 15.5985 8.14092C15.7143 8.14362 15.8714 8.14513 16.0352 8.14513C16.199 8.14513 16.3561 8.14362 16.4719 8.14092C16.5877 8.13822 16.6528 8.13456 16.6528 8.13074ZM17.9328 8.13074C17.9328 8.12693 17.8677 8.12327 17.7519 8.12057C17.6361 8.11787 17.479 8.11636 17.3152 8.11636C17.1514 8.11636 16.9943 8.11787 16.8785 8.12057C16.7627 8.12327 16.6976 8.12693 16.6976 8.13074C16.6976 8.13456 16.7627 8.13822 16.8785 8.14092C16.9943 8.14362 17.1514 8.14513 17.3152 8.14513C17.479 8.14513 17.6361 8.14362 17.7519 8.14092C17.8677 8.13822 17.9328 8.13456 17.9328 8.13074ZM19.2112 8.13074C19.2112 8.12693 19.1463 8.12327 19.0308 8.12057C18.9153 8.11787 18.7586 8.11636 18.5952 8.11636C18.4318 8.11636 18.2751 8.11787 18.1596 8.12057C18.0441 8.12327 17.9792 8.12693 17.9792 8.13074C17.9792 8.13456 18.0441 8.13822 18.1596 8.14092C18.2751 8.14362 18.4318 8.14513 18.5952 8.14513C18.7586 8.14513 18.9153 8.14362 19.0308 8.14092C19.1463 8.13822 19.2112 8.13456 19.2112 8.13074ZM20.4912 8.13074C20.4912 8.12693 20.4263 8.12327 20.3108 8.12057C20.1953 8.11787 20.0386 8.11636 19.8752 8.11636C19.7118 8.11636 19.5551 8.11787 19.4396 8.12057C19.3241 8.12327 19.2592 8.12693 19.2592 8.13074C19.2592 8.13456 19.3241 8.13822 19.4396 8.14092C19.5551 8.14362 19.7118 8.14513 19.8752 8.14513C20.0386 8.14513 20.1953 8.14362 20.3108 8.14092C20.4263 8.13822 20.4912 8.13456 20.4912 8.13074ZM21.7712 8.13074C21.7712 8.12693 21.7063 8.12327 21.5908 8.12057C21.4753 8.11787 21.3186 8.11636 21.1552 8.11636C20.9918 8.11636 20.8351 8.11787 20.7196 8.12057C20.6041 8.12327 20.5392 8.12693 20.5392 8.13074C20.5392 8.13456 20.6041 8.13822 20.7196 8.14092C20.8351 8.14362 20.9918 8.14513 21.1552 8.14513C21.3186 8.14513 21.4753 8.14362 21.5908 8.14092C21.7063 8.13822 21.7712 8.13456 21.7712 8.13074ZM23.0512 8.13074C23.0512 8.12693 22.9863 8.12327 22.8708 8.12057C22.7553 8.11787 22.5986 8.11636 22.4352 8.11636C22.2718 8.11636 22.1151 8.11787 21.9996 8.12057C21.8841 8.12327 21.8192 8.12693 21.8192 8.13074C21.8192 8.13456 21.8841 8.13822 21.9996 8.14092C22.1151 8.14362 22.2718 8.14513 22.4352 8.14513C22.5986 8.14513 22.7553 8.14362 22.8708 8.14092C22.9863 8.13822 23.0512 8.13456 23.0512 8.13074ZM24.3312 8.13074C24.3312 8.12693 24.2663 8.12327 24.1508 8.12057C24.0353 8.11787 23.8786 8.11636 23.7152 8.11636C23.5518 8.11636 23.3951 8.11787 23.2796 8.12057C23.1641 8.12327 23.0992 8.12693 23.0992 8.13074C23.0992 8.13456 23.1641 8.13822 23.2796 8.14092C23.3951 8.14362 23.5518 8.14513 23.7152 8.14513C23.8786 8.14513 24.0353 8.14362 24.1508 8.14092C24.2663 8.13822 24.3312 8.13456 24.3312 8.13074ZM25.6112 8.13074C25.6112 8.12693 25.5463 8.12327 25.4308 8.12057C25.3153 8.11787 25.1586 8.11636 24.9952 8.11636C24.8318 8.11636 24.6751 8.11787 24.5596 8.12057C24.4441 8.12327 24.3792 8.12693 24.3792 8.13074C24.3792 8.13456 24.4441 8.13822 24.5596 8.14092C24.6751 8.14362 24.8318 8.14513 24.9952 8.14513C25.1586 8.14513 25.3153 8.14362 25.4308 8.14092C25.5463 8.13822 25.6112 8.13456 25.6112 8.13074ZM26.8912 8.13074C26.8912 8.12693 26.8263 8.12327 26.7108 8.12057C26.5953 8.11787 26.4386 8.11636 26.2752 8.11636C26.1118 8.11636 25.9551 8.11787 25.8396 8.12057C25.7241 8.12327 25.6592 8.12693 25.6592 8.13074C25.6592 8.13456 25.7241 8.13822 25.8396 8.14092C25.9551 8.14362 26.1118 8.14513 26.2752 8.14513C26.4386 8.14513 26.5953 8.14362 26.7108 8.14092C26.8263 8.13822 26.8912 8.13456 26.8912 8.13074ZM28.1696 8.13074C28.1696 8.12693 28.1049 8.12327 27.9896 8.12057C27.8744 8.11787 27.7181 8.11636 27.5552 8.11636C27.3923 8.11636 27.236 8.11787 27.1208 8.12057C27.0055 8.12327 26.9408 8.12693 26.9408 8.13074C26.9408 8.13456 27.0055 8.13822 27.1208 8.14092C27.236 8.14362 27.3923 8.14513 27.5552 8.14513C27.7181 8.14513 27.8744 8.14362 27.9896 8.14092C28.1049 8.13822 28.1696 8.13456 28.1696 8.13074ZM29.456 8.13074C29.456 8.12693 29.3906 8.12327 29.2742 8.12057C29.1577 8.11787 28.9998 8.11636 28.8352 8.11636C28.6706 8.11636 28.5126 8.11787 28.3962 8.12057C28.2798 8.12327 28.2144 8.12693 28.2144 8.13074C28.2144 8.13456 28.2798 8.13822 28.3962 8.14092C28.5126 8.14362 28.6706 8.14513 28.8352 8.14513C28.9998 8.14513 29.1577 8.14362 29.2742 8.14092C29.3906 8.13822 29.456 8.13456 29.456 8.13074ZM30.3952 8.13074C30.3952 8.12693 30.3488 8.12327 30.2663 8.12057C30.1838 8.11787 30.0719 8.11636 29.9552 8.11636C29.8385 8.11636 29.7266 8.11787 29.6441 8.12057C29.5616 8.12327 29.5152 8.12693 29.5152 8.13074C29.5152 8.13456 29.5616 8.13822 29.6441 8.14092C29.7266 8.14362 29.8385 8.14513 29.9552 8.14513C30.0719 8.14513 30.1838 8.14362 30.2663 8.14092C30.3488 8.13822 30.3952 8.13456 30.3952 8.13074ZM30.6352 8.10836H30.5584C30.5459 8.10819 30.5338 8.1118 30.5235 8.11873C30.5132 8.12566 30.5052 8.1356 30.5006 8.14727C30.4959 8.15894 30.4948 8.17181 30.4974 8.18425C30.5001 8.19668 30.5062 8.20811 30.5152 8.21707C30.5728 8.27036 30.6272 8.27889 30.6784 8.24265C30.6915 8.23371 30.7014 8.22078 30.7066 8.20577C30.7117 8.19076 30.7119 8.17448 30.707 8.15938C30.7022 8.14427 30.6925 8.13114 30.6796 8.12194C30.6667 8.11275 30.6511 8.10798 30.6352 8.10836ZM31.6752 8.12914C31.6752 8.1249 31.6288 8.12084 31.5463 8.11784C31.4638 8.11484 31.3519 8.11316 31.2352 8.11316C31.1185 8.11316 31.0066 8.11484 30.9241 8.11784C30.8416 8.12084 30.7952 8.1249 30.7952 8.12914C30.7952 8.13338 30.8416 8.13745 30.9241 8.14045C31.0066 8.14345 31.1185 8.14513 31.2352 8.14513C31.3519 8.14513 31.4638 8.14345 31.5463 8.14045C31.6288 8.13745 31.6752 8.13338 31.6752 8.12914ZM31.9152 8.10836H31.8384C31.8259 8.10819 31.8138 8.1118 31.8035 8.11873C31.7932 8.12566 31.7852 8.1356 31.7806 8.14727C31.7759 8.15894 31.7748 8.17181 31.7774 8.18425C31.7801 8.19668 31.7862 8.20811 31.7952 8.21707C31.8517 8.27036 31.9061 8.27835 31.9584 8.24105C31.9708 8.23188 31.98 8.21904 31.9848 8.20434C31.9895 8.18964 31.9894 8.17383 31.9847 8.15915C31.9799 8.14447 31.9706 8.13167 31.9581 8.12255C31.9457 8.11344 31.9306 8.10847 31.9152 8.10836ZM32.9712 8.12996C32.9712 8.12807 32.9596 8.12622 32.937 8.12451C32.9144 8.12281 32.8813 8.12128 32.8395 8.12002C32.7977 8.11875 32.7482 8.11778 32.6936 8.11715C32.6391 8.11652 32.5806 8.11625 32.5216 8.11636C32.4023 8.11656 32.288 8.11828 32.2037 8.12112C32.1194 8.12397 32.072 8.12771 32.072 8.13153C32.072 8.13342 32.0836 8.13527 32.1062 8.13697C32.1288 8.13868 32.1619 8.14021 32.2037 8.14147C32.2454 8.14273 32.295 8.14371 32.3496 8.14434C32.4041 8.14496 32.4626 8.14523 32.5216 8.14513C32.6409 8.14492 32.7552 8.14321 32.8395 8.14036C32.9238 8.13752 32.9712 8.13378 32.9712 8.12996ZM33.1952 8.10836H33.1184C33.1059 8.10819 33.0938 8.1118 33.0835 8.11873C33.0732 8.12566 33.0652 8.1356 33.0606 8.14727C33.0559 8.15894 33.0548 8.17181 33.0574 8.18425C33.0601 8.19668 33.0662 8.20811 33.0752 8.21707C33.1317 8.27036 33.1861 8.27835 33.2384 8.24105C33.2508 8.23188 33.26 8.21904 33.2648 8.20434C33.2695 8.18964 33.2694 8.17383 33.2647 8.15915C33.2599 8.14447 33.2506 8.13167 33.2381 8.12255C33.2257 8.11344 33.2106 8.10847 33.1952 8.10836ZM33.5152 8.10836H33.4384C33.4259 8.10819 33.4138 8.1118 33.4035 8.11873C33.3932 8.12566 33.3852 8.1356 33.3806 8.14727C33.3759 8.15894 33.3748 8.17181 33.3774 8.18425C33.3801 8.19668 33.3862 8.20811 33.3952 8.21707C33.4528 8.27143 33.5072 8.27995 33.5584 8.24265C33.5715 8.23371 33.5814 8.22078 33.5866 8.20577C33.5917 8.19076 33.5919 8.17448 33.587 8.15938C33.5822 8.14427 33.5725 8.13114 33.5596 8.12194C33.5466 8.11275 33.5311 8.10798 33.5152 8.10836ZM34.232 8.13074C34.232 8.1265 34.2028 8.12244 34.1509 8.11944C34.099 8.11644 34.0286 8.11476 33.9552 8.11476C33.8818 8.11476 33.8114 8.11644 33.7595 8.11944C33.7076 8.12244 33.6784 8.1265 33.6784 8.13074C33.6784 8.13498 33.7076 8.13905 33.7595 8.14205C33.8114 8.14505 33.8818 8.14673 33.9552 8.14673C34.0286 8.14673 34.099 8.14505 34.1509 8.14205C34.2028 8.13905 34.232 8.13498 34.232 8.13074ZM34.4752 8.10836H34.3984C34.3859 8.10819 34.3738 8.1118 34.3635 8.11873C34.3532 8.12566 34.3452 8.1356 34.3406 8.14727C34.3359 8.15894 34.3348 8.17181 34.3374 8.18425C34.3401 8.19668 34.3462 8.20811 34.3552 8.21707C34.4117 8.27036 34.4661 8.27835 34.5184 8.24105C34.5308 8.23188 34.5401 8.21904 34.5448 8.20434C34.5495 8.18964 34.5494 8.17383 34.5447 8.15915C34.5399 8.14447 34.5306 8.13167 34.5181 8.12255C34.5057 8.11344 34.4906 8.10847 34.4752 8.10836ZM35.52 8.12998C35.52 8.12809 35.5086 8.12623 35.4863 8.12453C35.464 8.12282 35.4314 8.12129 35.3902 8.12002C35.3491 8.11876 35.3002 8.11778 35.2464 8.11716C35.1926 8.11653 35.135 8.11625 35.0768 8.11636C34.9593 8.11656 34.8466 8.11827 34.7635 8.12111C34.6803 8.12396 34.6336 8.1277 34.6336 8.13151C34.6336 8.1334 34.645 8.13525 34.6673 8.13696C34.6896 8.13867 34.7222 8.1402 34.7634 8.14146C34.8045 8.14273 34.8534 8.1437 34.9072 8.14433C34.961 8.14496 35.0186 8.14523 35.0768 8.14513C35.1943 8.14493 35.307 8.14321 35.3901 8.14037C35.4733 8.13753 35.52 8.13379 35.52 8.12998ZM35.792 8.11955L35.6864 8.10516C35.6731 8.10319 35.6594 8.10548 35.6475 8.1117C35.6355 8.11792 35.6258 8.12777 35.6198 8.13982C35.6137 8.15188 35.6117 8.16553 35.6139 8.17883C35.6161 8.19213 35.6224 8.20439 35.632 8.21387C35.7013 8.28102 35.7659 8.28262 35.8256 8.21867C35.833 8.21086 35.8382 8.20117 35.8405 8.19065C35.8428 8.18013 35.8422 8.16918 35.8387 8.15899C35.8353 8.14879 35.8291 8.13972 35.8209 8.13277C35.8126 8.12582 35.8026 8.12125 35.792 8.11955ZM36.8 8.12838C36.8 8.12628 36.7886 8.12422 36.7664 8.12232C36.7442 8.12042 36.7117 8.11871 36.6707 8.1173C36.6297 8.11588 36.581 8.11479 36.5274 8.11408C36.4738 8.11337 36.4164 8.11306 36.3584 8.11316C36.2413 8.11336 36.129 8.11524 36.0461 8.11838C35.9633 8.12153 35.9168 8.12567 35.9168 8.12991C35.9168 8.13201 35.9282 8.13407 35.9504 8.13597C35.9726 8.13787 36.0051 8.13958 36.0461 8.14099C36.0871 8.14241 36.1358 8.1435 36.1894 8.14421C36.243 8.14492 36.3004 8.14523 36.3584 8.14513C36.4755 8.14493 36.5878 8.14305 36.6707 8.13991C36.7535 8.13676 36.8 8.13262 36.8 8.12838ZM37.0352 8.10836H36.9584C36.946 8.10841 36.9339 8.11215 36.9236 8.1191C36.9134 8.12606 36.9054 8.13591 36.9008 8.14741C36.8961 8.1589 36.895 8.17152 36.8976 8.18364C36.9002 8.19576 36.9063 8.20685 36.9152 8.21547C36.9728 8.27089 37.0272 8.27995 37.0784 8.24265C37.0915 8.23371 37.1014 8.22078 37.1066 8.20577C37.1117 8.19076 37.1119 8.17448 37.107 8.15938C37.1022 8.14427 37.0925 8.13114 37.0796 8.12194C37.0667 8.11275 37.0511 8.10798 37.0352 8.10836ZM37.3536 8.10836C37.3291 8.1041 37.304 8.1041 37.2784 8.10836C37.2624 8.11081 37.2473 8.11754 37.2349 8.12786C37.2224 8.13817 37.2129 8.15167 37.2075 8.16692C37.2021 8.18218 37.2009 8.19861 37.2041 8.21448C37.2073 8.23035 37.2147 8.24506 37.2256 8.25704C37.2885 8.32738 37.3493 8.33005 37.408 8.26503C37.4195 8.25249 37.4273 8.23709 37.4307 8.22045C37.4342 8.20382 37.433 8.18656 37.4275 8.17052C37.4219 8.15447 37.4121 8.14023 37.3991 8.12929C37.3861 8.11835 37.3704 8.11112 37.3536 8.10836ZM38.0976 8.12914C38.0976 8.1249 38.0671 8.12084 38.0128 8.11784C37.9585 8.11484 37.8848 8.11316 37.808 8.11316C37.7312 8.11316 37.6575 8.11484 37.6032 8.11784C37.5489 8.12084 37.5184 8.1249 37.5184 8.12914C37.5184 8.13338 37.5489 8.13745 37.6032 8.14045C37.6575 8.14345 37.7312 8.14513 37.808 8.14513C37.8848 8.14513 37.9585 8.14345 38.0128 8.14045C38.0671 8.13745 38.0976 8.13338 38.0976 8.12914ZM38.3504 8.11955L38.2464 8.10516C38.2331 8.10338 38.2194 8.10579 38.2075 8.11204C38.1955 8.11829 38.1858 8.12806 38.1797 8.13995C38.1737 8.15185 38.1716 8.16525 38.1738 8.17824C38.176 8.19124 38.1824 8.20315 38.192 8.21228C38.2613 8.28049 38.3259 8.28262 38.3856 8.21867C38.393 8.21075 38.3982 8.20094 38.4004 8.1903C38.4026 8.17967 38.4019 8.16863 38.3982 8.15839C38.3946 8.14815 38.3882 8.13911 38.3798 8.13226C38.3713 8.12541 38.3612 8.12101 38.3504 8.11955ZM38.6752 8.12435C38.6677 8.12328 38.6597 8.12382 38.6512 8.12595C38.6498 8.1266 38.6487 8.12762 38.6479 8.1289C38.6471 8.13017 38.6467 8.13164 38.6467 8.13314C38.6467 8.13464 38.6471 8.13611 38.6479 8.13739C38.6487 8.13866 38.6498 8.13968 38.6512 8.14034C38.6587 8.1414 38.6661 8.14193 38.6736 8.14193C38.6748 8.14183 38.676 8.1415 38.6771 8.14096C38.6783 8.14042 38.6793 8.13968 38.6803 8.13879C38.6812 8.1379 38.6819 8.13687 38.6825 8.13577C38.683 8.13466 38.6834 8.1335 38.6835 8.13234C38.6836 8.13119 38.6834 8.13006 38.6831 8.12904C38.6827 8.12801 38.6822 8.1271 38.6814 8.12636C38.6806 8.12562 38.6797 8.12506 38.6786 8.12471C38.6776 8.12437 38.6764 8.12424 38.6752 8.12435ZM39.352 8.12914C39.352 8.1249 39.3228 8.12084 39.2709 8.11784C39.219 8.11484 39.1486 8.11316 39.0752 8.11316C39.0018 8.11316 38.9314 8.11484 38.8795 8.11784C38.8276 8.12084 38.7984 8.1249 38.7984 8.12914C38.7984 8.13338 38.8276 8.13745 38.8795 8.14045C38.9314 8.14345 39.0018 8.14513 39.0752 8.14513C39.1486 8.14513 39.219 8.14345 39.2709 8.14045C39.3228 8.13745 39.352 8.13338 39.352 8.12914ZM39.5952 8.10836H39.5184C39.5059 8.10819 39.4938 8.1118 39.4835 8.11873C39.4732 8.12566 39.4652 8.1356 39.4606 8.14727C39.4559 8.15894 39.4548 8.17181 39.4574 8.18425C39.4601 8.19668 39.4662 8.20811 39.4752 8.21707C39.5328 8.27036 39.5872 8.27889 39.6384 8.24265C39.6515 8.23371 39.6614 8.22078 39.6666 8.20577C39.6717 8.19076 39.6719 8.17448 39.667 8.15938C39.6622 8.14427 39.6525 8.13114 39.6396 8.12194C39.6267 8.11275 39.6111 8.10798 39.5952 8.10836ZM40.6336 8.12914C40.6336 8.1249 40.5874 8.12084 40.5052 8.11784C40.423 8.11484 40.3115 8.11316 40.1952 8.11316C40.0789 8.11316 39.9674 8.11484 39.8852 8.11784C39.803 8.12084 39.7568 8.1249 39.7568 8.12914C39.7568 8.13338 39.803 8.13745 39.8852 8.14045C39.9674 8.14345 40.0789 8.14513 40.1952 8.14513C40.3115 8.14513 40.423 8.14345 40.5052 8.14045C40.5874 8.13745 40.6336 8.13338 40.6336 8.12914ZM40.8784 8.11476L40.8064 8.10516C40.7931 8.10338 40.7794 8.10579 40.7675 8.11204C40.7555 8.11829 40.7458 8.12806 40.7397 8.13995C40.7337 8.15185 40.7316 8.16525 40.7338 8.17824C40.736 8.19124 40.7424 8.20315 40.752 8.21228C40.8043 8.2645 40.8549 8.27729 40.904 8.25064C40.9175 8.24358 40.9283 8.23241 40.9349 8.21874C40.9415 8.20506 40.9436 8.18958 40.9407 8.17451C40.9379 8.15943 40.9303 8.14554 40.9191 8.1348C40.9079 8.12407 40.8937 8.11706 40.8784 8.11476ZM41.1856 8.10516L41.1152 8.11156C41.1033 8.11276 41.0921 8.11734 41.0827 8.12474C41.0734 8.13215 41.0664 8.14208 41.0625 8.15334C41.0586 8.16461 41.0581 8.17676 41.0609 8.18833C41.0637 8.19991 41.0698 8.21044 41.0784 8.21867C41.1456 8.28049 41.2027 8.29061 41.2496 8.24905C41.2624 8.23726 41.2711 8.22178 41.2747 8.20476C41.2782 8.18775 41.2763 8.17006 41.2692 8.15419C41.2621 8.13831 41.2503 8.12505 41.2353 8.11625C41.2203 8.10746 41.2029 8.10358 41.1856 8.10516ZM41.9056 8.12914C41.9056 8.12684 41.8985 8.12455 41.8848 8.12241C41.871 8.12028 41.8509 8.11834 41.8255 8.11671C41.8001 8.11508 41.7699 8.11378 41.7367 8.1129C41.7035 8.11201 41.6679 8.11156 41.632 8.11156C41.5594 8.11156 41.4898 8.11341 41.4385 8.11671C41.3872 8.12001 41.3584 8.12448 41.3584 8.12914C41.3584 8.13381 41.3872 8.13828 41.4385 8.14158C41.4898 8.14488 41.5594 8.14673 41.632 8.14673C41.6679 8.14673 41.7035 8.14628 41.7367 8.14539C41.7699 8.14451 41.8001 8.14321 41.8255 8.14158C41.8509 8.13995 41.871 8.13801 41.8848 8.13587C41.8985 8.13374 41.9056 8.13145 41.9056 8.12914ZM42.2144 8.12914C42.1984 8.12275 42.1835 8.12115 42.1696 8.12435C42.1682 8.125 42.1671 8.12603 42.1663 8.1273C42.1655 8.12857 42.1651 8.13004 42.1651 8.13154C42.1651 8.13304 42.1655 8.13452 42.1663 8.13579C42.1671 8.13706 42.1682 8.13808 42.1696 8.13874C42.1835 8.14087 42.1973 8.14247 42.2112 8.14353C42.2127 8.14325 42.2142 8.14252 42.2153 8.14143C42.2165 8.14034 42.2172 8.13894 42.2176 8.1374C42.2179 8.13586 42.2178 8.13426 42.2172 8.13279C42.2167 8.13132 42.2157 8.13005 42.2144 8.12914ZM42.5168 8.12275C42.5061 8.12168 42.4965 8.12222 42.488 8.12435C42.487 8.12435 42.4861 8.12453 42.4853 8.12489C42.4845 8.12525 42.4838 8.12578 42.4832 8.12644C42.4821 8.12779 42.4818 8.12962 42.4822 8.13152C42.4826 8.13343 42.4838 8.13526 42.4855 8.13662C42.4872 8.13797 42.4892 8.13873 42.4912 8.13874C42.4987 8.1398 42.5056 8.14087 42.512 8.14193C42.5145 8.14257 42.5172 8.14217 42.5195 8.14082C42.5217 8.13947 42.5234 8.13728 42.524 8.13474C42.5246 8.1322 42.5242 8.1295 42.5229 8.12725C42.5215 8.12501 42.5193 8.12339 42.5168 8.12275ZM43.2128 8.12964C43.2128 8.1254 43.1826 8.12128 43.1289 8.11819C43.0752 8.1151 43.0024 8.11329 42.9264 8.11316C42.8888 8.11309 42.8516 8.11344 42.8168 8.11418C42.7821 8.11493 42.7505 8.11605 42.7239 8.11749C42.6973 8.11893 42.6762 8.12065 42.6618 8.12257C42.6474 8.12448 42.64 8.12655 42.64 8.12865C42.64 8.13289 42.6702 8.13701 42.7239 8.1401C42.7776 8.14319 42.8504 8.145 42.9264 8.14513C42.964 8.1452 43.0012 8.14485 43.036 8.14411C43.0707 8.14336 43.1023 8.14224 43.1289 8.1408C43.1555 8.13936 43.1766 8.13764 43.191 8.13572C43.2054 8.13381 43.2128 8.13174 43.2128 8.12964ZM43.4336 8.10836C43.4091 8.1041 43.384 8.1041 43.3584 8.10836C43.3424 8.11081 43.3273 8.11754 43.3149 8.12786C43.3024 8.13817 43.2929 8.15167 43.2875 8.16692C43.2821 8.18218 43.2809 8.19861 43.2841 8.21448C43.2873 8.23035 43.2947 8.24506 43.3056 8.25704C43.3685 8.32632 43.4293 8.32898 43.488 8.26503C43.4995 8.25249 43.5073 8.23709 43.5107 8.22045C43.5142 8.20382 43.513 8.18656 43.5075 8.17052C43.5019 8.15447 43.4921 8.14023 43.4791 8.12929C43.4661 8.11835 43.4504 8.11112 43.4336 8.10836ZM43.744 8.0588C43.7152 8.04495 43.6693 8.0668 43.6064 8.12435C43.6052 8.12535 43.6042 8.12664 43.6036 8.12811C43.6029 8.12959 43.6027 8.13119 43.6029 8.13277C43.603 8.13436 43.6036 8.13588 43.6045 8.1372C43.6054 8.13852 43.6066 8.1396 43.608 8.14034C43.6475 8.15845 43.6869 8.16538 43.7264 8.16112C43.7379 8.1596 43.7486 8.15445 43.757 8.14641C43.7654 8.13837 43.7709 8.12787 43.7729 8.11644C43.7749 8.105 43.7731 8.09324 43.7679 8.08288C43.7627 8.07251 43.7543 8.06407 43.744 8.0588ZM43.8656 8.12914C43.8656 8.13338 43.9224 8.13745 44.0235 8.14045C44.1246 8.14345 44.2618 8.14513 44.4048 8.14513C44.4756 8.14513 44.5457 8.14472 44.6111 8.14391C44.6766 8.14311 44.736 8.14193 44.7861 8.14045C44.8361 8.13896 44.8759 8.1372 44.903 8.13526C44.93 8.13332 44.944 8.13124 44.944 8.12914C44.944 8.1249 44.8872 8.12084 44.7861 8.11784C44.685 8.11484 44.5478 8.11316 44.4048 8.11316C44.2618 8.11316 44.1246 8.11484 44.0235 8.11784C43.9224 8.12084 43.8656 8.1249 43.8656 8.12914ZM45.0768 8.12435C45.0683 8.12435 45.0597 8.12488 45.0512 8.12595C45.0498 8.1266 45.0487 8.12762 45.0479 8.1289C45.0471 8.13017 45.0467 8.13164 45.0467 8.13314C45.0467 8.13464 45.0471 8.13611 45.0479 8.13739C45.0487 8.13866 45.0498 8.13968 45.0512 8.14034C45.0587 8.1414 45.0661 8.14193 45.0736 8.14193C45.0748 8.14193 45.076 8.1417 45.0772 8.14126C45.0784 8.14082 45.0795 8.14017 45.0805 8.13935C45.0815 8.13854 45.0823 8.13757 45.083 8.1365C45.0836 8.13543 45.0841 8.13429 45.0843 8.13313C45.0845 8.13198 45.0844 8.13083 45.0842 8.12977C45.0839 8.1287 45.0834 8.12773 45.0827 8.12692C45.082 8.1261 45.0812 8.12546 45.0801 8.12501C45.0791 8.12457 45.078 8.12435 45.0768 8.12435ZM45.6064 8.13109C45.6064 8.12728 45.5848 8.12358 45.5464 8.12082C45.508 8.11806 45.4559 8.11645 45.4016 8.11636C45.3747 8.11631 45.3481 8.11663 45.3232 8.11731C45.2984 8.11799 45.2758 8.11902 45.2568 8.12032C45.2378 8.12162 45.2227 8.12318 45.2124 8.12491C45.2021 8.12664 45.1968 8.1285 45.1968 8.13039C45.1968 8.13421 45.2184 8.1379 45.2568 8.14067C45.2952 8.14343 45.3473 8.14504 45.4016 8.14513C45.4285 8.14518 45.4551 8.14485 45.48 8.14417C45.5048 8.14349 45.5274 8.14247 45.5464 8.14117C45.5654 8.13986 45.5805 8.1383 45.5908 8.13658C45.6011 8.13485 45.6064 8.13298 45.6064 8.13109ZM45.7168 8.12435C45.7051 8.12328 45.6965 8.12328 45.6912 8.12435C45.6891 8.12435 45.687 8.12519 45.6855 8.12669C45.684 8.12819 45.6832 8.13022 45.6832 8.13234C45.6832 8.13446 45.684 8.1365 45.6855 8.13799C45.687 8.13949 45.6891 8.14034 45.6912 8.14034C45.6965 8.1414 45.704 8.14247 45.7136 8.14353C45.7161 8.14396 45.7188 8.14335 45.7209 8.14185C45.723 8.14035 45.7244 8.13808 45.7248 8.13554C45.7252 8.133 45.7246 8.13039 45.7231 8.12829C45.7216 8.12619 45.7193 8.12477 45.7168 8.12435ZM45.9968 8.10996H45.9184C45.906 8.11001 45.8939 8.11375 45.8836 8.1207C45.8734 8.12766 45.8654 8.13751 45.8608 8.149C45.8561 8.1605 45.855 8.17311 45.8576 8.18524C45.8602 8.19736 45.8663 8.20845 45.8752 8.21707C45.9317 8.27036 45.9861 8.27835 46.0384 8.24105C46.0511 8.2323 46.0606 8.21971 46.0656 8.20515C46.0705 8.19059 46.0707 8.17482 46.0661 8.16015C46.0614 8.14549 46.0522 8.1327 46.0397 8.12366C46.0272 8.11463 46.0122 8.10983 45.9968 8.10996ZM46.2864 8.10676L46.2352 8.11156C46.2213 8.11313 46.2081 8.11837 46.1969 8.12675C46.1858 8.13512 46.177 8.14633 46.1717 8.15921C46.1663 8.17208 46.1644 8.18616 46.1663 8.19999C46.1682 8.21382 46.1738 8.22689 46.1824 8.23785C46.2539 8.32418 46.3173 8.33591 46.3728 8.27303C46.3861 8.25778 46.3944 8.2389 46.3968 8.21884C46.3992 8.19878 46.3955 8.17847 46.3862 8.16054C46.3769 8.14261 46.3624 8.12789 46.3446 8.11831C46.3268 8.10872 46.3065 8.10469 46.2864 8.10676ZM46.464 8.13074C46.464 8.13456 46.5274 8.13822 46.6402 8.14092C46.753 8.14362 46.906 8.14513 47.0656 8.14513C47.1446 8.14513 47.2228 8.14476 47.2958 8.14404C47.3688 8.14331 47.4351 8.14225 47.491 8.14092C47.5469 8.13958 47.5912 8.138 47.6214 8.13625C47.6516 8.1345 47.6672 8.13263 47.6672 8.13074C47.6672 8.12693 47.6038 8.12327 47.491 8.12057C47.3782 8.11787 47.2252 8.11636 47.0656 8.11636C46.9866 8.11636 46.9084 8.11673 46.8354 8.11745C46.7624 8.11817 46.6961 8.11923 46.6402 8.12057C46.5843 8.12191 46.54 8.12349 46.5098 8.12524C46.4796 8.12698 46.464 8.12885 46.464 8.13074ZM39.6192 17.6956C39.6075 17.6765 39.5339 17.32 39.3984 16.6261C39.2 15.6206 38.6768 14.2585 38.472 13.6446C38.463 13.6184 38.4461 13.5957 38.4237 13.5796C38.4014 13.5636 38.3746 13.555 38.3472 13.5551H36.0144C36.0077 13.5552 36.0012 13.5569 35.9954 13.56C35.9895 13.5631 35.9845 13.5676 35.9807 13.5731C35.977 13.5786 35.9746 13.5849 35.9737 13.5915C35.9729 13.5981 35.9737 13.6048 35.976 13.611L38.4576 20.0345C38.4851 20.1064 38.4992 20.1833 38.4992 20.2615V23.5724C38.4992 23.5974 38.5091 23.6214 38.5268 23.6391C38.5446 23.6568 38.5686 23.6667 38.5936 23.6667H40.6528C40.6706 23.6667 40.6877 23.6596 40.7003 23.647C40.7129 23.6344 40.72 23.6174 40.72 23.5996V20.156C40.72 20.1148 40.7276 20.0736 40.7424 20.0345L43.1968 13.6494C43.201 13.6389 43.2025 13.6276 43.2013 13.6164C43.2001 13.6053 43.1962 13.5945 43.1899 13.5852C43.1836 13.5759 43.1751 13.5683 43.1651 13.563C43.1552 13.5578 43.1441 13.555 43.1328 13.5551H40.9856C40.9572 13.555 40.9295 13.564 40.9065 13.5806C40.8835 13.5973 40.8664 13.6208 40.8576 13.6478C40.4944 14.7381 40.1216 15.6765 39.912 16.6965C39.7776 17.3541 39.7088 17.686 39.7056 17.6924C39.7015 17.7005 39.6953 17.7073 39.6877 17.7122C39.6801 17.7171 39.6714 17.7199 39.6625 17.7202C39.6536 17.7205 39.6449 17.7184 39.6372 17.7141C39.6296 17.7098 39.6234 17.7034 39.6192 17.6956ZM29.5184 36.1156C29.5208 34.7415 28.9767 33.4226 28.0059 32.4492C27.0351 31.4759 25.7171 30.9277 24.3418 30.9253L23.721 30.9242C22.3457 30.9218 21.0258 31.4654 20.0516 32.4354C19.0774 33.4054 18.5288 34.7223 18.5264 36.0965L18.5104 45.2281C18.508 46.6023 19.0521 47.9211 20.0229 48.8945C20.9936 49.8679 22.3117 50.416 23.687 50.4184L24.3078 50.4195C25.6831 50.4219 27.003 49.8783 27.9772 48.9084C28.9514 47.9384 29.5 46.6214 29.5024 45.2473L29.5184 36.1156ZM8.912 38.1875L9.544 33.8711C9.54748 33.8446 9.56059 33.8203 9.58089 33.8027C9.60119 33.785 9.62731 33.7753 9.6544 33.7752H15.6976C15.7197 33.7752 15.7408 33.7664 15.7564 33.7508C15.772 33.7352 15.7808 33.7141 15.7808 33.692V31.0974C15.7808 31.0808 15.7742 31.065 15.7625 31.0533C15.7508 31.0416 15.7349 31.035 15.7184 31.035H7.4256C7.40062 31.0351 7.37652 31.044 7.35772 31.0602C7.33891 31.0763 7.32666 31.0986 7.3232 31.1229L6.0128 40.0851C6.00922 40.1102 6.01448 40.1356 6.02766 40.157C6.04084 40.1783 6.06108 40.1942 6.0848 40.2018L8.3296 40.9308C8.37768 40.9462 8.42944 40.9422 8.4736 40.9197C9.43253 40.4464 10.4341 40.2349 11.4784 40.285C13.4912 40.3809 13.52 42.2785 13.544 43.7797C13.5696 45.3432 13.656 47.4806 11.648 47.7844C10.1296 48.013 8.8768 47.3719 8.6736 45.7269C8.63627 45.4189 8.61547 45.2473 8.6112 45.2121C8.60809 45.1886 8.59678 45.167 8.57941 45.1514C8.56203 45.1358 8.53977 45.1273 8.5168 45.1274H5.7664C5.75097 45.1274 5.73615 45.1334 5.7251 45.1441C5.71404 45.1549 5.70762 45.1695 5.7072 45.1849C5.6336 48.0929 7.592 50.2016 10.4864 50.4126C13.1456 50.6077 15.5328 49.479 16.216 46.7452C16.344 46.2337 16.4165 45.6288 16.4336 44.9307C16.4667 43.6369 16.4421 42.6116 16.36 41.8549C16.1536 39.9573 15.1648 38.3298 13.2688 37.8646C11.8373 37.515 10.4144 37.6456 9 38.2563C8.9895 38.2607 8.97803 38.2622 8.96675 38.2607C8.95547 38.2592 8.94479 38.2547 8.93583 38.2477C8.92686 38.2407 8.91993 38.2314 8.91574 38.2208C8.91155 38.2102 8.91026 38.1987 8.912 38.1875ZM0.0464 55.5747C0.0517333 55.6174 0.0554667 55.6398 0.0576 55.6419C0.0591929 55.6438 0.0612899 55.6451 0.0636408 55.6458C0.0659917 55.6466 0.0684973 55.6466 0.0708586 55.6459C0.0732199 55.6452 0.0753373 55.6439 0.0769582 55.642C0.0785791 55.6402 0.079635 55.6379 0.08 55.6355C0.0853333 55.5993 0.0837333 55.5753 0.0752 55.5636C0.073116 55.5607 0.0701552 55.5587 0.0667759 55.5577C0.0633967 55.5567 0.0597876 55.5569 0.0565075 55.5581C0.0532275 55.5594 0.0504595 55.5617 0.0486322 55.5647C0.046805 55.5677 0.0460204 55.5713 0.0464 55.5747ZM0.1008 55.9201C0.108267 55.8764 0.110933 55.8503 0.1088 55.8417C0.105885 55.8329 0.100115 55.8254 0.0923906 55.8205C0.0846664 55.8155 0.075423 55.8133 0.0661034 55.8142C0.0567838 55.8151 0.0479125 55.8191 0.0408746 55.8255C0.0338367 55.8319 0.0290282 55.8405 0.0272 55.8497C0.0261333 55.8593 0.032 55.8844 0.0448 55.9249C0.0467713 55.9311 0.0508087 55.9365 0.0562474 55.9401C0.0616861 55.9437 0.0682018 55.9454 0.0747216 55.9449C0.0812413 55.9443 0.0873764 55.9415 0.0921166 55.937C0.0968567 55.9325 0.0999193 55.9265 0.1008 55.9201Z" fill="black"/>
<path d="M24.1184 33.5178H23.9168C22.5383 33.5178 21.4208 34.6344 21.4208 36.0118V45.3321C21.4208 46.7094 22.5383 47.826 23.9168 47.826H24.1184C25.4969 47.826 26.6144 46.7094 26.6144 45.3321V36.0118C26.6144 34.6344 25.4969 33.5178 24.1184 33.5178Z" fill="black"/>
</svg>
