<svg width="340" height="64" viewBox="0 0 340 64" fill="none" xmlns="http://www.w3.org/2000/svg">
<path d="M22.073 28.2543C22.073 28.6525 21.7063 28.785 21.1396 28.785H16.5065C15.9397 28.785 15.573 28.6855 15.573 28.2874C15.573 27.9555 15.8063 27.8229 16.1065 27.6569C16.5065 27.4247 16.9065 27.1262 17.1064 26.7943C17.3731 26.3298 17.5397 25.7658 17.5397 23.4432V17.2719C17.5397 17.0728 17.4397 16.94 17.1731 16.94H5.07321C4.8065 16.94 4.73979 17.0395 4.73979 17.2385V23.4432C4.73979 25.7658 4.9065 26.3298 5.1732 26.7943C5.3732 27.1262 5.73989 27.4247 6.17314 27.6569C6.40657 27.7897 6.70655 27.9555 6.70655 28.2874C6.70655 28.6855 6.33986 28.785 5.77316 28.785H1.13984C0.573154 28.785 0.206613 28.6525 0.206613 28.2543C0.206613 27.9555 0.506595 27.8229 0.773142 27.6569C1.20655 27.4247 1.50654 27.1262 1.73981 26.7943C2.03979 26.3298 2.17323 25.7658 2.17323 23.4432V10.0719C2.17323 7.4507 2.03979 6.88662 1.37327 6.45536C0.87314 6.12347 0.37317 6.05723 0.37317 5.62582C0.406608 5.22768 0.70659 5.09502 1.20657 5.09502H5.70646C6.23986 5.09502 6.57313 5.22768 6.57313 5.62582C6.57313 6.05723 6.07315 6.12347 5.57318 6.45536C4.87322 6.88662 4.7398 7.4507 4.7398 10.0719V15.2479C4.7398 15.5134 4.83979 15.5797 5.13977 15.5797H17.2397C17.4731 15.5797 17.5397 15.5134 17.5397 15.281V10.0719C17.5397 7.4507 17.4064 6.88662 16.7065 6.45536C16.2065 6.12347 15.7063 6.05723 15.7063 5.62582C15.7397 5.22768 16.073 5.09502 16.5731 5.09502H21.0731C21.573 5.09502 21.873 5.22768 21.9063 5.62582C21.9063 6.05723 21.4063 6.12347 20.9064 6.45536C20.2397 6.88662 20.1064 7.4507 20.1064 10.0719V23.4432C20.1064 25.7658 20.2397 26.3298 20.5397 26.7943C20.7731 27.1262 21.0731 27.4247 21.5063 27.6569C21.773 27.8229 22.073 27.9555 22.073 28.2543ZM39.9071 27.4247C39.9071 28.1879 38.9405 29.1501 37.8071 29.1501C36.8072 29.1501 35.8071 28.4865 35.6071 26.4625C35.6071 26.3961 35.6071 26.3298 35.5406 26.3298C35.5071 26.3298 35.4738 26.363 35.4071 26.4625C34.3071 28.2543 32.2072 29.1501 30.1405 29.1501C27.5072 29.1501 24.9739 27.5906 24.9739 24.9031C24.9739 23.609 25.6407 22.3482 26.9406 21.4525C28.7406 20.1915 30.7739 19.9262 32.7071 19.0303C34.7071 18.1013 35.5071 16.8405 35.5071 15.4801C35.5071 13.8543 34.4738 12.4608 32.4739 12.4608C31.3738 12.4608 30.5405 12.7925 29.8073 13.3899C28.6071 14.3519 28.1072 15.5465 27.7072 16.0773C27.5405 16.3427 27.3405 16.575 27.0073 16.575C26.2739 16.575 26.2739 15.7125 26.2739 15.1151C26.2739 14.2857 26.4406 13.1907 26.8073 12.693C27.2738 12.1289 28.2404 11.6977 29.3072 11.4322C30.1405 11.2 31.1404 11.1005 32.0406 11.1005C34.4071 11.1005 35.8071 11.8967 36.7405 12.9253C38.0403 14.3852 38.1072 16.3759 38.1072 18.0681C38.1072 19.8599 38.0071 21.8174 38.0071 23.775C38.0071 25.2681 38.0071 26.9933 38.9405 26.9933C39.0738 26.9933 39.3072 26.9271 39.4405 26.9271C39.8737 26.9271 39.9071 27.2921 39.9071 27.4247ZM35.5071 19.1962C35.5071 19.1298 35.4738 19.0634 35.4071 19.0634C35.3739 19.0634 35.3406 19.0634 35.2739 19.1298C33.9404 20.2247 31.4404 20.8552 29.6406 21.9833C28.374 22.7797 27.8405 23.8745 27.8405 24.9362C27.8405 26.6285 29.1072 27.6902 30.7405 27.6902C32.1739 27.6902 33.8072 26.8938 34.7071 25.0358C35.4738 23.4432 35.5071 21.7841 35.5071 19.6939V19.1962ZM49.1412 28.221C49.1412 28.6525 48.8078 28.785 48.3745 28.785H43.4077C42.9745 28.785 42.6411 28.6525 42.6411 28.221C42.6411 28.0219 42.7745 27.856 43.1412 27.6569C43.4412 27.4911 43.8744 27.2587 44.1078 26.8607C44.4411 26.363 44.6079 25.6329 44.6079 23.3104V8.6451C44.6079 7.71617 44.5743 7.18522 44.2744 6.82022C44.0411 6.55489 43.6411 6.38896 43.2412 6.28943C42.7078 6.15677 42.4745 5.99082 42.4745 5.69223C42.4745 5.39362 42.5745 5.19456 43.3744 4.99549C44.5078 4.73002 45.041 4.56407 46.0078 4.16594C46.2412 4.06641 46.4077 4 46.5744 4C47.0078 4 47.1744 4.33188 47.1744 4.79627V23.3104C47.1744 25.6329 47.3743 26.3961 47.6743 26.8607C47.941 27.2587 48.3411 27.4911 48.6411 27.6569C49.041 27.8893 49.1412 28.0219 49.1412 28.221ZM59.3743 29.1832C57.0077 29.1832 54.8745 28.1879 53.4743 26.2634C52.4077 24.8035 51.9745 23.1113 51.9745 21.0874C51.9745 18.1013 53.1411 14.7502 55.8077 12.7594C57.3745 11.565 59.0076 11.1005 60.9077 11.1005C62.1078 11.1005 64.0411 11.4322 64.8742 12.2949C65.3744 12.7925 65.4744 13.7547 65.4744 14.5512C65.4744 15.9115 65.2744 16.4423 64.6742 16.4423C63.8742 16.4423 63.8411 15.4801 63.1408 14.4848C62.3743 13.3899 61.2744 12.6599 59.7743 12.6599C58.3411 12.6599 57.141 13.423 56.3743 14.3519C55.0077 15.9777 54.6078 18.035 54.6078 20.2247C54.6078 21.9169 55.041 23.5759 55.7077 24.6707C56.7743 26.4294 58.5411 27.1923 60.241 27.1923C62.1409 27.1923 63.5742 26.2303 64.4741 25.2349C64.7742 24.9031 65.0076 24.6376 65.3744 24.6376C65.741 24.6376 65.941 24.9362 65.941 25.2349C65.941 25.4672 65.8075 25.7325 65.641 25.9979C64.5077 27.8229 62.1077 29.1832 59.3743 29.1832ZM84.908 12.693C84.2747 13.1244 83.9746 13.423 83.508 14.0866C83.1412 14.5843 82.7081 15.4801 82.3413 16.3096C81.6082 17.9022 78.6081 25.1686 77.4416 27.9555C76.4413 30.3445 75.1748 33.0984 73.0415 34.4255C72.2081 34.9565 71.3082 35.1887 70.6417 35.1887C69.2083 35.1887 68.3415 34.3592 68.3415 32.8994C68.3415 32.2025 68.6415 31.6053 69.3414 31.6053C70.1748 31.6053 70.5747 32.8661 71.8416 32.8661C72.575 32.8661 73.2415 32.3021 73.7749 31.6717C74.3749 30.975 75.0414 29.8469 75.3414 29.0837C75.4082 28.9177 75.4414 28.8182 75.4414 28.7519C75.4414 28.6855 75.4082 28.5861 75.3748 28.4865L70.7082 16.3096C70.1748 14.9824 69.7414 13.7216 69.1414 13.1244C68.8415 12.8258 68.5415 12.693 68.2414 12.5272C67.9414 12.3613 67.775 12.2617 67.775 11.9963C67.775 11.5981 68.0749 11.4655 68.7415 11.4655H73.508C74.008 11.4655 74.2414 11.6645 74.2414 11.9963C74.2414 12.7263 72.7749 12.4939 72.7749 13.8876C72.7749 14.3519 72.9081 15.0488 73.3749 16.2763C74.0748 18.1677 76.5413 24.4055 76.8417 25.1686C76.8747 25.2681 76.9081 25.2681 76.9415 25.2681C77.0081 25.2681 77.0415 25.2349 77.0747 25.1686C77.3081 24.5712 78.5081 21.6184 79.608 18.6984C80.4414 16.4754 81.0079 15.1151 81.0079 14.2193C81.0079 12.5272 79.408 12.7594 79.408 11.9963C79.408 11.5981 79.7414 11.4655 80.2748 11.4655H84.6415C85.308 11.4655 85.5748 11.5981 85.5748 11.9631C85.5748 12.3613 85.308 12.4277 84.908 12.693ZM102.942 20.0257C102.942 25.0026 99.6084 29.1501 94.7419 29.1501C89.7418 29.1501 86.4751 25.6663 86.4751 20.2247C86.4751 15.2479 89.8418 11.1005 94.7419 11.1005C100.075 11.1005 102.942 15.082 102.942 20.0257ZM96.6751 13.058C96.0083 12.693 95.2418 12.4277 94.4084 12.4277C93.475 12.4277 92.6085 12.693 91.8416 13.1575C90.2418 14.1862 89.1753 16.1437 89.1753 19.0303C89.1753 23.5427 91.4086 27.7565 95.0753 27.7565C96.7417 27.7565 98.0751 26.9602 98.975 25.6994C99.8084 24.505 100.275 22.8458 100.275 21.0211C100.275 17.7363 99.075 14.3852 96.6751 13.058ZM122.909 28.221C122.909 28.6525 122.51 28.785 122.076 28.785H117.142C116.709 28.785 116.343 28.6525 116.343 28.221C116.343 27.9888 116.476 27.7897 116.842 27.6238C117.142 27.4911 117.576 27.2587 117.809 26.8607C118.109 26.363 118.343 25.5999 118.343 23.3104V17.6699C118.343 14.8165 117.009 13.224 114.476 13.224C113.409 13.224 112.276 13.589 111.443 14.4184C110.109 15.7456 109.843 17.5704 109.843 23.3104C109.843 25.5999 110.076 26.363 110.376 26.8607C110.609 27.2587 111.076 27.4911 111.343 27.6238C111.709 27.7897 111.843 27.9888 111.843 28.221C111.843 28.6525 111.509 28.785 111.043 28.785H106.143C105.743 28.785 105.343 28.6525 105.343 28.221C105.343 27.9888 105.476 27.7897 105.843 27.6238C106.143 27.4911 106.609 27.2587 106.843 26.8607C107.143 26.363 107.376 25.5999 107.376 23.3104V16.8073C107.376 15.1815 107.376 14.3852 106.976 13.8876C106.743 13.589 106.409 13.4894 105.909 13.3566C105.543 13.2571 105.209 13.1575 105.209 12.7594C105.209 12.4277 105.343 12.2285 106.043 12.0627C107.076 11.8303 107.843 11.565 108.609 11.2331C108.843 11.1336 109.009 11.1005 109.176 11.1005C109.643 11.1005 109.843 11.4322 109.843 11.8636V14.0202C109.843 14.0866 109.843 14.1862 109.909 14.1862C109.976 14.1862 110.009 14.1197 110.076 14.0202C111.043 12.5935 112.809 11.1005 115.476 11.1005C117.21 11.1005 118.576 11.7308 119.51 12.7594C120.709 14.0533 120.909 16.0111 120.909 17.6035V23.3104C120.909 25.5999 121.109 26.363 121.409 26.8607C121.643 27.2587 122.076 27.4911 122.375 27.6238C122.743 27.7897 122.909 27.9888 122.909 28.221ZM16.431 39.9648C16.0473 39.9648 15.7683 39.8608 15.4892 39.1315C15.0009 37.9507 14.8613 36.9785 13.6752 36.145C12.489 35.3464 10.2564 35.277 7.36093 35.277H5.40726C4.91895 35.277 4.74452 35.4854 4.74452 35.9021V45.1735C4.74452 45.6944 4.88395 45.8681 5.47713 45.8681C6.34916 45.8681 7.57022 45.8681 9.03544 45.7986C10.6749 45.7291 12.0705 45.5555 13.082 45.5555C13.71 45.5555 14.0939 45.6598 14.0939 46.1458C14.0939 46.3543 14.0239 46.5279 13.989 46.6667C13.7449 47.6391 13.5705 47.7085 12.3845 47.7085C11.4774 47.7085 10.0471 47.5696 8.72141 47.5349C7.39578 47.5001 5.89572 47.5001 5.16311 47.5001C4.84909 47.5349 4.74452 47.6391 4.74452 47.9168V53.0561C4.74452 55.4869 4.91895 56.0771 5.19797 56.5633C5.44212 56.9106 5.75614 57.2231 6.24459 57.4662C6.48874 57.6399 6.80277 57.7786 6.80277 58.0912C6.80277 58.5079 6.41903 58.6469 5.82584 58.6469H0.976758C0.383732 58.6469 0 58.5079 0 58.0912C0 57.7786 0.31402 57.6399 0.593027 57.4662C1.04663 57.2231 1.36049 56.9106 1.6048 56.5633C1.91866 56.0771 2.05824 55.4869 2.05824 53.0561V38.541C2.05824 36.284 2.02338 35.7631 1.11634 35.277C0.732606 35.0338 0.174435 34.9297 0.174435 34.4435C0.174435 34.0616 0.488456 33.8533 1.04663 33.8533H10.0122C13.3612 33.8533 14.8962 33.5755 15.7683 33.5755C16.3962 33.5755 16.9544 33.8185 16.9893 34.5131C17.0591 35.5547 17.094 37.6384 17.1637 38.8883C17.1637 39.6871 16.8847 39.9648 16.431 39.9648ZM37.1875 58.0218C35.8966 58.2995 35.4432 58.4731 34.606 58.8551C34.3269 58.9941 34.0478 59.0634 33.8735 59.0634C33.3501 59.0634 33.1756 58.6815 33.1756 58.1954V55.9382C33.1756 55.8688 33.1408 55.8342 33.1058 55.8342C33.0709 55.8342 33.0361 55.8342 32.9664 55.9382C31.8501 57.6745 29.8267 59.0288 27.28 59.0288C25.5357 59.0288 24.0706 58.5079 23.0587 57.2926C22.0471 56.0771 21.6983 54.4799 21.6983 52.188V45.4514C21.6983 44.2013 21.6634 43.5415 21.3146 43.0901C21.0704 42.7775 20.6866 42.6734 20.1982 42.5345C19.8145 42.4303 19.4656 42.2914 19.4656 41.9095C19.4656 41.5623 19.6052 41.2843 20.3029 41.1456C21.489 40.9024 22.0123 40.6941 22.9542 40.3121C23.2332 40.2079 23.4776 40.1731 23.6169 40.1731C24.1403 40.1731 24.3147 40.5551 24.3147 41.0066V52.2226C24.3147 54.827 25.3961 56.8758 28.2218 56.8758C29.3731 56.8758 30.5941 56.4591 31.4314 55.6258C32.7919 54.2714 33.1757 52.2575 33.1757 46.3194C33.1757 44.6527 33.1757 43.611 32.7919 43.0901C32.5476 42.7775 32.1639 42.6734 31.6756 42.5345C31.3268 42.4303 30.9431 42.2914 30.9431 41.8746C30.9431 41.5275 31.1175 41.2843 31.7802 41.1456C32.9664 40.9024 33.5595 40.6593 34.4316 40.3121C34.7106 40.2079 34.8851 40.1731 35.0595 40.1731C35.5828 40.1731 35.7921 40.5205 35.7921 41.0066V53.7506C35.7921 55.0007 35.8269 55.6605 36.1759 56.1119C36.4199 56.4245 36.8736 56.5633 37.2922 56.6674C37.6759 56.7717 38.0248 56.9106 38.0248 57.2926C38.0248 57.605 37.92 57.8482 37.1875 58.0218ZM52.397 55.6605C52.397 55.9035 52.2575 56.1814 52.118 56.4245C51.3854 57.605 49.7457 59.0288 47.3386 59.0288C45.4547 59.0288 44.2687 58.0565 43.7106 57.119C43.0825 56.0425 42.943 54.6534 42.943 53.1255C42.943 50.2086 43.1523 46.9098 43.1523 43.1943C43.1523 42.9512 43.0476 42.8122 42.8035 42.8122H40.6405C40.3615 42.8122 40.2568 42.7081 40.2568 42.4651V41.4927C40.2568 41.3191 40.3266 41.215 40.5359 41.1456C41.722 40.7634 42.3849 40.3815 42.8035 39.8954C43.3617 39.2357 43.4662 38.3674 43.8152 36.7008C43.85 36.4923 43.9547 36.3535 44.1989 36.3535H45.3502C45.5943 36.3535 45.6989 36.4923 45.6989 36.7008V40.4163C45.6989 40.9371 45.8733 41.1107 46.4666 41.1107C46.9549 41.1107 47.4433 41.1107 48.3153 41.076C49.2224 41.0414 50.3038 40.9024 51.0364 40.9024C51.5249 40.9024 52.0132 40.9371 52.0132 41.4579C52.0132 41.6663 51.9435 41.7705 51.9087 41.9789C51.7342 42.8122 51.3854 42.9858 50.4434 42.9858C49.8155 42.9858 48.9783 42.8817 48.0363 42.8471C47.2689 42.8122 46.7804 42.8122 46.1177 42.8122C45.8386 42.8122 45.6989 42.9858 45.6989 43.2638C45.664 43.8541 45.6292 46.9793 45.6292 49.3406C45.6292 52.0144 45.6989 53.959 46.1177 55.0702C46.5711 56.2855 47.513 56.7023 48.455 56.7023C50.3737 56.7023 51.211 55.1743 51.8388 55.1743C52.2924 55.1743 52.397 55.5216 52.397 55.6605ZM73.1559 58.0218C71.8651 58.2995 71.4115 58.4731 70.5744 58.8551C70.2951 58.9941 70.016 59.0634 69.8416 59.0634C69.3183 59.0634 69.1438 58.6815 69.1438 58.1954V55.9382C69.1438 55.8688 69.1091 55.8342 69.0741 55.8342C69.0394 55.8342 69.0044 55.8342 68.9347 55.9382C67.8184 57.6745 65.7947 59.0288 63.2483 59.0288C61.5042 59.0288 60.039 58.5079 59.0272 57.2926C58.0156 56.0771 57.6668 54.4799 57.6668 52.188V45.4514C57.6668 44.2013 57.6319 43.5415 57.283 43.0901C57.0389 42.7775 56.6551 42.6734 56.1666 42.5345C55.7829 42.4303 55.4341 42.2914 55.4341 41.9095C55.4341 41.5623 55.5736 41.2843 56.2714 41.1456C57.4575 40.9024 57.9808 40.6941 58.9226 40.3121C59.2016 40.2079 59.4459 40.1731 59.5853 40.1731C60.1087 40.1731 60.2832 40.5551 60.2832 41.0066V52.2226C60.2832 54.827 61.3646 56.8758 64.1902 56.8758C65.3416 56.8758 66.5623 56.4591 67.3997 55.6258C68.7603 54.2714 69.1438 52.2575 69.1438 46.3194C69.1438 44.6527 69.1438 43.611 68.7603 43.0901C68.5161 42.7775 68.1323 42.6734 67.644 42.5345C67.295 42.4303 66.9111 42.2914 66.9111 41.8746C66.9111 41.5275 67.0856 41.2843 67.7487 41.1456C68.9347 40.9024 69.5277 40.6593 70.3999 40.3121C70.6791 40.2079 70.8535 40.1731 71.0277 40.1731C71.551 40.1731 71.7604 40.5205 71.7604 41.0066V53.7506C71.7604 55.0007 71.7954 55.6605 72.144 56.1119C72.3884 56.4245 72.8417 56.5633 73.2604 56.6674C73.6442 56.7717 73.9931 56.9106 73.9931 57.2926C73.9931 57.605 73.8883 57.8482 73.1559 58.0218ZM88.9428 42.1526C88.9428 42.8471 88.6986 43.5415 87.9662 43.5415C87.094 43.5415 86.8498 42.8122 85.8032 42.8122C85.0704 42.8122 84.1986 43.1943 83.4658 44.3749C82.4892 45.9723 82.3148 47.8127 82.3148 52.9519C82.3148 55.3479 82.559 56.1465 82.8377 56.6327C83.0823 57.0494 83.6055 57.2926 83.8497 57.4313C84.2683 57.6399 84.373 57.8482 84.373 58.0912C84.373 58.5079 84.0241 58.6469 83.5705 58.6469H78.4074C77.9889 58.6469 77.6049 58.5079 77.6049 58.0912C77.6049 57.8482 77.7447 57.6399 78.1283 57.4313C78.4772 57.2577 78.9307 57.0147 79.2099 56.4938C79.4891 55.973 79.6982 55.3479 79.6982 52.9519C79.6982 50.4518 79.6632 46.3889 79.6632 46.0763C79.6632 44.4096 79.5587 43.5415 79.1749 43.1248C78.861 42.7775 78.5819 42.7081 78.0936 42.5345C77.7793 42.4303 77.3261 42.2568 77.3261 41.8746C77.3261 41.4927 77.4656 41.2843 78.1983 41.1107C79.1749 40.9024 79.5934 40.7634 80.5007 40.3815C80.8843 40.2079 81.0937 40.1731 81.3028 40.1731C81.8261 40.1731 82.0006 40.4857 82.0006 41.0066V43.8193C82.0006 43.8887 82.0356 43.9234 82.0703 43.9234C82.1053 43.9234 82.1404 43.8541 82.175 43.7846C82.8377 42.4998 84.7915 40.1384 86.9545 40.1384C88.4895 40.1384 88.9428 41.2496 88.9428 42.1526ZM105.84 54.8966C105.84 55.6258 104.794 56.737 103.398 57.6745C102.073 58.5425 100.398 59.0288 98.7236 59.0288C94.0491 59.0288 90.4556 55.4521 90.4556 50.0698C90.4556 44.9653 93.9444 40.1385 99.282 40.1385C101.27 40.1385 103.05 40.8677 104.271 42.0482C105.387 43.1594 106.224 44.7569 106.224 46.4237C106.224 48.1947 105.561 48.9239 103.538 48.9239H93.6652C93.421 48.9239 93.2816 48.9934 93.2816 49.2711C93.2816 51.0421 93.5955 52.9519 94.6422 54.445C95.6887 55.973 97.2237 57.119 99.3517 57.119C100.642 57.119 101.793 56.7023 102.561 56.2507C104.096 55.3479 104.515 54.2021 105.177 54.2021C105.561 54.2021 105.84 54.5146 105.84 54.8966ZM93.8396 47.5349H100.084C102.212 47.5349 103.294 47.1182 103.294 45.3125C103.294 43.5763 101.793 41.5275 99.0028 41.5275C95.1304 41.5275 93.5259 45.7291 93.5259 47.2223C93.5259 47.4655 93.6306 47.5349 93.8396 47.5349ZM111.91 54.827C113.2 56.841 114.875 57.5703 116.445 57.5703C118.433 57.5703 120.247 56.355 120.247 54.3063C120.247 51.8407 117.666 51.0768 115.119 50.3475C112.642 49.6183 110.061 48.4031 110.061 45.4514C110.061 42.0482 113.34 40.1385 116.899 40.1385C118.503 40.1385 120.073 40.5898 120.77 41.1456C121.504 41.7359 121.747 42.7775 121.747 43.8193C121.747 44.9999 121.503 45.6944 120.806 45.6944C120.457 45.6944 120.247 45.5208 120.003 45.1041C119.375 44.0623 118.468 41.6663 115.677 41.6663C113.898 41.6663 112.538 42.8817 112.538 44.5486C112.538 47.0139 115.085 47.4306 117.178 48.0905C119.933 48.9586 122.654 50.0698 122.654 53.3687C122.654 55.0702 121.747 56.8758 119.933 57.9522C118.607 58.7162 117.108 59.0288 115.677 59.0288C113.27 59.0288 111.037 58.1954 110.2 57.2926C109.607 56.5981 109.293 55.3133 109.293 53.9937C109.293 53.2992 109.433 52.6742 110.061 52.6742C110.724 52.6742 110.898 53.2297 111.91 54.827Z" fill="#13132E"/>
</svg>
