<svg width="340" height="64" viewBox="0 0 340 64" fill="none" xmlns="http://www.w3.org/2000/svg">
<g clip-path="url(#clip0_1941_2984)">
<path d="M60.9763 49.8411H49.7754V14H60.9763V49.8411Z" fill="#13132E"/>
<path d="M63.4365 49.8411V14H90.0777V23.4765H74.4279V29.1411H87.2514V38.3529H74.4279V49.7882H63.4365V49.8411Z" fill="#13132E"/>
<path d="M103.268 49.8411H92.0669V14H108.188C117.243 14 122.844 18.3941 122.844 26.7589C122.844 35.1235 117.243 39.5176 108.188 39.5176H103.268V49.8411ZM107.612 30.2C110.543 30.2 111.799 28.8765 111.799 26.8118C111.799 24.7471 110.491 23.4235 107.612 23.4235H103.268V30.2H107.612Z" fill="#13132E"/>
<path d="M35.1726 14.2119H-0.209473V14.2649H35.1726V14.2119Z" fill="#13132E"/>
<path d="M30.305 50.0528H35.225V14.2646H-0.209473V19.2941H30.305V50.0528Z" fill="#13132E"/>
<path d="M22.9773 50.0519H27.3216V22.2578H-0.209473V26.6519H22.9773V50.0519Z" fill="#13132E"/>
<path d="M16.2778 50.0526H20.0462V29.6172H-0.209473V33.429H16.2778V50.0526Z" fill="#13132E"/>
<path d="M10.2063 50.0524H13.3467V36.3936H-0.209473V39.5701H10.2063V50.0524Z" fill="#13132E"/>
<path d="M4.71053 50.0528H7.22287V42.5352H-0.209473V45.1293H4.71053V50.0528Z" fill="#13132E"/>
<path d="M-0.157133 50.0526H1.72712V48.0938H-0.209473V50.0526H-0.157133Z" fill="#13132E"/>
</g>
<defs>
<clipPath id="clip0_1941_2984">
<rect width="123" height="36" fill="white" transform="translate(0 14)"/>
</clipPath>
</defs>
</svg>
