<svg width="340" height="64" viewBox="0 0 340 64" fill="none" xmlns="http://www.w3.org/2000/svg">
<g clip-path="url(#clip0_1941_2853)">
<path d="M39.387 51.0933H0V12.9062H39.387V51.0933ZM22.219 21.1593L25.448 42.8293H34.161L23.589 21.1593H22.219ZM15.809 21.1593L5.237 42.8293H13.951L17.18 21.1593H15.809ZM19.232 21.1593L16.657 38.4902H22.685L20.116 21.1593H19.232Z" fill="#13132E"/>
<path d="M58.0352 40.6856C56.6082 40.6856 55.3832 40.4446 54.3592 39.9626C53.3522 39.4806 52.4372 38.7586 51.6152 37.7946L53.8812 35.5516C54.4012 36.2326 55.0052 36.7646 55.6932 37.1466C56.3822 37.5126 57.2212 37.6946 58.2112 37.6946C59.1012 37.6946 59.8062 37.5206 60.3262 37.1716C60.8642 36.8226 61.1322 36.3406 61.1322 35.7266C61.1322 35.1946 60.9812 34.7626 60.6792 34.4306C60.3772 34.0986 59.9742 33.8156 59.4702 33.5836C58.9832 33.3506 58.4382 33.1436 57.8342 32.9606C57.2312 32.7556 56.6342 32.5306 56.0462 32.2876C55.4672 32.0426 54.9182 31.7336 54.4092 31.3656C53.9232 30.9836 53.5282 30.5016 53.2262 29.9206C52.9242 29.3216 52.7732 28.5746 52.7732 27.6776C52.7732 26.6146 53.0332 25.7086 53.5532 24.9616C54.0742 24.2136 54.7872 23.6406 55.6932 23.2416C56.6002 22.8426 57.6242 22.6436 58.7652 22.6436C59.9742 22.6436 61.0652 22.8676 62.0382 23.3166C63.0122 23.7646 63.8092 24.3466 64.4302 25.0606L62.1642 27.3036C61.6442 26.7386 61.1072 26.3236 60.5532 26.0576C60.0162 25.7916 59.4032 25.6586 58.7152 25.6586C57.9262 25.6586 57.3052 25.8086 56.8522 26.1076C56.3982 26.4066 56.1722 26.8386 56.1722 27.4036C56.1722 27.8846 56.3232 28.2756 56.6252 28.5746C56.9272 28.8736 57.3222 29.1316 57.8082 29.3466C58.3462 29.5756 58.8922 29.7836 59.4452 29.9696C60.0502 30.1696 60.6472 30.3946 61.2332 30.6426C61.8372 30.8916 62.3832 31.2156 62.8692 31.6146C63.3732 32.0136 63.7762 32.5286 64.0782 33.1596C64.3802 33.7746 64.5312 34.5386 64.5312 35.4526C64.5312 37.0806 63.9522 38.3596 62.7942 39.2896C61.6362 40.2206 60.0492 40.6856 58.0352 40.6856ZM66.3522 40.4366V22.9176H69.7772V40.4366H66.3522ZM68.8702 40.4366V37.4456H78.6652V40.4366H68.8702ZM68.8702 32.9356V30.0446H77.7832V32.9356H68.8702ZM68.8702 25.9086V22.9176H78.5392V25.9086H68.8702ZM80.6182 40.4366V22.9176H84.0422V40.4366H80.6182ZM83.1352 40.4366V37.4206H92.1492V40.4366H83.1352ZM96.0692 40.4366V37.4206H100.576C101.717 37.4206 102.716 37.1886 103.572 36.7236C104.428 36.2416 105.091 35.5686 105.561 34.7046C106.048 33.8406 106.291 32.8186 106.291 31.6396C106.291 30.4936 106.048 29.4966 105.561 28.6496C105.074 27.7856 104.403 27.1206 103.547 26.6556C102.691 26.1736 101.7 25.9326 100.576 25.9326H95.9932V22.9176H100.626C101.935 22.9176 103.144 23.1336 104.252 23.5656C105.376 23.9976 106.35 24.6126 107.172 25.4096C108.012 26.1906 108.658 27.1126 109.111 28.1756C109.581 29.2386 109.816 30.4016 109.816 31.6646C109.816 32.9266 109.581 34.0986 109.111 35.1786C108.658 36.2416 108.02 37.1716 107.198 37.9696C106.375 38.7496 105.402 39.3566 104.277 39.7886C103.169 40.2206 101.969 40.4366 100.676 40.4366H96.0692ZM93.7272 40.4366V22.9176H97.1512V40.4366H93.7272ZM119.94 40.7106C118.647 40.7106 117.439 40.4776 116.314 40.0126C115.206 39.5476 114.233 38.9076 113.393 38.0936C112.571 37.2626 111.925 36.2996 111.455 35.2036C110.985 34.0896 110.75 32.9026 110.75 31.6396C110.75 30.3766 110.976 29.2056 111.429 28.1256C111.899 27.0296 112.546 26.0746 113.368 25.2606C114.207 24.4296 115.181 23.7896 116.289 23.3416C117.397 22.8766 118.597 22.6436 119.889 22.6436C121.199 22.6436 122.407 22.8766 123.515 23.3416C124.623 23.7896 125.588 24.4296 126.411 25.2606C127.25 26.0746 127.905 27.0296 128.374 28.1256C128.845 29.2226 129.079 30.4016 129.079 31.6646C129.079 32.9266 128.845 34.1066 128.374 35.2036C127.905 36.2996 127.25 37.2626 126.411 38.0936C125.588 38.9076 124.623 39.5476 123.515 40.0126C122.424 40.4776 121.232 40.7106 119.94 40.7106ZM119.889 37.5456C121.031 37.5456 122.021 37.2966 122.861 36.7976C123.7 36.2996 124.354 35.6096 124.824 34.7296C125.311 33.8496 125.554 32.8186 125.554 31.6396C125.554 30.7756 125.42 29.9866 125.152 29.2726C124.883 28.5576 124.497 27.9436 123.993 27.4286C123.49 26.8966 122.894 26.4896 122.206 26.2066C121.518 25.9246 120.746 25.7836 119.889 25.7836C118.782 25.7836 117.8 26.0326 116.943 26.5316C116.104 27.0126 115.441 27.6936 114.954 28.5746C114.484 29.4546 114.249 30.4766 114.249 31.6396C114.249 32.5206 114.384 33.3256 114.652 34.0566C114.938 34.7876 115.324 35.4106 115.811 35.9256C116.314 36.4406 116.91 36.8396 117.598 37.1216C118.303 37.4046 119.067 37.5456 119.889 37.5456ZM130.913 40.4366V22.9176H133.305L134.337 26.3066V40.4366H130.913ZM143.149 40.4366L132.65 26.9796L133.305 22.9176L143.804 36.3746L143.149 40.4366ZM143.149 40.4366L142.167 37.1466V22.9176H145.617V40.4366H143.149ZM152.362 40.4366V22.9176H155.786V40.4366H152.362ZM154.879 40.4366V37.4206H166.691L163.893 40.4366H154.879Z" fill="#13132E"/>
<path d="M163.647 40.435L170.773 22.917H173.568L180.668 40.435H177.017L171.528 26.057H172.787L167.223 40.435H163.647ZM167.424 37.171V34.33H176.941V37.171H167.424ZM184.395 40.435V37.669H189.002C189.825 37.669 190.462 37.42 190.916 36.922C191.386 36.423 191.621 35.834 191.621 35.152C191.621 34.687 191.521 34.264 191.319 33.882C191.118 33.5 190.816 33.2 190.412 32.985C190.027 32.752 189.556 32.636 189.002 32.636H184.395V29.894H188.626C189.33 29.894 189.893 29.72 190.312 29.371C190.749 29.022 190.966 28.499 190.966 27.801C190.966 27.087 190.749 26.555 190.312 26.206C189.893 25.857 189.33 25.683 188.626 25.683H184.395V22.917H189.028C190.203 22.917 191.186 23.133 191.975 23.565C192.779 23.98 193.383 24.537 193.787 25.234C194.189 25.916 194.391 26.663 194.391 27.477C194.391 28.474 194.081 29.338 193.459 30.069C192.855 30.783 191.966 31.315 190.79 31.664L190.942 30.567C192.251 30.933 193.257 31.539 193.963 32.386C194.685 33.217 195.046 34.222 195.046 35.402C195.046 36.332 194.811 37.179 194.341 37.943C193.887 38.691 193.216 39.297 192.327 39.763C191.453 40.211 190.388 40.435 189.128 40.435H184.395ZM181.878 40.435V22.917H185.277V40.435H181.878Z" fill="#13132E"/>
</g>
<defs>
<clipPath id="clip0_1941_2853">
<rect width="195.046" height="38.187" fill="white" transform="translate(0 12.9062)"/>
</clipPath>
</defs>
</svg>
